<svg id="구성_요소_3_1" data-name="구성 요소 3 – 1" xmlns="http://www.w3.org/2000/svg" width="71.744" height="116.73" viewBox="0 0 71.744 116.73">
  <g id="그룹_7152" data-name="그룹 7152" transform="translate(47.875 61.646)">
    <path id="패스_12531" data-name="패스 12531" d="M1080.867-35.333c5.39-.532,15.347-6.283,12.939-17.651-1.653-7.8,5.068-5.927,5.666.673,1.618,17.9-11.157,20.663-17.461,21.7S1075.475-34.8,1080.867-35.333Z" transform="translate(-1076.39 58.735)" fill="#fff"/>
    <path id="패스_12532" data-name="패스 12532" d="M1080.4-29.894a4.382,4.382,0,0,1-3.569-1.344,2.3,2.3,0,0,1-.3-2.388c.559-1.308,2.132-2.211,4.21-2.416a15.736,15.736,0,0,0,10.286-6.09,12.977,12.977,0,0,0,2.085-10.784c-.7-3.311.056-4.755.813-5.385a2.378,2.378,0,0,1,2.509-.268c1.585.658,3.319,2.81,3.619,6.133,1.733,19.149-12.6,21.51-18,22.4A10.18,10.18,0,0,1,1080.4-29.894Zm.464-4.861c-1.886.186-2.863.967-3.149,1.636a1.022,1.022,0,0,0,.132,1.084c.226.287,1.183,1.189,3.993.723,5.072-.835,18.545-3.054,16.921-21.006-.25-2.771-1.641-4.564-2.828-5.057a1.137,1.137,0,0,0-1.187.07c-.249.207-1.012,1.114-.374,4.122a14.409,14.409,0,0,1-2.306,11.816,17.123,17.123,0,0,1-11.2,6.613Zm-.064-.643h0Z" transform="translate(-1076.323 58.801)"/>
  </g>
  <g id="그룹_7153" data-name="그룹 7153" transform="translate(11.85 80.841)">
    <path id="패스_12571" data-name="패스 12571" d="M1076.477-30.708c.726,1.609,1.036,7.575-8.353,11.984,0,0,2.6,10.44,2.023,11.672s-5.811,6.507-10.837,4.1c-1.889-.9,1.725-4.025,1.725-4.025L1055.2-11.9s-10.759,5.421-13.963,5.421c-1.675,0-3.556-1.426-3.932-10.842-.156-3.892,5-4.959,6.07-.934a17.511,17.511,0,0,0,2.8-2.335s-4.5-7.4-4.995-14.133S1076.477-30.708,1076.477-30.708Z" transform="translate(-1036.659 37.568)" fill="#fff"/>
    <path id="패스_12572" data-name="패스 12572" d="M1061.974-1.743a6.9,6.9,0,0,1-3.008-.686,1.483,1.483,0,0,1-.9-1.169c-.156-1.168,1.121-2.626,1.928-3.418l-4.948-4.182c-1.987.985-10.866,5.3-13.87,5.3-2.848,0-4.26-3.535-4.577-11.463a3.81,3.81,0,0,1,3.2-4.113,3.586,3.586,0,0,1,3.851,2.184c.421-.348,1.053-.916,1.645-1.478-.989-1.726-4.389-8.035-4.824-13.973a2.125,2.125,0,0,1,.824-1.881c4.734-3.8,32.184,4.3,35.3,5.232a.646.646,0,0,1,.4.353c.833,1.845,1.064,8.05-8.188,12.606.845,3.437,2.432,10.356,1.856,11.59a12.189,12.189,0,0,1-5.886,4.583A8.317,8.317,0,0,1,1061.974-1.743Zm-6.837-10.869a.641.641,0,0,1,.417.153l5.832,4.927a.644.644,0,0,1,.229.491.646.646,0,0,1-.224.492c-1.046.906-2.118,2.238-2.044,2.779,0,.035.012.1.176.173a6.08,6.08,0,0,0,4.823.12,11.109,11.109,0,0,0,5.15-3.913c.256-.794-.847-6.344-2.065-11.243a.645.645,0,0,1,.352-.741c9.127-4.286,8.417-9.656,8.114-10.878-8.527-2.54-30.271-8.184-33.79-5.363a.841.841,0,0,0-.344.779c.474,6.5,4.858,13.771,4.9,13.843a.648.648,0,0,1-.1.8c-2.454,2.395-2.976,2.482-3.147,2.51a.646.646,0,0,1-.732-.472,2.412,2.412,0,0,0-2.692-2.042,2.552,2.552,0,0,0-2.106,2.784c.41,10.222,2.574,10.222,3.286,10.222,2.5,0,10.718-3.863,13.673-5.352A.644.644,0,0,1,1055.137-12.612Z" transform="translate(-1036.593 37.632)"/>
  </g>
  <g id="그룹_7154" data-name="그룹 7154" transform="translate(17.923 99.505)">
    <path id="패스_12573" data-name="패스 12573" d="M1044.347-12.11a.761.761,0,0,1-.078,0,.647.647,0,0,1-.565-.719,7.35,7.35,0,0,0-.364-3.322.645.645,0,0,1,.351-.843.646.646,0,0,1,.844.352,8.63,8.63,0,0,1,.453,3.967A.646.646,0,0,1,1044.347-12.11Z" transform="translate(-1043.29 17.048)"/>
  </g>
  <g id="그룹_7155" data-name="그룹 7155" transform="translate(29.666 99.09)">
    <line id="선_17" data-name="선 17" y1="6.77" x2="12.95" transform="translate(0.647 0.647)" fill="#d27eb6"/>
    <path id="패스_12574" data-name="패스 12574" d="M1056.889-9.443a.648.648,0,0,1-.574-.346.646.646,0,0,1,.274-.872l12.95-6.771a.646.646,0,0,1,.872.274.646.646,0,0,1-.274.872l-12.95,6.77A.632.632,0,0,1,1056.889-9.443Z" transform="translate(-1056.241 17.506)"/>
  </g>
  <g id="그룹_7156" data-name="그룹 7156" transform="translate(20.725 91.879)">
    <line id="선_18" data-name="선 18" y1="5.292" x2="6.069" transform="translate(0.646 0.647)" fill="#896651"/>
    <path id="패스_12575" data-name="패스 12575" d="M1047.026-18.874a.644.644,0,0,1-.487-.222.647.647,0,0,1,.062-.912l6.068-5.291a.646.646,0,0,1,.913.063.647.647,0,0,1-.062.912l-6.069,5.291A.649.649,0,0,1,1047.026-18.874Z" transform="translate(-1046.38 25.459)"/>
  </g>
  <g id="그룹_7157" data-name="그룹 7157" transform="translate(8.169 56.877)">
    <path id="패스_12576" data-name="패스 12576" d="M1076.929-51.224c-1.09-8.249-4.633-11.247-4.67-11.362l-27.729-.76c-.047.144-4.513,1.479-11.284,13.7,0,0,5.916,4.773,6.777,5.538l.008-.051c-.014,2.672.375,9.642,2.035,12.7a214.417,214.417,0,0,0,34.084-1.713,54.466,54.466,0,0,0-.622-10.427S1077.669-45.613,1076.929-51.224Z" transform="translate(-1032.6 63.994)" fill="#ff6464"/>
    <path id="패스_12577" data-name="패스 12577" d="M1047.823-30.782c-3.624,0-5.8-.094-5.855-.1a.644.644,0,0,1-.538-.337c-1.692-3.119-2.092-9.874-2.113-12.657-1.329-1.129-6.49-5.294-6.544-5.339a.646.646,0,0,1-.161-.816c3.969-7.161,8.014-12.083,11.391-13.859l.06-.033a.573.573,0,0,1,.416-.137l27.729.76a.645.645,0,0,1,.5.258c1.454,1.535,3.911,4.992,4.793,11.664h0c.632,4.786-.764,7.144-1.355,7.9a55.78,55.78,0,0,1,.58,10.258.647.647,0,0,1-.561.617A221.05,221.05,0,0,1,1047.823-30.782Zm-5.419-1.375a217.854,217.854,0,0,0,33.048-1.65,54.221,54.221,0,0,0-.627-9.743.643.643,0,0,1,.193-.585c.013-.014,1.882-1.925,1.2-7.072-.818-6.2-3.024-9.408-4.321-10.807l-27.263-.747-.031.016c-1.8.946-5.539,3.872-10.6,12.868,1.306,1.055,5.182,4.192,6.224,5.085a.608.608,0,0,1,.376.567C1040.595-40.987,1041.073-35,1042.4-32.156Z" transform="translate(-1032.533 64.06)"/>
  </g>
  <g id="그룹_7158" data-name="그룹 7158" transform="translate(0.019)">
    <path id="패스_12579" data-name="패스 12579" d="M1063.743-107.875s11.02-12.518,17.239-10.238,2.924,20.4,2.924,20.4a36.369,36.369,0,0,1,.233,25.577c-1.542,4-6.341,16.015-34.277,13.794-24.336-3.3-25.624-20.937-25.6-25.22a29.986,29.986,0,0,1,11.008-23.146s4.557-20.216,11.121-19.336c5.951.8,8.279,16.985,8.279,16.985A28.954,28.954,0,0,1,1063.743-107.875Z" transform="translate(-1023.611 126.721)" fill="#fff"/>
    <path id="패스_12580" data-name="패스 12580" d="M1056.915-57.432c-2.95,0-5.475-.2-7.172-.335-24.406-3.31-26.222-20.636-26.2-25.867a30.991,30.991,0,0,1,11.076-23.513c.687-2.972,5-20.513,11.785-19.606,5.764.773,8.254,13.98,8.744,16.961a30.039,30.039,0,0,1,8.317,1.117c1.806-1.987,11.614-12.334,17.67-10.11,6.364,2.336,3.733,18.838,3.372,20.926a36.716,36.716,0,0,1,.166,25.887C1079.846-59.449,1066.259-57.432,1056.915-57.432ZM1045.9-125.495c-4.761,0-8.866,13.522-10.07,18.86a.646.646,0,0,1-.251.381,29.588,29.588,0,0,0-10.74,22.626c-.023,4.964,1.717,21.412,25.044,24.575,27.579,2.193,32.1-9.533,33.586-13.385,5-12.97-.168-24.964-.221-25.084a.636.636,0,0,1-.044-.377c.887-4.89,2.167-17.956-2.512-19.673-4.765-1.741-13.545,6.669-16.53,10.058a.646.646,0,0,1-.671.192,28.648,28.648,0,0,0-8.853-1.162.644.644,0,0,1-.679-.553c-.628-4.368-3.243-15.835-7.725-16.436A2.443,2.443,0,0,0,1045.9-125.495Z" transform="translate(-1023.545 126.787)"/>
  </g>
  <g id="그룹_7159" data-name="그룹 7159" transform="translate(18.832 35.586)">
    <g id="그룹_1025" data-name="그룹 1025">
      <path id="패스_12581" data-name="패스 12581" d="M1048.172-85.091a1.97,1.97,0,0,1-2.391,1.428,1.969,1.969,0,0,1-1.428-2.39,1.971,1.971,0,0,1,2.391-1.429A1.97,1.97,0,0,1,1048.172-85.091Z" transform="translate(-1044.293 87.542)"/>
    </g>
    <g id="그룹_1026" data-name="그룹 1026" transform="translate(13.787 2.017)">
      <path id="패스_12582" data-name="패스 12582" d="M1063.376-82.866a1.97,1.97,0,0,1-2.391,1.429,1.971,1.971,0,0,1-1.427-2.391,1.969,1.969,0,0,1,2.389-1.429A1.971,1.971,0,0,1,1063.376-82.866Z" transform="translate(-1059.498 85.317)"/>
    </g>
  </g>
  <g id="그룹_7160" data-name="그룹 7160" transform="translate(18.287 39.944)">
    <g id="그룹_1028" data-name="그룹 1028" transform="translate(0 5.755)">
      <path id="패스_12583" data-name="패스 12583" d="M1054.021-71.836c-6.406,0-9.867-2.976-10.056-3.143a.806.806,0,0,1-.07-1.138.807.807,0,0,1,1.138-.07c.224.2,5.66,4.8,15.812,1.628a.807.807,0,0,1,1.011.529.808.808,0,0,1-.529,1.01A24.461,24.461,0,0,1,1054.021-71.836Z" transform="translate(-1043.692 76.389)"/>
    </g>
    <g id="그룹_1029" data-name="그룹 1029" transform="translate(7.174 0.374)">
      <path id="패스_12584" data-name="패스 12584" d="M1052.409-72.64h-.022a.8.8,0,0,1-.783-.828l.224-8.071a.848.848,0,0,1,.828-.783.807.807,0,0,1,.784.829l-.224,8.07A.807.807,0,0,1,1052.409-72.64Z" transform="translate(-1051.604 82.323)"/>
    </g>
    <g id="그룹_1030" data-name="그룹 1030" transform="translate(4.942 0)">
      <path id="패스_12585" data-name="패스 12585" d="M1052.154-77.558s2.805.361,3.422-2.1-2.061-2.98-2.969-3.06-3.634-.034-3.457,2.5S1052.154-77.558,1052.154-77.558Z" transform="translate(-1049.142 82.736)"/>
    </g>
  </g>
  <g id="그룹_7161" data-name="그룹 7161" transform="translate(15.939 7.706)">
    <g id="그룹_1032" data-name="그룹 1032" transform="translate(29.02 5.687)">
      <path id="패스_12586" data-name="패스 12586" d="M1084.38-97.174s1.875-13.647-.995-14.062-9.019,7.693-9.293,8.56C1077.721-101.863,1082.266-99,1084.38-97.174Z" transform="translate(-1073.199 111.946)" fill="#f6d4d7"/>
      <path id="패스_12587" data-name="패스 12587" d="M1084.8-95.876l-.972-.841c-2.017-1.745-6.447-4.556-9.982-5.349l-.742-.166.228-.725c.351-1.115,6.674-9.527,10.058-9.04,3.209.462,2.179,10.536,1.586,14.847Zm-9.734-7.312a30.566,30.566,0,0,1,8.685,4.618c.747-6.3.512-11.892-.561-12.046-.353-.049-1.72.055-4.937,3.505A36.863,36.863,0,0,0,1075.069-103.188Z" transform="translate(-1073.107 112.017)" fill="#0f0f0f"/>
    </g>
    <g id="그룹_1033" data-name="그룹 1033" transform="translate(0 0)">
      <path id="패스_12588" data-name="패스 12588" d="M1042.089-105.024s2.577-13.232,5.372-12.464,4.83,10.294,4.734,11.2A43.84,43.84,0,0,0,1042.089-105.024Z" transform="translate(-1041.194 118.217)" fill="#f6d4d7"/>
      <path id="패스_12589" data-name="패스 12589" d="M1041.1-104.149l.209-1.081c.221-1.134,2.236-11.133,4.884-12.776a1.681,1.681,0,0,1,1.359-.227c3.328.913,5.358,10.862,5.243,11.944l-.066.624h-.627a43.136,43.136,0,0,0-9.937,1.244Zm6.033-12.745a.4.4,0,0,0-.2.074c-1.474.915-3.152,6.71-4.03,10.793a45.5,45.5,0,0,1,8.46-1.023c-.334-2.359-2.264-9.312-4.176-9.837A.185.185,0,0,0,1047.135-116.894Z" transform="translate(-1041.102 118.289)" fill="#0f0f0f"/>
    </g>
  </g>
  <g id="그룹_7162" data-name="그룹 7162" transform="translate(3.237 68.105)">
    <g id="그룹_1040" data-name="그룹 1040" transform="translate(0 0)">
      <g id="그룹_1035" data-name="그룹 1035" transform="translate(21.525 1.655)">
        <path id="패스_12590" data-name="패스 12590" d="M1051.546-32.056l4.235.3,1.806-17.082-4.234-.3Z" transform="translate(-1050.899 49.786)" fill="#fff"/>
        <path id="패스_12591" data-name="패스 12591" d="M1055.716-31.181h-.046l-4.236-.3a.645.645,0,0,1-.449-.229.639.639,0,0,1-.147-.483l1.806-17.082a.631.631,0,0,1,.688-.576l4.234.3a.642.642,0,0,1,.45.229.638.638,0,0,1,.148.482l-1.8,17.081A.646.646,0,0,1,1055.716-31.181Zm-3.523-1.54,2.945.206,1.669-15.8-2.943-.2Z" transform="translate(-1050.833 49.852)"/>
      </g>
      <g id="그룹_1036" data-name="그룹 1036">
        <path id="패스_12592" data-name="패스 12592" d="M1027.806-33.883l21.527,1.657,1.806-17.082-21.526-1.656Z" transform="translate(-1027.16 51.612)" fill="#fff"/>
        <path id="패스_12593" data-name="패스 12593" d="M1049.268-31.646l-.051,0L1027.69-33.3a.646.646,0,0,1-.447-.231.645.645,0,0,1-.146-.481L1028.9-51.1a.646.646,0,0,1,.693-.578l21.526,1.658a.649.649,0,0,1,.447.23.643.643,0,0,1,.146.481l-1.805,17.082A.646.646,0,0,1,1049.268-31.646Zm-20.815-2.9,20.237,1.558,1.669-15.8-20.237-1.557Z" transform="translate(-1027.094 51.678)"/>
      </g>
      <g id="그룹_1037" data-name="그룹 1037" transform="translate(5.493 3.294)">
        <path id="패스_12594" data-name="패스 12594" d="M1033.877-40.8a6.821,6.821,0,0,1,4.643-6.068l.028-.47,2.086.121c.148,0,.3,0,.445,0a6.817,6.817,0,0,1,6.412,7.2,6.813,6.813,0,0,1-6.819,6.415v.02l-2.913-.17.029-.491A6.821,6.821,0,0,1,1033.877-40.8Z" transform="translate(-1033.219 47.979)" fill="#aeaeae"/>
        <path id="패스_12595" data-name="패스 12595" d="M1040.6-32.993h-.033l-2.914-.169a.649.649,0,0,1-.446-.216.658.658,0,0,1-.162-.469l0-.067a7.431,7.431,0,0,1-3.886-6.986h0a7.429,7.429,0,0,1,4.668-6.49l0-.047a.672.672,0,0,1,.683-.608l2.086.121.06,0c.128,0,.256,0,.386.005a7.414,7.414,0,0,1,5.143,2.488,7.414,7.414,0,0,1,1.877,5.4,7.459,7.459,0,0,1-7.312,7.022A.609.609,0,0,1,1040.6-32.993Zm-2.243-1.424,2.13.123a.335.335,0,0,1,.119-.012h.016a6.166,6.166,0,0,0,6.156-5.806,6.134,6.134,0,0,0-1.551-4.462,6.132,6.132,0,0,0-4.254-2.056c-.1-.006-.2-.006-.3,0h-.106l-1.5-.085a.646.646,0,0,1-.405.4,6.146,6.146,0,0,0-4.2,5.492A6.149,6.149,0,0,0,1038-34.885.65.65,0,0,1,1038.358-34.417Z" transform="translate(-1033.152 48.046)"/>
      </g>
      <g id="그룹_1038" data-name="그룹 1038" transform="translate(3.076 3.267)">
        <path id="패스_12596" data-name="패스 12596" d="M1031.211-40.94a6.816,6.816,0,0,0,6.412,7.2,6.82,6.82,0,0,0,7.2-6.412,6.819,6.819,0,0,0-6.413-7.2A6.818,6.818,0,0,0,1031.211-40.94Z" transform="translate(-1030.552 48.009)" fill="#fff"/>
        <path id="패스_12597" data-name="패스 12597" d="M1037.956-33.146c-.145,0-.291,0-.437-.013a7.417,7.417,0,0,1-5.143-2.488,7.417,7.417,0,0,1-1.877-5.4h0a7.416,7.416,0,0,1,2.489-5.143,7.449,7.449,0,0,1,5.395-1.878,7.473,7.473,0,0,1,7.022,7.885A7.476,7.476,0,0,1,1037.956-33.146Zm-.011-13.637a6.131,6.131,0,0,0-4.1,1.563,6.127,6.127,0,0,0-2.056,4.252h0a6.13,6.13,0,0,0,1.552,4.462,6.128,6.128,0,0,0,4.252,2.056,6.169,6.169,0,0,0,6.52-5.8,6.18,6.18,0,0,0-5.806-6.519C1038.186-46.78,1038.065-46.784,1037.944-46.784Zm-6.8,5.778h0Z" transform="translate(-1030.486 48.076)"/>
      </g>
      <g id="그룹_1039" data-name="그룹 1039" transform="translate(5.881 6.071)">
        <path id="패스_12598" data-name="패스 12598" d="M1033.588-40.593a4.658,4.658,0,0,0,4.381,4.921,4.661,4.661,0,0,0,4.923-4.381,4.662,4.662,0,0,0-4.384-4.922A4.658,4.658,0,0,0,1033.588-40.593Z" transform="translate(-1033.58 44.983)"/>
      </g>
    </g>
  </g>
  <g id="그룹_7163" data-name="그룹 7163" transform="translate(25.008 72.045)">
    <path id="패스_12599" data-name="패스 12599" d="M1054.546-41.332c-3.3.013-3.82,6.119-.41,7.925s12.036-.366,14.7-1.688c6.744-3.351,8.574-8.025,8.574-8.025l-10.425-3.5S1064.848-40.8,1054.546-41.332Z" transform="translate(-1051.169 47.267)" fill="#fff"/>
    <path id="패스_12600" data-name="패스 12600" d="M1057.77-32.145a8.8,8.8,0,0,1-4-.757,5.645,5.645,0,0,1-2.5-6.247,3.407,3.407,0,0,1,3.212-2.9.159.159,0,0,1,.036,0c9.647.491,11.712-4.651,11.8-4.869a.653.653,0,0,1,.811-.387l10.425,3.5a.645.645,0,0,1,.38.339.646.646,0,0,1,.016.51c-.079.2-2,4.945-8.888,8.367A31.865,31.865,0,0,1,1057.77-32.145Zm-3.3-8.607c-1.334.016-1.8,1.341-1.945,1.911a4.323,4.323,0,0,0,1.853,4.8c3.113,1.646,11.529-.416,14.106-1.7a18.116,18.116,0,0,0,7.952-7.069l-9.183-3.084C1066.394-44.353,1063.277-40.3,1054.467-40.752Z" transform="translate(-1051.103 47.333)"/>
  </g>
  <g id="그룹_7164" data-name="그룹 7164" transform="translate(0 74.164)">
    <path id="패스_12601" data-name="패스 12601" d="M1026.531-44.126c.689-.092,2.949-1.31,2.925,4.919-.006,1.4.383,4.807-2.87,5.372S1023.583-43.726,1026.531-44.126Z" transform="translate(-1023.59 44.929)" fill="#fff"/>
    <path id="패스_12602" data-name="패스 12602" d="M1026.275-33.234a2.057,2.057,0,0,1-1.613-.821c-1.439-1.768-1.424-6.16-.454-8.616.646-1.632,1.536-2.076,2.17-2.163h0c.05-.007.109-.023.178-.04a2.293,2.293,0,0,1,2.094.3c.956.756,1.4,2.44,1.385,5.3,0,.121,0,.259.006.409.031,1.619.094,4.988-3.411,5.6A2.062,2.062,0,0,1,1026.275-33.234Zm.276-10.318c-.405.054-.822.549-1.141,1.356-.889,2.251-.756,6.084.255,7.326a.722.722,0,0,0,.743.331c2.227-.386,2.376-2.335,2.34-4.3,0-.161-.006-.308-.006-.439.012-3.1-.555-4.011-.9-4.28-.267-.212-.579-.157-.989-.059-.118.028-.222.052-.307.063Z" transform="translate(-1023.524 44.996)"/>
  </g>
  <g id="그룹_7165" data-name="그룹 7165" transform="translate(44.862 22.756)">
    <path id="패스_12603" data-name="패스 12603" d="M1073.712-100.977c.282.962,17.95,17.958,21.835,14.1s-6.214-12.282-6.214-12.282Z" transform="translate(-1073.066 101.624)" fill="#4a68d0"/>
    <path id="패스_12604" data-name="패스 12604" d="M1093.905-85.727a5.782,5.782,0,0,1-1.43-.2c-6.306-1.621-19.055-13.589-19.449-14.934a.645.645,0,0,1,.126-.6.634.634,0,0,1,.57-.226l15.62,1.821a.642.642,0,0,1,.339.146c.292.243,7.141,6.007,7.33,10.418a3.591,3.591,0,0,1-1.076,2.818A2.76,2.76,0,0,1,1093.905-85.727Zm-18.694-14.483c3.21,3.288,13.35,12.507,18.219,13.157a1.815,1.815,0,0,0,1.594-.346,2.324,2.324,0,0,0,.7-1.845c-.151-3.524-5.749-8.514-6.724-9.358Z" transform="translate(-1073 101.69)"/>
  </g>
  <g id="그룹_7166" data-name="그룹 7166" transform="translate(38.36 6.409)">
    <path id="패스_12605" data-name="패스 12605" d="M1066.542-108.487A31.762,31.762,0,0,0,1092.4-96.555c-.1-.7,6.369-15.474-7.928-21.347C1071.922-123.058,1066.542-108.487,1066.542-108.487Z" transform="translate(-1065.896 119.653)" fill="#4a68d0"/>
    <path id="패스_12606" data-name="패스 12606" d="M1091.746-95.971a32.676,32.676,0,0,1-25.8-12.213.649.649,0,0,1-.076-.594c.111-.3,2.77-7.346,8.769-9.979a12.429,12.429,0,0,1,10.017.19c10.829,4.449,10.6,14.034,8.508,21.29-.091.31-.159.533-.18.653a.648.648,0,0,1-.154.421.647.647,0,0,1-.481.228C1092.147-95.972,1091.945-95.971,1091.746-95.971Zm-24.534-12.678a31.506,31.506,0,0,0,24.534,11.385h.067c.031-.106.066-.228.108-.371,2.834-9.817.225-16.457-7.757-19.735a11.192,11.192,0,0,0-9-.206C1070.359-115.47,1067.8-110.027,1067.212-108.649Z" transform="translate(-1065.829 119.72)"/>
  </g>
  <g id="그룹_7167" data-name="그룹 7167" transform="translate(43.222 38.961)">
    <path id="패스_12607" data-name="패스 12607" d="M1072-79.432a.807.807,0,0,1-.783-.62.806.806,0,0,1,.6-.97l11.734-2.776a.809.809,0,0,1,.972.6.807.807,0,0,1-.6.97l-11.734,2.776A.822.822,0,0,1,1072-79.432Z" transform="translate(-1071.191 83.82)"/>
  </g>
  <g id="그룹_7168" data-name="그룹 7168" transform="translate(43.222 47.98)">
    <path id="패스_12608" data-name="패스 12608" d="M1083.732-69.467a.79.79,0,0,1-.188-.023l-11.733-2.792a.806.806,0,0,1-.6-.971.806.806,0,0,1,.971-.6l11.734,2.793a.806.806,0,0,1,.6.97A.808.808,0,0,1,1083.732-69.467Z" transform="translate(-1071.191 73.873)"/>
  </g>
  <g id="그룹_7169" data-name="그룹 7169" transform="translate(3.043 35.38)">
    <path id="패스_12609" data-name="패스 12609" d="M1035.859-83.532a.727.727,0,0,1-.234-.039l-8.243-2.764a.735.735,0,0,1-.464-.931.735.735,0,0,1,.931-.463l8.243,2.764a.735.735,0,0,1,.464.931A.738.738,0,0,1,1035.859-83.532Z" transform="translate(-1026.88 87.768)"/>
  </g>
  <g id="그룹_7170" data-name="그룹 7170" transform="translate(2.524 44.424)">
    <path id="패스_12610" data-name="패스 12610" d="M1027.042-74.686a.736.736,0,0,1-.722-.6.735.735,0,0,1,.589-.858l8.762-1.638a.735.735,0,0,1,.858.588.736.736,0,0,1-.588.859l-8.762,1.638A.708.708,0,0,1,1027.042-74.686Z" transform="translate(-1026.307 77.795)"/>
  </g>
</svg>
