<svg id="구성_요소_37_1" data-name="구성 요소 37 – 1" xmlns="http://www.w3.org/2000/svg" width="94.098" height="104.285" viewBox="0 0 94.098 104.285">
  <g id="그룹_987" data-name="그룹 987" transform="translate(70.711 75.925)">
    <path id="패스_12533" data-name="패스 12533" d="M1010.988-22.6s17.233-11.777,18.961-5.513c.438,1.583-7.6,3.519-7.6,3.519s1.255,4.78-2.188,4.244-1.642-.02-1.642-.02-.693,2.948-8.549.55" transform="translate(-1009.366 30.545)" fill="#fff"/>
    <path id="패스_12534" data-name="패스 12534" d="M1015.034-18.383a18.982,18.982,0,0,1-5.354-.971.6.6,0,0,1-.4-.753.6.6,0,0,1,.752-.4c4.552,1.388,6.467.886,7.2.463a1.79,1.79,0,0,0,.279-.2.562.562,0,0,1-.167-.568c.146-.661.653-.581,2.794-.248.905.142,1.2-.187,1.3-.294.666-.738.37-2.606.213-3.2a.6.6,0,0,1,.067-.462.6.6,0,0,1,.375-.277c3.619-.872,6.964-2.194,7.16-2.829a1.674,1.674,0,0,0-1.087-1.16c-3.534-1.294-13.434,4.662-16.951,7.066a.6.6,0,0,1-.838-.158.6.6,0,0,1,.156-.838c1.347-.92,13.3-8.942,18.047-7.2a2.885,2.885,0,0,1,1.836,2.029,1.137,1.137,0,0,1-.139.9c-.843,1.433-5.478,2.746-7.332,3.221.161.936.306,2.7-.611,3.718a2.491,2.491,0,0,1-2.38.678c-.467-.073-.822-.124-1.089-.158a2.573,2.573,0,0,1-1.03,1.024A5.6,5.6,0,0,1,1015.034-18.383Z" transform="translate(-1009.253 30.657)" fill="#080000"/>
  </g>
  <g id="그룹_988" data-name="그룹 988" transform="translate(29.48 71.345)">
    <path id="패스_12535" data-name="패스 12535" d="M1007.083-32.824c.166.411-.781,10.3-6.984,12.927,0,0,4.779,8.669,4.136,9.811s-10.274,8.233-15.9,6.008c-2.114-.837,1.93-3.726,1.93-3.726l-6.524-4.562S971.7-7.35,968.12-7.35c-1.875,0-5.881-2.89-7.076-11.559-.891-6.469,8.178-5.019,9.373-1.293a8.279,8.279,0,0,0,1.93-.988s-6.434-5.1-6.984-11.331S1007.083-32.824,1007.083-32.824Z" transform="translate(-960.383 35.984)" fill="#fff"/>
    <path id="패스_12536" data-name="패스 12536" d="M990.693-3.158A7.268,7.268,0,0,1,988-3.634a1.39,1.39,0,0,1-.982-1.136c-.133-1.089,1.186-2.373,2.114-3.129l-5.579-3.9c-1.95.8-12.169,4.938-15.548,4.938-2.323,0-6.46-3.279-7.673-12.078-.36-2.613.8-4.487,3.111-5.011,2.471-.564,6,.6,7.193,2.878.169-.082.37-.191.575-.309-1.69-1.508-6.1-5.911-6.563-11.2a1.928,1.928,0,0,1,.644-1.6c4.644-4.413,37.974.119,41.76.65a.6.6,0,0,1,.475.37c.288.714-.785,10.336-6.707,13.425,2.17,3.984,4.462,8.7,3.825,9.834C1004.053-8.854,996.63-3.159,990.693-3.158Zm-7.064-9.928a.6.6,0,0,1,.346.109L990.5-8.415a.6.6,0,0,1,.257.491.6.6,0,0,1-.251.493c-1.126.806-2.345,2.054-2.288,2.514.007.055.127.122.229.162,5.267,2.088,14.517-4.677,15.151-5.744.147-.757-2.028-5.392-4.139-9.222a.607.607,0,0,1-.042-.488.6.6,0,0,1,.335-.358c5.151-2.178,6.479-9.9,6.621-11.847-10.5-1.444-36.733-4.238-40.247-.9a.718.718,0,0,0-.275.624c.523,5.9,6.7,10.862,6.758,10.912a.6.6,0,0,1,.227.5.6.6,0,0,1-.268.476,7.71,7.71,0,0,1-2.18,1.084.609.609,0,0,1-.656-.413c-.583-1.818-3.679-3.178-6.019-2.645-1.19.271-2.534,1.127-2.184,3.672,1.137,8.258,4.925,11.038,6.479,11.038,3.423,0,15.271-4.923,15.391-4.972A.606.606,0,0,1,983.63-13.086Z" transform="translate(-960.27 36.099)" fill="#080000"/>
  </g>
  <g id="그룹_989" data-name="그룹 989" transform="translate(38.914 86.526)">
    <path id="패스_12537" data-name="패스 12537" d="M972.631-11.537a.616.616,0,0,1-.088-.007.6.6,0,0,1-.508-.681,18.566,18.566,0,0,0-.541-5.1.6.6,0,0,1,.443-.726.6.6,0,0,1,.726.443,19.362,19.362,0,0,1,.562,5.551A.6.6,0,0,1,972.631-11.537Z" transform="translate(-971.477 18.064)"/>
  </g>
  <g id="그룹_990" data-name="그룹 990" transform="translate(52.147 86.83)">
    <line id="선_14" data-name="선 14" y1="7.529" x2="16.449" transform="translate(0.601 0.601)" fill="#d27eb6"/>
    <path id="패스_12538" data-name="패스 12538" d="M987.8-8.971a.6.6,0,0,1-.546-.351.6.6,0,0,1,.3-.8L1004-17.647a.6.6,0,0,1,.8.3.6.6,0,0,1-.3.8L988.049-9.025A.6.6,0,0,1,987.8-8.971Z" transform="translate(-987.198 17.702)"/>
  </g>
  <g id="그룹_991" data-name="그룹 991" transform="translate(40.843 80.974)">
    <line id="선_15" data-name="선 15" y1="4.563" x2="9.649" transform="translate(0.601 0.602)" fill="#896651"/>
    <path id="패스_12539" data-name="패스 12539" d="M974.37-18.893a.6.6,0,0,1-.543-.344.6.6,0,0,1,.286-.8l9.649-4.562a.6.6,0,0,1,.8.286.6.6,0,0,1-.286.8l-9.649,4.562A.6.6,0,0,1,974.37-18.893Z" transform="translate(-973.769 24.659)"/>
  </g>
  <g id="그룹_993" data-name="그룹 993" transform="translate(11.795 50.463)">
    <g id="그룹_992" data-name="그룹 992" transform="translate(0 0)">
      <path id="패스_12540" data-name="패스 12540" d="M965.715-59.751s-21.12-.574-23.523-.41-3.78,10.513.844,13.295c1.916,1.8,23.654-1.635,23.654-1.635s5.068-.553,4.588-6.592C970.917-59.606,965.715-59.751,965.715-59.751Z" transform="translate(-939.373 60.793)" fill="#fff"/>
      <path id="패스_12541" data-name="패스 12541" d="M946.6-45.872c-1.983,0-3.464-.173-4.028-.616-3.563-2.187-3.7-7.96-2.938-11.1.494-2.049,1.348-3.217,2.4-3.289,2.411-.166,22.719.386,23.581.408h0c1.988.056,5.828,1.215,6.146,5.213.52,6.546-5.067,7.233-5.123,7.239C962.832-47.412,952.5-45.872,946.6-45.872ZM943.776-59.7c-.789,0-1.365.008-1.657.029s-.9.669-1.315,2.37c-.73,3.026-.46,8.07,2.429,9.808a.652.652,0,0,1,.1.077c1.074,1,12.614-.125,23.148-1.79.21-.025,4.507-.588,4.08-5.949-.311-3.907-4.777-4.1-4.978-4.1C965.365-59.267,949.333-59.7,943.776-59.7Z" transform="translate(-939.26 60.906)" fill="#080000"/>
    </g>
  </g>
  <g id="그룹_994" data-name="그룹 994" transform="translate(33.634 37.642)">
    <path id="패스_12542" data-name="패스 12542" d="M972.989-70.8s-8,10.365-6.978,32.943c0,0,17.857,6.363,41.87,0,0,0-.615-27.4-8.826-36.432C991.05-78.184,972.989-70.8,972.989-70.8Z" transform="translate(-965.318 76.024)" fill="#8ac5ff"/>
    <path id="패스_12543" data-name="패스 12543" d="M986.319-34.559c-12.435,0-20.5-2.8-20.624-2.842a.6.6,0,0,1-.4-.538c-1.024-22.539,6.771-32.906,7.1-33.337a.6.6,0,0,1,.249-.189c.747-.306,18.4-7.446,26.556-3.474a.619.619,0,0,1,.181.136c8.266,9.093,8.956,35.7,8.982,36.823a.6.6,0,0,1-.446.593A84.36,84.36,0,0,1,986.319-34.559Zm-19.84-3.848c2.685.845,19.257,5.527,40.674-.019-.132-3.647-1.265-27.284-8.577-35.483-7.335-3.439-23.543,2.79-25.317,3.492C972.388-69.177,965.645-58.88,966.479-38.406Z" transform="translate(-965.205 76.137)"/>
  </g>
  <g id="그룹_996" data-name="그룹 996" transform="translate(64.673 46.807)">
    <g id="그룹_995" data-name="그룹 995">
      <path id="패스_12544" data-name="패스 12544" d="M1003.675-54.525S1019-38.864,1020.922-37.408s10.005-4.073,10.1-8.066c-.26-2.617-21.074-18.265-21.074-18.265s-3.253-2.125-5.619.563C1001.334-59.778,1003.675-54.525,1003.675-54.525Z" transform="translate(-1002.194 65.137)" fill="#fff"/>
      <path id="패스_12545" data-name="패스 12545" d="M1021.661-36.68a1.966,1.966,0,0,1-1.218-.361c-1.933-1.466-16.687-16.534-17.314-17.175a.627.627,0,0,1-.12-.176c-.1-.229-2.461-5.649.749-9.295a4.9,4.9,0,0,1,6.4-.67c19.541,14.69,21.276,18.034,21.344,18.71-.072,3.3-4.33,6.834-7.186,8.211A6.615,6.615,0,0,1,1021.661-36.68Zm-17.59-18.3c1.207,1.231,15.309,15.616,17.1,16.976.3.226,1.226.153,2.623-.52,3.034-1.464,6.453-4.731,6.506-7.08-.213-1.452-10.76-10.2-20.834-17.769-.08-.051-2.819-1.774-4.8.48C1002.174-60.064,1003.791-55.673,1004.071-54.976Z" transform="translate(-1002.079 65.249)" fill="#080000"/>
    </g>
  </g>
  <g id="그룹_997" data-name="그룹 997" transform="translate(11.874 49.193)">
    <path id="패스_12546" data-name="패스 12546" d="M940.115-53.688c0-.827-.826-7.438,3.857-7.989s6.061,9.367.551,11.846" transform="translate(-939.465 62.302)" fill="#fff"/>
    <path id="패스_12547" data-name="패스 12547" d="M944.412-49.342a.6.6,0,0,1-.55-.355.6.6,0,0,1,.3-.8c2.845-1.28,3.736-4.968,2.954-7.794-.206-.745-1.058-3.157-3.188-2.9-2.491.293-3.584,2.585-3.342,7.006.01.173.017.3.017.385a.6.6,0,0,1-.6.6.6.6,0,0,1-.6-.6c0-.067-.007-.176-.014-.319-.28-5.109,1.2-7.891,4.4-8.269,2.069-.242,3.779,1.206,4.491,3.779.905,3.27-.056,7.61-3.621,9.214A.6.6,0,0,1,944.412-49.342Z" transform="translate(-939.353 62.415)" fill="#080000"/>
  </g>
  <g id="그룹_1016" data-name="그룹 1016" transform="translate(14.132)">
    <g id="그룹_1014" data-name="그룹 1014" transform="translate(0 0)">
      <g id="그룹_998" data-name="그룹 998" transform="translate(10.625 32.241)">
        <path id="패스_12548" data-name="패스 12548" d="M956.855-81.837a12.169,12.169,0,0,0-1.259,8.315c.259,1.5-.135,6.085,1.873,6.591" transform="translate(-954.772 82.44)" fill="#717873"/>
        <path id="패스_12549" data-name="패스 12549" d="M957.358-66.442a.6.6,0,0,1-.148-.019c-1.969-.5-2.11-3.487-2.213-5.67a13.945,13.945,0,0,0-.106-1.4,12.8,12.8,0,0,1,1.331-8.72.6.6,0,0,1,.824-.217.6.6,0,0,1,.218.824,11.457,11.457,0,0,0-1.185,7.909,14.248,14.248,0,0,1,.122,1.55c.075,1.6.2,4.281,1.3,4.558a.6.6,0,0,1,.438.732A.6.6,0,0,1,957.358-66.442Z" transform="translate(-954.659 82.554)" fill="#080000"/>
      </g>
      <g id="그룹_1013" data-name="그룹 1013">
        <g id="그룹_999" data-name="그룹 999" transform="translate(0 15.695)">
          <path id="패스_12550" data-name="패스 12550" d="M954.4-79.122l-1.491,1.641s-3.655,3.141-6.844.51a6.379,6.379,0,0,1-2.387-6.072,5.793,5.793,0,0,1,.152-6.439,7.072,7.072,0,0,1,4.944-6.18,8.526,8.526,0,0,1,5.465-4.589s3.372-1.934,4.825-.991" transform="translate(-942.148 102.098)" fill="#fff"/>
          <path id="패스_12551" data-name="패스 12551" d="M948.792-75.441a4.949,4.949,0,0,1-3.218-1.177,6.988,6.988,0,0,1-2.639-6.409,6.414,6.414,0,0,1,.206-6.782,7.74,7.74,0,0,1,5.1-6.461,9.1,9.1,0,0,1,5.672-4.662c.631-.352,3.748-1.984,5.373-.928a.6.6,0,0,1,.177.833.6.6,0,0,1-.833.178c-.866-.564-3.2.436-4.2,1.008a.617.617,0,0,1-.177.067,8.008,8.008,0,0,0-5.044,4.26.607.607,0,0,1-.4.325,6.425,6.425,0,0,0-4.492,5.662.607.607,0,0,1-.114.29,5.149,5.149,0,0,0-.139,5.745.6.6,0,0,1,.088.474,5.743,5.743,0,0,0,2.183,5.471c2.756,2.269,5.936-.389,6.069-.5l1.439-1.588a.6.6,0,0,1,.851-.041.6.6,0,0,1,.04.852l-1.492,1.641A7.247,7.247,0,0,1,948.792-75.441Z" transform="translate(-942.037 102.21)" fill="#080000"/>
        </g>
        <g id="그룹_1000" data-name="그룹 1000" transform="translate(9.827 5.967)">
          <path id="패스_12552" data-name="패스 12552" d="M957.865-97.033a9.951,9.951,0,0,1,2.87-6.071s3.094-6.281,7.208-6.237a12.664,12.664,0,0,1,7.535-2.54s4.474-2.45,8.251-.237c0,0,4.628-.977,7.376,1.646,0,0,5.414.118,6.831,3.945a7.96,7.96,0,0,1,4.712,4.2A8.806,8.806,0,0,1,1006-97.08s3.9,3.045,2.711,6.823a8.983,8.983,0,0,1,1.563,7.837,7.479,7.479,0,0,1-1.87,6.529s-1.14,4.832-4.53,6.806a6.819,6.819,0,0,1-6.025,3.945s-3.674,3-8.024,2.817a12.139,12.139,0,0,1-8.554.633,9.07,9.07,0,0,1-7.167-.24h0s-4.689.463-8.1-2.228c0,0-2.388-.079-4.743-2.919-2.16-2.605-5.427-5.167-6.428-8.647-.9-3.146-.331-10.637,2.164-12.861" transform="translate(-953.824 113.653)" fill="#fff"/>
          <path id="패스_12553" data-name="패스 12553" d="M977.81-60.573a9.308,9.308,0,0,1-3.933-.86,13.049,13.049,0,0,1-8.222-2.258,8.061,8.061,0,0,1-4.974-3.118c-.567-.684-1.207-1.36-1.885-2.077-1.91-2.016-3.884-4.1-4.658-6.789-.982-3.417-.293-11.129,2.343-13.477a.6.6,0,0,1,.851.049.6.6,0,0,1-.049.851c-2.217,1.976-2.866,9.182-1.986,12.244.692,2.406,2.564,4.383,4.375,6.294.692.731,1.346,1.422,1.938,2.136,2.13,2.569,4.215,2.7,4.3,2.7a.616.616,0,0,1,.348.129,10.731,10.731,0,0,0,5.493,2.05.6.6,0,0,1-.019-.149.613.613,0,0,1,.06-.261.6.6,0,0,1,.8-.28l1.652.8a8.477,8.477,0,0,0,6.657.233.6.6,0,0,1,.446-.02,11.605,11.605,0,0,0,8.086-.6.627.627,0,0,1,.3-.064c4.063.183,7.582-2.653,7.616-2.681a.6.6,0,0,1,.381-.136h.021a6.231,6.231,0,0,0,5.45-3.581.6.6,0,0,1,.25-.283c3.12-1.816,4.237-6.377,4.248-6.423a.61.61,0,0,1,.138-.263,6.893,6.893,0,0,0,1.736-5.971.6.6,0,0,1,0-.327,8.4,8.4,0,0,0-1.446-7.278.6.6,0,0,1-.115-.569c1.045-3.327-2.471-6.141-2.507-6.168a.6.6,0,0,1-.219-.353,8.28,8.28,0,0,0-3.1-4.868.6.6,0,0,1-.221-.27,7.36,7.36,0,0,0-4.327-3.852.6.6,0,0,1-.4-.37c-1.255-3.391-6.228-3.55-6.279-3.551a.6.6,0,0,1-.4-.167c-2.481-2.368-6.793-1.5-6.836-1.492a.605.605,0,0,1-.429-.07c-3.427-2.009-7.613.224-7.657.247a.613.613,0,0,1-.286.073,12.105,12.105,0,0,0-7.151,2.4.657.657,0,0,1-.394.141h-.036c-3.668,0-6.594,5.842-6.624,5.9a.6.6,0,0,1-.128.172,9.418,9.418,0,0,0-2.681,5.667.6.6,0,0,1-.638.566.6.6,0,0,1-.566-.636,10.509,10.509,0,0,1,2.981-6.4c.431-.839,3.4-6.322,7.484-6.473a13.335,13.335,0,0,1,7.6-2.541c.812-.41,4.869-2.249,8.506-.269.994-.166,4.9-.633,7.517,1.688,1.088.069,5.538.567,7.04,4.056a8.476,8.476,0,0,1,4.744,4.288,9.445,9.445,0,0,1,3.407,5.308c.771.662,3.727,3.479,2.829,7.027a9.5,9.5,0,0,1,1.522,7.982,8.089,8.089,0,0,1-1.943,6.8c-.227.857-1.465,4.992-4.612,6.939a7.331,7.331,0,0,1-6.281,4.123,13.815,13.815,0,0,1-8.108,2.823,12.665,12.665,0,0,1-8.66.667A9.761,9.761,0,0,1,977.81-60.573Z" transform="translate(-953.711 113.767)" fill="#080000"/>
        </g>
        <g id="그룹_1001" data-name="그룹 1001" transform="translate(26.174 26.584)">
          <path id="패스_12554" data-name="패스 12554" d="M975.888-87.831a1.531,1.531,0,0,1-1.135,1.824,1.529,1.529,0,0,1-1.6-1.43,1.53,1.53,0,0,1,1.132-1.825A1.531,1.531,0,0,1,975.888-87.831Z" transform="translate(-973.132 89.274)" fill="#080000"/>
        </g>
        <g id="그룹_1004" data-name="그룹 1004" transform="translate(28.812 28.914)">
          <g id="그룹_1002" data-name="그룹 1002" transform="translate(1.722)">
            <path id="패스_12555" data-name="패스 12555" d="M982.884-83.739a6.559,6.559,0,0,1-2.556.187c-1.915-.357-2.881-2.133-1.014-2.686,1.253-.371,5.117-.591,5.3.981C984.7-84.5,983.876-84.007,982.884-83.739Z" transform="translate(-978.31 86.506)" fill="#080000"/>
          </g>
          <g id="그룹_1003" data-name="그룹 1003" transform="translate(0 2.064)">
            <path id="패스_12556" data-name="패스 12556" d="M983.321-79.275a3.382,3.382,0,0,1-1.59-.4,1.95,1.95,0,0,1-.764-.718,2.189,2.189,0,0,1-1.046.679,2.741,2.741,0,0,1-2.118-.359,3.156,3.156,0,0,1-1.524-1.869.6.6,0,0,1,.454-.721.6.6,0,0,1,.721.455,1.992,1.992,0,0,0,.954,1.093,1.58,1.58,0,0,0,1.164.247c.8-.24.944-1.317.945-2.072,0-.157-.006-.308-.016-.449v-.016a.6.6,0,0,1,.556-.646.6.6,0,0,1,.647.556h0v.01q.021.3.02.589c0,.045,0,.088,0,.134.01,1.012.056,1.749.568,2.021a2.154,2.154,0,0,0,2.073-.009,2.338,2.338,0,0,0,1.246-1.772.6.6,0,0,1,.661-.538.6.6,0,0,1,.538.661,3.551,3.551,0,0,1-1.877,2.712A3.41,3.41,0,0,1,983.321-79.275Z" transform="translate(-976.265 84.054)" fill="#080000"/>
          </g>
        </g>
        <g id="그룹_1005" data-name="그룹 1005" transform="translate(52.203 14.122)">
          <path id="패스_12557" data-name="패스 12557" d="M1010.455-103.241a6.639,6.639,0,0,1,7.331,3.659,10.132,10.132,0,0,1,5.352,5.155s4.293,4.649,2.732,9.813c0,0,2.216,3.96-2.157,7.884a6.024,6.024,0,0,1-7.431.423,5.966,5.966,0,0,1-5.341-4.509c-.273-.928-1.178-1.875-1.556-2.809-.669-1.651-.475-3.265-.981-4.857-.37-1.166-.641-.753-1.289-1.654-2.38-3.308-3.4-8.866-.9-12.329" transform="translate(-1004.166 103.968)" fill="#fff"/>
          <path id="패스_12558" data-name="패스 12558" d="M1019.577-74.715a6.627,6.627,0,0,1-3.607-1.113,6.629,6.629,0,0,1-5.719-4.928,5.728,5.728,0,0,0-.746-1.368,8.268,8.268,0,0,1-.79-1.385,10.563,10.563,0,0,1-.62-2.848,10.942,10.942,0,0,0-.376-2.052c-.16-.505-.246-.569-.436-.71a3.128,3.128,0,0,1-.767-.775c-2.53-3.517-3.559-9.353-.9-13.034a.6.6,0,0,1,.841-.136.6.6,0,0,1,.135.842c-2.307,3.2-1.328,8.524.9,11.625a2.011,2.011,0,0,0,.505.51,2.161,2.161,0,0,1,.869,1.314,11.98,11.98,0,0,1,.423,2.274,9.582,9.582,0,0,0,.541,2.539,7.4,7.4,0,0,0,.68,1.176,6.673,6.673,0,0,1,.9,1.69,5.34,5.34,0,0,0,4.777,4.077.605.605,0,0,1,.318.1,5.453,5.453,0,0,0,6.685-.36c3.951-3.545,2.123-7.008,2.043-7.153a.609.609,0,0,1-.051-.466c1.445-4.779-2.556-9.186-2.6-9.231a.631.631,0,0,1-.114-.18,9.6,9.6,0,0,0-5.006-4.819.607.607,0,0,1-.317-.274,6.069,6.069,0,0,0-6.65-3.366.6.6,0,0,1-.736-.43.6.6,0,0,1,.43-.736,7.281,7.281,0,0,1,7.906,3.763,10.646,10.646,0,0,1,5.447,5.307c.593.675,4.226,5.073,2.856,10.09.422.981,1.651,4.752-2.4,8.382A7.09,7.09,0,0,1,1019.577-74.715Z" transform="translate(-1004.054 104.079)" fill="#080000"/>
        </g>
        <g id="그룹_1006" data-name="그룹 1006" transform="translate(16.884 30.199)">
          <path id="패스_12559" data-name="패스 12559" d="M969.877-81.626a3.911,3.911,0,0,1-3.313,4.428,3.912,3.912,0,0,1-4.428-3.313,3.911,3.911,0,0,1,3.312-4.429A3.911,3.911,0,0,1,969.877-81.626Z" transform="translate(-962.095 84.98)" fill="#f09391"/>
        </g>
        <g id="그룹_1007" data-name="그룹 1007" transform="translate(44.012 31.101)">
          <path id="패스_12560" data-name="패스 12560" d="M1002.1-80.554a3.91,3.91,0,0,1-3.313,4.428,3.909,3.909,0,0,1-4.428-3.312,3.91,3.91,0,0,1,3.312-4.428A3.911,3.911,0,0,1,1002.1-80.554Z" transform="translate(-994.323 83.908)" fill="#f09391"/>
        </g>
        <g id="그룹_1008" data-name="그룹 1008" transform="translate(24.718 23.548)">
          <path id="패스_12561" data-name="패스 12561" d="M972-91.258a.6.6,0,0,1-.6-.519.6.6,0,0,1,.514-.68c.314-.044.629-.1.942-.147a10.386,10.386,0,0,1,3.837-.149.6.6,0,0,1,.464.715.6.6,0,0,1-.715.465,9.336,9.336,0,0,0-3.391.159c-.323.053-.647.106-.97.151A.583.583,0,0,1,972-91.258Z" transform="translate(-971.402 92.882)" fill="#080000"/>
        </g>
        <g id="그룹_1011" data-name="그룹 1011" transform="translate(38.833 23.864)">
          <g id="그룹_1009" data-name="그룹 1009" transform="translate(1.06 3.027)">
            <path id="패스_12562" data-name="패스 12562" d="M992.192-87.3a1.532,1.532,0,0,1-1.347,1.675,1.529,1.529,0,0,1-1.415-1.616,1.531,1.531,0,0,1,1.345-1.673A1.53,1.53,0,0,1,992.192-87.3Z" transform="translate(-989.429 88.91)" fill="#080000"/>
          </g>
          <g id="그룹_1010" data-name="그룹 1010">
            <path id="패스_12563" data-name="패스 12563" d="M994.41-90.7a.606.606,0,0,1-.215-.04,13.19,13.19,0,0,0-5.061-.549l-.353.005h-.008a.6.6,0,0,1-.6-.593.6.6,0,0,1,.594-.611l.352-.005a14.256,14.256,0,0,1,5.509.628.6.6,0,0,1,.348.778A.6.6,0,0,1,994.41-90.7Z" transform="translate(-988.17 92.506)" fill="#080000"/>
          </g>
        </g>
        <g id="그룹_1012" data-name="그룹 1012" transform="translate(13.006)">
          <path id="패스_12564" data-name="패스 12564" d="M998.543-101.648c.295.081-1.811,2.026-2.031,2.147a6.7,6.7,0,0,1-3.067.719c-1.665.034-4.908-.543-5.247-2.646a3.578,3.578,0,0,1-3.7,2.218c-1.587-.059-3.986-.939-3.907-3-.941,3.577-8.714,3.956-8.939-.261-1.088,1.091-2.23,2.417-3.948,2.242a2.879,2.879,0,0,1-2.618-2.883c-2.7.575-5.514.311-6.589-2.626a3.308,3.308,0,0,1,.062-2.832,5.509,5.509,0,0,1,4.127-2.112c.077.063.073.068-.007.016-1.7-1.678.39-3.88,1.883-4.64a12.517,12.517,0,0,1,6.011-1.052c.434-1.324,2.613-2.367,3.907-2.662,1.9-.432,2.6.478,4.178,1.116,2.2-3.529,7.146-2.427,9.407.191a4.369,4.369,0,0,1,6.756,1.163c2.207-1.715,6.585-.044,5.831,3.016,1.841-.351,5.709,1.6,3.219,3.491,2.175,1.847,2.455,3.607.582,5.955C1003.118-102.423,1000.728-101.049,998.543-101.648Z" transform="translate(-957.602 120.743)" fill="#fff"/>
          <path id="패스_12565" data-name="패스 12565" d="M993.18-98.29c-1.731,0-4.132-.537-5.189-1.971a4.117,4.117,0,0,1-3.63,1.54,5.586,5.586,0,0,1-3.694-1.5,3.132,3.132,0,0,1-.388-.514,6.47,6.47,0,0,1-5.31,1.77,4.282,4.282,0,0,1-3.779-2.419,4.607,4.607,0,0,1-3.664,1.641,3.5,3.5,0,0,1-3.1-2.767c-4.244.678-5.938-1.3-6.61-3.135a3.9,3.9,0,0,1,.111-3.348,5.929,5.929,0,0,1,3.579-2.279,2.426,2.426,0,0,1-.15-1.312,5.254,5.254,0,0,1,2.817-3.372,12.455,12.455,0,0,1,5.893-1.119c.769-1.4,2.891-2.356,4.165-2.646a4.376,4.376,0,0,1,3.455.622c.207.109.418.221.642.329a5.172,5.172,0,0,1,3.856-2.066,7.885,7.885,0,0,1,5.823,2.193,5.063,5.063,0,0,1,3.861-.8,4.724,4.724,0,0,1,3.043,1.939,4.832,4.832,0,0,1,4.662.338,3.365,3.365,0,0,1,1.65,2.885c1.449.076,3.254.912,3.786,2.11a1.8,1.8,0,0,1-.363,2.015c1.992,1.958,2.038,3.985.162,6.334-1.311,1.641-3.706,3.126-6.048,2.753a12.634,12.634,0,0,1-2.07,1.989,7.2,7.2,0,0,1-3.345.794Zm-5.095-3.854a.563.563,0,0,1,.092.007.6.6,0,0,1,.5.5c.27,1.683,3.268,2.167,4.64,2.14a6.1,6.1,0,0,0,2.789-.645,16.616,16.616,0,0,0,1.722-1.68.56.56,0,0,1,.019-.1.6.6,0,0,1,.74-.422c1.969.54,4.114-.781,5.276-2.237,1.628-2.04,1.492-3.428-.5-5.119a.6.6,0,0,1-.212-.476.6.6,0,0,1,.239-.464c.735-.556.576-.913.517-1.048a3.665,3.665,0,0,0-3.259-1.37.6.6,0,0,1-.551-.178.6.6,0,0,1-.147-.559,2.132,2.132,0,0,0-1.035-2.367,3.47,3.47,0,0,0-3.841-.029.6.6,0,0,1-.508.111.6.6,0,0,1-.4-.325,3.471,3.471,0,0,0-2.523-1.861,3.814,3.814,0,0,0-3.284.881.6.6,0,0,1-.442.157.6.6,0,0,1-.421-.208,6.578,6.578,0,0,0-5.215-2.2,4.035,4.035,0,0,0-3.225,1.936.6.6,0,0,1-.736.24,12.32,12.32,0,0,1-1.2-.577,3.218,3.218,0,0,0-2.623-.51c-1.2.274-3.132,1.237-3.469,2.262a.6.6,0,0,1-.572.415h0a11.912,11.912,0,0,0-5.734.986,4.167,4.167,0,0,0-2.173,2.482,1.28,1.28,0,0,0,.35,1.1.453.453,0,0,1,.057.041.68.68,0,0,1,.16.871.654.654,0,0,1-.691.2,4.961,4.961,0,0,0-3.461,1.817,2.764,2.764,0,0,0-.013,2.315c.788,2.156,2.775,2.91,5.9,2.245a.6.6,0,0,1,.512.128.6.6,0,0,1,.216.483,2.281,2.281,0,0,0,2.076,2.261c1.3.133,2.219-.807,3.2-1.8l.265-.267a.6.6,0,0,1,.642-.138.6.6,0,0,1,.386.531c.107,2.007,2.288,2.385,2.954,2.452,1.958.2,4.358-.626,4.8-2.312a.6.6,0,0,1,.671-.443.6.6,0,0,1,.514.62,1.675,1.675,0,0,0,.473,1.259,4.374,4.374,0,0,0,2.854,1.118,2.982,2.982,0,0,0,3.141-1.886A.6.6,0,0,1,988.085-102.144Z" transform="translate(-957.488 120.856)" fill="#080000"/>
        </g>
      </g>
    </g>
    <g id="그룹_1015" data-name="그룹 1015" transform="translate(31.028 31.568)">
      <path id="패스_12566" data-name="패스 12566" d="M981.649-81.889h0a1.961,1.961,0,0,1-2.09,1.661c.2,4.154,1.835,4.244,3.211,3.51s.932-3.1.932-3.1A2.169,2.169,0,0,1,981.649-81.889Z" transform="translate(-979.003 83.249)" fill="#ec688a"/>
      <path id="패스_12567" data-name="패스 12567" d="M981.464-75.917a1.953,1.953,0,0,1-.974-.25c-.962-.546-1.483-1.9-1.591-4.14a.557.557,0,0,1,.171-.427.561.561,0,0,1,.432-.153,1.37,1.37,0,0,0,1.5-1.207h0l.148-.8a.557.557,0,0,1,.647-.445.556.556,0,0,1,.454.545.513.513,0,0,1-.01.1l-.135.736a1.6,1.6,0,0,0,1.527,1.481.561.561,0,0,1,.514.452c.021.114.5,2.783-1.217,3.7A3.126,3.126,0,0,1,981.464-75.917Zm-1.418-3.9c.17,1.924.685,2.506.993,2.681a1.432,1.432,0,0,0,1.366-.18c.715-.38.736-1.526.692-2.13a2.761,2.761,0,0,1-1.653-1.1A2.5,2.5,0,0,1,980.045-79.814Z" transform="translate(-978.898 83.354)" fill="#080000"/>
    </g>
  </g>
  <g id="그룹_431" data-name="그룹 431" transform="translate(17.829 46.439)">
    <g id="그룹_427" data-name="그룹 427" transform="translate(0.648 0.647)">
      <g id="그룹_426" data-name="그룹 426">
        <g id="그룹_425" data-name="그룹 425">
          <g id="선_2" data-name="선 2">
            <line id="선_16" data-name="선 16" x2="4.071" y2="9.961" fill="none"/>
          </g>
        </g>
      </g>
    </g>
    <g id="그룹_430" data-name="그룹 430" transform="translate(0 0)">
      <g id="그룹_429" data-name="그룹 429">
        <g id="그룹_428" data-name="그룹 428">
          <g id="패스_11810" data-name="패스 11810">
            <path id="패스_12568" data-name="패스 12568" d="M951.148-54.429a.649.649,0,0,1-.6-.4l-4.072-9.961a.649.649,0,0,1,.355-.845.648.648,0,0,1,.845.355l4.072,9.962a.647.647,0,0,1-.355.844h0A.644.644,0,0,1,951.148-54.429Z" transform="translate(-946.428 65.686)" fill="#0c0c0c"/>
          </g>
        </g>
      </g>
    </g>
  </g>
  <g id="그룹_1017" data-name="그룹 1017" transform="translate(0 19.705)">
    <path id="패스_12569" data-name="패스 12569" d="M928.5-77.065a.411.411,0,0,1,.14.4,6.843,6.843,0,0,0-.117,2.014,6.888,6.888,0,0,0,7.008,6.268h.015a21.321,21.321,0,0,0,5.4-.809,18.415,18.415,0,0,0,4.69-2.014,13.93,13.93,0,0,0,4.217-3.955c.008-.01.015-.021.024-.03a6.83,6.83,0,0,0,1.582-5.029,6.851,6.851,0,0,0-3.691-5.5.409.409,0,0,1-.221-.381,6.994,6.994,0,0,0-.02-.919,6.886,6.886,0,0,0-7.025-6.268.412.412,0,0,1-.357-.19,6.858,6.858,0,0,0-5.8-3.2c-.2,0-.409.009-.615.028a6.829,6.829,0,0,0-4.667,2.436,6.831,6.831,0,0,0-1.578,5.022,6.912,6.912,0,0,0,.4,1.794.411.411,0,0,1-.081.418,6.9,6.9,0,0,0-1.76,5.231A6.827,6.827,0,0,0,928.5-77.065Z" transform="translate(-925.369 97.325)" fill="#f6d4d7"/>
    <path id="패스_12570" data-name="패스 12570" d="M935.231-67.855a7.535,7.535,0,0,1-7.476-6.861,7.433,7.433,0,0,1,.1-2.064,7.465,7.465,0,0,1-2.58-5.033,7.548,7.548,0,0,1,1.83-5.616,7.6,7.6,0,0,1-.394-1.827,7.476,7.476,0,0,1,1.726-5.5,7.476,7.476,0,0,1,5.105-2.666,7.493,7.493,0,0,1,6.95,3.354h.067a7.535,7.535,0,0,1,7.486,6.861,7.616,7.616,0,0,1,.028.854,7.5,7.5,0,0,1,3.905,5.95,7.475,7.475,0,0,1-1.731,5.5,14.55,14.55,0,0,1-4.4,4.121A19.107,19.107,0,0,1,941-68.69a21.835,21.835,0,0,1-5.585.833C935.352-67.855,935.292-67.855,935.231-67.855Zm-6.439-9.83a1.057,1.057,0,0,1,.359,1.031,6.2,6.2,0,0,0-.106,1.824,6.251,6.251,0,0,0,6.347,5.678,20.744,20.744,0,0,0,5.254-.785,17.826,17.826,0,0,0,4.526-1.942,13.3,13.3,0,0,0,4.022-3.771l.061-.077a6.2,6.2,0,0,0,1.434-4.556,6.21,6.21,0,0,0-3.345-4.985,1.058,1.058,0,0,1-.57-.987,6.417,6.417,0,0,0-.018-.831,6.238,6.238,0,0,0-6.2-5.68c-.056,0-.109,0-.164,0a1.076,1.076,0,0,1-.921-.491,6.208,6.208,0,0,0-5.815-2.871,6.188,6.188,0,0,0-4.227,2.207A6.2,6.2,0,0,0,928-89.371a6.31,6.31,0,0,0,.367,1.625,1.055,1.055,0,0,1-.208,1.079,6.253,6.253,0,0,0-1.6,4.739,6.189,6.189,0,0,0,2.225,4.242Zm-.828,1ZM948.07-86.2v0Z" transform="translate(-925.247 97.447)" fill="#0f0f0f"/>
  </g>
</svg>
