<svg id="구성_요소_38_1" data-name="구성 요소 38 – 1" xmlns="http://www.w3.org/2000/svg" xmlns:xlink="http://www.w3.org/1999/xlink" width="194.839" height="205.395" viewBox="0 0 194.839 205.395">
  <defs>
    <linearGradient id="linear-gradient" x1="0.5" y1="1" x2="0.5" gradientUnits="objectBoundingBox">
      <stop offset="0" stop-color="#c97d9d"/>
      <stop offset="1" stop-color="#e5bdca"/>
    </linearGradient>
    <linearGradient id="linear-gradient-2" x1="-15.509" y1="0.5" x2="-14.509" y2="0.5" gradientUnits="objectBoundingBox">
      <stop offset="0" stop-color="#dbdbdb"/>
      <stop offset="1" stop-color="#ededed"/>
    </linearGradient>
    <linearGradient id="linear-gradient-3" x1="-8.481" y1="0.5" x2="-7.481" y2="0.5" gradientUnits="objectBoundingBox">
      <stop offset="0" stop-color="#e6e6e6"/>
      <stop offset="1" stop-color="#ededed"/>
    </linearGradient>
    <linearGradient id="linear-gradient-4" x1="-10.431" y1="0.5" x2="-9.431" y2="0.5" gradientUnits="objectBoundingBox">
      <stop offset="0" stop-color="#7784a5"/>
      <stop offset="1" stop-color="#67728f"/>
    </linearGradient>
    <linearGradient id="linear-gradient-5" x1="-7.208" y1="0.5" x2="-6.208" y2="0.5" xlink:href="#linear-gradient-4"/>
    <linearGradient id="linear-gradient-6" x1="-2.411" y1="1" x2="-2.411" y2="0" xlink:href="#linear-gradient-3"/>
    <linearGradient id="linear-gradient-7" x1="-64.878" y1="0.5" x2="-63.878" y2="0.5" gradientUnits="objectBoundingBox">
      <stop offset="0" stop-color="#fff"/>
      <stop offset="1" stop-color="#fff"/>
    </linearGradient>
    <linearGradient id="linear-gradient-8" x1="-17.215" y1="0.5" x2="-16.215" y2="0.5" gradientUnits="objectBoundingBox">
      <stop offset="0" stop-color="#ab6a85"/>
      <stop offset="1" stop-color="#c78aa2"/>
    </linearGradient>
    <linearGradient id="linear-gradient-9" x1="-28.216" y1="1" x2="-28.216" y2="0" xlink:href="#linear-gradient-2"/>
    <linearGradient id="linear-gradient-10" x1="-18.312" y1="1" x2="-18.312" y2="0" xlink:href="#linear-gradient-3"/>
    <linearGradient id="linear-gradient-11" x1="-24.625" y1="0.5" x2="-23.625" y2="0.5" xlink:href="#linear-gradient-4"/>
    <linearGradient id="linear-gradient-12" x1="-13.383" y1="0.5" x2="-12.383" y2="0.5" xlink:href="#linear-gradient-4"/>
    <linearGradient id="linear-gradient-13" x1="-5.258" y1="1" x2="-5.258" y2="0" xlink:href="#linear-gradient-3"/>
    <linearGradient id="linear-gradient-14" x1="-117.64" y1="0.5" x2="-116.64" y2="0.5" xlink:href="#linear-gradient-7"/>
    <linearGradient id="linear-gradient-15" x1="-13.594" y1="0.5" x2="-12.594" y2="0.5" xlink:href="#linear-gradient-8"/>
    <linearGradient id="linear-gradient-16" y1="0.5" x2="1" y2="0.5" gradientUnits="objectBoundingBox">
      <stop offset="0" stop-color="#ededed"/>
      <stop offset="1" stop-color="#fff"/>
    </linearGradient>
    <linearGradient id="linear-gradient-18" y1="0.5" x2="1" y2="0.5" gradientUnits="objectBoundingBox">
      <stop offset="0" stop-color="#99a6cc"/>
      <stop offset="1" stop-color="#8896bc"/>
    </linearGradient>
    <linearGradient id="linear-gradient-19" y1="0.5" x2="1" y2="0.5" gradientUnits="objectBoundingBox">
      <stop offset="0" stop-color="#535e7a"/>
      <stop offset="1" stop-color="#99a6cc"/>
    </linearGradient>
    <linearGradient id="linear-gradient-20" y1="0.5" x2="1" y2="0.5" gradientUnits="objectBoundingBox">
      <stop offset="0" stop-color="#8896bc"/>
      <stop offset="0.469" stop-color="#8896bc"/>
      <stop offset="1" stop-color="#99a6cc"/>
    </linearGradient>
    <linearGradient id="linear-gradient-22" x1="0" y1="0.5" x2="1" y2="0.5" xlink:href="#linear-gradient-3"/>
    <linearGradient id="linear-gradient-26" x1="0.5" y1="1" x2="0.5" y2="0" xlink:href="#linear-gradient-7"/>
    <linearGradient id="linear-gradient-27" x1="0" y1="0.5" x2="1" y2="0.5" xlink:href="#linear-gradient-7"/>
    <linearGradient id="linear-gradient-28" x1="0" y1="0.5" x2="1" y2="0.5" xlink:href="#linear-gradient"/>
    <linearGradient id="linear-gradient-29" x1="0.5" y1="1" x2="0.5" y2="0" xlink:href="#linear-gradient-3"/>
  </defs>
  <g id="그룹_113" data-name="그룹 113" transform="translate(84.447 94.529)">
    <rect id="사각형_52" data-name="사각형 52" width="26.025" height="88.484" fill="url(#linear-gradient)"/>
  </g>
  <g id="그룹_114" data-name="그룹 114" transform="translate(27.193 94.529)">
    <rect id="사각형_53" data-name="사각형 53" width="2.602" height="88.484" fill="#cb83a1"/>
    <rect id="사각형_54" data-name="사각형 54" width="2.602" height="88.484" transform="translate(33.832)" fill="#c17c9b"/>
    <rect id="사각형_55" data-name="사각형 55" width="2.602" height="88.484" transform="translate(69.226)" fill="#cb83a1"/>
    <rect id="사각형_56" data-name="사각형 56" width="2.082" height="88.484" transform="translate(105.14)" fill="#c17c9b"/>
    <rect id="사각형_57" data-name="사각형 57" width="2.082" height="88.484" transform="translate(139.607)" fill="#cb83a1"/>
  </g>
  <g id="그룹_128" data-name="그룹 128" transform="translate(37.037 133.154)">
    <g id="그룹_125" data-name="그룹 125">
      <g id="그룹_117" data-name="그룹 117" transform="translate(30.863 21.776)">
        <g id="그룹_116" data-name="그룹 116">
          <g id="그룹_115" data-name="그룹 115">
            <path id="패스_483" data-name="패스 483" d="M2351.386,2433.9l-4.058-6.366-4.291,2.5s3.711,4.369,5.094,6.052l1.975,5.329a1.925,1.925,0,0,0,2.53,1.011h0a1.926,1.926,0,0,0,1.011-2.53Z" transform="translate(-2343.037 -2427.533)" fill="url(#linear-gradient-2)"/>
          </g>
        </g>
      </g>
      <g id="그룹_120" data-name="그룹 120" transform="translate(4.247 21.776)">
        <g id="그룹_119" data-name="그룹 119">
          <g id="그룹_118" data-name="그룹 118">
            <path id="패스_484" data-name="패스 484" d="M2204.307,2433.9l3.682-6.366,7.291,3.182s-6.334,3.692-7.719,5.375l-2.348,5.329a1.927,1.927,0,0,1-2.531,1.011h0a1.927,1.927,0,0,1-1.012-2.53Z" transform="translate(-2201.513 -2427.533)" fill="url(#linear-gradient-3)"/>
          </g>
        </g>
      </g>
      <path id="패스_485" data-name="패스 485" d="M2188.951,2382.3s-5.686.483-6.184,5.386-1.35,11.154-3.836,11.509a3.4,3.4,0,0,0,4.12-2.437c1.066-3.247,3.482-6.433,5.614-6.859Z" transform="translate(-2178.932 -2369.034)" fill="url(#linear-gradient-4)"/>
      <path id="패스_486" data-name="패스 486" d="M2310.591,2319.2s-2.539-2.591-6.352,0c-.7.472-15.522,10.081-15.522,10.081l6.965.612Z" transform="translate(-2268.071 -2316.862)" fill="url(#linear-gradient-5)"/>
      <g id="그룹_122" data-name="그룹 122" transform="translate(0.498 1.914)">
        <g id="그룹_121" data-name="그룹 121">
          <path id="패스_487" data-name="패스 487" d="M2181.735,2354.148l2.638-6,3.663-6.332a36.207,36.207,0,0,1,.319-5.05c1.039-4.4,6.189-4.342,6.189-4.342h12.882c2.042,0,8.891-6.671,11.233-9.066a4.544,4.544,0,0,1,4.086-1.326c4.128,1.172,8.47,7.25,8.772,9.123,0,0,.119.637-.219.91-.057.143-.012.373-.2.6-.092.109-.27.11-.485.129.017.192-.177.4-.294.522-.7.707-8.021-1.32-8.449-1.025-1.863,1.285-1.764,9.987-1.749,10.877l3.176,4.981,2.261,6a1.927,1.927,0,0,1-3.543,1.518l-1.974-5.328c-1.238-1.5-4.334-5.156-4.976-5.911a52.322,52.322,0,0,1-19.06.163s-6.993,4.066-8.376,5.748l-2.349,5.328a1.927,1.927,0,0,1-3.543-1.518Z" transform="translate(-2181.58 -2321.918)" fill="url(#linear-gradient-6)"/>
        </g>
      </g>
      <path id="패스_488" data-name="패스 488" d="M2414.105,2340.418c.112.308.363.5.56.427s.265-.38.153-.688-.364-.5-.561-.428S2413.992,2340.109,2414.105,2340.418Z" transform="translate(-2369.833 -2334.453)" fill="#535e7a"/>
      <g id="그룹_124" data-name="그룹 124" transform="translate(38.821)">
        <g id="그룹_123" data-name="그룹 123">
          <path id="패스_489" data-name="패스 489" d="M2385.372,2315.1s.177-1.43,2.675-3.354a6.551,6.551,0,0,0-.665,2.361s.064.287-.11.361c-.479.2-1.745.834-1.745.834S2385.281,2315.305,2385.372,2315.1Z" transform="translate(-2385.352 -2311.743)" fill="url(#linear-gradient-7)"/>
        </g>
      </g>
    </g>
    <g id="그룹_127" data-name="그룹 127" transform="translate(30.148 8.447)">
      <g id="그룹_126" data-name="그룹 126">
        <path id="패스_490" data-name="패스 490" d="M2341.321,2356.657s3.92,4.646,7.463,6.078a56.332,56.332,0,0,0-.661,7.268s-7.021-4.523-8.885-11.588Z" transform="translate(-2339.237 -2356.657)" fill="url(#linear-gradient-8)"/>
      </g>
    </g>
  </g>
  <g id="그룹_143" data-name="그룹 143" transform="translate(108.146 133.154)">
    <g id="그룹_139" data-name="그룹 139">
      <g id="그룹_131" data-name="그룹 131" transform="translate(30.863 21.776)">
        <g id="그룹_130" data-name="그룹 130">
          <g id="그룹_129" data-name="그룹 129">
            <path id="패스_491" data-name="패스 491" d="M2729.49,2433.9l-4.057-6.366-4.292,2.5s3.71,4.369,5.095,6.052l1.975,5.329a1.925,1.925,0,0,0,2.53,1.011h0a1.926,1.926,0,0,0,1.012-2.53Z" transform="translate(-2721.14 -2427.533)" fill="url(#linear-gradient-9)"/>
          </g>
        </g>
      </g>
      <g id="그룹_134" data-name="그룹 134" transform="translate(4.247 21.776)">
        <g id="그룹_133" data-name="그룹 133">
          <g id="그룹_132" data-name="그룹 132">
            <path id="패스_492" data-name="패스 492" d="M2582.411,2433.9l3.682-6.366,7.291,3.182s-6.335,3.692-7.719,5.375l-2.348,5.329a1.927,1.927,0,0,1-2.531,1.011h0a1.928,1.928,0,0,1-1.013-2.53Z" transform="translate(-2579.617 -2427.533)" fill="url(#linear-gradient-10)"/>
          </g>
        </g>
      </g>
      <path id="패스_493" data-name="패스 493" d="M2567.054,2382.3s-5.686.483-6.183,5.386-1.35,11.154-3.836,11.509a3.4,3.4,0,0,0,4.12-2.437c1.065-3.247,3.146-5.539,5.277-5.966Z" transform="translate(-2557.035 -2369.034)" fill="url(#linear-gradient-11)"/>
      <path id="패스_494" data-name="패스 494" d="M2689.271,2319.015s-2.068-3.5-7.423.054c-.7.464-15.028,9.747-15.028,9.747l6.965.612Z" transform="translate(-2646.174 -2316.399)" fill="url(#linear-gradient-12)"/>
      <g id="그룹_136" data-name="그룹 136" transform="translate(0.498 1.914)">
        <g id="그룹_135" data-name="그룹 135">
          <path id="패스_495" data-name="패스 495" d="M2559.841,2354.148l2.637-6,3.662-6.332a36.245,36.245,0,0,1,.319-5.05c1.039-4.4,6.189-4.342,6.189-4.342h12.882c2.042,0,8.891-6.671,11.233-9.066a4.542,4.542,0,0,1,4.086-1.326c4.128,1.172,8.47,7.25,8.772,9.123,0,0,.119.637-.218.91-.057.143-.012.373-.2.6-.092.109-.27.11-.485.129.018.192-.176.4-.293.522-.7.707-8.021-1.32-8.449-1.025-1.863,1.285-1.763,9.991-1.749,10.878l3.175,4.981,2.262,6a1.927,1.927,0,0,1-3.542,1.518l-1.974-5.328c-1.238-1.5-4.333-5.155-4.975-5.911a52.323,52.323,0,0,1-19.06.163s-6.992,4.066-8.376,5.748l-2.349,5.328a1.927,1.927,0,0,1-3.542-1.518Z" transform="translate(-2559.684 -2321.918)" fill="url(#linear-gradient-13)"/>
        </g>
      </g>
      <path id="패스_496" data-name="패스 496" d="M2792.209,2340.418c.112.308.363.5.561.427s.264-.38.153-.688-.365-.5-.561-.428S2792.1,2340.109,2792.209,2340.418Z" transform="translate(-2747.936 -2334.453)" fill="#535e7a"/>
      <g id="그룹_138" data-name="그룹 138" transform="translate(38.821)">
        <g id="그룹_137" data-name="그룹 137">
          <path id="패스_497" data-name="패스 497" d="M2763.475,2315.1s.176-1.43,2.675-3.354a6.553,6.553,0,0,0-.666,2.361s.065.287-.109.361c-.479.2-1.746.834-1.746.834S2763.384,2315.305,2763.475,2315.1Z" transform="translate(-2763.455 -2311.743)" fill="url(#linear-gradient-14)"/>
        </g>
      </g>
    </g>
    <g id="그룹_142" data-name="그룹 142" transform="translate(7.126 12.245)">
      <g id="그룹_141" data-name="그룹 141">
        <g id="그룹_140" data-name="그룹 140">
          <path id="패스_498" data-name="패스 498" d="M2601.142,2377.028s13.628-.16,13.71-.175c-.143,2.882-2.051,9.436-12.132,7.707a22.875,22.875,0,0,1-7.8-2.147,7.487,7.487,0,0,1,.116-.952C2596.113,2376.955,2601.142,2377.028,2601.142,2377.028Z" transform="translate(-2594.926 -2376.853)" fill="url(#linear-gradient-15)"/>
        </g>
      </g>
    </g>
  </g>
  <g id="그룹_146" data-name="그룹 146" transform="translate(13.54 10.754)">
    <g id="그룹_144" data-name="그룹 144">
      <path id="패스_499" data-name="패스 499" d="M2138.118,1660.921s-40.31,66.6-84.125,65.557h43.815S2129.355,1713.97,2138.118,1660.921Z" transform="translate(-2053.993 -1660.921)" fill="#ef4343"/>
    </g>
    <path id="패스_500" data-name="패스 500" d="M2286.969,1726.478s31.513-12.508,40.311-65.557l-.216,65.557Z" transform="translate(-2243.154 -1660.921)" fill="url(#linear-gradient-16)"/>
    <path id="패스_501" data-name="패스 501" d="M2501.308,1660.921s40.31,66.6,84.125,65.557h-43.815S2510.071,1713.97,2501.308,1660.921Z" transform="translate(-2417.182 -1660.921)" fill="url(#linear-gradient-16)"/>
    <g id="그룹_145" data-name="그룹 145" transform="translate(83.91)">
      <path id="패스_502" data-name="패스 502" d="M2540.685,1726.478s-31.512-12.508-40.31-65.557h0l-.216,65.557Z" transform="translate(-2500.159 -1660.921)" fill="#ef4343"/>
    </g>
  </g>
  <g id="그룹_150" data-name="그룹 150" transform="translate(12.599 71.157)">
    <g id="그룹_147" data-name="그룹 147">
      <path id="패스_503" data-name="패스 503" d="M2219.733,2002.862v-17.784s.245-2.986-7.58-2.986-10.973,5.169-19.789,2.986h0c-3.525-.964-6.722-2.986-11.685-2.986s-7.982,2.021-11.509,2.986h0c-8.816,2.184-11.95-2.986-19.776-2.986s-10.847,5.169-19.664,2.986h0c-3.527-.964-6.531-2.986-11.494-2.986-7.825,0-10.846,5.169-19.663,2.986h0c-3.526-.964-6.53-2.986-11.493-2.986s-8.123,2.021-11.649,2.986h0c-8.817,2.184-11.525-2.986-19.351-2.986s-7.068,2.986-7.068,2.986v17.784Z" transform="translate(-2048.991 -1982.092)" fill="#ef4c4e"/>
    </g>
    <g id="그룹_148" data-name="그룹 148" transform="translate(4.036 6.867)">
      <path id="패스_504" data-name="패스 504" d="M2075.334,2018.6l1.509,3.059,3.375.49-2.442,2.381.576,3.361-3.018-1.587-3.019,1.587.577-3.361-2.442-2.381,3.375-.49Z" transform="translate(-2070.45 -2018.604)" fill="#f9c7d4"/>
      <path id="패스_505" data-name="패스 505" d="M2236.13,2018.6l1.509,3.059,3.376.49-2.442,2.381.575,3.361-3.019-1.587-3.019,1.587.576-3.361-2.441-2.381,3.374-.49Z" transform="translate(-2201.005 -2018.604)" fill="#f9c7d4"/>
      <path id="패스_506" data-name="패스 506" d="M2396.929,2018.6l1.51,3.059,3.375.49-2.442,2.381.576,3.361-3.02-1.587-3.018,1.587.576-3.361-2.442-2.381,3.375-.49Z" transform="translate(-2331.563 -2018.604)" fill="#f9c7d4"/>
      <path id="패스_507" data-name="패스 507" d="M2557.729,2018.6l1.51,3.059,3.375.49-2.442,2.381.576,3.361-3.018-1.587-3.019,1.587.576-3.361-2.443-2.381,3.376-.49Z" transform="translate(-2462.12 -2018.604)" fill="#f9c7d4"/>
      <path id="패스_508" data-name="패스 508" d="M2718.528,2018.6l1.51,3.059,3.374.49-2.441,2.381.576,3.361-3.019-1.587-3.019,1.587.576-3.361-2.443-2.381,3.377-.49Z" transform="translate(-2592.678 -2018.604)" fill="#f9c7d4"/>
      <path id="패스_509" data-name="패스 509" d="M2879.33,2018.6l1.509,3.059,3.376.49-2.443,2.381.577,3.361-3.019-1.587-3.018,1.587.575-3.361-2.441-2.381,3.375-.49Z" transform="translate(-2723.24 -2018.604)" fill="#f9c7d4"/>
    </g>
    <g id="그룹_149" data-name="그룹 149" transform="translate(1.328 1.495)">
      <path id="패스_510" data-name="패스 510" d="M2057.41,1993.7a.678.678,0,1,1-.679-.678A.679.679,0,0,1,2057.41,1993.7Z" transform="translate(-2056.054 -1992.458)" fill="#f9c7d4"/>
      <path id="패스_511" data-name="패스 511" d="M2075.24,1990.721a.678.678,0,1,1-.678-.678A.678.678,0,0,1,2075.24,1990.721Z" transform="translate(-2070.531 -1990.043)" fill="#f9c7d4"/>
      <path id="패스_512" data-name="패스 512" d="M2093.071,1990.721a.679.679,0,1,1-.678-.678A.678.678,0,0,1,2093.071,1990.721Z" transform="translate(-2085.007 -1990.043)" fill="#f9c7d4"/>
      <path id="패스_513" data-name="패스 513" d="M2110.9,1996.667a.679.679,0,1,1-.679-.678A.679.679,0,0,1,2110.9,1996.667Z" transform="translate(-2099.487 -1994.871)" fill="#f9c7d4"/>
      <path id="패스_514" data-name="패스 514" d="M2128.737,2002.612a.678.678,0,1,1-.678-.678A.678.678,0,0,1,2128.737,2002.612Z" transform="translate(-2113.967 -1999.698)" fill="#f9c7d4"/>
      <path id="패스_515" data-name="패스 515" d="M2146.57,2008.554a.678.678,0,1,1-.678-.678A.678.678,0,0,1,2146.57,2008.554Z" transform="translate(-2128.446 -2004.522)" fill="#f9c7d4"/>
      <path id="패스_516" data-name="패스 516" d="M2164.4,2011.528a.679.679,0,1,1-.678-.678A.679.679,0,0,1,2164.4,2011.528Z" transform="translate(-2142.921 -2006.937)" fill="#f9c7d4"/>
      <path id="패스_517" data-name="패스 517" d="M2270.032,1993.7a.678.678,0,1,0,.678-.678A.678.678,0,0,0,2270.032,1993.7Z" transform="translate(-2229.79 -1992.458)" fill="#f9c7d4"/>
      <path id="패스_518" data-name="패스 518" d="M2252.2,1990.721a.678.678,0,1,0,.678-.678A.678.678,0,0,0,2252.2,1990.721Z" transform="translate(-2215.312 -1990.043)" fill="#f9c7d4"/>
      <path id="패스_519" data-name="패스 519" d="M2234.369,1993.7a.678.678,0,1,0,.678-.678A.677.677,0,0,0,2234.369,1993.7Z" transform="translate(-2200.834 -1992.458)" fill="#f9c7d4"/>
      <path id="패스_520" data-name="패스 520" d="M2216.536,1999.64a.679.679,0,1,0,.679-.678A.679.679,0,0,0,2216.536,1999.64Z" transform="translate(-2186.354 -1997.285)" fill="#f9c7d4"/>
      <path id="패스_521" data-name="패스 521" d="M2198.707,2005.584a.678.678,0,1,0,.679-.678A.678.678,0,0,0,2198.707,2005.584Z" transform="translate(-2171.878 -2002.111)" fill="#f9c7d4"/>
      <path id="패스_522" data-name="패스 522" d="M2180.873,2011.528a.679.679,0,1,0,.679-.678A.678.678,0,0,0,2180.873,2011.528Z" transform="translate(-2157.399 -2006.937)" fill="#f9c7d4"/>
      <path id="패스_523" data-name="패스 523" d="M2289.22,1999.64a.679.679,0,1,1-.679-.678A.679.679,0,0,1,2289.22,1999.64Z" transform="translate(-2244.267 -1997.285)" fill="#f9c7d4"/>
      <path id="패스_524" data-name="패스 524" d="M2307.054,2005.584a.678.678,0,1,1-.68-.678A.679.679,0,0,1,2307.054,2005.584Z" transform="translate(-2258.747 -2002.111)" fill="#f9c7d4"/>
      <path id="패스_525" data-name="패스 525" d="M2324.886,2011.528a.678.678,0,1,1-.679-.678A.679.679,0,0,1,2324.886,2011.528Z" transform="translate(-2273.225 -2006.937)" fill="#f9c7d4"/>
      <path id="패스_526" data-name="패스 526" d="M2430.517,1993.7a.678.678,0,1,0,.679-.678A.678.678,0,0,0,2430.517,1993.7Z" transform="translate(-2360.092 -1992.458)" fill="#f9c7d4"/>
      <path id="패스_527" data-name="패스 527" d="M2412.683,1993.7a.678.678,0,1,0,.68-.678A.679.679,0,0,0,2412.683,1993.7Z" transform="translate(-2345.612 -1992.458)" fill="#f9c7d4"/>
      <path id="패스_528" data-name="패스 528" d="M2394.859,1996.667a.678.678,0,1,0,.677-.678A.678.678,0,0,0,2394.859,1996.667Z" transform="translate(-2331.141 -1994.871)" fill="#f9c7d4"/>
      <path id="패스_529" data-name="패스 529" d="M2377.021,2002.612a.679.679,0,1,0,.679-.678A.679.679,0,0,0,2377.021,2002.612Z" transform="translate(-2316.657 -1999.698)" fill="#f9c7d4"/>
      <path id="패스_530" data-name="패스 530" d="M2359.191,2008.554a.678.678,0,1,0,.678-.678A.678.678,0,0,0,2359.191,2008.554Z" transform="translate(-2302.18 -2004.522)" fill="#f9c7d4"/>
      <path id="패스_531" data-name="패스 531" d="M2341.364,2011.528a.678.678,0,1,0,.678-.678A.677.677,0,0,0,2341.364,2011.528Z" transform="translate(-2287.706 -2006.937)" fill="#f9c7d4"/>
      <path id="패스_532" data-name="패스 532" d="M2449.706,1999.64a.679.679,0,1,1-.679-.678A.68.68,0,0,1,2449.706,1999.64Z" transform="translate(-2374.57 -1997.285)" fill="#f9c7d4"/>
      <path id="패스_533" data-name="패스 533" d="M2467.534,2005.584a.678.678,0,1,1-.677-.678A.677.677,0,0,1,2467.534,2005.584Z" transform="translate(-2389.047 -2002.111)" fill="#f9c7d4"/>
      <path id="패스_534" data-name="패스 534" d="M2485.37,2011.528a.678.678,0,1,1-.678-.678A.678.678,0,0,1,2485.37,2011.528Z" transform="translate(-2403.528 -2006.937)" fill="#f9c7d4"/>
      <path id="패스_535" data-name="패스 535" d="M2573.171,1993.7a.677.677,0,1,0,.678-.678A.678.678,0,0,0,2573.171,1993.7Z" transform="translate(-2475.918 -1992.458)" fill="#f9c7d4"/>
      <path id="패스_536" data-name="패스 536" d="M2555.341,1996.667a.679.679,0,1,0,.678-.678A.678.678,0,0,0,2555.341,1996.667Z" transform="translate(-2461.441 -1994.871)" fill="#f9c7d4"/>
      <path id="패스_537" data-name="패스 537" d="M2537.507,2002.612a.679.679,0,1,0,.679-.678A.678.678,0,0,0,2537.507,2002.612Z" transform="translate(-2446.961 -1999.698)" fill="#f9c7d4"/>
      <path id="패스_538" data-name="패스 538" d="M2519.676,2008.554a.678.678,0,1,0,.678-.678A.678.678,0,0,0,2519.676,2008.554Z" transform="translate(-2432.483 -2004.522)" fill="#f9c7d4"/>
      <path id="패스_539" data-name="패스 539" d="M2501.844,2011.528a.679.679,0,1,0,.679-.678A.678.678,0,0,0,2501.844,2011.528Z" transform="translate(-2418.005 -2006.937)" fill="#f9c7d4"/>
      <path id="패스_540" data-name="패스 540" d="M2591.314,1993.7a.678.678,0,1,0,.678-.678A.678.678,0,0,0,2591.314,1993.7Z" transform="translate(-2490.648 -1992.458)" fill="#f9c7d4"/>
      <path id="패스_541" data-name="패스 541" d="M2610.505,1999.64a.679.679,0,1,1-.678-.678A.679.679,0,0,1,2610.505,1999.64Z" transform="translate(-2505.128 -1997.285)" fill="#f9c7d4"/>
      <path id="패스_542" data-name="패스 542" d="M2628.338,2005.584a.678.678,0,1,1-.678-.678A.678.678,0,0,1,2628.338,2005.584Z" transform="translate(-2519.608 -2002.111)" fill="#f9c7d4"/>
      <path id="패스_543" data-name="패스 543" d="M2646.169,2011.528a.679.679,0,1,1-.679-.678A.679.679,0,0,1,2646.169,2011.528Z" transform="translate(-2534.085 -2006.937)" fill="#f9c7d4"/>
      <path id="패스_544" data-name="패스 544" d="M2733.966,1993.7a.679.679,0,1,0,.679-.678A.679.679,0,0,0,2733.966,1993.7Z" transform="translate(-2606.473 -1992.458)" fill="#f9c7d4"/>
      <path id="패스_545" data-name="패스 545" d="M2754.437,1993.7a.678.678,0,1,0,.678-.678A.678.678,0,0,0,2754.437,1993.7Z" transform="translate(-2623.093 -1992.458)" fill="#f9c7d4"/>
      <path id="패스_546" data-name="패스 546" d="M2716.142,1996.667a.678.678,0,1,0,.678-.678A.678.678,0,0,0,2716.142,1996.667Z" transform="translate(-2592 -1994.871)" fill="#f9c7d4"/>
      <path id="패스_547" data-name="패스 547" d="M2698.307,2002.612a.678.678,0,1,0,.678-.678A.677.677,0,0,0,2698.307,2002.612Z" transform="translate(-2577.52 -1999.698)" fill="#f9c7d4"/>
      <path id="패스_548" data-name="패스 548" d="M2680.48,2008.554a.678.678,0,1,0,.677-.678A.677.677,0,0,0,2680.48,2008.554Z" transform="translate(-2563.045 -2004.522)" fill="#f9c7d4"/>
      <path id="패스_549" data-name="패스 549" d="M2662.647,2011.528a.678.678,0,1,0,.678-.678A.678.678,0,0,0,2662.647,2011.528Z" transform="translate(-2548.566 -2006.937)" fill="#f9c7d4"/>
      <path id="패스_550" data-name="패스 550" d="M2777.149,1999.64a.679.679,0,1,1-.679-.678A.679.679,0,0,1,2777.149,1999.64Z" transform="translate(-2640.431 -1997.285)" fill="#f9c7d4"/>
      <path id="패스_551" data-name="패스 551" d="M2794.981,2005.584a.679.679,0,1,1-.678-.678A.678.678,0,0,1,2794.981,2005.584Z" transform="translate(-2654.91 -2002.111)" fill="#f9c7d4"/>
      <path id="패스_552" data-name="패스 552" d="M2812.816,2011.528a.679.679,0,1,1-.679-.678A.679.679,0,0,1,2812.816,2011.528Z" transform="translate(-2669.391 -2006.937)" fill="#f9c7d4"/>
      <path id="패스_553" data-name="패스 553" d="M2900.616,1993.7a.678.678,0,1,0,.678-.678A.678.678,0,0,0,2900.616,1993.7Z" transform="translate(-2741.781 -1992.458)" fill="#f9c7d4"/>
      <path id="패스_554" data-name="패스 554" d="M2921.081,1993.7a.678.678,0,1,0,.679-.678A.679.679,0,0,0,2921.081,1993.7Z" transform="translate(-2758.397 -1992.458)" fill="#f9c7d4"/>
      <path id="패스_555" data-name="패스 555" d="M2938.625,1996.62a.678.678,0,1,0,.678-.677A.678.678,0,0,0,2938.625,1996.62Z" transform="translate(-2772.641 -1994.833)" fill="#f9c7d4"/>
      <path id="패스_556" data-name="패스 556" d="M2882.785,1996.667a.678.678,0,1,0,.678-.678A.678.678,0,0,0,2882.785,1996.667Z" transform="translate(-2727.303 -1994.871)" fill="#f9c7d4"/>
      <path id="패스_557" data-name="패스 557" d="M2864.954,2002.612a.678.678,0,1,0,.679-.678A.678.678,0,0,0,2864.954,2002.612Z" transform="translate(-2712.825 -1999.698)" fill="#f9c7d4"/>
      <path id="패스_558" data-name="패스 558" d="M2847.124,2008.554a.679.679,0,1,0,.678-.678A.678.678,0,0,0,2847.124,2008.554Z" transform="translate(-2698.349 -2004.522)" fill="#f9c7d4"/>
      <path id="패스_559" data-name="패스 559" d="M2829.289,2011.528a.679.679,0,1,0,.679-.678A.678.678,0,0,0,2829.289,2011.528Z" transform="translate(-2683.868 -2006.937)" fill="#f9c7d4"/>
    </g>
  </g>
  <path id="패스_560" data-name="패스 560" d="M2268.277,2100.978c-4.257-2.838-10.663-4.719-17.821-4.719s-13.5,1.767-17.758,4.6c-4.258-2.837-10.659-4.661-17.818-4.661s-13.507,1.795-17.764,4.633c-4.26-2.838-10.659-4.648-17.817-4.648s-13.5,1.8-17.756,4.641c-4.259-2.838-10.319-4.644-17.476-4.644s-14.354,1.8-17.477,4.641v-8.295h141.674Z" transform="translate(-2099.396 -2000.603)" fill="url(#linear-gradient-18)"/>
  <g id="그룹_152" data-name="그룹 152" transform="translate(87.874)">
    <g id="그룹_151" data-name="그룹 151" transform="translate(4.675)">
      <path id="패스_561" data-name="패스 561" d="M2479.217,1603.738a103.9,103.9,0,0,1-5.117,16.454h10.233A104,104,0,0,1,2479.217,1603.738Z" transform="translate(-2474.1 -1603.738)" fill="#f7a1a1"/>
    </g>
    <path id="패스_562" data-name="패스 562" d="M2468.828,1699.557c-1.7-2.082-3.4-5.725-4.676-8.328h-10.234c-1.278,2.6-2.974,6.246-4.675,8.328Z" transform="translate(-2449.243 -1674.775)" fill="url(#linear-gradient-19)"/>
  </g>
  <g id="그룹_153" data-name="그룹 153" transform="translate(92.338 19.191)">
    <path id="패스_563" data-name="패스 563" d="M2474.449,1705.779l.456.922,1.017.148-.735.717.172,1.013-.91-.478-.908.478.173-1.013-.736-.717,1.018-.148Z" transform="translate(-2472.978 -1705.779)" fill="#f9c7d4"/>
    <path id="패스_564" data-name="패스 564" d="M2494.915,1705.779l.456.922,1.017.148-.736.717.173,1.013-.91-.478-.91.478.172-1.013-.734-.717,1.017-.148Z" transform="translate(-2489.594 -1705.779)" fill="#f9c7d4"/>
    <path id="패스_565" data-name="패스 565" d="M2515.378,1705.779l.455.922,1.017.148-.735.717.172,1.013-.909-.478-.909.478.173-1.013-.736-.717,1.018-.148Z" transform="translate(-2506.209 -1705.779)" fill="#f9c7d4"/>
  </g>
  <rect id="사각형_58" data-name="사각형 58" width="154.587" height="10.93" transform="translate(19.385 183.013)" fill="url(#linear-gradient-20)"/>
  <rect id="사각형_59" data-name="사각형 59" width="173.325" height="12.878" transform="translate(10.016 192.517)" fill="url(#linear-gradient-19)"/>
  <g id="그룹_154" data-name="그룹 154" transform="translate(21.07 187.302)">
    <path id="패스_566" data-name="패스 566" d="M2095.392,2600.343a.68.68,0,1,1-.679-.68A.68.68,0,0,1,2095.392,2600.343Z" transform="translate(-2094.032 -2599.662)" fill="#f9c7d4"/>
    <path id="패스_567" data-name="패스 567" d="M2113.044,2600.343a.68.68,0,1,1-.679-.68A.68.68,0,0,1,2113.044,2600.343Z" transform="translate(-2108.365 -2599.662)" fill="#f9c7d4"/>
    <path id="패스_568" data-name="패스 568" d="M2130.7,2600.343a.68.68,0,1,1-.679-.68A.68.68,0,0,1,2130.7,2600.343Z" transform="translate(-2122.699 -2599.662)" fill="#f9c7d4"/>
    <path id="패스_569" data-name="패스 569" d="M2148.354,2600.343a.68.68,0,1,1-.68-.68A.68.68,0,0,1,2148.354,2600.343Z" transform="translate(-2137.034 -2599.662)" fill="#f9c7d4"/>
    <path id="패스_570" data-name="패스 570" d="M2166.007,2600.343a.68.68,0,1,1-.679-.68A.68.68,0,0,1,2166.007,2600.343Z" transform="translate(-2151.368 -2599.662)" fill="#f9c7d4"/>
    <path id="패스_571" data-name="패스 571" d="M2183.66,2600.343a.68.68,0,1,1-.68-.68A.68.68,0,0,1,2183.66,2600.343Z" transform="translate(-2165.701 -2599.662)" fill="#f9c7d4"/>
    <path id="패스_572" data-name="패스 572" d="M2201.314,2600.343a.68.68,0,1,1-.68-.68A.68.68,0,0,1,2201.314,2600.343Z" transform="translate(-2180.034 -2599.662)" fill="#f9c7d4"/>
    <path id="패스_573" data-name="패스 573" d="M2218.966,2600.343a.679.679,0,1,1-.679-.68A.679.679,0,0,1,2218.966,2600.343Z" transform="translate(-2194.367 -2599.662)" fill="#f9c7d4"/>
    <path id="패스_574" data-name="패스 574" d="M2236.622,2600.343a.68.68,0,1,1-.68-.68A.68.68,0,0,1,2236.622,2600.343Z" transform="translate(-2208.702 -2599.662)" fill="#f9c7d4"/>
    <path id="패스_575" data-name="패스 575" d="M2254.276,2600.343a.68.68,0,1,1-.679-.68A.68.68,0,0,1,2254.276,2600.343Z" transform="translate(-2223.035 -2599.662)" fill="#f9c7d4"/>
    <path id="패스_576" data-name="패스 576" d="M2271.928,2600.343a.679.679,0,1,1-.679-.68A.679.679,0,0,1,2271.928,2600.343Z" transform="translate(-2237.369 -2599.662)" fill="#f9c7d4"/>
    <path id="패스_577" data-name="패스 577" d="M2289.582,2600.343a.679.679,0,1,1-.679-.68A.679.679,0,0,1,2289.582,2600.343Z" transform="translate(-2251.701 -2599.662)" fill="#f9c7d4"/>
    <path id="패스_578" data-name="패스 578" d="M2307.235,2600.343a.68.68,0,1,1-.679-.68A.68.68,0,0,1,2307.235,2600.343Z" transform="translate(-2266.035 -2599.662)" fill="#f9c7d4"/>
    <path id="패스_579" data-name="패스 579" d="M2324.89,2600.343a.68.68,0,1,1-.681-.68A.68.68,0,0,1,2324.89,2600.343Z" transform="translate(-2280.368 -2599.662)" fill="#f9c7d4"/>
    <path id="패스_580" data-name="패스 580" d="M2342.543,2600.343a.68.68,0,1,1-.681-.68A.68.68,0,0,1,2342.543,2600.343Z" transform="translate(-2294.701 -2599.662)" fill="#f9c7d4"/>
    <path id="패스_581" data-name="패스 581" d="M2360.2,2600.343a.681.681,0,1,1-.68-.68A.681.681,0,0,1,2360.2,2600.343Z" transform="translate(-2309.033 -2599.662)" fill="#f9c7d4"/>
    <path id="패스_582" data-name="패스 582" d="M2377.851,2600.343a.68.68,0,1,1-.68-.68A.679.679,0,0,1,2377.851,2600.343Z" transform="translate(-2323.369 -2599.662)" fill="#f9c7d4"/>
    <path id="패스_583" data-name="패스 583" d="M2395.5,2600.343a.68.68,0,1,1-.68-.68A.68.68,0,0,1,2395.5,2600.343Z" transform="translate(-2337.703 -2599.662)" fill="#f9c7d4"/>
    <path id="패스_584" data-name="패스 584" d="M2413.157,2600.343a.68.68,0,1,1-.679-.68A.679.679,0,0,1,2413.157,2600.343Z" transform="translate(-2352.035 -2599.662)" fill="#f9c7d4"/>
    <path id="패스_585" data-name="패스 585" d="M2430.811,2600.343a.68.68,0,1,1-.681-.68A.68.68,0,0,1,2430.811,2600.343Z" transform="translate(-2366.37 -2599.662)" fill="#f9c7d4"/>
    <path id="패스_586" data-name="패스 586" d="M2448.462,2600.343a.68.68,0,1,1-.68-.68A.679.679,0,0,1,2448.462,2600.343Z" transform="translate(-2380.701 -2599.662)" fill="#f9c7d4"/>
    <path id="패스_587" data-name="패스 587" d="M2466.119,2600.343a.68.68,0,1,1-.679-.68A.68.68,0,0,1,2466.119,2600.343Z" transform="translate(-2395.037 -2599.662)" fill="#f9c7d4"/>
    <path id="패스_588" data-name="패스 588" d="M2483.774,2600.343a.68.68,0,1,1-.68-.68A.68.68,0,0,1,2483.774,2600.343Z" transform="translate(-2409.372 -2599.662)" fill="#f9c7d4"/>
    <path id="패스_589" data-name="패스 589" d="M2501.422,2600.343a.68.68,0,1,1-.68-.68A.679.679,0,0,1,2501.422,2600.343Z" transform="translate(-2423.7 -2599.662)" fill="#f9c7d4"/>
    <path id="패스_590" data-name="패스 590" d="M2519.082,2600.343a.68.68,0,1,1-.68-.68A.68.68,0,0,1,2519.082,2600.343Z" transform="translate(-2438.04 -2599.662)" fill="#f9c7d4"/>
    <path id="패스_591" data-name="패스 591" d="M2536.731,2600.343a.68.68,0,1,1-.68-.68A.68.68,0,0,1,2536.731,2600.343Z" transform="translate(-2452.368 -2599.662)" fill="#f9c7d4"/>
    <path id="패스_592" data-name="패스 592" d="M2554.386,2600.343a.679.679,0,1,1-.679-.68A.679.679,0,0,1,2554.386,2600.343Z" transform="translate(-2466.705 -2599.662)" fill="#f9c7d4"/>
    <path id="패스_593" data-name="패스 593" d="M2572.043,2600.343a.68.68,0,1,1-.68-.68A.68.68,0,0,1,2572.043,2600.343Z" transform="translate(-2481.041 -2599.662)" fill="#f9c7d4"/>
    <path id="패스_594" data-name="패스 594" d="M2591.052,2600.343a.68.68,0,1,1-.68-.68A.68.68,0,0,1,2591.052,2600.343Z" transform="translate(-2496.475 -2599.662)" fill="#f9c7d4"/>
    <path id="패스_595" data-name="패스 595" d="M2608.75,2600.343a.68.68,0,1,1-.681-.68A.681.681,0,0,1,2608.75,2600.343Z" transform="translate(-2510.844 -2599.662)" fill="#f9c7d4"/>
    <path id="패스_596" data-name="패스 596" d="M2626.455,2600.343a.68.68,0,1,1-.68-.68A.68.68,0,0,1,2626.455,2600.343Z" transform="translate(-2525.219 -2599.662)" fill="#f9c7d4"/>
    <path id="패스_597" data-name="패스 597" d="M2643.323,2600.343a.68.68,0,1,1-.678-.68A.679.679,0,0,1,2643.323,2600.343Z" transform="translate(-2538.915 -2599.662)" fill="#f9c7d4"/>
    <path id="패스_598" data-name="패스 598" d="M2661.648,2600.343a.68.68,0,1,1-.68-.68A.68.68,0,0,1,2661.648,2600.343Z" transform="translate(-2553.793 -2599.662)" fill="#f9c7d4"/>
    <path id="패스_599" data-name="패스 599" d="M2679.971,2600.343a.679.679,0,1,1-.679-.68A.679.679,0,0,1,2679.971,2600.343Z" transform="translate(-2568.672 -2599.662)" fill="#f9c7d4"/>
    <path id="패스_600" data-name="패스 600" d="M2698.291,2600.343a.68.68,0,1,1-.68-.68A.679.679,0,0,1,2698.291,2600.343Z" transform="translate(-2583.545 -2599.662)" fill="#f9c7d4"/>
    <path id="패스_601" data-name="패스 601" d="M2714.962,2600.343a.68.68,0,1,1-.681-.68A.68.68,0,0,1,2714.962,2600.343Z" transform="translate(-2597.08 -2599.662)" fill="#f9c7d4"/>
    <path id="패스_602" data-name="패스 602" d="M2732.665,2600.343a.68.68,0,1,1-.679-.68A.68.68,0,0,1,2732.665,2600.343Z" transform="translate(-2611.454 -2599.662)" fill="#f9c7d4"/>
    <path id="패스_603" data-name="패스 603" d="M2750.367,2600.343a.68.68,0,1,1-.68-.68A.68.68,0,0,1,2750.367,2600.343Z" transform="translate(-2625.827 -2599.662)" fill="#f9c7d4"/>
    <path id="패스_604" data-name="패스 604" d="M2768.067,2600.343a.68.68,0,1,1-.679-.68A.68.68,0,0,1,2768.067,2600.343Z" transform="translate(-2640.199 -2599.662)" fill="#f9c7d4"/>
    <path id="패스_605" data-name="패스 605" d="M2785.77,2600.343a.68.68,0,1,1-.68-.68A.68.68,0,0,1,2785.77,2600.343Z" transform="translate(-2654.572 -2599.662)" fill="#f9c7d4"/>
    <path id="패스_606" data-name="패스 606" d="M2803.473,2600.343a.68.68,0,1,1-.68-.68A.68.68,0,0,1,2803.473,2600.343Z" transform="translate(-2668.946 -2599.662)" fill="#f9c7d4"/>
    <path id="패스_607" data-name="패스 607" d="M2821.176,2600.343a.68.68,0,1,1-.68-.68A.68.68,0,0,1,2821.176,2600.343Z" transform="translate(-2683.318 -2599.662)" fill="#f9c7d4"/>
    <path id="패스_608" data-name="패스 608" d="M2838.876,2600.343a.68.68,0,1,1-.679-.68A.679.679,0,0,1,2838.876,2600.343Z" transform="translate(-2697.69 -2599.662)" fill="#f9c7d4"/>
    <path id="패스_609" data-name="패스 609" d="M2856.581,2600.343a.68.68,0,1,1-.68-.68A.68.68,0,0,1,2856.581,2600.343Z" transform="translate(-2712.065 -2599.662)" fill="#f9c7d4"/>
    <path id="패스_610" data-name="패스 610" d="M2874.281,2600.343a.68.68,0,1,1-.679-.68A.679.679,0,0,1,2874.281,2600.343Z" transform="translate(-2726.437 -2599.662)" fill="#f9c7d4"/>
    <path id="패스_611" data-name="패스 611" d="M2891.983,2600.343a.679.679,0,1,1-.679-.68A.679.679,0,0,1,2891.983,2600.343Z" transform="translate(-2740.811 -2599.662)" fill="#f9c7d4"/>
  </g>
  <g id="그룹_163" data-name="그룹 163" transform="translate(69.522 135.79)">
    <g id="그룹_161" data-name="그룹 161">
      <g id="그룹_156" data-name="그룹 156" transform="translate(9.849 24.302)">
        <g id="그룹_155" data-name="그룹 155">
          <path id="패스_612" data-name="패스 612" d="M2406.73,2462.085l4.529-7.1,4.789,2.794s-4.141,4.877-5.686,6.755l-2.2,5.947a2.15,2.15,0,0,1-2.823,1.129h0a2.15,2.15,0,0,1-1.13-2.824Z" transform="translate(-2404.031 -2454.98)" fill="url(#linear-gradient-22)"/>
        </g>
      </g>
      <g id="그룹_158" data-name="그룹 158" transform="translate(36.205 24.302)">
        <g id="그룹_157" data-name="그룹 157">
          <path id="패스_613" data-name="패스 613" d="M2556.417,2462.085l-4.109-7.1-8.137,3.551s7.069,4.121,8.614,6l2.621,5.947a2.151,2.151,0,0,0,2.824,1.129h0a2.151,2.151,0,0,0,1.129-2.824Z" transform="translate(-2544.171 -2454.98)" fill="url(#linear-gradient-22)"/>
        </g>
      </g>
      <path id="패스_614" data-name="패스 614" d="M2591.607,2404.507s6.345.539,6.9,6.01,1.506,12.447,4.281,12.844a3.8,3.8,0,0,1-4.6-2.72c-1.19-3.623-3.887-7.179-6.264-7.654Z" transform="translate(-2546.481 -2389.698)" fill="url(#linear-gradient-18)"/>
      <path id="패스_615" data-name="패스 615" d="M2398.747,2334.085s2.833-2.892,7.089,0c.775.527,17.321,11.25,17.321,11.25l-7.772.684Z" transform="translate(-2389.892 -2331.477)" fill="url(#linear-gradient-18)"/>
      <g id="그룹_159" data-name="그룹 159" transform="translate(0 2.136)">
        <path id="패스_616" data-name="패스 616" d="M2407.241,2373.085l-2.943-6.7-4.087-7.066a40.522,40.522,0,0,0-.355-5.636c-1.16-4.906-6.908-4.846-6.908-4.846h-14.376c-2.278,0-9.921-7.444-12.535-10.117a5.07,5.07,0,0,0-4.56-1.48c-4.607,1.307-9.451,8.09-9.789,10.18,0,0-.134.712.244,1.015.063.159.013.417.227.668.1.122.3.123.542.144-.02.214.2.451.328.582.784.789,8.951-1.473,9.428-1.144,2.079,1.435,1.969,11.145,1.952,12.139l-3.543,5.56-2.524,6.7a2.151,2.151,0,0,0,3.953,1.695l2.2-5.947c1.381-1.678,4.836-5.753,5.552-6.6a58.364,58.364,0,0,0,21.271.182s7.8,4.538,9.348,6.415l2.621,5.947a2.151,2.151,0,0,0,3.954-1.695Z" transform="translate(-2351.664 -2337.119)" fill="url(#linear-gradient-26)"/>
      </g>
      <path id="패스_617" data-name="패스 617" d="M2384.654,2357.763c-.125.344-.405.558-.626.476s-.3-.424-.171-.768.407-.557.627-.477S2384.78,2357.418,2384.654,2357.763Z" transform="translate(-2377.754 -2351.107)" fill="#535e7a"/>
      <g id="그룹_160" data-name="그룹 160" transform="translate(9.977)">
        <path id="패스_618" data-name="패스 618" d="M2407.7,2329.506s-.2-1.6-2.985-3.743a7.327,7.327,0,0,1,.743,2.635s-.072.32.122.4c.535.224,1.948.931,1.948.931S2407.8,2329.738,2407.7,2329.506Z" transform="translate(-2404.713 -2325.763)" fill="url(#linear-gradient-27)"/>
      </g>
    </g>
    <g id="그룹_162" data-name="그룹 162" transform="translate(12.009 9.426)">
      <path id="패스_619" data-name="패스 619" d="M2423.846,2375.885s-4.374,5.186-8.328,6.784a62.967,62.967,0,0,1,.736,8.11s7.836-5.047,9.917-12.932Z" transform="translate(-2415.518 -2375.885)" fill="url(#linear-gradient-28)"/>
    </g>
  </g>
  <g id="그룹_173" data-name="그룹 173" transform="translate(0 135.79)">
    <g id="그룹_170" data-name="그룹 170">
      <g id="그룹_165" data-name="그룹 165" transform="translate(9.848 24.302)">
        <g id="그룹_164" data-name="그룹 164">
          <path id="패스_620" data-name="패스 620" d="M2037.064,2462.085l4.528-7.1,4.79,2.794s-4.141,4.877-5.686,6.755l-2.2,5.947a2.151,2.151,0,0,1-2.824,1.129h0a2.151,2.151,0,0,1-1.13-2.824Z" transform="translate(-2034.366 -2454.98)" fill="url(#linear-gradient-29)"/>
        </g>
      </g>
      <g id="그룹_167" data-name="그룹 167" transform="translate(36.204 24.302)">
        <g id="그룹_166" data-name="그룹 166">
          <path id="패스_621" data-name="패스 621" d="M2186.752,2462.085l-4.11-7.1-8.136,3.551s7.069,4.121,8.615,6l2.62,5.947a2.152,2.152,0,0,0,2.824,1.129h0a2.151,2.151,0,0,0,1.129-2.824Z" transform="translate(-2174.506 -2454.98)" fill="url(#linear-gradient-29)"/>
        </g>
      </g>
      <path id="패스_622" data-name="패스 622" d="M2221.941,2404.507s6.345.539,6.9,6.01,1.507,12.447,4.281,12.844a3.8,3.8,0,0,1-4.6-2.72c-1.189-3.623-3.511-6.181-5.89-6.657Z" transform="translate(-2176.815 -2389.698)" fill="url(#linear-gradient-18)"/>
      <path id="패스_623" data-name="패스 623" d="M2025.657,2333.879s2.307-3.9,8.284.059c.781.519,16.771,10.878,16.771,10.878l-7.773.683Z" transform="translate(-2017.447 -2330.958)" fill="url(#linear-gradient-18)"/>
      <g id="그룹_168" data-name="그룹 168" transform="translate(0 2.136)">
        <path id="패스_624" data-name="패스 624" d="M2037.576,2373.085l-2.942-6.7-4.087-7.066a40.48,40.48,0,0,0-.356-5.636c-1.16-4.906-6.907-4.846-6.907-4.846h-14.376c-2.278,0-9.922-7.444-12.536-10.117a5.069,5.069,0,0,0-4.559-1.48c-4.608,1.307-9.453,8.09-9.79,10.18,0,0-.133.712.244,1.015.063.159.013.417.227.668.1.122.3.123.542.144-.02.214.2.451.327.582.785.789,8.952-1.473,9.429-1.144,2.079,1.435,1.969,11.15,1.951,12.14l-3.542,5.558-2.525,6.7a2.151,2.151,0,0,0,3.954,1.695l2.2-5.947c1.381-1.678,4.836-5.753,5.552-6.6a58.37,58.37,0,0,0,21.271.182s7.8,4.538,9.347,6.415l2.621,5.947a2.15,2.15,0,0,0,3.953-1.695Z" transform="translate(-1982 -2337.119)" fill="url(#linear-gradient-26)"/>
      </g>
      <path id="패스_625" data-name="패스 625" d="M2014.989,2357.763c-.126.344-.405.558-.626.476s-.295-.424-.17-.768.407-.557.625-.477S2015.115,2357.418,2014.989,2357.763Z" transform="translate(-2008.09 -2351.107)" fill="#535e7a"/>
      <g id="그룹_169" data-name="그룹 169" transform="translate(9.976)">
        <path id="패스_626" data-name="패스 626" d="M2038.031,2329.506s-.2-1.6-2.985-3.743a7.316,7.316,0,0,1,.742,2.635s-.072.32.122.4c.534.224,1.947.931,1.947.931S2038.133,2329.738,2038.031,2329.506Z" transform="translate(-2035.046 -2325.763)" fill="url(#linear-gradient-27)"/>
      </g>
    </g>
    <g id="그룹_172" data-name="그룹 172" transform="translate(26.117 13.665)">
      <g id="그룹_171" data-name="그룹 171">
        <path id="패스_627" data-name="패스 627" d="M2136.168,2398.618s-15.208-.177-15.3-.2c.159,3.217,2.288,10.532,13.538,8.6,4.513-.632,7.091-1.509,8.7-2.4a8.1,8.1,0,0,0-.131-1.062C2141.779,2398.537,2136.168,2398.618,2136.168,2398.618Z" transform="translate(-2120.868 -2398.423)" fill="url(#linear-gradient-28)"/>
      </g>
    </g>
  </g>
  <g id="그룹_183" data-name="그룹 183" transform="translate(138.532 135.79)">
    <g id="그룹_180" data-name="그룹 180">
      <g id="그룹_175" data-name="그룹 175" transform="translate(9.848 24.302)">
        <g id="그룹_174" data-name="그룹 174">
          <path id="패스_628" data-name="패스 628" d="M2773.67,2462.085l4.528-7.1,4.789,2.794s-4.141,4.877-5.686,6.755l-2.2,5.947a2.151,2.151,0,0,1-2.824,1.129h0a2.151,2.151,0,0,1-1.13-2.824Z" transform="translate(-2770.971 -2454.98)" fill="url(#linear-gradient-29)"/>
        </g>
      </g>
      <g id="그룹_177" data-name="그룹 177" transform="translate(36.204 24.302)">
        <g id="그룹_176" data-name="그룹 176">
          <path id="패스_629" data-name="패스 629" d="M2923.357,2462.085l-4.11-7.1-8.136,3.551s7.07,4.121,8.614,6l2.622,5.947a2.151,2.151,0,0,0,2.824,1.129h0a2.152,2.152,0,0,0,1.13-2.824Z" transform="translate(-2911.111 -2454.98)" fill="url(#linear-gradient-29)"/>
        </g>
      </g>
      <path id="패스_630" data-name="패스 630" d="M2958.546,2404.507s6.345.539,6.9,6.01,1.506,12.447,4.28,12.844a3.8,3.8,0,0,1-4.6-2.72c-1.188-3.623-3.51-6.181-5.889-6.657Z" transform="translate(-2913.42 -2389.698)" fill="url(#linear-gradient-18)"/>
      <path id="패스_631" data-name="패스 631" d="M2762.262,2333.879s2.308-3.9,8.284.059c.782.519,16.771,10.878,16.771,10.878l-7.773.683Z" transform="translate(-2754.051 -2330.958)" fill="url(#linear-gradient-18)"/>
      <g id="그룹_178" data-name="그룹 178" transform="translate(0 2.136)">
        <path id="패스_632" data-name="패스 632" d="M2774.182,2373.085l-2.943-6.7-4.087-7.066a40.4,40.4,0,0,0-.355-5.636c-1.16-4.906-6.907-4.846-6.907-4.846h-14.376c-2.278,0-9.922-7.444-12.536-10.117a5.07,5.07,0,0,0-4.56-1.48c-4.607,1.307-9.453,8.09-9.79,10.18,0,0-.134.712.243,1.015.063.159.014.417.227.668.1.122.3.123.542.144-.021.214.2.451.327.582.785.789,8.952-1.473,9.429-1.144,2.079,1.435,1.968,11.15,1.952,12.14l-3.543,5.558-2.524,6.7a2.151,2.151,0,0,0,3.953,1.695l2.2-5.947c1.382-1.678,4.836-5.753,5.552-6.6a58.371,58.371,0,0,0,21.271.182s7.8,4.538,9.348,6.415l2.621,5.947a2.151,2.151,0,0,0,3.954-1.695Z" transform="translate(-2718.605 -2337.119)" fill="url(#linear-gradient-26)"/>
      </g>
      <path id="패스_633" data-name="패스 633" d="M2751.594,2357.763c-.125.344-.4.558-.625.476s-.3-.424-.171-.768.407-.557.626-.477S2751.72,2357.418,2751.594,2357.763Z" transform="translate(-2744.695 -2351.107)" fill="#535e7a"/>
      <g id="그룹_179" data-name="그룹 179" transform="translate(9.976)">
        <path id="패스_634" data-name="패스 634" d="M2774.636,2329.506s-.2-1.6-2.985-3.743a7.306,7.306,0,0,1,.742,2.635s-.072.32.123.4c.534.224,1.947.931,1.947.931S2774.738,2329.738,2774.636,2329.506Z" transform="translate(-2771.651 -2325.763)" fill="url(#linear-gradient-27)"/>
      </g>
    </g>
    <g id="그룹_182" data-name="그룹 182" transform="translate(26.117 13.665)">
      <g id="그룹_181" data-name="그룹 181">
        <path id="패스_635" data-name="패스 635" d="M2872.773,2398.618s-15.208-.177-15.3-.2c.16,3.217,2.288,10.532,13.538,8.6,4.514-.632,7.09-1.509,8.7-2.4a8.251,8.251,0,0,0-.13-1.062C2878.385,2398.537,2872.773,2398.618,2872.773,2398.618Z" transform="translate(-2857.473 -2398.423)" fill="url(#linear-gradient-28)"/>
      </g>
    </g>
  </g>
</svg>
