<svg id="구성_요소_34_1" data-name="구성 요소 34 – 1" xmlns="http://www.w3.org/2000/svg" width="25.944" height="26.759" viewBox="0 0 25.944 26.759">
  <path id="패스_147" data-name="패스 147" d="M466.18,310.585H446.352a1.468,1.468,0,0,1-1.466-1.466v-1.75c0-4.292,2.95-8.107,7.491-9.88a7.928,7.928,0,1,1,10.961,0c4.54,1.773,7.492,5.587,7.492,9.88a.837.837,0,1,1-1.674,0c0-3.932-3.206-7.537-7.8-8.77a.836.836,0,0,1-.221-1.521,6.256,6.256,0,1,0-6.561,0,.837.837,0,0,1-.222,1.521c-4.59,1.233-7.8,4.838-7.8,8.77v1.542H466.18a.837.837,0,1,1,0,1.674Z" transform="translate(-444.886 -283.826)" fill="#242424"/>
</svg>
