<svg id="구성_요소_50_1" data-name="구성 요소 50 – 1" xmlns="http://www.w3.org/2000/svg" xmlns:xlink="http://www.w3.org/1999/xlink" width="181.109" height="211.685" viewBox="0 0 181.109 211.685">
  <defs>
    <linearGradient id="linear-gradient" x1="0.5" x2="0.5" y2="1" gradientUnits="objectBoundingBox">
      <stop offset="0" stop-color="#95a2c7"/>
      <stop offset="1" stop-color="#656f8d"/>
    </linearGradient>
    <linearGradient id="linear-gradient-3" x1="0.5" x2="0.5" y2="1" gradientUnits="objectBoundingBox">
      <stop offset="0" stop-color="#ffd034"/>
      <stop offset="1" stop-color="#ff720b"/>
    </linearGradient>
  </defs>
  <g id="그룹_859" data-name="그룹 859" transform="translate(106.188 12.217)">
    <path id="패스_12125" data-name="패스 12125" d="M-107.92,37.25a2.594,2.594,0,0,0-2.863,2.242l-11.311,191.784a2.533,2.533,0,0,0,2.373,2.707,2.592,2.592,0,0,0,2.865-2.239l11.31-191.789A2.531,2.531,0,0,0-107.92,37.25Z" transform="translate(122.106 -37.239)" fill="url(#linear-gradient)"/>
    <path id="패스_12126" data-name="패스 12126" d="M-105.1,39.649a2.584,2.584,0,0,0-2.784-2.329,2.544,2.544,0,0,0-2.464,2.634l6.691,192.074a2.582,2.582,0,0,0,2.784,2.329,2.543,2.543,0,0,0,2.463-2.634Z" transform="translate(129.638 -37.189)" fill="url(#linear-gradient)"/>
  </g>
  <path id="패스_12129" data-name="패스 12129" d="M-74.121,165.268a3.1,3.1,0,0,1-3.147,3.049l-49.152-.789a3.1,3.1,0,0,1-3.047-3.147h0a3.1,3.1,0,0,1,3.15-3.045l49.147.788a3.1,3.1,0,0,1,3.049,3.145Z" transform="translate(223.576 37.419)" fill="#ffbd46"/>
  <path id="패스_12130" data-name="패스 12130" d="M-62.059,169.008a3.1,3.1,0,0,1-3.149,3.045l-66.582-1.07a3.1,3.1,0,0,1-3.047-3.149h0a3.094,3.094,0,0,1,3.144-3.045l66.588,1.068a3.1,3.1,0,0,1,3.045,3.15Z" transform="translate(220.136 39.632)" fill="#ff912b"/>
  <g id="그룹_866" data-name="그룹 866" transform="translate(0 13.049)">
    <g id="그룹_863" data-name="그룹 863" transform="translate(0 59.637)">
      <g id="그룹_860" data-name="그룹 860" transform="translate(7.533 0)">
        <path id="합치기_1" data-name="합치기 1" d="M69.641,84.722,14.239,66.26C-6.1,44.769,1.323,21.29,1.323,21.29L4.086,0l7.928.832.7,11.857L65.709,30.343l5.934,21.734,7.987,2.662L87.613,57.4,105.4,43.565l53,17.654,7.67-9.065,6.836,4.088L162.346,74.934s-8.133,23.245-37.3,28.246Z" transform="translate(0)" stroke="rgba(0,0,0,0)" stroke-width="1" fill="url(#linear-gradient-3)"/>
      </g>
      <g id="그룹_861" data-name="그룹 861" transform="translate(0 21.737)">
        <path id="패스_12133" data-name="패스 12133" d="M-180.538,87.587a4.78,4.78,0,0,0-6.041,3.024,4.785,4.785,0,0,0,3.019,6.045l82.623,27.52,2.906-4.066.112-5Z" transform="translate(186.825 -87.342)" fill="#ffe25c"/>
        <path id="패스_12134" data-name="패스 12134" d="M-48.844,131.79l-82.617-27.525-3.017,9.067,82.612,27.524a4.777,4.777,0,0,0,6.04-3.021A4.771,4.771,0,0,0-48.844,131.79Z" transform="translate(220.366 -76.498)" fill="#ffc04d"/>
      </g>
      <g id="그룹_862" data-name="그룹 862" transform="translate(27.055 45.31)">
        <path id="패스_12135" data-name="패스 12135" d="M-162.815,106.789a3.863,3.863,0,0,1-4.881,2.44,3.865,3.865,0,0,1-2.44-4.883,3.861,3.861,0,0,1,4.881-2.438A3.855,3.855,0,0,1-162.815,106.789Z" transform="translate(170.335 -101.709)" fill="#fff29b"/>
        <path id="패스_12136" data-name="패스 12136" d="M-141.564,113.866a3.854,3.854,0,0,1-4.881,2.441,3.857,3.857,0,0,1-2.44-4.88,3.856,3.856,0,0,1,4.875-2.443A3.858,3.858,0,0,1-141.564,113.866Z" transform="translate(183.951 -97.175)" fill="#fff29b"/>
        <path id="패스_12137" data-name="패스 12137" d="M-120.315,120.944a3.866,3.866,0,0,1-4.883,2.446,3.862,3.862,0,0,1-2.438-4.883,3.858,3.858,0,0,1,4.88-2.443A3.859,3.859,0,0,1-120.315,120.944Z" transform="translate(197.567 -92.638)" fill="#fff29b"/>
        <path id="패스_12138" data-name="패스 12138" d="M-99.068,128.023a3.849,3.849,0,0,1-4.878,2.441,3.864,3.864,0,0,1-2.445-4.878,3.866,3.866,0,0,1,4.883-2.443A3.856,3.856,0,0,1-99.068,128.023Z" transform="translate(211.182 -88.102)" fill="#fff29b"/>
      </g>
      <path id="패스_12139" data-name="패스 12139" d="M-21.695,144.087a.553.553,0,0,1-.7.351l-159.683-53.2a.556.556,0,0,1-.35-.7h0a.551.551,0,0,1,.7-.345l159.685,53.195a.547.547,0,0,1,.348.7Z" transform="translate(189.627 -63.796)" fill="#fff"/>
    </g>
    <g id="그룹_864" data-name="그룹 864" transform="translate(34.594)">
      <path id="패스_12140" data-name="패스 12140" d="M-164.954,116.572a1.157,1.157,0,0,1-.494-.33,1.142,1.142,0,0,1,.1-1.619l86.189-76.592a1.153,1.153,0,0,1,1.619.1,1.144,1.144,0,0,1-.094,1.619l-86.19,76.592A1.145,1.145,0,0,1-164.954,116.572Z" transform="translate(165.74 -37.746)" fill="#c9c9c9"/>
      <path id="패스_12141" data-name="패스 12141" d="M-86.151,154.038a1.148,1.148,0,0,0,.592.036,1.148,1.148,0,0,0,.9-1.354L-107.7,39.742a1.151,1.151,0,0,0-1.355-.9,1.149,1.149,0,0,0-.9,1.354l23.041,112.977A1.144,1.144,0,0,0-86.151,154.038Z" transform="translate(201.471 -37.056)" fill="#c9c9c9"/>
    </g>
    <g id="그룹_865" data-name="그룹 865" transform="translate(31.774 73.477)">
      <path id="패스_12142" data-name="패스 12142" d="M-158.879,88.326a4.4,4.4,0,0,1-5.569,2.783,4.406,4.406,0,0,1-2.786-5.567,4.41,4.41,0,0,1,5.57-2.788A4.4,4.4,0,0,1-158.879,88.326Z" transform="translate(167.459 -82.529)" fill="#ffe38d"/>
      <path id="패스_12143" data-name="패스 12143" d="M-89.6,111.4a4.4,4.4,0,0,1-5.567,2.789,4.4,4.4,0,0,1-2.786-5.57,4.4,4.4,0,0,1,5.564-2.786A4.408,4.408,0,0,1-89.6,111.4Z" transform="translate(211.85 -67.741)" fill="#ffe38d"/>
    </g>
  </g>
  <path id="패스_12127" data-name="패스 12127" d="M-92.86,43.167a13.164,13.164,0,0,1-13.37,12.95,13.165,13.165,0,0,1-12.954-13.37,13.167,13.167,0,0,1,13.374-12.952A13.165,13.165,0,0,1-92.86,43.167Z" transform="translate(230.164 -29.793)" fill="#ffc84d"/>
  <path id="패스_12128" data-name="패스 12128" d="M-98.78,41.435a8.909,8.909,0,0,1-9.047,8.763,8.908,8.908,0,0,1-8.762-9.049,8.9,8.9,0,0,1,9.044-8.76A8.907,8.907,0,0,1-98.78,41.435Z" transform="translate(231.828 -28.13)" fill="#fff"/>
  <path id="패스_12144" data-name="패스 12144" d="M-105.24,39.544a4.261,4.261,0,0,1-4.328,4.192,4.26,4.26,0,0,1-4.19-4.33,4.26,4.26,0,0,1,4.33-4.184A4.258,4.258,0,0,1-105.24,39.544Z" transform="translate(233.641 -26.314)" fill="#ff912b"/>
</svg>
