<svg id="구성_요소_41_1" data-name="구성 요소 41 – 1" xmlns="http://www.w3.org/2000/svg" width="24.445" height="37.935" viewBox="0 0 24.445 37.935">
  <g id="그룹_816" data-name="그룹 816" opacity="0.491">
    <g id="그룹_245" data-name="그룹 245" transform="translate(9.434 25.073)">
      <path id="패스_710" data-name="패스 710" d="M-312.315-70.742a.274.274,0,0,1-.273.273h0a.274.274,0,0,1-.273-.273V-80.7a.274.274,0,0,1,.273-.273h0a.274.274,0,0,1,.273.273Z" transform="translate(312.862 80.969)" fill="#00537f"/>
      <path id="패스_711" data-name="패스 711" d="M-304.8-70.742a.274.274,0,0,1-.273.273h0a.273.273,0,0,1-.273-.273V-80.7a.273.273,0,0,1,.273-.273h0a.274.274,0,0,1,.273.273Z" transform="translate(310.382 80.969)" fill="#00537f"/>
    </g>
    <g id="그룹_246" data-name="그룹 246" transform="translate(0 0)">
      <path id="패스_712" data-name="패스 712" d="M-311.387-88.95s.109-1.64,4.593-7.218,4.293-10.145,4.293-10.145A12.084,12.084,0,0,0-314.585-118.4h-.273a12.085,12.085,0,0,0-12.085,12.084s-.192,4.567,4.293,10.145,4.593,7.218,4.593,7.218Z" transform="translate(326.945 118.397)" fill="#f49f9f"/>
      <path id="패스_713" data-name="패스 713" d="M-309.944-88.95s.05-1.64,2.127-7.218a30.461,30.461,0,0,0,1.989-10.145c0-6.673-2.506-12.084-5.6-12.084h-.127c-3.091,0-5.6,5.411-5.6,12.084a30.469,30.469,0,0,0,1.988,10.145c2.077,5.578,2.128,7.218,2.128,7.218Z" transform="translate(323.711 118.397)" fill="#fff2cb"/>
    </g>
    <g id="그룹_247" data-name="그룹 247" transform="translate(8.014 32.401)">
      <path id="패스_714" data-name="패스 714" d="M-306.794-69.044v3.329a1.544,1.544,0,0,1-1.545,1.545h-4.419a1.545,1.545,0,0,1-1.545-1.545v-3.329Z" transform="translate(314.757 69.704)" fill="#ffb97c"/>
      <path id="패스_715" data-name="패스 715" d="M-306.564-69.613a.418.418,0,0,1-.418.418h-7.582a.418.418,0,0,1-.417-.418h0a.418.418,0,0,1,.417-.417h7.582a.418.418,0,0,1,.418.417Z" transform="translate(314.981 70.03)" fill="#d35c38"/>
    </g>
  </g>
</svg>
