<svg id="구성_요소_110_1" data-name="구성 요소 110 – 1" xmlns="http://www.w3.org/2000/svg" xmlns:xlink="http://www.w3.org/1999/xlink" width="617.733" height="659" viewBox="0 0 617.733 659">
  <defs>
    <linearGradient id="linear-gradient" x1="0.5" x2="0.5" y2="1" gradientUnits="objectBoundingBox">
      <stop offset="0" stop-color="#fff"/>
      <stop offset="0.212" stop-color="#6963b7"/>
      <stop offset="1" stop-color="#32257b"/>
    </linearGradient>
  </defs>
  <rect id="사각형_837" data-name="사각형 837" width="466" height="659" transform="translate(75.867)" opacity="0.689" fill="url(#linear-gradient)"/>
  <path id="패스_12456" data-name="패스 12456" d="M1564.558,577.805a6.885,6.885,0,1,0-5.272-11.313,8.466,8.466,0,0,0-13.613-3.464,11.431,11.431,0,0,0-22.337,2.624,6.635,6.635,0,1,0-3.683,12.154Z" transform="translate(-1378.384 -496.85)" fill="#fff" opacity="0.476"/>
  <path id="패스_12457" data-name="패스 12457" d="M1552.832,572.6a5.319,5.319,0,1,0-4.072-8.739,6.539,6.539,0,0,0-10.515-2.676,8.83,8.83,0,0,0-17.255,2.027,5.125,5.125,0,1,0-2.845,9.389Z" transform="translate(-1325.93 -465.738)" fill="#fff" opacity="0.476"/>
  <circle id="타원_400" data-name="타원 400" cx="2.289" cy="2.289" r="2.289" transform="translate(412.83 71.445) rotate(-76.718)" fill="#fffef3"/>
  <circle id="타원_401" data-name="타원 401" cx="2.187" cy="2.187" r="2.187" transform="translate(447.035 107.49) rotate(-76.718)" fill="#fffef3"/>
  <circle id="타원_402" data-name="타원 402" cx="3.187" cy="3.187" r="3.187" transform="translate(235.453 55.689) rotate(-76.718)" fill="#fffef3"/>
  <path id="패스_12458" data-name="패스 12458" d="M2027.378,1658.9H2300.9L2184.8,1509.98a27.476,27.476,0,0,0-43.336,0l-9.828,12.606-35.015-44.911a33.434,33.434,0,0,0-52.736,0L1891.1,1658.9Z" transform="translate(-1683.17 -1339.487)" fill="#827fb4" opacity="0.702"/>
  <path id="패스_12459" data-name="패스 12459" d="M821.477,1863.728l-113.907-146.1a26.954,26.954,0,0,0-42.514,0l-113.907,146.1Z" transform="translate(-551.149 -1544.312)" fill="#827fb4" opacity="0.702"/>
  <circle id="타원_403" data-name="타원 403" cx="2.187" cy="2.187" r="2.187" transform="translate(502.635 110.896) rotate(-76.718)" fill="#fffef3"/>
  <circle id="타원_405" data-name="타원 405" cx="1.249" cy="1.249" r="1.249" transform="translate(398.763 74.93) rotate(-76.718)" fill="#fffef3"/>
  <circle id="타원_406" data-name="타원 406" cx="1.249" cy="1.249" r="1.249" transform="translate(506.394 152.83) rotate(-76.718)" fill="#fffef3"/>
  <path id="패스_12460" data-name="패스 12460" d="M1552.832,572.6a5.319,5.319,0,1,0-4.072-8.739,6.539,6.539,0,0,0-10.515-2.676,8.83,8.83,0,0,0-17.255,2.027,5.125,5.125,0,1,0-2.845,9.389Z" transform="translate(-1005.718 -442.975)" fill="#fff" opacity="0.476"/>
  <circle id="타원_407" data-name="타원 407" cx="1.672" cy="1.672" r="1.672" transform="translate(210.874 189.496) rotate(-76.718)" fill="#fffef3"/>
  <circle id="타원_408" data-name="타원 408" cx="1.672" cy="1.672" r="1.672" transform="translate(117.713 51.525) rotate(-76.718)" fill="#fffef3"/>
  <circle id="타원_409" data-name="타원 409" cx="1.672" cy="1.672" r="1.672" transform="translate(127.362 126.555) rotate(-76.718)" fill="#fffef3"/>
  <path id="패스_12461" data-name="패스 12461" d="M1565.547,578.244a7.017,7.017,0,1,0-5.373-11.53,8.628,8.628,0,0,0-13.873-3.531,11.65,11.65,0,0,0-22.766,2.674,6.762,6.762,0,1,0-3.753,12.387Z" transform="translate(-1022.878 -508.5)" fill="#fff" opacity="0.476"/>
  <g id="그룹_897" data-name="그룹 897" transform="translate(414.598 145.291)">
    <path id="패스_12288" data-name="패스 12288" d="M-32.642,54.517c.541-.445,1.257-.894,1.895-.6a1.364,1.364,0,0,1,.438,1.845,4.32,4.32,0,0,1-1.537,1.43A31.412,31.412,0,0,0-42.827,70.27,31.081,31.081,0,0,1-32.642,54.517Z" transform="translate(83.938 -38.857)" fill="#ffdb8b"/>
    <path id="패스_12289" data-name="패스 12289" d="M-24,67c.7-.074,1.542-.055,1.914.538a1.364,1.364,0,0,1-.649,1.782,4.316,4.316,0,0,1-2.07.347,31.412,31.412,0,0,0-16.366,4.887A31.074,31.074,0,0,1-24,67Z" transform="translate(83.812 -39.858)" fill="#e6ffe5"/>
    <path id="패스_12290" data-name="패스 12290" d="M-21.046,58.8c.683-.157,1.524-.24,1.965.3a1.364,1.364,0,0,1-.43,1.847,4.314,4.314,0,0,1-2.014.594,31.421,31.421,0,0,0-15.659,6.82A31.077,31.077,0,0,1-21.046,58.8Z" transform="translate(83.509 -39.227)" fill="#ffb9d4"/>
    <path id="패스_12291" data-name="패스 12291" d="M-33.179,46.524c.509-.481,1.192-.98,1.848-.734a1.363,1.363,0,0,1,.566,1.809c-.282.649-.743,1.383-1.434,1.535-3.2.7-6.962,6.076-10.034,13.821A31.092,31.092,0,0,1-33.179,46.524Z" transform="translate(83.893 -38.241)" fill="#e6ffe5"/>
    <path id="패스_12292" data-name="패스 12292" d="M-23.249,83.243c.54.447,1.117,1.064.953,1.745a1.364,1.364,0,0,1-1.729.781,4.315,4.315,0,0,1-1.7-1.238,31.411,31.411,0,0,0-14.931-8.294A31.088,31.088,0,0,1-23.249,83.243Z" transform="translate(83.773 -40.563)" fill="#ffdb8b"/>
    <path id="패스_12293" data-name="패스 12293" d="M-15.9,75.408c.661.234,1.414.615,1.495,1.311s-.648,1.283-1.353,1.328a3.655,3.655,0,0,1-2.019-.578c-4.513-2.626-10.911-3.416-16.873-2.65A31.078,31.078,0,0,1-15.9,75.408Z" transform="translate(83.316 -40.366)" fill="#ffb9d4"/>
    <path id="패스_12294" data-name="패스 12294" d="M-28.79,92.81c.317.653.6,1.485.15,2.057a1.414,1.414,0,0,1-1.967-.006,4.471,4.471,0,0,1-1.069-1.9A32.579,32.579,0,0,0-42.209,78.724,32.243,32.243,0,0,1-28.79,92.81Z" transform="translate(83.891 -40.753)" fill="#e6ffe5"/>
    <path id="패스_12295" data-name="패스 12295" d="M-19.644,94.76c.394.611.771,1.4.4,2.024a1.414,1.414,0,0,1-1.953.23A3.564,3.564,0,0,1-22.49,95.26c-2.325-6.44-6.827-10.331-12.163-12.878A32.236,32.236,0,0,1-19.644,94.76Z" transform="translate(83.316 -41.031)" fill="#ffb9d4"/>
    <path id="패스_12296" data-name="패스 12296" d="M-38.94,99.457c-.034.77-.192,1.684-.9,1.992a1.5,1.5,0,0,1-1.83-1,4.743,4.743,0,0,1-.04-2.306,34.51,34.51,0,0,0-2.637-18.576A34.151,34.151,0,0,1-38.94,99.457Z" transform="translate(84.054 -40.817)" fill="#ffb9d4"/>
    <path id="패스_12297" data-name="패스 12297" d="M-32.277,106.508c-.034.769-.192,1.684-.9,1.991a1.5,1.5,0,0,1-1.83-1,4.743,4.743,0,0,1-.04-2.306,34.508,34.508,0,0,0-2.637-18.576A34.142,34.142,0,0,1-32.277,106.508Z" transform="translate(83.546 -41.354)" fill="#ffdb8b"/>
    <path id="패스_12298" data-name="패스 12298" d="M-69.112,66.756c-.7-.08-1.541-.07-1.919.52a1.363,1.363,0,0,0,.632,1.788,2.879,2.879,0,0,0,2.067.368c4.31-1.093,10.558,1.12,16.318,5.043A31.076,31.076,0,0,0-69.112,66.756Z" transform="translate(86.097 -39.839)" fill="#e6ffe5"/>
    <path id="패스_12299" data-name="패스 12299" d="M-69.836,83.954c-.548.436-1.137,1.042-.987,1.726a1.363,1.363,0,0,0,1.712.816,4.329,4.329,0,0,0,1.72-1.2A31.416,31.416,0,0,1-52.3,77.3,31.083,31.083,0,0,0-69.836,83.954Z" transform="translate(86.071 -40.644)" fill="#ffdb8b"/>
    <path id="패스_12300" data-name="패스 12300" d="M-71.119,97.009c-.327.619-.624,1.411-.211,1.977a1.363,1.363,0,0,0,1.895.058,4.31,4.31,0,0,0,1.092-1.793A31.407,31.407,0,0,1-57.731,83.869,31.069,31.069,0,0,0-71.119,97.009Z" transform="translate(86.123 -41.144)" fill="#ffdb8b"/>
    <path id="패스_12301" data-name="패스 12301" d="M-62.135,92.373c-.317.625-.6,1.421-.179,1.981a1.365,1.365,0,0,0,1.9.028,4.326,4.326,0,0,0,1.062-1.811A31.42,31.42,0,0,1-48.964,79.016,31.079,31.079,0,0,0-62.135,92.373Z" transform="translate(85.438 -40.775)" fill="#ffb9d4"/>
    <path id="패스_12302" data-name="패스 12302" d="M-60.039,108.172c0,.7.118,1.538.75,1.841a1.364,1.364,0,0,0,1.7-.845,4.326,4.326,0,0,0,.113-2.1,31.416,31.416,0,0,1,3.011-16.812A31.081,31.081,0,0,0-60.039,108.172Z" transform="translate(85.248 -41.631)" fill="#ffdb8b"/>
    <path id="패스_12303" data-name="패스 12303" d="M-52.634,99.3c0,.77.112,1.692.8,2.032a1.5,1.5,0,0,0,1.875-.908,4.747,4.747,0,0,0,.149-2.3A34.505,34.505,0,0,1-46.3,79.689,34.136,34.136,0,0,0-52.634,99.3Z" transform="translate(84.685 -40.826)" fill="#e6ffe5"/>
    <path id="패스_12304" data-name="패스 12304" d="M-58.3,55.714c-.541-.444-1.257-.894-1.895-.6a1.364,1.364,0,0,0-.438,1.845,3.142,3.142,0,0,0,1.537,1.429c4.92,2.068,8.7,7.182,10.98,13.083A31.088,31.088,0,0,0-58.3,55.714Z" transform="translate(85.307 -38.948)" fill="#ffdb8b"/>
    <path id="패스_12305" data-name="패스 12305" d="M-55.284,47.2c-.441-.544-1.052-1.128-1.735-.971a1.364,1.364,0,0,0-.8,1.719,4.313,4.313,0,0,0,1.22,1.709,31.412,31.412,0,0,1,8.132,15.019A31.086,31.086,0,0,0-55.284,47.2Z" transform="translate(85.084 -38.277)" fill="#ffb9d4"/>
    <path id="패스_12306" data-name="패스 12306" d="M-71.045,56.734c-.668-.212-1.5-.364-1.984.142a1.363,1.363,0,0,0,.278,1.875,4.315,4.315,0,0,0,1.958.758,31.414,31.414,0,0,1,15.049,8.077A31.076,31.076,0,0,0-71.045,56.734Z" transform="translate(86.258 -39.064)" fill="#ffb9d4"/>
    <path id="패스_12307" data-name="패스 12307" d="M-78.738,76.205c-.666.218-1.429.582-1.525,1.276s.618,1.3,1.323,1.358a4.311,4.311,0,0,0,2.031-.531A31.422,31.422,0,0,1-59.98,76.05,31.083,31.083,0,0,0-78.738,76.205Z" transform="translate(86.789 -40.445)" fill="#ffdb8b"/>
    <path id="패스_12308" data-name="패스 12308" d="M-43.058,53.046l-2.106,16.669A61.458,61.458,0,0,1-45.407,54.7a5.592,5.592,0,0,1,.6-2.288l.012-.02A.953.953,0,0,1-43.058,53.046Z" transform="translate(84.161 -38.715)" fill="#ffdb8b"/>
    <path id="패스_12309" data-name="패스 12309" d="M-47.419,106.592-45,87.677a69.678,69.678,0,0,1,.249,17.038,6.356,6.356,0,0,1-.683,2.6l-.014.023A1.082,1.082,0,0,1-47.419,106.592Z" transform="translate(84.288 -41.434)" fill="#ffdb8b"/>
    <path id="패스_12310" data-name="패스 12310" d="M-63.918,53.908A25.65,25.65,0,0,0-74.364,49.05c-.549-.115-1.231-.351-1.263-.911s.628-.877,1.181-.924A6.8,6.8,0,0,1-70.474,48.5,29.852,29.852,0,0,1-63.918,53.908Z" transform="translate(86.435 -38.353)" fill="#ffdb8b"/>
    <path id="패스_12311" data-name="패스 12311" d="M-48.781,51.261a25.632,25.632,0,0,0-3.407-11.005c-.282-.485-.564-1.148-.171-1.547s1.072-.124,1.476.255a6.8,6.8,0,0,1,1.712,3.809A29.826,29.826,0,0,1-48.781,51.261Z" transform="translate(84.679 -37.692)" fill="#ffdb8b"/>
    <path id="패스_12312" data-name="패스 12312" d="M-17.358,67.659A25.636,25.636,0,0,1-6.174,70.429c.5.254,1.179.5,1.555.082s.061-1.077-.34-1.46a6.8,6.8,0,0,0-3.9-1.491A29.862,29.862,0,0,0-17.358,67.659Z" transform="translate(81.999 -39.883)" fill="#e6ffe5"/>
    <path id="패스_12313" data-name="패스 12313" d="M-19.335,85.511a25.648,25.648,0,0,1,8.073,8.221c.292.478.743,1.041,1.28.885s.616-.885.476-1.422a6.8,6.8,0,0,0-2.541-3.314A29.849,29.849,0,0,0-19.335,85.511Z" transform="translate(82.15 -41.269)" fill="#e6ffe5"/>
    <path id="패스_12314" data-name="패스 12314" d="M-27.525,97.737A25.65,25.65,0,0,1-23.7,108.6c.062.557.231,1.258.785,1.344s.933-.54,1.033-1.086a6.8,6.8,0,0,0-.9-4.078A29.847,29.847,0,0,0-27.525,97.737Z" transform="translate(82.773 -42.2)" fill="#ffdb8b"/>
    <path id="패스_12315" data-name="패스 12315" d="M-39.465,106.342a25.643,25.643,0,0,1-2.724,11.195c-.251.5-.492,1.182-.076,1.556s1.077.056,1.459-.346a6.8,6.8,0,0,0,1.474-3.906A29.864,29.864,0,0,0-39.465,106.342Z" transform="translate(83.913 -42.855)" fill="#ffb9d4"/>
    <path id="패스_12316" data-name="패스 12316" d="M-27.525,54.119a25.669,25.669,0,0,1,11.1-3.084c.56-.024,1.271-.146,1.394-.692s-.476-.968-1.013-1.1a6.8,6.8,0,0,0-4.129.619A29.887,29.887,0,0,0-27.525,54.119Z" transform="translate(82.773 -38.499)" fill="#ffb9d4"/>
    <path id="패스_12317" data-name="패스 12317" d="M-39.329,47.816a25.656,25.656,0,0,1,7.909-8.378c.467-.31,1.013-.782.835-1.313s-.907-.583-1.438-.422a6.8,6.8,0,0,0-3.215,2.664A29.857,29.857,0,0,0-39.329,47.816Z" transform="translate(83.672 -37.624)" fill="#ffdb8b"/>
    <path id="패스_12318" data-name="패스 12318" d="M-74.293,68.376a25.633,25.633,0,0,0-11.481-.962c-.554.08-1.276.094-1.5-.42s.286-1.039.789-1.274a6.81,6.81,0,0,1,4.173-.162A29.852,29.852,0,0,1-74.293,68.376Z" transform="translate(87.326 -39.732)" fill="#ffb9d4"/>
    <path id="패스_12319" data-name="패스 12319" d="M-72.308,88.144a25.66,25.66,0,0,0-7.786,8.491c-.276.488-.707,1.066-1.25.928s-.647-.864-.524-1.4a6.8,6.8,0,0,1,2.426-3.4A29.858,29.858,0,0,1-72.308,88.144Z" transform="translate(86.914 -41.47)" fill="#ffb9d4"/>
    <path id="패스_12320" data-name="패스 12320" d="M-62.271,97.837a25.648,25.648,0,0,0-4.23,10.716c-.083.554-.278,1.249-.835,1.314s-.913-.575-.992-1.123a6.808,6.808,0,0,1,1.049-4.042A29.872,29.872,0,0,1-62.271,97.837Z" transform="translate(85.883 -42.208)" fill="#e6ffe5"/>
    <path id="패스_12321" data-name="패스 12321" d="M-51.2,105.773a25.657,25.657,0,0,0-1.037,11.475c.078.554.086,1.276-.43,1.5s-1.038-.294-1.268-.8a6.791,6.791,0,0,1-.134-4.173A29.834,29.834,0,0,1-51.2,105.773Z" transform="translate(84.814 -42.812)" fill="#e6ffe5"/>
  </g>
  <g id="그룹_918" data-name="그룹 918" transform="translate(159.33 122.693)">
    <path id="패스_12416" data-name="패스 12416" d="M-175.7,75.91c.4-.327.925-.657,1.393-.443a1,1,0,0,1,.322,1.357,3.181,3.181,0,0,1-1.131,1.05,23.106,23.106,0,0,0-8.076,9.622A22.861,22.861,0,0,1-175.7,75.91Z" transform="translate(213.424 -64.394)" fill="#ffb9d4"/>
    <path id="패스_12417" data-name="패스 12417" d="M-169.344,85.091c.512-.055,1.134-.041,1.407.4a1,1,0,0,1-.477,1.311,3.185,3.185,0,0,1-1.523.256,23.108,23.108,0,0,0-12.036,3.594A22.863,22.863,0,0,1-169.344,85.091Z" transform="translate(213.331 -65.13)" fill="#e6ffe5"/>
    <path id="패스_12418" data-name="패스 12418" d="M-167.17,79.059c.5-.115,1.121-.176,1.445.224a1,1,0,0,1-.316,1.358,3.166,3.166,0,0,1-1.481.438,23.1,23.1,0,0,0-11.516,5.016A22.862,22.862,0,0,1-167.17,79.059Z" transform="translate(213.108 -64.666)" fill="#ffe2a0"/>
    <path id="패스_12419" data-name="패스 12419" d="M-176.094,70.033c.374-.354.877-.721,1.359-.54a1,1,0,0,1,.417,1.331c-.207.477-.546,1.016-1.054,1.128-2.351.516-5.12,4.469-7.38,10.165A22.867,22.867,0,0,1-176.094,70.033Z" transform="translate(213.391 -63.94)" fill="#e6ffe5"/>
    <path id="패스_12420" data-name="패스 12420" d="M-168.79,97.037c.4.328.821.783.7,1.283a1,1,0,0,1-1.27.574,3.171,3.171,0,0,1-1.247-.91,23.1,23.1,0,0,0-10.98-6.1A22.846,22.846,0,0,1-168.79,97.037Z" transform="translate(213.302 -65.649)" fill="#ffb9d4"/>
    <path id="패스_12421" data-name="패스 12421" d="M-163.388,91.275c.486.172,1.041.452,1.1.964s-.476.944-1,.977a3.171,3.171,0,0,1-1.485-.426,23.109,23.109,0,0,0-12.409-1.948A22.853,22.853,0,0,1-163.388,91.275Z" transform="translate(212.966 -65.504)" fill="#ffb9d4"/>
    <path id="패스_12422" data-name="패스 12422" d="M-172.865,104.073c.233.48.439,1.091.11,1.512a1.041,1.041,0,0,1-1.447,0,3.3,3.3,0,0,1-.786-1.4,23.964,23.964,0,0,0-7.746-10.474A23.709,23.709,0,0,1-172.865,104.073Z" transform="translate(213.389 -65.788)" fill="#e6ffe5"/>
    <path id="패스_12423" data-name="패스 12423" d="M-166.139,105.507c.289.45.566,1.031.29,1.488a1.039,1.039,0,0,1-1.436.17,2.623,2.623,0,0,1-.948-1.291,16.475,16.475,0,0,0-8.945-9.471A23.71,23.71,0,0,1-166.139,105.507Z" transform="translate(212.966 -65.993)" fill="#ffe2a0"/>
    <path id="패스_12424" data-name="패스 12424" d="M-180.33,108.962c-.025.565-.141,1.238-.66,1.464a1.1,1.1,0,0,1-1.346-.732,3.5,3.5,0,0,1-.029-1.7A25.39,25.39,0,0,0-184.3,94.337,25.115,25.115,0,0,1-180.33,108.962Z" transform="translate(213.509 -65.835)" fill="#ffb9d4"/>
    <path id="패스_12425" data-name="패스 12425" d="M-175.43,114.147c-.025.565-.14,1.239-.66,1.464a1.1,1.1,0,0,1-1.345-.732,3.484,3.484,0,0,1-.03-1.7A25.381,25.381,0,0,0-179.4,99.522,25.108,25.108,0,0,1-175.43,114.147Z" transform="translate(213.136 -66.23)" fill="#ffb9d4"/>
    <path id="패스_12426" data-name="패스 12426" d="M-202.52,84.912c-.512-.059-1.133-.052-1.411.382a1,1,0,0,0,.465,1.315,2.117,2.117,0,0,0,1.52.271c3.17-.8,7.765.823,12,3.708A22.862,22.862,0,0,0-202.52,84.912Z" transform="translate(215.011 -65.116)" fill="#e6ffe5"/>
    <path id="패스_12427" data-name="패스 12427" d="M-203.052,97.56c-.4.321-.837.766-.726,1.269a1,1,0,0,0,1.259.6,3.174,3.174,0,0,0,1.265-.886,23.107,23.107,0,0,1,11.1-5.879A22.858,22.858,0,0,0-203.052,97.56Z" transform="translate(214.992 -65.708)" fill="#ffb9d4"/>
    <path id="패스_12428" data-name="패스 12428" d="M-204,107.161c-.24.455-.458,1.038-.155,1.454a1,1,0,0,0,1.394.043,3.175,3.175,0,0,0,.8-1.319,23.1,23.1,0,0,1,7.8-9.842A22.862,22.862,0,0,0-204,107.161Z" transform="translate(215.031 -66.076)" fill="#ffb9d4"/>
    <path id="패스_12429" data-name="패스 12429" d="M-197.389,103.752c-.234.459-.442,1.045-.131,1.456a1,1,0,0,0,1.394.02,3.187,3.187,0,0,0,.782-1.331,23.1,23.1,0,0,1,7.642-9.969A22.859,22.859,0,0,0-197.389,103.752Z" transform="translate(214.527 -65.804)" fill="#ffe2a0"/>
    <path id="패스_12430" data-name="패스 12430" d="M-195.847,115.371c0,.516.087,1.131.552,1.354a1,1,0,0,0,1.248-.622,3.178,3.178,0,0,0,.083-1.542A23.094,23.094,0,0,1-191.75,102.2,22.852,22.852,0,0,0-195.847,115.371Z" transform="translate(214.387 -66.434)" fill="#ffb9d4"/>
    <path id="패스_12431" data-name="패스 12431" d="M-190.4,108.844c0,.566.082,1.244.59,1.495a1.1,1.1,0,0,0,1.378-.668,3.484,3.484,0,0,0,.11-1.693,25.381,25.381,0,0,1,2.583-13.555A25.113,25.113,0,0,0-190.4,108.844Z" transform="translate(213.973 -65.842)" fill="#e6ffe5"/>
    <path id="패스_12432" data-name="패스 12432" d="M-194.566,76.791c-.4-.327-.925-.657-1.393-.443a1,1,0,0,0-.322,1.357,2.315,2.315,0,0,0,1.131,1.05c3.618,1.521,6.4,5.283,8.076,9.622A22.865,22.865,0,0,0-194.566,76.791Z" transform="translate(214.43 -64.461)" fill="#ffb9d4"/>
    <path id="패스_12433" data-name="패스 12433" d="M-192.35,70.533c-.324-.4-.773-.83-1.276-.714a1,1,0,0,0-.588,1.265,3.178,3.178,0,0,0,.9,1.256,23.1,23.1,0,0,1,5.98,11.046A22.856,22.856,0,0,0-192.35,70.533Z" transform="translate(214.266 -63.967)" fill="#ffe2a0"/>
    <path id="패스_12434" data-name="패스 12434" d="M-203.941,77.541c-.491-.156-1.1-.268-1.458.1a1,1,0,0,0,.2,1.379,3.165,3.165,0,0,0,1.44.557,23.109,23.109,0,0,1,11.067,5.94A22.862,22.862,0,0,0-203.941,77.541Z" transform="translate(215.13 -64.546)" fill="#ffe2a0"/>
    <path id="패스_12435" data-name="패스 12435" d="M-209.6,91.86c-.489.161-1.05.429-1.121.939s.454.954.973,1a3.179,3.179,0,0,0,1.493-.392,23.106,23.106,0,0,1,12.451-1.66A22.866,22.866,0,0,0-209.6,91.86Z" transform="translate(215.52 -65.561)" fill="#ffb9d4"/>
    <path id="패스_12436" data-name="패스 12436" d="M-183.358,74.829l-1.549,12.259a45.134,45.134,0,0,1-.178-11.039,4.114,4.114,0,0,1,.44-1.682l.009-.016A.7.7,0,0,1-183.358,74.829Z" transform="translate(213.588 -64.289)" fill="#ffb9d4"/>
    <path id="패스_12437" data-name="패스 12437" d="M-186.566,114.209l1.78-13.911a51.233,51.233,0,0,1,.182,12.531,4.662,4.662,0,0,1-.5,1.909l-.01.017A.8.8,0,0,1-186.566,114.209Z" transform="translate(213.681 -66.289)" fill="#ffb9d4"/>
    <path id="패스_12438" data-name="패스 12438" d="M-198.7,75.463a18.869,18.869,0,0,0-7.683-3.573c-.4-.085-.9-.259-.928-.67s.462-.645.868-.68a5.006,5.006,0,0,1,2.921.946A21.986,21.986,0,0,1-198.7,75.463Z" transform="translate(215.26 -64.023)" fill="#ffb9d4"/>
    <path id="패스_12439" data-name="패스 12439" d="M-187.568,73.517a18.857,18.857,0,0,0-2.506-8.094c-.208-.357-.415-.844-.126-1.138s.788-.091,1.086.188a5,5,0,0,1,1.259,2.8A21.94,21.94,0,0,1-187.568,73.517Z" transform="translate(213.968 -63.537)" fill="#ffb9d4"/>
    <path id="패스_12440" data-name="패스 12440" d="M-164.458,85.576a18.847,18.847,0,0,1,8.224,2.038c.368.187.868.366,1.144.06s.045-.792-.249-1.074a4.993,4.993,0,0,0-2.869-1.1A21.964,21.964,0,0,0-164.458,85.576Z" transform="translate(211.998 -65.148)" fill="#e6ffe5"/>
    <path id="패스_12441" data-name="패스 12441" d="M-165.912,98.705a18.865,18.865,0,0,1,5.937,6.046c.215.351.546.766.942.65s.454-.65.349-1.045a5,5,0,0,0-1.868-2.437A21.934,21.934,0,0,0-165.912,98.705Z" transform="translate(212.109 -66.168)" fill="#e6ffe5"/>
    <path id="패스_12442" data-name="패스 12442" d="M-171.935,107.7a18.866,18.866,0,0,1,2.815,7.992c.046.409.17.926.577.989s.686-.4.76-.8a5,5,0,0,0-.66-3A21.97,21.97,0,0,0-171.935,107.7Z" transform="translate(212.567 -66.852)" fill="#ffb9d4"/>
    <path id="패스_12443" data-name="패스 12443" d="M-180.716,114.025a18.865,18.865,0,0,1-2,8.233c-.185.369-.362.868-.055,1.144s.792.042,1.073-.254a5,5,0,0,0,1.084-2.873A21.992,21.992,0,0,0-180.716,114.025Z" transform="translate(213.405 -67.334)" fill="#ffb9d4"/>
    <path id="패스_12444" data-name="패스 12444" d="M-171.935,75.618a18.881,18.881,0,0,1,8.164-2.268c.412-.018.935-.107,1.025-.509s-.35-.711-.746-.812a5,5,0,0,0-3.037.455A21.97,21.97,0,0,0-171.935,75.618Z" transform="translate(212.567 -64.13)" fill="#ffe2a0"/>
    <path id="패스_12445" data-name="패스 12445" d="M-180.616,70.983a18.867,18.867,0,0,1,5.817-6.161c.343-.228.745-.576.614-.966s-.667-.429-1.058-.31a5.006,5.006,0,0,0-2.364,1.96A21.984,21.984,0,0,0-180.616,70.983Z" transform="translate(213.228 -63.487)" fill="#ffb9d4"/>
    <path id="패스_12446" data-name="패스 12446" d="M-206.33,86.1a18.878,18.878,0,0,0-8.443-.707c-.408.059-.939.069-1.1-.31s.212-.764.581-.937a5.005,5.005,0,0,1,3.069-.118A21.985,21.985,0,0,1-206.33,86.1Z" transform="translate(215.915 -65.037)" fill="#ffe2a0"/>
    <path id="패스_12447" data-name="패스 12447" d="M-204.87,100.641a18.878,18.878,0,0,0-5.727,6.245c-.2.358-.52.784-.919.683s-.476-.636-.385-1.033a5,5,0,0,1,1.784-2.5A21.968,21.968,0,0,1-204.87,100.641Z" transform="translate(215.612 -66.315)" fill="#ffe2a0"/>
    <path id="패스_12448" data-name="패스 12448" d="M-197.489,107.77a18.863,18.863,0,0,0-3.112,7.881c-.061.407-.205.918-.614.966s-.671-.422-.729-.826a5,5,0,0,1,.77-2.973A21.965,21.965,0,0,1-197.489,107.77Z" transform="translate(214.854 -66.858)" fill="#e6ffe5"/>
    <path id="패스_12449" data-name="패스 12449" d="M-189.346,113.606a18.868,18.868,0,0,0-.762,8.439c.056.408.063.939-.316,1.1s-.763-.216-.933-.587a5,5,0,0,1-.1-3.069A21.966,21.966,0,0,1-189.346,113.606Z" transform="translate(214.068 -67.302)" fill="#e6ffe5"/>
  </g>
  <circle id="타원_420" data-name="타원 420" cx="1.249" cy="1.249" r="1.249" transform="translate(199.928 196.928) rotate(-76.718)" fill="#fffef3"/>
</svg>
