<svg id="구성_요소_85_1" data-name="구성 요소 85 – 1" xmlns="http://www.w3.org/2000/svg" width="14.852" height="14.56" viewBox="0 0 14.852 14.56">
  <g id="그룹_9" data-name="그룹 9" transform="translate(-686.815 -533.659)" opacity="0.179">
    <path id="패스_130" data-name="패스 130" d="M699.973,561.987l-2.434-5.105a1.483,1.483,0,0,0-2.2-.523l-.342.284-4.2,3.277a2.049,2.049,0,0,0-.717.96,1.3,1.3,0,0,0,.846,1.589l7.716,1.763a1.363,1.363,0,0,0,1.529-1.046A1.7,1.7,0,0,0,699.973,561.987Z" transform="translate(-2.311 -16.039)"/>
    <g id="그룹_5" data-name="그룹 5" transform="translate(686.815 537.21)">
      <path id="패스_131" data-name="패스 131" d="M689.969,548.42c.164,1.361-.4,2.549-1.266,2.653s-1.7-.914-1.86-2.275.4-2.549,1.265-2.653S689.8,547.06,689.969,548.42Z" transform="translate(-686.815 -546.138)"/>
    </g>
    <g id="그룹_6" data-name="그룹 6" transform="translate(690.745 533.659)">
      <path id="패스_132" data-name="패스 132" d="M703.778,535.942c.164,1.361-.4,2.548-1.265,2.653s-1.7-.915-1.86-2.275.4-2.549,1.265-2.653S703.614,534.581,703.778,535.942Z" transform="translate(-700.624 -533.659)"/>
    </g>
    <g id="그룹_7" data-name="그룹 7" transform="translate(695.553 534.982)">
      <path id="패스_133" data-name="패스 133" d="M720.729,541.446c-.807,1.108-2.031,1.591-2.733,1.08s-.618-1.825.189-2.933,2.031-1.591,2.733-1.08S721.536,540.338,720.729,541.446Z" transform="translate(-717.52 -538.309)"/>
    </g>
    <g id="그룹_8" data-name="그룹 8" transform="translate(697.793 539.7)">
      <path id="패스_134" data-name="패스 134" d="M728.6,558.025c-.807,1.108-2.031,1.591-2.733,1.08s-.618-1.825.189-2.933,2.031-1.591,2.733-1.08S729.406,556.917,728.6,558.025Z" transform="translate(-725.39 -554.888)"/>
    </g>
  </g>
</svg>
