<svg id="구성_요소_78_1" data-name="구성 요소 78 – 1" xmlns="http://www.w3.org/2000/svg" width="206.331" height="205.859" viewBox="0 0 206.331 205.859">
  <path id="패스_12462" data-name="패스 12462" d="M-534.4,178.96l-4-7.537a1.019,1.019,0,0,1,.993-1.493l12.159,1.114a1.021,1.021,0,0,1,.893.753l1.72,6.46a1.02,1.02,0,0,1-.989,1.282l-9.88-.037A1.019,1.019,0,0,1-534.4,178.96Z" transform="translate(589.474 -42.923)" fill="#b896de"/>
  <path id="패스_12463" data-name="패스 12463" d="M-436.27,178.866l3.795-7.152a1.2,1.2,0,0,0-1.167-1.754l-11.707,1.072a1.2,1.2,0,0,0-1.048.885l-1.628,6.115a1.2,1.2,0,0,0,1.161,1.506l9.541-.036A1.2,1.2,0,0,0-436.27,178.866Z" transform="translate(589.474 -42.923)" fill="#b896de"/>
  <path id="패스_12464" data-name="패스 12464" d="M-525.674,111.819l-22.879,41.568.929.511,23.161-42.079Z" transform="translate(589.474 -42.923)" fill="#775c9b"/>
  <path id="패스_12465" data-name="패스 12465" d="M-501.757,111.82c-5.99,15.287-14.5,36.837-20.017,50.791l.986.389c9.9-25.008,16.187-40.971,20.18-51.18Z" transform="translate(589.474 -42.923)" fill="#775c9b"/>
  <path id="패스_12466" data-name="패스 12466" d="M-476.21,111.819l-18.617,56.169,1.155.383,18.742-56.551Z" transform="translate(589.474 -42.923)" fill="#1d1d1b"/>
  <path id="패스_12468" data-name="패스 12468" d="M-526.429,161.662l9.119,2.134a1.3,1.3,0,0,1,.884,1.824l-6.178,13.169a1.305,1.305,0,0,1-1.186.75l-9.069-.034a1.3,1.3,0,0,1-1.205-1.79l6.128-15.269A1.3,1.3,0,0,1-526.429,161.662Z" transform="translate(589.474 -42.923)" fill="#fff0fb"/>
  <path id="패스_12469" data-name="패스 12469" d="M-496.543,168.222l.936-.079a1.056,1.056,0,0,1,1.07,1.44l-5.717,14.488a1.057,1.057,0,0,1-1.058.665L-511.569,184a1.056,1.056,0,0,1-.927-1.387h0a1.056,1.056,0,0,1,1.1-.718l8.533.771a1.057,1.057,0,0,0,1.1-.719l4.311-13.005A1.055,1.055,0,0,1-496.543,168.222Z" transform="translate(589.474 -42.923)" fill="#fff0fb"/>
  <path id="패스_12470" data-name="패스 12470" d="M-445.423,111.819l23.161,42.079.929-.511-22.877-41.568Z" transform="translate(589.474 -42.923)" fill="#775c9b"/>
  <path id="패스_12471" data-name="패스 12471" d="M-469.276,111.82c3.993,10.211,10.285,26.173,20.179,51.18l.986-.389c-5.522-13.954-14.029-35.5-20.017-50.791Z" transform="translate(589.474 -42.923)" fill="#775c9b"/>
  <path id="패스_12472" data-name="패스 12472" d="M-494.875,111.819l18.735,56.526,1-.333-18.624-56.194Z" transform="translate(589.474 -42.923)" fill="#775c9b"/>
  <path id="패스_12474" data-name="패스 12474" d="M-445.071,161.688l-8.842,2.07a1.439,1.439,0,0,0-.975,2.013l6.069,12.939a1.441,1.441,0,0,0,1.309.828l8.783-.032a1.439,1.439,0,0,0,1.33-1.976l-6.009-14.976A1.441,1.441,0,0,0-445.071,161.688Z" transform="translate(589.474 -42.923)" fill="#fff0fb"/>
  <path id="패스_12475" data-name="패스 12475" d="M-475.413,167.228h0a.966.966,0,0,0-.978,1.317l5.795,14.685a.967.967,0,0,0,.967.609l10.213-.733a.966.966,0,0,0,.787-1.41l-.389-.747a.968.968,0,0,0-1.013-.507l-7.8,1.277a.966.966,0,0,1-1.043-.572l-5.736-13.338A.966.966,0,0,0-475.413,167.228Z" transform="translate(589.474 -42.923)" fill="#fff0fb"/>
  <path id="패스_12476" data-name="패스 12476" d="M-481.131,234.719l-11.437-.754-4.671-105.3,20.779-1.371Q-478.8,181-481.131,234.719Z" transform="translate(589.474 -42.923)" fill="#fff"/>
  <circle id="타원_420" data-name="타원 420" cx="2.229" cy="2.229" r="2.229" transform="translate(100.561)" fill="#ffb32c"/>
  <g id="그룹_926" data-name="그룹 926" transform="translate(589.474 -42.923)">
    <path id="패스_12478" data-name="패스 12478" d="M-560.446,196.994l-4.15-7.821a.888.888,0,0,1,.866-1.3l12.491,1.144a.889.889,0,0,1,.778.656l1.788,6.714a.888.888,0,0,1-.862,1.117l-10.13-.037A.89.89,0,0,1-560.446,196.994Z" fill="#b896de"/>
    <path id="패스_12479" data-name="패스 12479" d="M-413.593,196.668l3.444-6.491a1.5,1.5,0,0,0-1.465-2.2l-10.931,1a1.5,1.5,0,0,0-1.316,1.11l-1.471,5.523a1.5,1.5,0,0,0,1.459,1.89l8.958-.033A1.5,1.5,0,0,0-413.593,196.668Z" fill="#b896de"/>
    <path id="패스_12480" data-name="패스 12480" d="M-542.118,111.819l-32.767,59.532.929.511,33.048-60.044Z" fill="#775c9b"/>
    <path id="패스_12481" data-name="패스 12481" d="M-521.146,111.82c-.932,2.839-17.934,45.941-26.96,68.756l.986.389c23.306-58.909,26.64-67.649,26.979-69.145Z" fill="#775c9b"/>
    <path id="패스_12482" data-name="패스 12482" d="M-496.505,111.819l-24.58,74.16,1.006.333,24.69-74.493Z" fill="#775c9b"/>
    <path id="패스_12484" data-name="패스 12484" d="M-552.14,179.558l9.832,2.3a.952.952,0,0,1,.646,1.333l-6.456,13.763a.953.953,0,0,1-.867.548l-9.809-.036a.954.954,0,0,1-.882-1.309l6.434-16.027A.955.955,0,0,1-552.14,179.558Z" fill="#fff0fb"/>
    <path id="패스_12485" data-name="패스 12485" d="M-520.874,184.321h.622a1.225,1.225,0,0,1,1.139,1.674l-5.635,14.28a1.227,1.227,0,0,1-1.227.772l-9.917-.712a1.224,1.224,0,0,1-1.074-1.608l.259-.78a1.226,1.226,0,0,1,1.322-.828l6.529.861a1.226,1.226,0,0,0,1.274-.705l5.595-12.238A1.224,1.224,0,0,1-520.874,184.321Z" fill="#fff0fb"/>
    <path id="패스_12486" data-name="패스 12486" d="M-433.306,111.819l33.049,60.044.929-.511L-432.1,111.819Z" fill="#775c9b"/>
    <path id="패스_12487" data-name="패스 12487" d="M-453.565,111.82l.351.275-.377-.275h-.48c.341,1.5,3.673,10.236,26.981,69.145l.984-.389c-9.025-22.816-26.028-65.918-26.96-68.756Z" fill="#775c9b"/>
    <path id="패스_12488" data-name="패스 12488" d="M-478.823,111.819l24.689,74.493,1-.333-24.579-74.16Z" fill="#775c9b"/>
    <path id="패스_12489" data-name="패스 12489" d="M-396.106,191.162l12.681-7.668a.585.585,0,0,0,.2-.8c-.009-.015-.019-.029-.029-.043L-393.6,168.467a1.938,1.938,0,0,0-2.568-.516l-7.786,4.708a1.937,1.937,0,0,0-.735,2.513l7.752,15.748a.586.586,0,0,0,.783.268Z" fill="#fff0fb"/>
    <path id="패스_12490" data-name="패스 12490" d="M-421.785,179.491l-10.533,2.465a.61.61,0,0,0-.413.853l6.73,14.346a.61.61,0,0,0,.554.35l10.535-.039a.61.61,0,0,0,.564-.837l-6.732-16.772A.609.609,0,0,0-421.785,179.491Z" fill="#fff0fb"/>
    <path id="패스_12491" data-name="패스 12491" d="M-450.771,186.235l-3.2-.267,6.626,16.79,12.386-.889-.723-2.17-10.046-.1Z" fill="#fff0fb"/>
  </g>
  <g id="그룹_927" data-name="그룹 927" transform="translate(589.474 -42.923)">
    <path id="패스_12492" data-name="패스 12492" d="M-494.476,191.212l.229,5.14q7.233-3.723,15.121-7.59c.076-1.747.16-3.5.236-5.247Q-487.016,187.439-494.476,191.212Z" fill="#a27fd1"/>
    <path id="패스_12493" data-name="패스 12493" d="M-493.262,218.436q.117,2.568.23,5.139,6.017-3.447,12.693-7.041.117-2.623.229-5.244Q-487.018,214.94-493.262,218.436Z" fill="#a27fd1"/>
    <path id="패스_12494" data-name="패스 12494" d="M-480.715,225.175q-6.3,3.51-11.938,6.872l.085,1.917q2.479.162,4.956.326,3.227-1.911,6.667-3.872Z" fill="#a27fd1"/>
    <path id="패스_12495" data-name="패스 12495" d="M-493.868,204.824q.116,2.571.23,5.14,6.623-3.585,13.906-7.317.117-2.624.229-5.244Q-487.02,201.19-493.868,204.824Z" fill="#a27fd1"/>
    <path id="패스_12496" data-name="패스 12496" d="M-495.084,177.6q.117,2.568.23,5.139,7.839-3.859,16.343-7.868.114-2.62.229-5.244Q-487.013,173.691-495.084,177.6Z" fill="#a27fd1"/>
    <path id="패스_12497" data-name="패스 12497" d="M-496.906,136.768l.229,5.14q9.663-4.272,19.989-8.692.114-2.624.229-5.244Q-487.014,132.445-496.906,136.768Z" fill="#a27fd1"/>
    <path id="패스_12498" data-name="패스 12498" d="M-496.3,150.379l.229,5.14q9.054-4.136,18.774-8.419.114-2.621.229-5.244Q-487.014,146.194-496.3,150.379Z" fill="#a27fd1"/>
    <path id="패스_12499" data-name="패스 12499" d="M-495.692,163.991q.114,2.568.23,5.139,8.447-4,17.557-8.142.117-2.624.23-5.244Q-487.016,159.941-495.692,163.991Z" fill="#a27fd1"/>
  </g>
  <g id="그룹_928" data-name="그룹 928" transform="translate(589.474 -42.923)">
    <path id="패스_12500" data-name="패스 12500" d="M-480.944,230.419q.115-2.621.229-5.244-3.068,1.708-5.975,3.383-.027,2.61-.054,5.223C-484.861,232.672-482.933,231.552-480.944,230.419Z" fill="#775c9b"/>
    <path id="패스_12501" data-name="패스 12501" d="M-486.261,187.116l-.054,5.214q3.523-1.769,7.189-3.567c.076-1.747.147-3.492.223-5.239C-481.409,184.732-483.853,185.929-486.261,187.116Z" fill="#775c9b"/>
    <path id="패스_12502" data-name="패스 12502" d="M-486.546,214.737l-.054,5.218q3.056-1.7,6.262-3.422.114-2.621.229-5.244Q-483.4,213.03-486.546,214.737Z" fill="#775c9b"/>
    <path id="패스_12503" data-name="패스 12503" d="M-486.408,200.923l-.054,5.217q3.291-1.731,6.726-3.492.114-2.62.229-5.244Q-483.028,199.18-486.408,200.923Z" fill="#775c9b"/>
    <path id="패스_12504" data-name="패스 12504" d="M-486.614,146.052a47.9,47.9,0,0,1,.523,4.958q4.322-1.934,8.769-3.9.114-2.624.227-5.244Q-481.933,143.978-486.614,146.052Z" fill="#775c9b"/>
    <path id="패스_12505" data-name="패스 12505" d="M-491.274,134.325a24.689,24.689,0,0,1,2.429,4.149c3.971-1.733,8-3.477,12.128-5.247q.114-2.624.227-5.244C-481.545,130.127-486.446,132.235-491.274,134.325Z" fill="#775c9b"/>
    <path id="패스_12506" data-name="패스 12506" d="M-485.978,159.51q-.027,2.6-.054,5.211c2.661-1.232,5.354-2.471,8.106-3.724l.229-5.242C-480.507,157.017-483.259,158.268-485.978,159.51Z" fill="#775c9b"/>
    <path id="패스_12507" data-name="패스 12507" d="M-486.12,173.311l-.054,5.212c2.505-1.2,5.046-2.417,7.646-3.642q.114-2.622.227-5.244C-480.957,170.873-483.555,172.1-486.12,173.311Z" fill="#775c9b"/>
  </g>
  <path id="패스_12508" data-name="패스 12508" d="M-476.673,56.56h-20.353l-51.222,56.429h122.8Z" transform="translate(589.474 -42.923)" fill="#a27fd1"/>
  <path id="패스_12509" data-name="패스 12509" d="M-485.448,55.674l8.989,57.289H-425.1l-52.064-56.4Z" transform="translate(589.474 -42.923)" fill="#a27fd1"/>
  <path id="패스_12510" data-name="패스 12510" d="M-487.078,46.028l-9.935,66.324h21.144Z" transform="translate(589.474 -42.923)" fill="#ededed"/>
  <path id="패스_12511" data-name="패스 12511" d="M-538.664,112.579l51.586-66.551-30.485,66.324Z" transform="translate(589.474 -42.923)" fill="#ededed"/>
  <path id="패스_12512" data-name="패스 12512" d="M-434.893,112.579l-52.186-66.551,31.085,66.324Z" transform="translate(589.474 -42.923)" fill="#dadada"/>
  <g id="그룹_929" data-name="그룹 929" transform="translate(589.474 -42.923)">
    <path id="패스_12513" data-name="패스 12513" d="M-548.391,102.37a10.34,10.34,0,0,0-6.192,2.049,17.39,17.39,0,0,1,2.015,1.7,17.654,17.654,0,0,1,4.083,6.455h10.368v-.123A10.179,10.179,0,0,0-548.391,102.37Z" fill="#ffe059"/>
    <path id="패스_12514" data-name="패스 12514" d="M-527.843,102.37a10.181,10.181,0,0,0-10.275,10.085v.123h20.55v-.123A10.181,10.181,0,0,0-527.843,102.37Z" fill="#ffe059"/>
    <path id="패스_12515" data-name="패스 12515" d="M-507.293,102.37a10.181,10.181,0,0,0-10.275,10.085v.123h20.55v-.123A10.181,10.181,0,0,0-507.293,102.37Z" fill="#ffe059"/>
    <path id="패스_12516" data-name="패스 12516" d="M-425.174,102.37a10.181,10.181,0,0,0-10.275,10.085v.123h10.369A17.667,17.667,0,0,1-421,106.123a17.475,17.475,0,0,1,2.015-1.7A10.34,10.34,0,0,0-425.174,102.37Z" fill="#ffca52"/>
    <path id="패스_12517" data-name="패스 12517" d="M-445.722,102.37A10.181,10.181,0,0,0-456,112.455v.123h20.548v-.123A10.179,10.179,0,0,0-445.722,102.37Z" fill="#ffca52"/>
    <path id="패스_12518" data-name="패스 12518" d="M-486.783,102.371a10.18,10.18,0,0,0-10.236,10.083v.123h20.472v-.123A10.18,10.18,0,0,0-486.783,102.371Z" fill="#ffe059"/>
    <path id="패스_12519" data-name="패스 12519" d="M-466.271,102.37a10.181,10.181,0,0,0-10.275,10.085v.123H-456v-.123A10.181,10.181,0,0,0-466.271,102.37Z" fill="#ffca52"/>
  </g>
  <g id="그룹_930" data-name="그룹 930" transform="translate(589.474 -42.923)">
    <path id="패스_12520" data-name="패스 12520" d="M-496.85,112.58a10.217,10.217,0,0,1,10.068-8.317,10.217,10.217,0,0,1,10.068,8.317h.168v-.123a10.18,10.18,0,0,0-10.236-10.086,10.18,10.18,0,0,0-10.236,10.083v.123Z" fill="#ffff80"/>
    <path id="패스_12521" data-name="패스 12521" d="M-476.378,112.58a10.217,10.217,0,0,1,10.107-8.319,10.217,10.217,0,0,1,10.107,8.319H-456v-.123a10.18,10.18,0,0,0-10.274-10.087,10.181,10.181,0,0,0-10.275,10.085v.123Z" fill="#ffe074"/>
    <path id="패스_12522" data-name="패스 12522" d="M-435.281,112.58a10.221,10.221,0,0,1,10.107-8.319,10.291,10.291,0,0,1,4.879,1.223c.425-.372.86-.73,1.313-1.063a10.34,10.34,0,0,0-6.192-2.049,10.181,10.181,0,0,0-10.275,10.085v.123Z" fill="#ffe074"/>
    <path id="패스_12523" data-name="패스 12523" d="M-455.829,112.58a10.217,10.217,0,0,1,10.107-8.319,10.217,10.217,0,0,1,10.108,8.319h.168v-.123a10.18,10.18,0,0,0-10.272-10.087h0A10.181,10.181,0,0,0-456,112.455v.123Z" fill="#ffe074"/>
    <path id="패스_12524" data-name="패스 12524" d="M-548.391,104.261a10.217,10.217,0,0,1,10.108,8.319h.167v-.123a10.18,10.18,0,0,0-10.272-10.087h0a10.34,10.34,0,0,0-6.192,2.049c.453.334.888.691,1.313,1.063A10.306,10.306,0,0,1-548.391,104.261Z" fill="#ffff80"/>
    <path id="패스_12525" data-name="패스 12525" d="M-537.95,112.58a10.219,10.219,0,0,1,10.107-8.319,10.217,10.217,0,0,1,10.107,8.319h.167v-.123a10.182,10.182,0,0,0-10.274-10.087,10.181,10.181,0,0,0-10.275,10.085v.123Z" fill="#ffff80"/>
    <path id="패스_12526" data-name="패스 12526" d="M-517.4,112.58a10.217,10.217,0,0,1,10.107-8.319,10.217,10.217,0,0,1,10.107,8.319h.168v-.123a10.18,10.18,0,0,0-10.274-10.087h0a10.181,10.181,0,0,0-10.275,10.085v.123Z" fill="#ffff80"/>
  </g>
  <path id="패스_12527" data-name="패스 12527" d="M-525.894,100.3a2.183,2.183,0,0,1-2.184,2.183,2.184,2.184,0,0,1-2.182-2.183,2.182,2.182,0,0,1,2.182-2.182h0A2.182,2.182,0,0,1-525.894,100.3Z" transform="translate(589.474 -42.923)" fill="#ffe059"/>
  <path id="패스_12528" data-name="패스 12528" d="M-505.11,100.3a2.183,2.183,0,0,1-2.184,2.183,2.184,2.184,0,0,1-2.184-2.183,2.183,2.183,0,0,1,2.184-2.182A2.182,2.182,0,0,1-505.11,100.3Z" transform="translate(589.474 -42.923)" fill="#ffe059"/>
  <path id="패스_12529" data-name="패스 12529" d="M-484.6,100.3a2.184,2.184,0,0,1-2.182,2.183,2.184,2.184,0,0,1-2.184-2.183,2.183,2.183,0,0,1,2.184-2.182A2.182,2.182,0,0,1-484.6,100.3Z" transform="translate(589.474 -42.923)" fill="#ffe059"/>
  <path id="패스_12530" data-name="패스 12530" d="M-464.187,100.3a2.183,2.183,0,0,1-2.184,2.183,2.184,2.184,0,0,1-2.182-2.183,2.182,2.182,0,0,1,2.182-2.182h0A2.182,2.182,0,0,1-464.187,100.3Z" transform="translate(589.474 -42.923)" fill="#ffca52"/>
  <path id="패스_12531" data-name="패스 12531" d="M-443.54,100.3a2.184,2.184,0,0,1-2.182,2.183,2.184,2.184,0,0,1-2.184-2.183,2.183,2.183,0,0,1,2.184-2.182h0a2.182,2.182,0,0,1,2.182,2.182Z" transform="translate(589.474 -42.923)" fill="#ffca52"/>
  <circle id="타원_421" data-name="타원 421" cx="2.183" cy="2.183" r="2.183" transform="translate(168.308 59.155)" fill="#ffca52"/>
  <path id="패스_12532" data-name="패스 12532" d="M-553.263,104.261a2.183,2.183,0,0,1-2.184,2.182,2.184,2.184,0,0,1-2.184-2.182,2.184,2.184,0,0,1,2.184-2.184A2.184,2.184,0,0,1-553.263,104.261Z" transform="translate(589.474 -42.923)" fill="#ffe059"/>
  <path id="패스_12533" data-name="패스 12533" d="M-429.426,121.817H-544.273a4.324,4.324,0,0,1-4.322-4.322v-4.914h123.5V117.5a4.323,4.323,0,0,1-4.324,4.322Z" transform="translate(589.474 -42.923)" fill="#ffb32c"/>
  <path id="패스_12534" data-name="패스 12534" d="M-478.7,128.872H-495c-3.367,0-6.1-3.127-6.1-6.984v-.075h28.5v.072C-472.6,125.745-475.331,128.872-478.7,128.872Z" transform="translate(589.474 -42.923)" fill="#a27fd1"/>
  <path id="패스_12535" data-name="패스 12535" d="M-495,232.726h16.3a6.1,6.1,0,0,1,6.1,6.1h0v.061H-501.1v-.061A6.1,6.1,0,0,1-495,232.726Z" transform="translate(589.474 -42.923)" fill="#775c9b"/>
  <path id="패스_12536" data-name="패스 12536" d="M-467.235,240.538a5.675,5.675,0,0,0-4.077-1.727h-31.069a5.675,5.675,0,0,0-4.077,1.727l-7.979,8.244h55.187Z" transform="translate(589.474 -42.923)" fill="#ffb32c"/>
  <path id="패스_12537" data-name="패스 12537" d="M-475.43,54.822a1.738,1.738,0,0,1-1.738,1.738h-19.99a1.738,1.738,0,0,1-1.738-1.738h0a1.74,1.74,0,0,1,1.738-1.739h19.99A1.739,1.739,0,0,1-475.43,54.822Z" transform="translate(589.474 -42.923)" fill="#ffb32c"/>
  <path id="패스_12538" data-name="패스 12538" d="M-477.168,53.083h-9.138a1.74,1.74,0,0,1,1.739,1.739,1.739,1.739,0,0,1-1.739,1.738h9.138a1.738,1.738,0,0,0,1.738-1.738h0A1.739,1.739,0,0,0-477.168,53.083Z" transform="translate(589.474 -42.923)" fill="#ff9d2c"/>
  <path id="패스_12539" data-name="패스 12539" d="M-477.143,53.093a10.524,10.524,0,0,0-9.935-7.065,10.528,10.528,0,0,0-9.935,7.065Z" transform="translate(589.474 -42.923)" fill="#ffe059"/>
  <path id="패스_12540" data-name="패스 12540" d="M-477.143,53.093a10.524,10.524,0,0,0-9.935-7.065,10.1,10.1,0,0,0-1.153.093c.175.084.354.173.516.241a4.609,4.609,0,0,1,2.668,3.224,4.578,4.578,0,0,1-.734,3.507Z" transform="translate(589.474 -42.923)" fill="#ffca52"/>
  <path id="패스_12541" data-name="패스 12541" d="M-466.208,115.6h-81.23a1.844,1.844,0,0,1-2.021-1.584v-.033a1.843,1.843,0,0,1,2.021-1.584h81.23a1.843,1.843,0,0,1,2.021,1.584v.033A1.844,1.844,0,0,1-466.208,115.6Z" transform="translate(589.474 -42.923)" fill="#ffc241"/>
  <path id="패스_12542" data-name="패스 12542" d="M-476.882,112.58v4.914a4.323,4.323,0,0,1-4.322,4.322h51.778a4.323,4.323,0,0,0,4.322-4.322V112.58Z" transform="translate(589.474 -42.923)" fill="#ff9d2c"/>
  <path id="패스_12543" data-name="패스 12543" d="M-472.6,121.888v-.075h-28.5v.072a7.872,7.872,0,0,0,.432,2.544h15.9a2.02,2.02,0,0,1,2.063,1.978,2.021,2.021,0,0,1-.392,1.239l-.022.027a6.451,6.451,0,0,1-1.889,1.2h6.312a6.17,6.17,0,0,0,5.664-4.442,7.737,7.737,0,0,0,.316-1.223A7.593,7.593,0,0,0-472.6,121.888Z" transform="translate(589.474 -42.923)" fill="#775c9b"/>
  <path id="패스_12544" data-name="패스 12544" d="M-467.235,240.538a5.667,5.667,0,0,0-4.077-1.727h-.842l.019.075a5.775,5.775,0,0,1-4.271,6.963,5.785,5.785,0,0,1-1.388.159h-33.844l-.024-.1-2.78,2.873h55.187Z" transform="translate(589.474 -42.923)" fill="#ff9d2c"/>
  <path id="패스_12545" data-name="패스 12545" d="M-487.221,48.71c.317,1.044-.685,2.273-2.236,2.743s-3.065,0-3.382-1.041.683-2.272,2.236-2.743S-487.542,47.664-487.221,48.71Z" transform="translate(589.474 -42.923)" fill="#ffffa4"/>
  <path id="패스_12489-2" data-name="패스 12489" d="M-418.408,172.98l12.681-7.668a.582.582,0,0,0,.2-.8.411.411,0,0,0-.029-.044L-415.9,150.286a1.937,1.937,0,0,0-2.568-.516l-7.786,4.708a1.935,1.935,0,0,0-.735,2.512l7.752,15.748a.585.585,0,0,0,.783.268A.431.431,0,0,0-418.408,172.98Z" transform="translate(589.474 -42.923)" fill="#fff0fb"/>
  <path id="패스_12489-3" data-name="패스 12489" d="M-576.463,190.251a.586.586,0,0,0,.783-.268l7.753-15.748a1.938,1.938,0,0,0-.736-2.513l-7.786-4.708a1.937,1.937,0,0,0-2.567.516l-10.345,14.182c-.01.014-.02.029-.029.044a.584.584,0,0,0,.2.8l12.681,7.668Z" transform="translate(589.474 -42.923)" fill="#fff0fb"/>
  <path id="패스_12489-4" data-name="패스 12489" d="M-551.412,172.592a.586.586,0,0,0,.783-.268l7.752-15.748a1.936,1.936,0,0,0-.735-2.513l-7.786-4.708a1.938,1.938,0,0,0-2.568.516l-10.344,14.182a.416.416,0,0,0-.029.044.582.582,0,0,0,.2.8l12.681,7.668A.431.431,0,0,0-551.412,172.592Z" transform="translate(589.474 -42.923)" fill="#fff0fb"/>
</svg>
