<svg xmlns="http://www.w3.org/2000/svg" xmlns:xlink="http://www.w3.org/1999/xlink" width="328.93" height="84" viewBox="0 0 328.93 84">
  <defs>
    <filter id="패스_19678" x="0" y="0" width="328.93" height="84" filterUnits="userSpaceOnUse">
      <feOffset input="SourceAlpha"/>
      <feGaussianBlur stdDeviation="3" result="blur"/>
      <feFlood flood-opacity="0.161"/>
      <feComposite operator="in" in2="blur"/>
      <feComposite in="SourceGraphic"/>
    </filter>
  </defs>
  <g id="구성_요소_132_1" data-name="구성 요소 132 – 1" transform="translate(9 9)">
    <g id="구성_요소_81_1" data-name="구성 요소 81 – 1">
      <g transform="matrix(1, 0, 0, 1, -9, -9)" filter="url(#패스_19678)">
        <g id="패스_19678-2" data-name="패스 19678" transform="translate(9 9)" fill="#f9f2fc">
          <path d="M 297.9296875 63.5 L 13.00001049041748 63.5 C 7.210301876068115 63.5 2.50001049041748 58.78970718383789 2.50001049041748 53 L 2.50001049041748 13 C 2.50001049041748 7.210291862487793 7.210301876068115 2.5 13.00001049041748 2.5 L 297.9296875 2.5 C 303.7193908691406 2.5 308.4296875 7.210291862487793 308.4296875 13 L 308.4296875 53 C 308.4296875 58.78970718383789 303.7193908691406 63.5 297.9296875 63.5 Z" stroke="none"/>
          <path d="M 12.99996948242188 5 C 8.5887451171875 5 4.999969482421875 8.588771820068359 4.999969482421875 13 L 4.999969482421875 53 C 4.999969482421875 57.41122817993164 8.5887451171875 61 12.99996948242188 61 L 297.9296569824219 61 C 302.3408813476562 61 305.9296569824219 57.41122817993164 305.9296569824219 53 L 305.9296569824219 13 C 305.9296569824219 8.588771820068359 302.3408813476562 5 297.9296569824219 5 L 12.99996948242188 5 M 12.99996948242188 0 L 297.9296569824219 0 C 305.109375 0 310.9296569824219 5.820316314697266 310.9296569824219 13 L 310.9296569824219 53 C 310.9296569824219 60.17967987060547 305.109375 66 297.9296569824219 66 L 12.99996948242188 66 C 5.8203125 66 -3.0517578125e-05 60.17967987060547 -3.0517578125e-05 53 L -3.0517578125e-05 13 C -3.0517578125e-05 5.820316314697266 5.8203125 0 12.99996948242188 0 Z" stroke="none" fill="#fff"/>
        </g>
      </g>
    </g>
    <g id="구성_요소_114_1" data-name="구성 요소 114 – 1" transform="translate(21.965 20.5)">
      <text id="회전그네는_기획전을_싣고" data-name="회전그네는 기획전을 싣고" transform="translate(0 18)" fill="#7e738e" font-size="23" font-family="SDGdGulim, Sandoll Gyeokdonggulim"><tspan x="0" y="0">회전그네는 기획전을 싣고</tspan></text>
    </g>
  </g>
</svg>
