<svg id="구성_요소_75_1" data-name="구성 요소 75 – 1" xmlns="http://www.w3.org/2000/svg" width="228.906" height="221.425" viewBox="0 0 228.906 221.425">
  <g id="그룹_882" data-name="그룹 882" transform="translate(-403.184 -254.011)">
    <rect id="사각형_707" data-name="사각형 707" width="146.135" height="104.058" transform="translate(411.385 371.378)" fill="#fff"/>
    <g id="그룹_874" data-name="그룹 874" transform="translate(464.531 333.086)">
      <g id="그룹_870" data-name="그룹 870" transform="translate(31.681 2.06)">
        <path id="패스_12151" data-name="패스 12151" d="M444.769,242.691a5.437,5.437,0,1,1-5.437-5.437A5.438,5.438,0,0,1,444.769,242.691Z" transform="translate(-424.853 -230.586)" fill="#ffdfdd"/>
        <circle id="타원_367" data-name="타원 367" cx="5.437" cy="5.437" r="5.437" transform="translate(3.998)" fill="#ffdfdd"/>
        <path id="패스_12154" data-name="패스 12154" d="M441.8,242.691a5.437,5.437,0,1,1-5.437-5.437A5.438,5.438,0,0,1,441.8,242.691Z" transform="translate(-430.924 -230.586)" fill="#ffdfdd"/>
        <path id="패스_12157" data-name="패스 12157" d="M439.852,239.9H431.21l7.085,19.131a1.644,1.644,0,0,0,3.112,0l7.085-19.131Z" transform="translate(-430.272 -224.554)" fill="#ffd649"/>
        <path id="패스_12159" data-name="패스 12159" d="M437.2,235.222a5.151,5.151,0,0,0-4.91,4.069.513.513,0,0,0,.144.128.682.682,0,0,0,.8-.177,2.478,2.478,0,0,0,.444-.794,4.791,4.791,0,0,1,.733-1.293,1.776,1.776,0,0,1,1.232-.669,1.147,1.147,0,0,1,1.122.755,1.7,1.7,0,0,1-.107,1.129c-.141.358-.334.689-.447,1.057a1.389,1.389,0,0,0,.074,1.119.63.63,0,0,0,.938.187c.245-.246.206-.66.215-1.017s.187-.8.518-.781c.276.016.438.358.429.65s-.123.574-.138.87a1.246,1.246,0,0,0,1.324,1.306,1.3,1.3,0,0,0,.913-1.661,1.19,1.19,0,0,1-.116-.413.449.449,0,0,1,.527-.417.648.648,0,0,1,.457.568c.037.285-.043.643.174.814a.4.4,0,0,0,.472-.033,1.085,1.085,0,0,0,.267-.338A5.234,5.234,0,0,0,437.2,235.222Z" transform="translate(-427.803 -235.222)" fill="#ff8980"/>
        <path id="패스_12160" data-name="패스 12160" d="M441.392,242.8a2.063,2.063,0,0,0,.18-.883A5.433,5.433,0,0,0,431,241.106a.572.572,0,0,0,.387.3.631.631,0,0,0,.61-.45c.1-.256.115-.538.223-.791a.609.609,0,0,1,.627-.423.539.539,0,0,1,.377.5,1.625,1.625,0,0,1-.138.656,5.461,5.461,0,0,0-.413,1.706,1.876,1.876,0,0,0,.663,1.562,1.153,1.153,0,0,0,1.575-.157,2.185,2.185,0,0,0,.121-1.569,6.994,6.994,0,0,1-.036-1.549,2,2,0,0,1,.43-1.217.848.848,0,0,1,1.172-.108,1.115,1.115,0,0,1,.135,1.07,2.274,2.274,0,0,0-.158,1.106.963.963,0,0,0,.978.709,1.046,1.046,0,0,0,.919-.814,3.446,3.446,0,0,0-.105-1.152,1.019,1.019,0,0,1,.345-1.044.812.812,0,0,1,1.066.414,1.9,1.9,0,0,1,.046,1.26,4.914,4.914,0,0,0-.227,1.263,1.086,1.086,0,0,0,.65,1.017A1.028,1.028,0,0,0,441.392,242.8Z" transform="translate(-430.76 -230.586)" fill="#ff8980"/>
        <path id="패스_12161" data-name="패스 12161" d="M444.139,241.015a1.1,1.1,0,0,0,.23-.279,5.431,5.431,0,0,0-10.432,1.086,1.213,1.213,0,0,1-.006.22,1.408,1.408,0,0,0,.134.935.661.661,0,0,0,.824.285.876.876,0,0,0,.371-.738,2.058,2.058,0,0,1,.158-.84c.141-.249.522-.391.719-.181a.678.678,0,0,1,.115.528,3.015,3.015,0,0,0,.115,1.283.958.958,0,0,0,1.89-.213A2.724,2.724,0,0,0,438,241.71a4.59,4.59,0,0,1-.417-1.365,1.265,1.265,0,0,1,.574-1.224.946.946,0,0,1,1.132.233c.413.505.194,1.247.151,1.9a3.149,3.149,0,0,0,.453,1.824,1.176,1.176,0,0,0,.9.653.9.9,0,0,0,.706-.384,1.8,1.8,0,0,0,.292-.774,3.566,3.566,0,0,0-.158-1.769,2.3,2.3,0,0,1-.2-.715.554.554,0,0,1,.381-.577c.292-.059.548.226.64.512a3.716,3.716,0,0,0,.266.856A.985.985,0,0,0,444.139,241.015Z" transform="translate(-424.82 -230.586)" fill="#ff8980"/>
        <path id="패스_12162" data-name="패스 12162" d="M447.5,239.9h-.6c-.138.18-.333.423-.569.725l-.544-.725h-.626c.283.377.566.758.846,1.132-.368.469-.814,1.03-1.32,1.67-.4-.538-.808-1.086-1.22-1.637.387-.489.682-.863.915-1.165h-.635l-.591.748-.318-.427-.242-.322h-.629c.286.384.572.765.865,1.155l-1.324,1.667c-.409-.551-.817-1.1-1.22-1.634.368-.466.676-.853.94-1.188h-.641l-.61.771c-.2-.266-.39-.515-.582-.771h-.622l.88,1.178c-.39.492-.817,1.03-1.267,1.595-.418-.561-.827-1.109-1.22-1.634l.641-.811.264-.328h-.644l-.572.722-.544-.722h-.629c.274.361.553.735.849,1.129-.4.505-.824,1.037-1.267,1.6-.428-.571-.83-1.112-1.2-1.6l-.082-.108.808-1.014h-.644l-.475.6-.45-.6H432.6c.226.3.478.637.755,1-.412.515-.836,1.05-1.267,1.595-.261-.348-.481-.64-.673-.893l.651,1.729c.387.515.827,1.08,1.292,1.7l-.462.581.2.551.569-.715,1.22,1.634c-.327.41-.657.827-.99,1.244l.2.555.905-1.139.195-.243c.4.528.8,1.076,1.22,1.634l-1.27,1.591-.729-.978.682,1.847.038-.043c.4.535.808,1.08,1.22,1.631l-.459.574.2.555.566-.709q.608.812,1.22,1.631l-.987,1.24.2.551c.343-.427.7-.883,1.094-1.372q.613.822,1.217,1.631-.655.827-1.267,1.595l-.714-.955.409,1.1a1.647,1.647,0,0,0,1.217,1.073l-.6-.8c.365-.456.792-.994,1.27-1.591.383.515.758,1.021,1.129,1.513a1.5,1.5,0,0,0,.088-.19l.132-.358c-.327-.433-.666-.889-1.025-1.372l1.267-1.595.569.765.207-.561-.453-.61,1.267-1.591.56-1.513-.547.686-1.22-1.634.667-.837.6-.758c.324.436.645.863.962,1.29l.207-.564c-.274-.367-.553-.742-.846-1.132.427-.538.852-1.07,1.267-1.591l.393.522.207-.561-.277-.371.77-.968.563-1.523L445,243.117l.182-.23c.459-.578.833-1.05,1.138-1.437l.748,1,.208-.561-.632-.85C447.116,240.436,447.371,240.1,447.5,239.9Zm-4.775,2.1.421-.528,1.22,1.634c-.409.519-.852,1.073-1.32,1.664-.393-.525-.789-1.057-1.188-1.588l-.031-.046Zm0,3.18q-.613.768-1.267,1.595l-.953-1.28-.267-.354q.66-.832,1.267-1.595C441.9,244.085,442.313,244.633,442.721,245.181Zm-2.87,4.42,1.22,1.634c-.421.532-.846,1.063-1.267,1.595-.4-.538-.808-1.083-1.22-1.634C439,250.668,439.427,250.136,439.851,249.6Zm-1.578,1.175-.487-.65-.733-.981.406-.512c.289-.361.575-.722.861-1.083.4.538.811,1.083,1.22,1.634Zm.871-2.966-.5-.666,1.267-1.595,1.22,1.634-1.267,1.595Zm.824-6.317,1.22,1.634c-.4.505-.824,1.04-1.264,1.595-.412-.551-.821-1.1-1.22-1.634C439.15,242.526,439.574,241.992,439.967,241.493Zm-.368,3.639q-.618.773-1.267,1.591l-1.22-1.631c.434-.548.858-1.08,1.267-1.595Zm-2.754-3.685c.446.6.89,1.188,1.22,1.631-.405.512-.83,1.047-1.267,1.595-.418-.561-.827-1.109-1.22-1.631C436.019,242.484,436.443,241.952,436.846,241.447Zm-4.137,1.887-.314-.42,1.267-1.595c.393.522.82,1.1,1.283,1.713-.409.515-.833,1.047-1.267,1.595C433.337,244.17,433.01,243.737,432.708,243.334Zm1.28,1.71,1.267-1.595,1.22,1.634-1.267,1.592Zm1.534,2.051,1.267-1.595c.4.532.8,1.076,1.22,1.634l-1.267,1.591C436.327,248.174,435.921,247.626,435.522,247.094Zm.905,5.345c-.324-.433-.645-.863-.965-1.3l1.267-1.591,1.22,1.634c-.424.532-.849,1.063-1.267,1.592Zm.566.755,1.267-1.591c.406.545.814,1.089,1.22,1.634-.428.535-.852,1.066-1.267,1.592C437.811,254.294,437.4,253.746,436.993,253.194Zm2.748,3.685c-.39-.525-.8-1.073-1.217-1.631.405-.512.83-1.044,1.267-1.595l1.22,1.634Q440.365,256.1,439.741,256.879Zm2.861-3.593c-.424.535-.849,1.067-1.267,1.595l-1.22-1.634c.415-.522.839-1.053,1.267-1.595Zm-1.207-2.458c-.4-.535-.8-1.083-1.22-1.634.425-.535.849-1.07,1.267-1.595l1.22,1.634Q442.034,250.021,441.395,250.829Zm1.591-2c-.4-.532-.8-1.08-1.22-1.634.434-.545.858-1.08,1.267-1.595.409.548.817,1.093,1.22,1.634Q443.635,248.01,442.985,248.827Zm2.914-3.665q-.632.793-1.324,1.664c-.4-.532-.8-1.08-1.22-1.634.465-.587.909-1.145,1.32-1.667Q445.294,244.351,445.9,245.161Z" transform="translate(-429.815 -224.554)" fill="#f89733"/>
        <path id="패스_12163" data-name="패스 12163" d="M431.189,240c.319-.023.537.335.619.656a1.584,1.584,0,0,0,.382.893c.379.3.925.026,1.291-.3s.786-.7,1.253-.594c.445.1.676.627.726,1.1a6.989,6.989,0,0,0,.123,1.411c.142.45.616.85,1.035.66a1.047,1.047,0,0,0,.439-1.05,2.886,2.886,0,0,1,.032-1.211c.148-.377.694-.6.931-.279-.139.384.407.7.767.535s.559-.558.8-.876.653-.6,1.007-.427q-.346,1.762-.685,3.518a4.033,4.033,0,0,0-.1,1.45,1.3,1.3,0,0,0,.846,1.07,1.286,1.286,0,0,0,1.408-.988,4.29,4.29,0,0,0-.019-1.929,3.624,3.624,0,0,1,.054-1.92,1.214,1.214,0,0,1,1.5-.794,1.856,1.856,0,0,0,.874,1.4,1.166,1.166,0,0,0,1.5-.315,4.83,4.83,0,0,0,.363-1.07c.129-.354.464-.7.814-.594a.831.831,0,0,1,.47.709,2.236,2.236,0,0,0,.224.873c.164.253.571.354.735.1.609-.272.543-1.286.032-1.726a2.874,2.874,0,0,0-1.9-.466l-6.664-.049Z" transform="translate(-430.319 -224.789)" fill="#ffbcb6"/>
        <path id="패스_12164" data-name="패스 12164" d="M433.863,235.291a.314.314,0,0,0,0,.627A.314.314,0,0,0,433.863,235.291Z" transform="translate(-425.209 -235.064)" fill="#ffffa2"/>
        <path id="패스_12165" data-name="패스 12165" d="M436.109,237.515a.314.314,0,0,0,0,.627A.314.314,0,0,0,436.109,237.515Z" transform="translate(-420.348 -229.99)" fill="#ffffa2"/>
        <path id="패스_12166" data-name="패스 12166" d="M434.536,238.459a.314.314,0,0,0,0,.627A.314.314,0,0,0,434.536,238.459Z" transform="translate(-423.755 -227.837)" fill="#ffffa2"/>
        <path id="패스_12167" data-name="패스 12167" d="M437.094,238.082a.312.312,0,0,0,0,.623A.312.312,0,0,0,437.094,238.082Z" transform="translate(-418.238 -228.697)" fill="#ffffa2"/>
        <path id="패스_12168" data-name="패스 12168" d="M432.6,237.536a.314.314,0,0,0,0,.627A.314.314,0,0,0,432.6,237.536Z" transform="translate(-427.936 -229.942)" fill="#ffffa2"/>
        <path id="패스_12169" data-name="패스 12169" d="M431.513,238.1a.312.312,0,0,0,0,.623A.312.312,0,0,0,431.513,238.1Z" transform="translate(-430.266 -228.649)" fill="#ffffa2"/>
        <path id="패스_12170" data-name="패스 12170" d="M433.031,238.438h-.069a.314.314,0,0,0,0,.627h.069A.314.314,0,0,0,433.031,238.438Z" transform="translate(-427.165 -227.884)" fill="#ffffa2"/>
        <path id="패스_12171" data-name="패스 12171" d="M432.312,239.215a.312.312,0,0,0,0,.624A.312.312,0,0,0,432.312,239.215Z" transform="translate(-428.572 -226.112)" fill="#ffffa2"/>
        <path id="패스_12172" data-name="패스 12172" d="M433.529,237.536a.314.314,0,0,0,0,.627A.314.314,0,0,0,433.529,237.536Z" transform="translate(-425.936 -229.942)" fill="#ffffa2"/>
        <path id="패스_12173" data-name="패스 12173" d="M432.772,236.13a.314.314,0,0,0,0,.627A.314.314,0,0,0,432.772,236.13Z" transform="translate(-427.572 -233.15)" fill="#ffffa2"/>
        <path id="패스_12174" data-name="패스 12174" d="M434.4,236.352v.069a.314.314,0,0,0,.627,0v-.069A.314.314,0,0,0,434.4,236.352Z" transform="translate(-423.4 -233.333)" fill="#ffffa2"/>
        <path id="패스_12175" data-name="패스 12175" d="M434.849,236.865a.312.312,0,0,0,0,.623A.312.312,0,0,0,434.849,236.865Z" transform="translate(-423.073 -231.473)" fill="#ffffa2"/>
        <path id="패스_12176" data-name="패스 12176" d="M434,235.806v.069a.312.312,0,0,0,.623,0v-.069A.312.312,0,0,0,434,235.806Z" transform="translate(-424.262 -234.579)" fill="#ffbcb6"/>
        <path id="패스_12177" data-name="패스 12177" d="M435.291,235.879a.312.312,0,0,0,0,.623A.312.312,0,0,0,435.291,235.879Z" transform="translate(-422.12 -233.723)" fill="#ffbcb6"/>
        <path id="패스_12178" data-name="패스 12178" d="M434.086,237.83h-.138a.312.312,0,0,0,0,.624h.138A.312.312,0,0,0,434.086,237.83Z" transform="translate(-425.031 -229.272)" fill="#ffbcb6"/>
        <path id="패스_12179" data-name="패스 12179" d="M432.145,237.662a.312.312,0,0,0,0,.623A.312.312,0,0,0,432.145,237.662Z" transform="translate(-428.83 -229.655)" fill="#ffbcb6"/>
        <path id="패스_12180" data-name="패스 12180" d="M432.529,238.539a.317.317,0,0,0-.555.269l.013.056a.3.3,0,0,0,.217.217l.056.013A.317.317,0,0,0,432.529,238.539Z" transform="translate(-428.549 -227.926)" fill="#ffbcb6"/>
        <path id="패스_12181" data-name="패스 12181" d="M436.489,238.222l-.069-.069a.311.311,0,0,0-.44.44l.069.069A.311.311,0,0,0,436.489,238.222Z" transform="translate(-420.175 -228.745)" fill="#ffbcb6"/>
        <path id="패스_12182" data-name="패스 12182" d="M435.082,237.788a.312.312,0,0,0,0,.623A.312.312,0,0,0,435.082,237.788Z" transform="translate(-422.575 -229.368)" fill="#ffbcb6"/>
        <path id="패스_12183" data-name="패스 12183" d="M435.36,238.606h-.069a.314.314,0,0,0,0,.627h.069A.314.314,0,0,0,435.36,238.606Z" transform="translate(-422.122 -227.501)" fill="#ffbcb6"/>
        <path id="패스_12184" data-name="패스 12184" d="M433.821,236.466a.312.312,0,0,0,0,.623A.312.312,0,0,0,433.821,236.466Z" transform="translate(-425.3 -232.384)" fill="#a9ccff"/>
        <path id="패스_12185" data-name="패스 12185" d="M433.362,235.522a.312.312,0,0,0,0,.624A.312.312,0,0,0,433.362,235.522Z" transform="translate(-426.3 -234.537)" fill="#a9ccff"/>
        <path id="패스_12186" data-name="패스 12186" d="M435.154,237.9v.069a.312.312,0,0,0,.623,0V237.9A.312.312,0,0,0,435.154,237.9Z" transform="translate(-421.763 -229.791)" fill="#a9ccff"/>
        <path id="패스_12187" data-name="패스 12187" d="M436.375,238.722l-.056.013a.311.311,0,0,0-.22.217l-.013.056a.326.326,0,1,0,.289-.285Z" transform="translate(-419.872 -227.26)" fill="#a9ccff"/>
        <path id="패스_12188" data-name="패스 12188" d="M434.053,238.669a.312.312,0,0,0,0,.623A.312.312,0,0,0,434.053,238.669Z" transform="translate(-424.802 -227.358)" fill="#a9ccff"/>
        <path id="패스_12189" data-name="패스 12189" d="M433.109,237.725a.312.312,0,0,0,0,.623A.312.312,0,0,0,433.109,237.725Z" transform="translate(-426.846 -229.511)" fill="#a9ccff"/>
        <path id="패스_12190" data-name="패스 12190" d="M431.851,237.452a.314.314,0,0,0,0,.627A.314.314,0,0,0,431.851,237.452Z" transform="translate(-429.501 -230.134)" fill="#a9ccff"/>
        <path id="패스_12191" data-name="패스 12191" d="M435.116,235.466a.5.5,0,0,0-.177.066.314.314,0,0,0-.062.489l.033.039a.278.278,0,0,0,.433-.013C435.651,235.925,435.484,235.4,435.116,235.466Z" transform="translate(-422.557 -234.678)" fill="#a9ccff"/>
        <path id="패스_12192" data-name="패스 12192" d="M432,238.774h-.069a.312.312,0,0,0,0,.623H432A.312.312,0,0,0,432,238.774Z" transform="translate(-429.309 -227.118)" fill="#a9ccff"/>
      </g>
      <g id="그룹_871" data-name="그룹 871" transform="translate(56.989 2.276)">
        <path id="패스_12193" data-name="패스 12193" d="M448.027,239.6H439.8l6.742,19.134a1.543,1.543,0,0,0,2.961,0l6.742-19.134Z" transform="translate(-437.976 -225.44)" fill="#ffd649"/>
        <path id="패스_12195" data-name="패스 12195" d="M447.9,257.412l1.07,1.516a2.061,2.061,0,0,0,.083-.19l.125-.358c-.31-.436-.632-.893-.972-1.375.376-.5.778-1.034,1.2-1.592l.539.765.2-.564-.429-.607,1.2-1.595.531-1.51-.519.686-1.156-1.634.632-.84.569-.755.912,1.286.2-.561-.8-1.132,1.2-1.595.373.525.2-.564-.262-.368c.25-.331.492-.653.73-.968l.533-1.526-1.156-1.634.173-.226c.435-.581.79-1.05,1.079-1.441.241.338.48.656.715.988l.191-.548-.6-.85c.447-.6.689-.938.811-1.142H454.7c-.131.18-.316.427-.539.725l-.515-.725h-.593q.4.571.8,1.135c-.349.466-.772,1.03-1.252,1.667-.379-.538-.766-1.083-1.156-1.634.367-.489.647-.866.867-1.168h-.6l-.56.748-.3-.423-.229-.325h-.6l.82,1.158c-.376.5-.8,1.057-1.255,1.664-.388-.548-.775-1.093-1.157-1.634.349-.463.641-.85.891-1.188h-.608l-.578.771c-.188-.263-.37-.512-.551-.771H447c.274.387.545.774.835,1.178l-1.2,1.6-1.156-1.634.608-.811.25-.331h-.611l-.546.725c-.176-.249-.343-.489-.513-.725h-.6l.8,1.132-1.2,1.595c-.405-.571-.787-1.109-1.139-1.6l-.077-.112.766-1.014h-.611l-.45.6-.426-.6h-.6l.715,1-1.2,1.595c-.247-.345-.471-.637-.653-.889l.632,1.726c.367.515.784,1.08,1.225,1.7l-.438.581.194.555.54-.715,1.156,1.631q-.465.62-.939,1.247l.194.551.858-1.135.185-.246,1.157,1.634c-.4.528-.8,1.063-1.2,1.595l-.691-.978.647,1.848.036-.046,1.156,1.634-.435.574.194.551c.176-.23.352-.466.537-.709.384.541.769,1.089,1.156,1.634l-.936,1.237.194.555,1.037-1.375L447.6,257q-.622.822-1.2,1.592l-.677-.955.387,1.106a1.58,1.58,0,0,0,1.154,1.07l-.569-.8C447.044,258.548,447.45,258.013,447.9,257.412ZM450.624,253c-.4.532-.8,1.066-1.2,1.591l-1.157-1.634c.393-.518.8-1.053,1.2-1.592Zm-2.9-4.105-1.2,1.595-.462-.653-.695-.981.385-.512.817-1.083Zm-.849-2.041,1.2-1.595,1.157,1.634-1.2,1.595-.682-.965Zm1.145,2.461c.385.545.772,1.089,1.156,1.634l-1.2,1.592-1.157-1.634Zm1.463,1.224c-.378-.532-.763-1.08-1.156-1.634l1.2-1.591q.581.817,1.157,1.634Zm1.508-2c-.376-.535-.763-1.083-1.157-1.638.411-.545.814-1.076,1.2-1.591.387.545.775,1.093,1.157,1.634Q451.6,247.719,450.988,248.536Zm2.763-3.669c-.4.528-.817,1.086-1.255,1.667l-1.157-1.638c.441-.584.862-1.142,1.252-1.664Zm-3.01-3.16.4-.528,1.157,1.634c-.388.518-.808,1.076-1.252,1.667l-1.127-1.591-.03-.043Zm0,3.18c-.387.512-.787,1.047-1.2,1.595l-.9-1.276-.253-.358c.417-.551.817-1.086,1.2-1.595C449.962,243.794,450.35,244.339,450.737,244.887Zm-2.611-3.685,1.157,1.634c-.379.5-.781,1.037-1.2,1.595-.39-.551-.778-1.1-1.156-1.634C447.351,242.232,447.754,241.7,448.126,241.2Zm-.349,3.636q-.586.778-1.2,1.595L445.42,244.8c.411-.548.814-1.08,1.2-1.595Zm-2.611-3.685,1.156,1.634c-.384.509-.787,1.043-1.2,1.595l-1.157-1.634C444.383,242.193,444.785,241.658,445.166,241.153Zm-3.923,1.89-.3-.423q.613-.807,1.2-1.591l1.216,1.71c-.388.515-.79,1.05-1.2,1.595C441.84,243.88,441.53,243.443,441.244,243.043Zm1.213,1.706c.408-.541.811-1.073,1.2-1.595l1.156,1.634-1.2,1.595Zm1.455,2.051,1.2-1.595c.376.532.763,1.08,1.156,1.634q-.595.787-1.2,1.595C444.675,247.88,444.287,247.335,443.912,246.8Zm.858,5.349q-.461-.65-.915-1.3l1.2-1.595,1.156,1.634c-.4.535-.8,1.066-1.2,1.595Zm.536.755,1.2-1.595,1.156,1.634-1.2,1.595C446.082,254,445.694,253.455,445.307,252.9Zm1.452,2.051,1.2-1.592,1.156,1.631-1.2,1.595C447.542,256.064,447.155,255.516,446.758,254.955Z" transform="translate(-437.531 -225.44)" fill="#f89733"/>
        <path id="패스_12196" data-name="패스 12196" d="M455.392,250.114a2.248,2.248,0,0,1-1.942,1.779,1.716,1.716,0,0,1-1.656-1.874,1.99,1.99,0,0,1-1.954,1.726,2.023,2.023,0,0,1-1.774-1.939,1.445,1.445,0,1,1-2.719-.043,2.074,2.074,0,0,1-1.628,1.509,1.386,1.386,0,0,1-1.446-1.464,1.578,1.578,0,0,1-.741,1.352.97.97,0,0,1-1.319-.44c-.21-.505.195-1.2.7-1.135a5.38,5.38,0,0,1-1.662-4.1,4.735,4.735,0,0,1,2.133-3.8,3.68,3.68,0,0,1,4.068.18,3.965,3.965,0,0,1-.112-3.977,5.041,5.041,0,0,1,3.084-2.4,5.355,5.355,0,0,1,5.39,1.454,5.128,5.128,0,0,1,.7,5.775,2.223,2.223,0,0,1,2.856.1,3.754,3.754,0,0,1,1.142,2.967A6.667,6.667,0,0,1,457.5,248.9a1.482,1.482,0,0,1-.295,2.143A1.29,1.29,0,0,1,455.392,250.114Z" transform="translate(-439.246 -235.288)" fill="#fff"/>
      </g>
      <g id="그룹_873" data-name="그룹 873" transform="translate(7)">
        <path id="패스_12198" data-name="패스 12198" d="M430.313,240.078H422.27l6.593,19.134a1.5,1.5,0,0,0,2.9,0l6.593-19.134Z" transform="translate(-420.987 -222.082)" fill="#ffd649"/>
        <path id="패스_12199" data-name="패스 12199" d="M430.169,257.886c.358.515.7,1.02,1.047,1.516.029-.062.058-.125.081-.19l.122-.358c-.3-.436-.617-.893-.949-1.375l1.173-1.592.527.765.192-.564-.419-.607,1.173-1.595.515-1.509-.5.686L432,251.429l.617-.84.556-.755.89,1.286.192-.561-.783-1.132,1.173-1.595.364.525.192-.564-.256-.368c.244-.331.48-.653.713-.968l.521-1.526-1.129-1.634.169-.226c.425-.581.771-1.05,1.053-1.441l.693,1,.192-.564-.585-.85c.437-.6.672-.938.792-1.142h-.553c-.128.18-.308.427-.527.725l-.5-.725H435.2l.783,1.135c-.34.466-.754,1.03-1.222,1.667-.37-.538-.748-1.083-1.129-1.634.358-.489.631-.866.847-1.168h-.588c-.166.226-.343.469-.55.748l-.291-.423-.224-.325h-.582c.265.384.53.768.8,1.158-.366.5-.777,1.057-1.225,1.664l-1.129-1.634c.34-.463.626-.85.87-1.188h-.593l-.564.771c-.183-.263-.361-.512-.538-.771h-.576l.815,1.178-1.172,1.6L427.8,241.22c.207-.282.4-.555.594-.81l.241-.331h-.593l-.532.725-.5-.725h-.582l.786,1.132L426.04,242.8c-.4-.571-.768-1.109-1.111-1.6l-.076-.112c.256-.345.5-.682.745-1.014H425l-.439.6-.416-.6h-.582l.7,1-1.173,1.595c-.241-.345-.445-.637-.623-.893l.6,1.729c.358.515.765,1.08,1.2,1.7l-.428.581.189.555.527-.715c.358.519.736,1.063,1.129,1.631q-.454.62-.917,1.247l.189.551q.419-.566.838-1.135l.178-.246,1.132,1.634c-.39.528-.783,1.063-1.176,1.595-.23-.335-.451-.653-.675-.978l.631,1.847.035-.046c.369.538.748,1.083,1.126,1.634l-.422.574.189.551.524-.709c.375.541.751,1.09,1.126,1.634-.308.423-.611.83-.911,1.237l.189.554,1.013-1.375c.378.548.754,1.1,1.126,1.634l-1.173,1.591c-.213-.308-.439-.633-.661-.955l.378,1.106a1.552,1.552,0,0,0,1.126,1.07l-.556-.8C429.334,259.022,429.73,258.487,430.169,257.886Zm2.659-4.417-1.173,1.591-1.129-1.634c.384-.518.777-1.053,1.173-1.592Zm-2.834-4.105c-.387.528-.78,1.06-1.173,1.595l-.451-.653-.678-.981.375-.512.8-1.083Zm-.829-2.041,1.173-1.595c.372.541.751,1.086,1.129,1.634l-1.173,1.595c-.221-.322-.445-.643-.666-.965Zm1.117,2.461c.375.545.754,1.089,1.129,1.634l-1.173,1.591-1.129-1.634Zm1.428,1.224-1.129-1.634,1.173-1.592q.567.817,1.129,1.634Q432.3,250.2,431.711,251.009Zm1.472-2-1.129-1.637c.4-.545.794-1.076,1.173-1.591.378.545.754,1.093,1.129,1.634Zm2.7-3.669c-.39.528-.8,1.086-1.225,1.667l-1.129-1.637c.431-.584.841-1.142,1.222-1.664C435.13,244.255,435.508,244.8,435.881,245.341Zm-2.939-3.16.39-.528c.375.545.754,1.089,1.129,1.634l-1.222,1.667-1.1-1.592-.029-.043Zm0,3.18c-.378.512-.768,1.047-1.172,1.595q-.441-.635-.882-1.276l-.247-.358c.4-.551.8-1.086,1.173-1.595Zm-2.549-3.685,1.129,1.634c-.369.5-.762,1.037-1.169,1.595l-1.132-1.634C429.634,242.706,430.026,242.172,430.39,241.676Zm-.34,3.636q-.572.778-1.173,1.595l-1.129-1.634,1.17-1.595Q429.472,244.48,430.05,245.312Zm-2.549-3.685,1.129,1.634c-.375.509-.768,1.044-1.173,1.595q-.585-.847-1.129-1.634Zm-3.829,1.89-.291-.423q.6-.807,1.173-1.592c.364.522.759,1.1,1.187,1.71l-1.173,1.595C424.254,244.354,423.951,243.917,423.672,243.517Zm1.184,1.706c.4-.541.791-1.073,1.172-1.595l1.129,1.634-1.173,1.595Zm1.42,2.051c.393-.535.786-1.07,1.172-1.595.367.532.745,1.08,1.129,1.634q-.581.787-1.173,1.595C427.021,248.354,426.642,247.809,426.276,247.274Zm.838,5.349-.893-1.3,1.172-1.595c.37.538.748,1.083,1.129,1.634l-1.176,1.595Zm.524.755q.572-.778,1.173-1.595l1.129,1.634c-.4.538-.789,1.07-1.173,1.595C428.394,254.474,428.016,253.929,427.637,253.378Zm1.417,2.051,1.173-1.592,1.129,1.631-1.175,1.595C429.82,256.538,429.441,255.99,429.054,255.429Z" transform="translate(-420.531 -222.082)" fill="#f89733"/>
        <path id="패스_12200" data-name="패스 12200" d="M422.667,251.983c-.916-.771-.946-2.313-.535-3.5a4.394,4.394,0,0,1,2.124-2.589,2.59,2.59,0,0,1,3.016.561,2.974,2.974,0,0,1-1.029-2.7,2.769,2.769,0,0,1,1.734-2.222c1.428-.5,3.254.381,4.343-.758.839-.876.631-2.455-.015-3.511a2.493,2.493,0,0,0-1.368-1.188,1.223,1.223,0,0,0-1.47.761,1.589,1.589,0,0,1,.5-1.733,2.611,2.611,0,0,1,1.687-.509,5.579,5.579,0,0,1,4.882,2.921,5.7,5.7,0,0,1-.408,5.982,2.234,2.234,0,0,1,3.091,1.227,2.643,2.643,0,0,1-1.374,3.291,2.111,2.111,0,0,1,2.3,1.267,2.555,2.555,0,0,1-.538,2.776,3.952,3.952,0,0,1-2.874.709q-5.948-.113-11.9-.23A3.377,3.377,0,0,1,422.667,251.983Z" transform="translate(-421.879 -234.594)" fill="#986539"/>
        <path id="패스_12201" data-name="패스 12201" d="M422.27,240.078l.485,1.406h15.115l.485-1.406H422.27Z" transform="translate(-420.988 -222.082)" fill="#f89733"/>
      </g>
    </g>
    <g id="그룹_875" data-name="그룹 875" transform="translate(415.171 287.563)">
      <rect id="사각형_709" data-name="사각형 709" width="4.336" height="76.589" transform="translate(132.96)" fill="#c6c6c6"/>
      <rect id="사각형_710" data-name="사각형 710" width="4.336" height="76.589" fill="#c6c6c6"/>
      <rect id="사각형_711" data-name="사각형 711" width="1.045" height="76.589" transform="translate(1.046)" fill="#ededed"/>
      <rect id="사각형_712" data-name="사각형 712" width="1.045" height="76.589" transform="translate(134.082)" fill="#ededed"/>
    </g>
    <g id="그룹_876" data-name="그룹 876" transform="translate(410.751 371.378)">
      <rect id="사각형_713" data-name="사각형 713" width="10.122" height="104.058" transform="translate(136.013)" fill="#ef4c4e"/>
      <rect id="사각형_714" data-name="사각형 714" width="10.122" height="104.058" transform="translate(116.582)" fill="#ef4c4e"/>
      <rect id="사각형_715" data-name="사각형 715" width="10.122" height="104.058" transform="translate(97.152)" fill="#ef4c4e"/>
      <rect id="사각형_716" data-name="사각형 716" width="10.122" height="104.058" transform="translate(77.722)" fill="#ef4c4e"/>
      <rect id="사각형_717" data-name="사각형 717" width="10.122" height="104.058" transform="translate(58.291)" fill="#ef4c4e"/>
      <rect id="사각형_718" data-name="사각형 718" width="10.122" height="104.058" transform="translate(38.861)" fill="#ef4c4e"/>
      <rect id="사각형_719" data-name="사각형 719" width="10.122" height="104.058" transform="translate(19.43)" fill="#ef4c4e"/>
      <rect id="사각형_720" data-name="사각형 720" width="10.122" height="104.058" fill="#ef4c4e"/>
    </g>
    <path id="패스_12206" data-name="패스 12206" d="M425.491,210.506H542.074l22.289,27.911H403.2Z" transform="translate(0.036 43.536)" fill="#fff"/>
    <path id="패스_12207" data-name="패스 12207" d="M442.31,238.439,441.126,210.5H426.092l-1.131,27.974Z" transform="translate(49.682 43.514)" fill="#ff5d70"/>
    <path id="패스_12208" data-name="패스 12208" d="M431.5,238.536l5.95-27.911H425.416l-11.357,27.911Z" transform="translate(24.812 43.806)" fill="#ff5d70"/>
    <path id="패스_12209" data-name="패스 12209" d="M421.531,238.417l16.739-27.911H425.491L403.2,238.417Z" transform="translate(0.036 43.536)" fill="#ff5d70"/>
    <path id="패스_12210" data-name="패스 12210" d="M440.182,238.536l-5.95-27.911h12.033l11.357,27.911Z" transform="translate(70.834 43.806)" fill="#ff5d70"/>
    <path id="패스_12211" data-name="패스 12211" d="M458.271,238.417l-16.739-27.911h12.779L476.6,238.417Z" transform="translate(87.488 43.536)" fill="#ff5d70"/>
    <rect id="사각형_721" data-name="사각형 721" width="21.875" height="2.71" transform="translate(556.886 371.378)" fill="#97a4ca"/>
    <path id="패스_12212" data-name="패스 12212" d="M454.543,248.228a2.917,2.917,0,0,0,2.917,2.917h19.908a2.917,2.917,0,1,0,0-5.834H457.46A2.917,2.917,0,0,0,454.543,248.228Z" transform="translate(117.173 122.942)" fill="#97a4ca"/>
    <path id="패스_12272" data-name="패스 12272" d="M0,6.8Z" transform="translate(424.582 248.457)" fill="#97a4ca"/>
    <path id="패스_12256" data-name="패스 12256" d="M478.751,282.806c-28.053,0-53.638-5.329-73.068-14.087v30.37H551.819v-30.37C532.389,277.477,506.8,282.806,478.751,282.806Z" transform="translate(5.701 176.346)" fill="#dadada"/>
    <g id="그룹_878" data-name="그룹 878" transform="translate(411.384 445.065)">
      <path id="패스_12257" data-name="패스 12257" d="M411.411,270.783v23.6h10.123V273.359Q416.327,272.2,411.411,270.783Z" transform="translate(-392.615 -264.01)" fill="#d43136"/>
      <path id="패스_12258" data-name="패스 12258" d="M405.683,268.719v30.37h9.49V272.5C411.885,271.315,408.689,270.074,405.683,268.719Z" transform="translate(-405.683 -268.719)" fill="#d43136"/>
      <path id="패스_12259" data-name="패스 12259" d="M423.254,272.828v16.886h10.12V273.307Q428.25,273.179,423.254,272.828Z" transform="translate(-365.596 -259.344)" fill="#d43136"/>
      <path id="패스_12260" data-name="패스 12260" d="M417.333,272.122v19.2h10.12V273.569Q422.294,272.964,417.333,272.122Z" transform="translate(-379.104 -260.955)" fill="#d43136"/>
      <path id="패스_12261" data-name="패스 12261" d="M429.175,273.275v16.378H439.3v-16.8Q434.3,273.18,429.175,273.275Z" transform="translate(-352.087 -259.283)" fill="#d43136"/>
      <path id="패스_12262" data-name="패스 12262" d="M446.939,272.75v26.156h10.123V268.8C453.86,270.22,450.453,271.523,446.939,272.75Z" transform="translate(-311.56 -268.536)" fill="#d43136"/>
      <path id="패스_12263" data-name="패스 12263" d="M441.018,273.392v20.739h10.12V270.892Q446.221,272.265,441.018,273.392Z" transform="translate(-325.068 -263.761)" fill="#d43136"/>
      <path id="패스_12264" data-name="패스 12264" d="M435.1,273.569v17.605h10.123V272.188Q440.253,273,435.1,273.569Z" transform="translate(-338.579 -260.805)" fill="#d43136"/>
    </g>
    <rect id="사각형_735" data-name="사각형 735" width="156.086" height="8.201" transform="translate(405.775 364.152)" fill="#97a4ca"/>
    <g id="그룹_881" data-name="그룹 881" transform="translate(403.184 281.954)">
      <path id="패스_12269" data-name="패스 12269" d="M403.237,219.012h17.654v0h17.887v0h17.89v0h17.887v0h17.887v0h17.89v0H528.22v.062c-.006.171-.046.331-.046.505s.04.331.046.505c-.236,5.359-4.131,9.631-8.942,9.631s-8.709-4.272-8.945-9.631c-.24,5.359-4.135,9.631-8.945,9.631s-8.706-4.272-8.945-9.631c-.236,5.359-4.131,9.631-8.942,9.631s-8.706-4.272-8.945-9.631c-.236,5.359-4.131,9.631-8.945,9.631s-8.706-4.272-8.942-9.631c-.24,5.359-4.135,9.631-8.945,9.631s-8.706-4.272-8.945-9.631c-.236,5.359-4.131,9.631-8.942,9.631s-8.706-4.272-8.945-9.631c-.236,5.359-4.131,9.631-8.945,9.631C401.964,229.716,403.237,219.012,403.237,219.012Z" transform="translate(-403.184 -219.012)" fill="#ef4c4e"/>
      <path id="패스_12270" data-name="패스 12270" d="M441.288,219.074v-.062h17.884c.01.19.049.371.049.568,0,5.6-4.023,10.136-8.988,10.136-4.811,0-8.706-4.272-8.945-9.631.007-.174.046-.335.046-.505S441.295,219.245,441.288,219.074Z" transform="translate(-316.252 -219.012)" fill="#ef4c4e"/>
      <path id="패스_12271" data-name="패스 12271" d="M446.753,219.074l.007-.062h17.877c.01.19.049.371.049.568,0,5.6-4.023,10.136-8.988,10.136-4.811,0-8.706-4.272-8.945-9.631.01-.174.046-.335.046-.505S446.763,219.245,446.753,219.074Z" transform="translate(-303.784 -219.012)" fill="#ef4c4e"/>
    </g>
  </g>
  <g id="그룹_894" data-name="그룹 894" transform="translate(-295.295 -471.332) rotate(13)">
    <g id="그룹_885" data-name="그룹 885" transform="translate(589.493 399.992)">
      <g id="그룹_884" data-name="그룹 884">
        <g id="그룹_883" data-name="그룹 883" transform="translate(11.219 31.618)">
          <path id="패스_12273" data-name="패스 12273" d="M646.7,516.734a.647.647,0,0,1-.563-.687c-.013-.4-.115-.521.2-.537,0,0,.33-.078.7-.707.526-.9,1.271-3.361.354-9.766-1.6-11.162,1.247-24.075,1.368-24.619.085-.382.4-.6.7-.494a.759.759,0,0,1,.388.886c-.029.13-2.9,13.143-1.344,23.971.774,5.4.935,8.911-.255,10.8a2.1,2.1,0,0,1-1.516,1.151Z" transform="translate(-645.76 -479.897)" fill="#ed943b"/>
        </g>
        <path id="패스_12274" data-name="패스 12274" d="M626.418,407.8c-6.325,3.662-8.894,12.58-5.738,19.918a13.187,13.187,0,0,0,8.934,7.916l-1.581,3.554,4.474-.269,4.474-.269-1.78-3.154a11.731,11.731,0,0,0,2.647-1.121c6.325-3.662,8.894-12.58,5.738-19.918S632.743,404.135,626.418,407.8Z" transform="translate(-617.696 -406.231)" fill="#ffb845"/>
      </g>
      <path id="패스_12275" data-name="패스 12275" d="M652.991,406.542a14.785,14.785,0,0,0-5.587-.085c-1.609,6.8-3.8,23.609,13.322,24.823a14.83,14.83,0,0,0-7.735-24.737Z" transform="translate(-635.1 -406.231)" fill="#fff" opacity="0.2" style="mix-blend-mode: screen;isolation: isolate"/>
    </g>
    <g id="그룹_890" data-name="그룹 890" transform="translate(601.015 405.872)">
      <g id="그룹_889" data-name="그룹 889">
        <g id="그룹_886" data-name="그룹 886" transform="translate(1.949 26.691)">
          <path id="패스_12276" data-name="패스 12276" d="M647.674,521.224a.9.9,0,0,1-.171-.014.714.714,0,0,1-.469-.819c.048-.39.333-.652.643-.6h.008a1.155,1.155,0,0,0,.807-.494c.651-.75,1.757-2.98,1.841-9.49.147-11.345,4.905-23.3,5.108-23.806a.511.511,0,0,1,.757-.311.82.82,0,0,1,.244.965c-.048.121-4.841,12.171-4.983,23.176-.071,5.491-.844,9.065-2.3,10.624A2.061,2.061,0,0,1,647.674,521.224Z" transform="translate(-647.027 -485.612)" fill="#aa2b5f"/>
        </g>
        <g id="그룹_888" data-name="그룹 888" transform="translate(1.338)">
          <g id="그룹_887" data-name="그룹 887" transform="translate(1.335 1.659)">
            <path id="패스_12277" data-name="패스 12277" d="M674.421,439.917c2.77-7.086-.164-15.32-6.553-18.392s-13.814.181-16.584,7.267c-2.472,6.323-.393,13.55,4.621,17.218l-2.542,2.071,4.049,1.947,4.049,1.947-.409-3.793C666.545,449.064,672.107,445.835,674.421,439.917Z" transform="translate(-650.243 -420.367)" fill="#ff5d70"/>
          </g>
        </g>
      </g>
      <path id="패스_12278" data-name="패스 12278" d="M687.84,421.608a14.786,14.786,0,0,0-5.455-1.211c-2.948,6.337-8.484,22.357,8.041,27a14.83,14.83,0,0,0-2.586-25.789Z" transform="translate(-667.466 -418.96)" fill="#fff" opacity="0.2" style="mix-blend-mode: screen;isolation: isolate"/>
    </g>
    <g id="그룹_893" data-name="그룹 893" transform="translate(568.241 411.146)">
      <g id="그룹_892" data-name="그룹 892" transform="translate(0 0.003)">
        <g id="그룹_891" data-name="그룹 891" transform="translate(23.191 27.642)">
          <path id="패스_12279" data-name="패스 12279" d="M631.067,527.625a.442.442,0,0,1-.311-.138.9.9,0,0,1-.114-1A14.676,14.676,0,0,0,628.5,511.67c-6.064-7.932-6.49-12.8-6.506-13a.694.694,0,0,1,.471-.786c.3-.033.547.246.578.636.007.074.475,4.644,6.188,12.118a16.782,16.782,0,0,1,2.262,16.7A.5.5,0,0,1,631.067,527.625Z" transform="translate(-621.99 -497.88)" fill="#0442bf"/>
        </g>
        <path id="패스_12280" data-name="패스 12280" d="M591.443,440.121c-3.475-6.807-11.1-9.094-17.039-5.109s-7.93,12.733-4.455,19.539c3.1,6.074,9.507,8.534,15.068,6.165l0,3.573,3.762-2.525,3.761-2.525-2.964-1.915A15.885,15.885,0,0,0,591.443,440.121Z" transform="translate(-564.279 -432.94)" fill="#5badf2"/>
      </g>
      <path id="패스_12281" data-name="패스 12281" d="M585.632,433.81a14.385,14.385,0,0,0-4.745,2.716c2,6.6,8.437,22.022,23.45,14.511a14.722,14.722,0,0,0-.363-7.985A14.446,14.446,0,0,0,585.632,433.81Z" transform="translate(-575.746 -433.314)" fill="#fff" opacity="0.2" style="mix-blend-mode: screen;isolation: isolate"/>
    </g>
  </g>
</svg>
