<svg id="구성_요소_58_1" data-name="구성 요소 58 – 1" xmlns="http://www.w3.org/2000/svg" width="13.149" height="13.149" viewBox="0 0 13.149 13.149">
  <g id="그룹_60" data-name="그룹 60" transform="translate(6.152 2.009)">
    <path id="패스_177" data-name="패스 177" d="M217.639,314.975a.545.545,0,0,1-.325-.107l-2.717-2.009a.548.548,0,0,1-.222-.44V308.4a.548.548,0,0,1,1.1,0v3.742l2.495,1.845a.548.548,0,0,1-.326.988Z" transform="translate(-214.375 -307.852)" fill="#fff"/>
  </g>
  <g id="그룹_61" data-name="그룹 61">
    <path id="패스_178" data-name="패스 178" d="M187.263,310a6.575,6.575,0,1,1,6.575-6.575A6.582,6.582,0,0,1,187.263,310Zm0-12.054a5.479,5.479,0,1,0,5.479,5.479A5.485,5.485,0,0,0,187.263,297.948Z" transform="translate(-180.688 -296.852)" fill="#fff"/>
  </g>
</svg>
