<svg id="구성_요소_109_1" data-name="구성 요소 109 – 1" xmlns="http://www.w3.org/2000/svg" xmlns:xlink="http://www.w3.org/1999/xlink" width="617.733" height="659" viewBox="0 0 617.733 659">
  <defs>
    <linearGradient id="linear-gradient" x1="0.5" x2="0.5" y2="1" gradientUnits="objectBoundingBox">
      <stop offset="0" stop-color="#fff"/>
      <stop offset="0.158" stop-color="#efccff"/>
      <stop offset="1" stop-color="#4f38cc"/>
    </linearGradient>
  </defs>
  <rect id="사각형_833" data-name="사각형 833" width="466" height="659" transform="translate(75.867)" opacity="0.689" fill="url(#linear-gradient)"/>
  <path id="패스_12450" data-name="패스 12450" d="M1564.558,577.805a6.885,6.885,0,1,0-5.272-11.313,8.466,8.466,0,0,0-13.613-3.464,11.431,11.431,0,0,0-22.337,2.624,6.635,6.635,0,1,0-3.683,12.154Z" transform="translate(-1375.153 -486.392)" fill="#fff" opacity="0.873"/>
  <path id="패스_12451" data-name="패스 12451" d="M1552.832,572.6a5.319,5.319,0,1,0-4.072-8.739,6.539,6.539,0,0,0-10.515-2.676,8.83,8.83,0,0,0-17.255,2.027,5.125,5.125,0,1,0-2.845,9.389Z" transform="translate(-1322.699 -455.28)" fill="#fff" opacity="0.873"/>
  <circle id="타원_386" data-name="타원 386" cx="3.687" cy="3.687" r="3.687" transform="translate(455.787 82.528) rotate(-76.718)" fill="#fffef3"/>
  <circle id="타원_387" data-name="타원 387" cx="2.187" cy="2.187" r="2.187" transform="translate(440.897 137.197) rotate(-76.718)" fill="#fffef3"/>
  <circle id="타원_388" data-name="타원 388" cx="3.187" cy="3.187" r="3.187" transform="translate(235.453 55.688) rotate(-76.718)" fill="#fffef3"/>
  <path id="패스_12452" data-name="패스 12452" d="M2027.378,1658.9H2300.9L2184.8,1509.98a27.476,27.476,0,0,0-43.336,0l-9.828,12.606-35.015-44.911a33.434,33.434,0,0,0-52.736,0L1891.1,1658.9Z" transform="translate(-1683.17 -1339.488)" fill="#dec0eb" opacity="0.702"/>
  <path id="패스_12453" data-name="패스 12453" d="M821.477,1863.728l-113.907-146.1a26.954,26.954,0,0,0-42.514,0l-113.907,146.1Z" transform="translate(-551.149 -1544.313)" fill="#dec0eb" opacity="0.702"/>
  <g id="그룹_920" data-name="그룹 920" transform="translate(155.367 129.628)" opacity="0.491">
    <g id="그룹_245" data-name="그룹 245" transform="translate(9.434 25.073)">
      <path id="패스_710" data-name="패스 710" d="M-312.315-70.742a.274.274,0,0,1-.273.273h0a.274.274,0,0,1-.273-.273V-80.7a.274.274,0,0,1,.273-.273h0a.274.274,0,0,1,.273.273Z" transform="translate(312.862 80.969)" fill="#00537f"/>
      <path id="패스_711" data-name="패스 711" d="M-304.8-70.742a.274.274,0,0,1-.273.273h0a.273.273,0,0,1-.273-.273V-80.7a.273.273,0,0,1,.273-.273h0a.274.274,0,0,1,.273.273Z" transform="translate(310.382 80.969)" fill="#00537f"/>
    </g>
    <g id="그룹_246" data-name="그룹 246" transform="translate(0 0)">
      <path id="패스_712" data-name="패스 712" d="M-311.387-88.95s.109-1.64,4.593-7.218,4.293-10.145,4.293-10.145A12.084,12.084,0,0,0-314.585-118.4h-.273a12.085,12.085,0,0,0-12.085,12.084s-.192,4.567,4.293,10.145,4.593,7.218,4.593,7.218Z" transform="translate(326.945 118.397)" fill="#f49f9f"/>
      <path id="패스_713" data-name="패스 713" d="M-309.944-88.95s.05-1.64,2.127-7.218a30.461,30.461,0,0,0,1.989-10.145c0-6.673-2.506-12.084-5.6-12.084h-.127c-3.091,0-5.6,5.411-5.6,12.084a30.469,30.469,0,0,0,1.988,10.145c2.077,5.578,2.128,7.218,2.128,7.218Z" transform="translate(323.711 118.397)" fill="#fff2cb"/>
    </g>
    <g id="그룹_247" data-name="그룹 247" transform="translate(8.014 32.401)">
      <path id="패스_714" data-name="패스 714" d="M-306.794-69.044v3.329a1.544,1.544,0,0,1-1.545,1.545h-4.419a1.545,1.545,0,0,1-1.545-1.545v-3.329Z" transform="translate(314.757 69.704)" fill="#ffb97c"/>
      <path id="패스_715" data-name="패스 715" d="M-306.564-69.613a.418.418,0,0,1-.418.418h-7.582a.418.418,0,0,1-.417-.418h0a.418.418,0,0,1,.417-.417h7.582a.418.418,0,0,1,.418.417Z" transform="translate(314.981 70.03)" fill="#d35c38"/>
    </g>
  </g>
  <circle id="타원_390" data-name="타원 390" cx="1.249" cy="1.249" r="1.249" transform="translate(286.635 144.245) rotate(-76.718)" fill="#fffef3"/>
  <circle id="타원_391" data-name="타원 391" cx="1.249" cy="1.249" r="1.249" transform="translate(423.763 99.245) rotate(-76.718)" fill="#fffef3"/>
  <circle id="타원_392" data-name="타원 392" cx="1.249" cy="1.249" r="1.249" transform="translate(362.078 112.829) rotate(-76.718)" fill="#fffef3"/>
  <path id="패스_12454" data-name="패스 12454" d="M1552.832,572.6a5.319,5.319,0,1,0-4.072-8.739,6.539,6.539,0,0,0-10.515-2.676,8.83,8.83,0,0,0-17.255,2.027,5.125,5.125,0,1,0-2.845,9.389Z" transform="translate(-1005.718 -442.977)" fill="#fff" opacity="0.873"/>
  <g id="그룹_921" data-name="그룹 921" transform="translate(455.021 48.269)" opacity="0.491">
    <g id="그룹_245-2" data-name="그룹 245" transform="translate(7.439 19.77)">
      <path id="패스_710-2" data-name="패스 710" d="M-312.431-72.905a.216.216,0,0,1-.216.216h0a.216.216,0,0,1-.216-.216v-7.848a.216.216,0,0,1,.216-.216h0a.216.216,0,0,1,.216.216Z" transform="translate(312.862 80.969)" fill="#00537f"/>
      <path id="패스_711-2" data-name="패스 711" d="M-304.92-72.905a.216.216,0,0,1-.215.216h0a.215.215,0,0,1-.216-.216v-7.848a.215.215,0,0,1,.216-.216h0a.216.216,0,0,1,.215.216Z" transform="translate(309.318 80.969)" fill="#00537f"/>
    </g>
    <g id="그룹_246-2" data-name="그룹 246" transform="translate(0 0)">
      <path id="패스_712-2" data-name="패스 712" d="M-314.677-95.177s.086-1.293,3.622-5.692,3.385-8,3.385-8A9.529,9.529,0,0,0-317.2-118.4h-.216a9.529,9.529,0,0,0-9.529,9.529s-.151,3.6,3.385,8,3.622,5.692,3.622,5.692Z" transform="translate(326.945 118.397)" fill="#f49f9f"/>
      <path id="패스_713-2" data-name="패스 713" d="M-311.467-95.177s.04-1.293,1.677-5.692a24.02,24.02,0,0,0,1.568-8c0-5.262-1.976-9.529-4.413-9.529h-.1c-2.437,0-4.413,4.266-4.413,9.529a24.025,24.025,0,0,0,1.568,8c1.637,4.4,1.678,5.692,1.678,5.692Z" transform="translate(322.323 118.397)" fill="#fff2cb"/>
    </g>
    <g id="그룹_247-2" data-name="그룹 247" transform="translate(6.32 25.549)">
      <path id="패스_714-2" data-name="패스 714" d="M-308.382-69.044v2.625A1.218,1.218,0,0,1-309.6-65.2h-3.485a1.218,1.218,0,0,1-1.218-1.218v-2.625Z" transform="translate(314.661 69.565)" fill="#ffb97c"/>
      <path id="패스_715-2" data-name="패스 715" d="M-308.344-69.7a.33.33,0,0,1-.33.33h-5.978a.33.33,0,0,1-.329-.33h0a.329.329,0,0,1,.329-.329h5.978a.33.33,0,0,1,.33.329Z" transform="translate(314.981 70.03)" fill="#d35c38"/>
    </g>
  </g>
  <circle id="타원_393" data-name="타원 393" cx="1.672" cy="1.672" r="1.672" transform="translate(132.004 137.326) rotate(-76.718)" fill="#fffef3"/>
  <circle id="타원_394" data-name="타원 394" cx="1.672" cy="1.672" r="1.672" transform="translate(117.713 51.524) rotate(-76.718)" fill="#fffef3"/>
  <circle id="타원_395" data-name="타원 395" cx="1.672" cy="1.672" r="1.672" transform="translate(219.33 87.496) rotate(-76.718)" fill="#fffef3"/>
  <path id="패스_12455" data-name="패스 12455" d="M1565.547,578.244a7.017,7.017,0,1,0-5.373-11.53,8.628,8.628,0,0,0-13.873-3.531,11.65,11.65,0,0,0-22.766,2.674,6.762,6.762,0,1,0-3.753,12.387Z" transform="translate(-1022.878 -508.5)" fill="#fff" opacity="0.873"/>
</svg>
