<svg xmlns="http://www.w3.org/2000/svg" xmlns:xlink="http://www.w3.org/1999/xlink" width="265.961" height="131.926" viewBox="0 0 265.961 131.926">
  <defs>
    <linearGradient id="linear-gradient" x1="0.5" y1="0.457" x2="0.545" y2="1" gradientUnits="objectBoundingBox">
      <stop offset="0" stop-color="#ff4a5e"/>
      <stop offset="1" stop-color="#ffa2a5"/>
    </linearGradient>
    <linearGradient id="linear-gradient-2" x1="0.5" x2="0.584" y2="1" gradientUnits="objectBoundingBox">
      <stop offset="0" stop-color="#8748ff"/>
      <stop offset="1" stop-color="#bfa7ed"/>
    </linearGradient>
    <linearGradient id="linear-gradient-3" x1="0.473" y1="0.242" x2="0.602" y2="1" gradientUnits="objectBoundingBox">
      <stop offset="0" stop-color="#fc8d0d"/>
      <stop offset="1" stop-color="#ffd8ac"/>
    </linearGradient>
    <linearGradient id="linear-gradient-4" x1="0.5" x2="0.633" y2="0.841" gradientUnits="objectBoundingBox">
      <stop offset="0" stop-color="#3cbe73"/>
      <stop offset="1" stop-color="#9df0c1"/>
    </linearGradient>
    <linearGradient id="linear-gradient-5" x1="0.5" y1="0.155" x2="0.5" y2="0.842" gradientUnits="objectBoundingBox">
      <stop offset="0" stop-color="#ad7740"/>
      <stop offset="1" stop-color="#d0a56c"/>
    </linearGradient>
  </defs>
  <g id="구성_요소_69_1" data-name="구성 요소 69 – 1" transform="translate(0.504)">
    <g id="그룹_7168" data-name="그룹 7168" transform="translate(53.859)">
      <g id="그룹_7159" data-name="그룹 7159" transform="translate(32.736 18.052)">
        <path id="패스_19665" data-name="패스 19665" d="M106.34,3.245C71.69,9.529,36.555,15.3,1.253,20.514.752,19.318.5,18.707,0,17.49,35.475,12.625,70.34,6.3,104.951,0,105.512,1.311,105.793,1.973,106.34,3.245Z" transform="translate(0 14.8) rotate(-8)" fill="#9f6225"/>
      </g>
      <g id="그룹_7160" data-name="그룹 7160" transform="translate(29.173 36.122)">
        <path id="패스_19666" data-name="패스 19666" d="M391.561,104.433c1.856-.415,2.783-.635,4.628-1.093.912,3.9,1.368,5.956,2.28,10.059-1.845.5-2.772.75-4.626,1.216C392.929,110.442,392.473,108.346,391.561,104.433Z" transform="translate(-391.561 -103.34)" fill="#ffc512"/>
      </g>
      <g id="그룹_7161" data-name="그룹 7161" transform="translate(68.744 23.279)">
        <path id="패스_19667" data-name="패스 19667" d="M413.134,97.991c1.8-.659,2.7-.989,4.5-1.653.91,3.925,1.39,6.042,2.346,10.255-1.809.609-2.711.915-4.521,1.522C414.513,103.976,414.04,101.9,413.134,97.991Z" transform="translate(-413.134 -96.338)" fill="#ffc512"/>
      </g>
      <g id="그룹_7162" data-name="그룹 7162" transform="translate(107.61 9.542)">
        <path id="패스_19668" data-name="패스 19668" d="M434.323,90.483c1.812-.64,2.718-.972,4.532-1.634.912,3.935,1.422,6.249,2.438,10.828-1.812.662-2.72.991-4.532,1.632C435.746,96.731,435.234,94.418,434.323,90.483Z" transform="translate(-434.323 -88.849)" fill="#ffc512"/>
      </g>
      <g id="그룹_7163" data-name="그룹 7163" transform="translate(139.37)">
        <path id="패스_19669" data-name="패스 19669" d="M451.638,84.5c1.876-.4,2.823-.572,4.723-.857.912,3.938,1.425,6.271,2.443,10.883-1.9.284-2.845.457-4.725.851C453.061,90.773,452.549,88.442,451.638,84.5Z" transform="translate(-451.638 -83.647)" fill="#ffc512"/>
      </g>
      <g id="그룹_7164" data-name="그룹 7164" transform="translate(0 44.769)">
        <path id="패스_19670" data-name="패스 19670" d="M385.045,112.99c-.227.017-.341.028-.57.048-2.276.253-10.615,1.73-8.469,12.093.5,2.432.758,3.613,1.258,5.783a170.6,170.6,0,0,0,37.767-6.823c-1.442-6.172-2.166-9.562-3.608-16.037C401.066,110.842,395.822,112.06,385.045,112.99Z" transform="translate(-375.656 -108.054)" fill="url(#linear-gradient)"/>
      </g>
      <g id="그룹_7165" data-name="그룹 7165" transform="translate(119.867 9.234)">
        <path id="패스_19671" data-name="패스 19671" d="M466.971,88.8c.227-.037.341-.053.569-.086,2.278-.262,11.057.721,13.383,11.125.543,2.441.811,3.628,1.311,5.8-13.6,1.128-24.383,3.751-37.309,8.082-1.444-6.229-2.322-10.331-3.92-17.532C451.209,92.48,456.314,90.442,466.971,88.8Z" transform="translate(-441.005 -88.681)" fill="url(#linear-gradient-2)"/>
      </g>
      <g id="그룹_7166" data-name="그룹 7166" transform="translate(41.127 32.083)">
        <path id="패스_19672" data-name="패스 19672" d="M435.946,117.536c-11.5,3.258-22.937,6.756-34.259,10.595-1.442-6.163-2.164-9.448-3.61-15.811,11.482-3.4,22.816-7.269,34.13-11.182C433.716,107.782,434.506,111.324,435.946,117.536Z" transform="translate(-398.078 -101.138)" fill="url(#linear-gradient-3)"/>
      </g>
      <g id="그룹_7167" data-name="그룹 7167" transform="translate(80.17 18.798)">
        <path id="패스_19673" data-name="패스 19673" d="M457.343,111.41c-11.237,4.081-22.7,7.491-34.2,10.743-1.445-6.244-2.252-9.894-3.784-16.661,11.338-3.918,22.749-7.614,34.062-11.6C455.023,101.089,455.9,105.183,457.343,111.41Z" transform="translate(-419.363 -93.895)" fill="url(#linear-gradient-4)"/>
      </g>
    </g>
    <g id="그룹_7243" data-name="그룹 7243" transform="translate(0 25.53)">
      <g id="그룹_7169" data-name="그룹 7169" transform="translate(0.001 0.346)">
        <path id="패스_19674" data-name="패스 19674" d="M464.246,169.957c-11.6,0-23.714-2.382-37.238-6.931-38.528-12.958-80.725-20.264-81.147-20.336a3.9,3.9,0,0,1,1.317-7.681c.427.073,43.219,7.482,82.313,20.631,39.664,13.343,65.283,7.014,105.424-26.028,43.62-35.908,68-34.749,69.023-34.688a3.9,3.9,0,0,1-.509,7.775c-.181,0-22.759-.659-63.563,32.928C511.218,159.211,488.881,169.957,464.246,169.957Z" transform="translate(-342.623 -94.908)" fill="#d0a56c"/>
      </g>
      <path id="합치기_2" data-name="합치기 2" d="M223.025,105.9V99.718H211.9V105.9h-2.29V8.77c-8.435.533-17.024,1.343-25,2.551V105.9h-2.353V99.719H171.131V105.9h-2.29V14.535c-1.784.487-3.487,1.008-5.094,1.565-4.705,1.631-9.748,3.438-15.047,5.337l-3.946,1.414V105.9H142.4V99.719H131.275V105.9h-2.29V28.416c-7.728,2.67-15.712,5.319-23.782,7.758v69.721H102.85V99.718H91.723v6.176h-2.29V40.6c-8.313,2.139-16.6,3.929-24.695,5.169v60.122H62.385V99.718H51.259v6.176h-2.29V47.455q-1.546.084-3.074.132c-8.307.258-15.006.432-20.4.545v57.762H23.138V99.718H12.011v6.176H9.721V48.321c-4.906-.015-6.127-.143-6.344-.172a3.9,3.9,0,1,1,1.042-7.722c.122.01,5.5.483,41.235-.629,31.44-.972,69.687-14.681,100.418-25.7,5.325-1.909,10.393-3.724,15.121-5.366C193.356-2.416,258.47.24,261.229.359a3.893,3.893,0,0,1,3.678,4.508h.049V105.894H262.6V99.718H251.477v6.176h-2.29V7.866c-6.281-.077-14.614-.077-23.809.189V105.9Zm-51.895-8.346h11.126V91.312H171.131Zm-39.856,0H142.4V91.312H131.275Zm120.2,0H262.6V91.311H251.477Zm-39.577,0h11.126V91.311H211.9Zm-120.177,0H102.85V91.311H91.723Zm-40.465,0H62.385V91.311H51.259Zm-39.247,0H23.138V91.311H12.011ZM251.477,89.19H262.6V81.548H251.477Zm-39.577,0h11.126V81.928H211.9Zm-40.769,0h11.126V82.951H171.131Zm-39.856,0H142.4V82.951H131.275Zm-39.552,0H102.85V82.951H91.723Zm-40.465,0H62.385V82.951H51.259Zm-39.247,0H23.138V82.951H12.011Zm159.12-8.36h11.126V74.593H171.131Zm-39.856,0H142.4V74.593H131.275Zm-39.552,0H102.85V74.592H91.723Zm-40.465,0H62.385V74.592H51.259Zm-39.247,0H23.138V74.592H12.011ZM211.9,79.807h11.126V73.2H211.9Zm39.577-.38H262.6V72.679H251.477Zm-80.346-6.959h11.126V66.328H171.131Zm-39.856,0H142.4V66.328H131.275Zm-39.552,0H102.85V66.328H91.723Zm-40.465,0H62.385V66.328H51.259Zm-39.247,0H23.138V66.328H12.011Zm199.889-1.4h11.126v-6.51H211.9Zm39.577-.517H262.6V63.907H251.477Zm-80.346-6.447h11.126V57.871H171.131Zm-39.856,0H142.4V57.871H131.275Zm-39.552,0H102.85V57.87H91.723Zm-40.465,0H62.385V57.87H51.259Zm-39.247,0H23.138V57.87H12.011ZM211.9,62.342h11.126V55.73H211.9Zm39.577-.654H262.6V54.936H251.477Zm-120.2-5.94H142.4V49.607H131.275Zm39.856,0h11.126V49.606H171.131Zm-79.408,0H102.85V49.606H91.723Zm-40.465,0H62.385V49.508H51.259Zm-39.247,0H23.138V49.51H12.011ZM211.9,53.606h11.126V47.1H211.9Zm39.577-.793H262.6V46.167H251.477Zm-80.346-5.33h11.126V41.244H171.131Zm-39.856,0H142.4V41.244H131.275Zm-39.552,0H102.85v-6.24H91.723Zm-40.465-.1H62.385V46.118c-3.762.529-7.478.933-11.127,1.193ZM211.9,44.974h11.126V38.362H211.9Zm39.577-.931H262.6v-6.75H251.477Zm-80.346-4.923h11.126V32.98H171.131Zm-39.856,0H142.4V32.98H131.275Zm-28.425,0V36.878q-3.913,1.16-7.844,2.242ZM211.9,36.239h11.126v-6.51H211.9Zm39.577-1.069H262.6V28.525H251.477Zm-80.346-4.313h11.126v-6.24H171.131Zm-39.856,0H142.4V24.716h-2.876q-4.063,1.444-8.25,2.905ZM211.9,27.606h11.126V20.462H211.9Zm39.577-1.2H262.6v-7.48H251.477Zm-80.346-3.907h11.126V16.353H171.131ZM211.9,18.339h11.126V12.2H211.9Zm39.577-1.54H262.6V10.657H251.477ZM171.131,14.23h11.126V11.692c-3.91.642-7.652,1.387-11.126,2.248ZM211.9,10.075h11.126V8.129c-3.618.121-7.348.285-11.126.5Zm39.577-1.54H262.6v-.72a3.955,3.955,0,0,1-1.708.328c-.152-.007-3.686-.152-9.418-.245Z" transform="translate(0 0)" stroke="rgba(0,0,0,0)" stroke-width="1" fill="url(#linear-gradient-5)"/>
    </g>
  </g>
</svg>
