<svg id="구성_요소_112_1" data-name="구성 요소 112 – 1" xmlns="http://www.w3.org/2000/svg" width="186.986" height="175.34" viewBox="0 0 186.986 175.34">
  <path id="패스_12322" data-name="패스 12322" d="M-141.464,99.52h-18.257l-1.16-17.119h19.418Z" transform="translate(211.445 -32.895)" fill="#ffe6ed"/>
  <path id="패스_12323" data-name="패스 12323" d="M-141.563,83.012V81.884h-19.2v2.228h15.934l.206,1.85h-2.819l3.455,5.721.867,7.8h1.636V83Z" transform="translate(211.436 -32.855)" fill="#ffc4d4"/>
  <path id="패스_12324" data-name="패스 12324" d="M-46.4,127.421a.338.338,0,0,1-.338-.338V114.7a.338.338,0,0,1,.338-.338.338.338,0,0,1,.337.338v12.381A.338.338,0,0,1-46.4,127.421Z" transform="translate(202.756 -35.328)" fill="#399"/>
  <path id="패스_12325" data-name="패스 12325" d="M-78.6,51.252a.337.337,0,0,1-.337-.337V39.441A.337.337,0,0,1-78.6,39.1a.338.338,0,0,1,.338.337V50.915A.338.338,0,0,1-78.6,51.252Z" transform="translate(205.207 -29.6)" fill="#399"/>
  <path id="패스_12326" data-name="패스 12326" d="M-89.065,79.522l9.694-28.666,9.693,28.666Z" transform="translate(205.978 -30.494)" fill="#ff7b8a"/>
  <path id="패스_12327" data-name="패스 12327" d="M-89.065,79.626h19.387L-77.56,56.318l-1.812-4.094,3.736,19.739H-86.473Z" transform="translate(205.978 -30.598)" fill="#ff5f66"/>
  <path id="패스_12328" data-name="패스 12328" d="M-87.012,75.18v2.462h2.121V75.127h3.4v2.516h4V75.127h3.4v2.516h2.121V75.18h3.4l-.362,6.667H-90.051l-.362-6.667Z" transform="translate(206.081 -32.341)" fill="#ffe6ed"/>
  <path id="패스_12329" data-name="패스 12329" d="M-89.1,99.52h18.257L-69.68,82.4H-89.1Z" transform="translate(205.981 -32.895)" fill="#ffe6ed"/>
  <rect id="사각형_740" data-name="사각형 740" width="16.023" height="26.062" transform="translate(116.882 66.625)" fill="#ffc4d4"/>
  <rect id="사각형_741" data-name="사각형 741" width="16.023" height="2.45" transform="translate(116.882 66.625)" fill="#ffadc3"/>
  <path id="패스_12330" data-name="패스 12330" d="M-57.792,156.068l10.461-30.934,10.461,30.934Z" transform="translate(203.598 -36.147)" fill="#ff7b8a"/>
  <path id="패스_12331" data-name="패스 12331" d="M-47.332,125.134l-.151.445q2.111,13.738,4.222,27.473H-56.772l-1.02,3.016h20.921Z" transform="translate(203.598 -36.147)" fill="#ff5f66"/>
  <path id="패스_12332" data-name="패스 12332" d="M-37.007,162.178l4.2-4.153H-57.631v4.153Z" transform="translate(203.585 -38.651)" fill="#ffe6ed"/>
  <path id="패스_12333" data-name="패스 12333" d="M-34.64,112.894a5.242,5.242,0,0,1-6.391,2.555c-.915-.353-1.716-.966-2.644-1.282a2.368,2.368,0,0,0-2.7.482v4.609c.625-.928,2.287-1.164,3.373-.9a11.462,11.462,0,0,0,3.258.737,4.328,4.328,0,0,0,3.175-1.984A18.462,18.462,0,0,0-34.64,112.894Z" transform="translate(202.728 -35.216)" fill="#f77170"/>
  <rect id="사각형_742" data-name="사각형 742" width="20.624" height="36.094" transform="translate(145.954 123.526)" fill="#ffe6ed"/>
  <path id="패스_12334" data-name="패스 12334" d="M-37.034,162.52H-57.98v35.528h.632l2.857-33.373h17.457Z" transform="translate(203.612 -38.994)" fill="#ffc4d4"/>
  <rect id="사각형_743" data-name="사각형 743" width="29.757" height="63.273" transform="translate(116.547 96.347)" fill="#ffe6ed"/>
  <path id="패스_12335" data-name="패스 12335" d="M-59.615,132.8v3.145H-79.9l-1.72,60.52H-88.9V132.989Z" transform="translate(205.965 -36.731)" fill="#ffc4d4"/>
  <path id="패스_12336" data-name="패스 12336" d="M-67.737,37.624a4.857,4.857,0,0,1-5.922,2.369c-.848-.327-1.59-.9-2.451-1.189a2.195,2.195,0,0,0-2.5.447v4.271a3.171,3.171,0,0,1,3.125-.83,10.637,10.637,0,0,0,3.019.684,4.01,4.01,0,0,0,2.943-1.839A17.1,17.1,0,0,0-67.737,37.624Z" transform="translate(205.183 -29.486)" fill="#f77170"/>
  <path id="패스_12337" data-name="패스 12337" d="M-60.256,126.66l-27.622-.061,13.864-23.891Z" transform="translate(205.888 -34.44)" fill="#ff7b8a"/>
  <g id="그룹_898" data-name="그룹 898" transform="translate(160.51 130.049)">
    <rect id="사각형_744" data-name="사각형 744" width="3.204" height="5.807" transform="translate(0.338 0.337)" fill="#e3879c"/>
    <path id="패스_12338" data-name="패스 12338" d="M-38,176.062h-3.879V169.58H-38Zm-3.2-.675h2.529v-5.131H-41.2Z" transform="translate(41.876 -169.58)" fill="#f77170"/>
  </g>
  <g id="그룹_899" data-name="그룹 899" transform="translate(154.327 130.049)">
    <rect id="사각형_745" data-name="사각형 745" width="3.204" height="5.807" transform="translate(0.338 0.337)" fill="#e3879c"/>
    <path id="패스_12339" data-name="패스 12339" d="M-44.69,176.062h-3.879V169.58h3.879Zm-3.2-.675h2.529v-5.131h-2.529Z" transform="translate(48.569 -169.58)" fill="#f77170"/>
  </g>
  <g id="그룹_900" data-name="그룹 900" transform="translate(148.143 130.049)">
    <rect id="사각형_746" data-name="사각형 746" width="3.204" height="5.807" transform="translate(0.338 0.337)" fill="#e3879c"/>
    <path id="패스_12340" data-name="패스 12340" d="M-51.383,176.062h-3.879V169.58h3.879Zm-3.2-.675h2.529v-5.131h-2.529Z" transform="translate(55.262 -169.58)" fill="#f77170"/>
  </g>
  <rect id="사각형_747" data-name="사각형 747" width="5.298" height="2.373" transform="translate(136.6 103.267)" fill="#ffc4d4"/>
  <rect id="사각형_748" data-name="사각형 748" width="5.298" height="2.373" transform="translate(139.249 106.124)" fill="#ffc4d4"/>
  <rect id="사각형_749" data-name="사각형 749" width="5.523" height="2.373" transform="translate(125.333 122.34)" fill="#ffc4d4"/>
  <rect id="사각형_750" data-name="사각형 750" width="5.523" height="2.373" transform="translate(128.776 126.717)" fill="#ffc4d4"/>
  <rect id="사각형_751" data-name="사각형 751" width="5.523" height="2.373" transform="translate(126.015 130.157)" fill="#ffc4d4"/>
  <rect id="사각형_752" data-name="사각형 752" width="5.523" height="2.373" transform="translate(138.657 145.856)" fill="#ffc4d4"/>
  <rect id="사각형_753" data-name="사각형 753" width="5.523" height="2.373" transform="translate(138.228 139.064)" fill="#ffc4d4"/>
  <rect id="사각형_754" data-name="사각형 754" width="5.523" height="2.373" transform="translate(131.538 142.064)" fill="#ffc4d4"/>
  <rect id="사각형_755" data-name="사각형 755" width="5.523" height="2.373" transform="translate(124.11 142.064)" fill="#ffc4d4"/>
  <rect id="사각형_756" data-name="사각형 756" width="5.523" height="2.373" transform="translate(159.688 149.226)" fill="#ffc4d4"/>
  <rect id="사각형_757" data-name="사각형 757" width="5.523" height="2.373" transform="translate(151.903 149.226)" fill="#ffc4d4"/>
  <rect id="사각형_758" data-name="사각형 758" width="5.523" height="2.373" transform="translate(154.064 139.064)" fill="#ffc4d4"/>
  <rect id="사각형_759" data-name="사각형 759" width="5.523" height="2.373" transform="translate(147.321 139.064)" fill="#ffc4d4"/>
  <rect id="사각형_760" data-name="사각형 760" width="5.523" height="2.373" transform="translate(159.587 142.624)" fill="#ffc4d4"/>
  <rect id="사각형_761" data-name="사각형 761" width="5.523" height="2.373" transform="translate(155.928 145.856)" fill="#ffc4d4"/>
  <rect id="사각형_762" data-name="사각형 762" width="5.523" height="2.373" transform="translate(151.303 142.624)" fill="#ffc4d4"/>
  <rect id="사각형_763" data-name="사각형 763" width="5.523" height="2.373" transform="translate(134.753 122.34)" fill="#ffc4d4"/>
  <rect id="사각형_764" data-name="사각형 764" width="5.298" height="2.373" transform="translate(136.121 110.673)" fill="#ffc4d4"/>
  <rect id="사각형_765" data-name="사각형 765" width="6.432" height="2.373" transform="translate(132.905 114.458)" fill="#ffc4d4"/>
  <rect id="사각형_766" data-name="사각형 766" width="6.432" height="2.373" transform="translate(131.228 107.311)" fill="#ffc4d4"/>
  <g id="그룹_901" data-name="그룹 901" transform="translate(126.196 106.638)">
    <path id="패스_12341" data-name="패스 12341" d="M-78.645,157.88v-8.232l-.006-.105.006-.1v-.649h.058a5.157,5.157,0,0,1,5.222-4.184,5.157,5.157,0,0,1,5.223,4.184h.042l.017.337v.312l.006.1-.006.105v8.232Z" transform="translate(78.989 -144.268)" fill="#e3879c"/>
    <path id="패스_12342" data-name="패스 12342" d="M-73.392,144.915a4.822,4.822,0,0,1,4.926,4.183h.017v.312c0,.035.006.069.006.1s0,.069-.006.105v7.894h-9.886V149.62c0-.035-.006-.069-.006-.1s0-.069.006-.1V149.1h.018A4.821,4.821,0,0,1-73.392,144.915Zm0-.675a5.516,5.516,0,0,0-5.5,4.183h-.1l-.017.675v.312a.935.935,0,0,0-.006.1c0,.037,0,.073.006.109v8.564h11.236v-8.568c0-.032.006-.068.006-.105s0-.073-.006-.109v-.983h-.117A5.516,5.516,0,0,0-73.392,144.24Z" transform="translate(79.017 -144.24)" fill="#f77170"/>
  </g>
  <path id="패스_12343" data-name="패스 12343" d="M-84.2,120.293l-2.382,4.106-1,2.2,27.344.06-13.759-23.952,5.344,17.585Z" transform="translate(205.865 -34.44)" fill="#ff5f66"/>
  <path id="패스_12344" data-name="패스 12344" d="M-84.786,125.212v2.657h3.155v-2.715h5.057v2.715h5.953v-2.715h5.058v2.715h3.155v-2.657h5.057l-.538,7.194H-89.306l-.538-7.194Z" transform="translate(206.038 -36.149)" fill="#ffe6ed"/>
  <path id="패스_12345" data-name="패스 12345" d="M-78.28,157.57v-7.895c0-.035-.006-.069-.006-.1s0-.069.006-.1v-.312h.018a4.821,4.821,0,0,1,4.926-4.183,5.07,5.07,0,0,1,3.86,1.739c.094.188.187.374.266.561a3.386,3.386,0,0,0-3.642.533,6.664,6.664,0,0,0-1.978,3.3,13.369,13.369,0,0,0-.309,6.467Z" transform="translate(205.158 -37.658)" fill="#cc616e"/>
  <path id="패스_12346" data-name="패스 12346" d="M-69.786,84.113V81.884h-19.2v1.128L-89.065,83V99.481h1.636l.867-7.8,3.455-5.721h-2.819l.206-1.85Z" transform="translate(205.978 -32.855)" fill="#ffc4d4"/>
  <g id="그룹_903" data-name="그룹 903" transform="translate(128.376 53.323)">
    <g id="그룹_902" data-name="그룹 902">
      <path id="패스_12347" data-name="패스 12347" d="M-76.51,89.067c0-.018,0-.036,0-.054v-.162a2.2,2.2,0,0,1,2.039-2.166,2.194,2.194,0,0,1,2.032,2.166l.007.162c0,.018,0,.036,0,.054s0,.036,0,.054v4.088h-4.078V89.12C-76.508,89.1-76.51,89.084-76.51,89.067Z" transform="translate(76.647 -86.545)" fill="#e3879c"/>
      <path id="패스_12348" data-name="패스 12348" d="M-72.3,93.336h-4.356V88.7h.02a2.3,2.3,0,0,1,2.158-2.167A2.3,2.3,0,0,1-72.321,88.7h.013l.009.359,0,.034Zm-4.078-.278h3.8l-.006-4.207a2.046,2.046,0,0,0-1.893-2.039,2.047,2.047,0,0,0-1.894,2.039l-.008.187-.14.018.14.018,0,.036Z" transform="translate(76.658 -86.533)" fill="#f77170"/>
    </g>
    <path id="패스_12349" data-name="패스 12349" d="M-76.4,93.111V88.675c0-.015,0-.029,0-.043s0-.029,0-.043V88.46a1.876,1.876,0,0,1,1.851-1.726,1.828,1.828,0,0,1,1.445.718c.035.077.069.154.1.231a1.177,1.177,0,0,0-1.364.22,2.821,2.821,0,0,0-.741,1.361,12.518,12.518,0,0,0-.115,3.847Z" transform="translate(76.639 -86.548)" fill="#cc616e"/>
    <path id="패스_12350" data-name="패스 12350" d="M-72.3,93.336h-4.356V88.7h.02a2.3,2.3,0,0,1,2.158-2.167A2.3,2.3,0,0,1-72.321,88.7h.013l.009.359,0,.034Zm-4.078-.278h3.8l-.006-4.207a2.046,2.046,0,0,0-1.893-2.039,2.047,2.047,0,0,0-1.894,2.039l-.008.187-.14.018.14.018,0,.036Z" transform="translate(76.658 -86.533)" fill="#f77170"/>
  </g>
  <g id="그룹_905" data-name="그룹 905" transform="translate(121.694 53.323)">
    <g id="그룹_904" data-name="그룹 904" transform="translate(0)">
      <path id="패스_12351" data-name="패스 12351" d="M-83.742,89.067c0-.018,0-.036,0-.054v-.162A2.2,2.2,0,0,1-81.7,86.684a2.2,2.2,0,0,1,2.033,2.166l.006.162c0,.018,0,.036,0,.054s0,.036,0,.054v4.088h-4.078V89.12C-83.739,89.1-83.742,89.084-83.742,89.067Z" transform="translate(83.879 -86.545)" fill="#e3879c"/>
      <path id="패스_12352" data-name="패스 12352" d="M-79.533,93.336H-83.89V88.7h.02a2.3,2.3,0,0,1,2.158-2.167A2.3,2.3,0,0,1-79.553,88.7h.013l.009.359v4.277Zm-4.079-.278h3.8l-.006-4.207a2.047,2.047,0,0,0-1.894-2.039,2.047,2.047,0,0,0-1.894,2.039l-.008.205,0,.054Z" transform="translate(83.89 -86.533)" fill="#f77170"/>
    </g>
    <path id="패스_12353" data-name="패스 12353" d="M-83.633,93.111V88.675c0-.015,0-.029,0-.043s0-.029,0-.043V88.46a1.876,1.876,0,0,1,1.851-1.726,1.827,1.827,0,0,1,1.445.718c.035.077.07.154.1.231a1.177,1.177,0,0,0-1.364.22,2.812,2.812,0,0,0-.74,1.361,12.489,12.489,0,0,0-.115,3.847Z" transform="translate(83.871 -86.548)" fill="#cc616e"/>
    <path id="패스_12354" data-name="패스 12354" d="M-79.533,93.336H-83.89V88.7h.02a2.3,2.3,0,0,1,2.158-2.167A2.3,2.3,0,0,1-79.553,88.7h.013l.009.359v4.277Zm-4.079-.278h3.8l-.006-4.207a2.047,2.047,0,0,0-1.894-2.039,2.047,2.047,0,0,0-1.894,2.039l-.008.205,0,.054Z" transform="translate(83.89 -86.533)" fill="#f77170"/>
  </g>
  <path id="패스_12355" data-name="패스 12355" d="M-39.981,170.334h1.376v1.089h-1.376v4.03h-1.154v-5.12Z" transform="translate(202.33 -39.589)" fill="#cc616e"/>
  <path id="패스_12356" data-name="패스 12356" d="M-46.685,170.334h1.376v1.089h-1.376v4.03h-1.154v-5.12Z" transform="translate(202.84 -39.589)" fill="#cc616e"/>
  <path id="패스_12357" data-name="패스 12357" d="M-53.378,170.334H-52v1.089h-1.376v4.03h-1.154v-5.12Z" transform="translate(203.35 -39.589)" fill="#cc616e"/>
  <path id="패스_12358" data-name="패스 12358" d="M-182.614,127.421a.338.338,0,0,1-.338-.338V114.7a.338.338,0,0,1,.338-.338.338.338,0,0,1,.337.338v12.381A.338.338,0,0,1-182.614,127.421Z" transform="translate(213.125 -35.328)" fill="#399"/>
  <path id="패스_12359" data-name="패스 12359" d="M-114.442,47.688a.338.338,0,0,1-.338-.338V30.8a.338.338,0,0,1,.338-.337.337.337,0,0,1,.337.337V47.349A.338.338,0,0,1-114.442,47.688Z" transform="translate(207.935 -28.941)" fill="#399"/>
  <path id="패스_12360" data-name="패스 12360" d="M-150.418,51.252a.337.337,0,0,1-.337-.337V39.441a.337.337,0,0,1,.337-.337.338.338,0,0,1,.338.337V50.915A.338.338,0,0,1-150.418,51.252Z" transform="translate(210.674 -29.6)" fill="#399"/>
  <path id="패스_12361" data-name="패스 12361" d="M-92.275,87.642l-48.254-.106L-116.31,45.8Z" transform="translate(209.896 -30.109)" fill="#ff7b8a"/>
  <path id="패스_12362" data-name="패스 12362" d="M-137.141,81.7l-3.388,5.838,48.254.106L-116.31,45.8l11.4,35.565Z" transform="translate(209.896 -30.109)" fill="#ff5f66"/>
  <path id="패스_12363" data-name="패스 12363" d="M-160.882,79.522l9.694-28.666,9.694,28.666Z" transform="translate(211.445 -30.494)" fill="#ff7b8a"/>
  <path id="패스_12364" data-name="패스 12364" d="M-160.882,79.626h19.387l-7.882-23.309-1.812-4.094,3.736,19.739H-158.29Z" transform="translate(211.445 -30.598)" fill="#ff5f66"/>
  <path id="패스_12365" data-name="패스 12365" d="M-143.75,75.18v2.462h-2.121V75.127h-3.4v2.516h-4V75.127h-3.4v2.516H-158.8V75.18h-3.4l.362,6.667h21.123l.362-6.667Z" transform="translate(211.545 -32.341)" fill="#ffe6ed"/>
  <rect id="사각형_767" data-name="사각형 767" width="16.023" height="26.062" transform="translate(53.958 66.625)" fill="#ffc4d4"/>
  <rect id="사각형_768" data-name="사각형 768" width="16.023" height="2.45" transform="translate(53.958 66.625)" fill="#ffadc3"/>
  <path id="패스_12366" data-name="패스 12366" d="M-193.815,156.068l10.461-30.934,10.461,30.934Z" transform="translate(213.952 -36.147)" fill="#ff7b8a"/>
  <path id="패스_12367" data-name="패스 12367" d="M-183.354,125.134l-.152.445q2.112,13.738,4.222,27.473H-192.8l-1.02,3.016h20.921Z" transform="translate(213.952 -36.147)" fill="#ff5f66"/>
  <path id="패스_12368" data-name="패스 12368" d="M-194,162.178l-4.2-4.153h24.829v4.153Z" transform="translate(214.286 -38.651)" fill="#ffe6ed"/>
  <path id="패스_12369" data-name="패스 12369" d="M-170.767,112.894a5.242,5.242,0,0,1-6.391,2.555c-.915-.353-1.716-.966-2.644-1.282a2.369,2.369,0,0,0-2.7.482v4.609c.626-.928,2.288-1.164,3.373-.9a11.476,11.476,0,0,0,3.259.737,4.324,4.324,0,0,0,3.174-1.984A18.425,18.425,0,0,0-170.767,112.894Z" transform="translate(213.091 -35.216)" fill="#f77170"/>
  <rect id="사각형_769" data-name="사각형 769" width="20.624" height="36.094" transform="translate(20.286 123.526)" fill="#ffe6ed"/>
  <path id="패스_12370" data-name="패스 12370" d="M-193.654,162.52v2.155H-176.2l2.857,33.373h.632V162.52Z" transform="translate(213.94 -38.994)" fill="#ffc4d4"/>
  <rect id="사각형_770" data-name="사각형 770" width="29.757" height="63.273" transform="translate(40.56 96.347)" fill="#ffe6ed"/>
  <path id="패스_12371" data-name="패스 12371" d="M-171.76,132.8v3.145h20.287l1.72,60.52h7.277V132.989Z" transform="translate(212.273 -36.731)" fill="#ffc4d4"/>
  <rect id="사각형_771" data-name="사각형 771" width="47.394" height="49.247" transform="translate(69.797 61.106)" fill="#ffe6ed"/>
  <rect id="사각형_772" data-name="사각형 772" width="47.394" height="2.977" transform="translate(69.797 61.106)" fill="#ffc4d4"/>
  <rect id="사각형_773" data-name="사각형 773" width="59.001" height="46.186" transform="translate(63.993 114.635)" fill="#ffe6ed"/>
  <path id="패스_12372" data-name="패스 12372" d="M-91.115,144.12v2.657h-2.659v-2.715h-7.7v2.715h-1.707v-2.715h-7.7v2.715h-1.707v-2.715h-8.188v2.715h-1.2v-2.715h-8.2v2.715h-1.707v-2.715h-7.7v2.715h-2.659V144.12h-5.79l.616,7.194h61.465l.616-7.194Z" transform="translate(210.466 -37.589)" fill="#ffc4d4"/>
  <path id="패스_12373" data-name="패스 12373" d="M-139.436,37.624a4.858,4.858,0,0,1-5.923,2.369c-.848-.327-1.59-.9-2.45-1.189a2.2,2.2,0,0,0-2.5.447v4.271a3.172,3.172,0,0,1,3.126-.83,10.624,10.624,0,0,0,3.018.684,4.01,4.01,0,0,0,2.943-1.839A17.107,17.107,0,0,0-139.436,37.624Z" transform="translate(210.64 -29.486)" fill="#f77170"/>
  <path id="패스_12374" data-name="패스 12374" d="M-102.937,28.816a5.243,5.243,0,0,1-6.391,2.556c-.916-.354-1.716-.967-2.644-1.283a2.369,2.369,0,0,0-2.7.482v4.61c.625-.928,2.287-1.165,3.373-.9a11.437,11.437,0,0,0,3.258.736,4.321,4.321,0,0,0,3.175-1.984A18.448,18.448,0,0,0-102.937,28.816Z" transform="translate(207.927 -28.816)" fill="#f77170"/>
  <path id="패스_12375" data-name="패스 12375" d="M-143.359,126.66l-27.622-.061,13.864-23.891Z" transform="translate(212.214 -34.44)" fill="#ff7b8a"/>
  <g id="그룹_906" data-name="그룹 906" transform="translate(22.474 130.049)">
    <rect id="사각형_774" data-name="사각형 774" width="3.204" height="5.807" transform="translate(0.338 0.337)" fill="#e3879c"/>
    <path id="패스_12376" data-name="패스 12376" d="M-187.406,176.062h-3.879V169.58h3.879Zm-3.2-.675h2.529v-5.131h-2.529Z" transform="translate(191.285 -169.58)" fill="#f77170"/>
  </g>
  <g id="그룹_907" data-name="그룹 907" transform="translate(28.658 130.049)">
    <rect id="사각형_775" data-name="사각형 775" width="3.204" height="5.807" transform="translate(0.338 0.337)" fill="#e3879c"/>
    <path id="패스_12377" data-name="패스 12377" d="M-180.713,176.062h-3.879V169.58h3.879Zm-3.2-.675h2.529v-5.131h-2.529Z" transform="translate(184.592 -169.58)" fill="#f77170"/>
  </g>
  <g id="그룹_908" data-name="그룹 908" transform="translate(34.841 130.049)">
    <rect id="사각형_776" data-name="사각형 776" width="3.204" height="5.807" transform="translate(0.338 0.337)" fill="#e3879c"/>
    <path id="패스_12378" data-name="패스 12378" d="M-174.02,176.062H-177.9V169.58h3.879Zm-3.2-.675h2.529v-5.131h-2.529Z" transform="translate(177.899 -169.58)" fill="#f77170"/>
  </g>
  <path id="패스_12379" data-name="패스 12379" d="M-91.172,145.029v2.657h-3.612v-2.715h-5.79v2.715h-3.612v-2.715h-5.791v2.715h-3.612v-2.715h-6.283v2.715h-3.612v-2.715h-5.791v2.715h-3.612v-2.715h-5.791v2.715h-3.612v-2.657h-5.79l.616,7.194H-86l.616-7.194Z" transform="translate(210.47 -37.658)" fill="#ffe6ed"/>
  <rect id="사각형_777" data-name="사각형 777" width="59.001" height="2.565" transform="translate(63.993 114.635)" fill="#ffc4d4"/>
  <path id="패스_12380" data-name="패스 12380" d="M-100.488,176.137c0-.1-.015-.205-.018-.31V174.9h-.052c-.7-6.941-7.19-12.383-15.107-12.383s-14.412,5.442-15.107,12.383h-.053v.924c0,.1-.018.206-.018.31s.015.206.018.31v23.368h30.319V176.447C-100.5,176.342-100.488,176.241-100.488,176.137Z" transform="translate(209.158 -38.994)" fill="#ff4e55"/>
  <g id="그룹_910" data-name="그룹 910" transform="translate(80.509 123.055)" opacity="0.411">
    <g id="그룹_909" data-name="그룹 909" transform="translate(12.213)">
      <path id="패스_12381" data-name="패스 12381" d="M-114.14,162.532c-.1,0-.2-.012-.3-.012s-.2.011-.3.012v37.283h.6Z" transform="translate(115.21 -162.049)" fill="#a4272c"/>
      <path id="패스_12382" data-name="패스 12382" d="M-113.706,200.248h-1.543V162.03l.58-.015a3.3,3.3,0,0,1,.382,0l.58.015Z" transform="translate(115.249 -162.01)" fill="#a4272c"/>
    </g>
    <path id="패스_12383" data-name="패스 12383" d="M-123.9,199.992h.581V164.85c-.2.115-.389.24-.581.362Z" transform="translate(128.12 -162.226)" fill="#a4272c"/>
    <path id="패스_12384" data-name="패스 12384" d="M-128.468,200.3h.556V168.831c-.192.248-.382.5-.556.755Z" transform="translate(128.468 -162.529)" fill="#a4272c"/>
    <path id="패스_12385" data-name="패스 12385" d="M-118.724,163.033c-.2.049-.4.1-.6.153v36.668h.6Z" transform="translate(127.772 -162.088)" fill="#a4272c"/>
    <path id="패스_12386" data-name="패스 12386" d="M-100.972,200.295h.574V169.6c-.18-.267-.375-.525-.574-.781Z" transform="translate(126.375 -162.528)" fill="#a4272c"/>
    <path id="패스_12387" data-name="패스 12387" d="M-104.982,165.21c-.19-.121-.378-.245-.574-.358v35.141h.574Z" transform="translate(126.724 -162.226)" fill="#a4272c"/>
    <path id="패스_12388" data-name="패스 12388" d="M-109.559,163.186c-.2-.054-.393-.1-.591-.152v36.82h.591Z" transform="translate(127.074 -162.088)" fill="#a4272c"/>
  </g>
  <rect id="사각형_778" data-name="사각형 778" width="5.298" height="2.373" transform="translate(44.966 103.267)" fill="#ffc4d4"/>
  <rect id="사각형_779" data-name="사각형 779" width="5.298" height="2.373" transform="translate(42.317 106.124)" fill="#ffc4d4"/>
  <rect id="사각형_780" data-name="사각형 780" width="5.523" height="2.373" transform="translate(56.008 122.34)" fill="#ffc4d4"/>
  <rect id="사각형_781" data-name="사각형 781" width="5.523" height="2.373" transform="translate(52.565 126.717)" fill="#ffc4d4"/>
  <rect id="사각형_782" data-name="사각형 782" width="5.523" height="2.373" transform="translate(55.326 130.157)" fill="#ffc4d4"/>
  <rect id="사각형_783" data-name="사각형 783" width="5.523" height="2.373" transform="translate(72.749 136.541)" fill="#ffc4d4"/>
  <rect id="사각형_784" data-name="사각형 784" width="5.523" height="2.373" transform="translate(69.309 140.251)" fill="#ffc4d4"/>
  <rect id="사각형_785" data-name="사각형 785" width="5.523" height="2.373" transform="translate(73.79 129.199)" fill="#ffc4d4"/>
  <rect id="사각형_786" data-name="사각형 786" width="5.523" height="2.373" transform="translate(42.684 145.856)" fill="#ffc4d4"/>
  <rect id="사각형_787" data-name="사각형 787" width="5.523" height="2.373" transform="translate(102.585 123.937)" fill="#ffc4d4"/>
  <rect id="사각형_788" data-name="사각형 788" width="5.523" height="2.373" transform="translate(78.305 121.557)" fill="#ffc4d4"/>
  <rect id="사각형_789" data-name="사각형 789" width="5.523" height="2.373" transform="translate(69.987 88.905)" fill="#ffc4d4"/>
  <rect id="사각형_790" data-name="사각형 790" width="5.523" height="2.373" transform="translate(76.552 95.07)" fill="#ffc4d4"/>
  <rect id="사각형_791" data-name="사각형 791" width="5.523" height="2.373" transform="translate(79.313 91.5)" fill="#ffc4d4"/>
  <rect id="사각형_792" data-name="사각형 792" width="5.523" height="2.373" transform="translate(79.14 98.514)" fill="#ffc4d4"/>
  <rect id="사각형_793" data-name="사각형 793" width="5.523" height="2.373" transform="translate(85.446 94.868)" fill="#ffc4d4"/>
  <rect id="사각형_794" data-name="사각형 794" width="5.523" height="2.373" transform="translate(103.725 97.443)" fill="#ffc4d4"/>
  <rect id="사각형_795" data-name="사각형 795" width="5.523" height="2.373" transform="translate(108.422 101.131)" fill="#ffc4d4"/>
  <rect id="사각형_796" data-name="사각형 796" width="5.523" height="2.373" transform="translate(71.029 80.356)" fill="#ffc4d4"/>
  <rect id="사각형_797" data-name="사각형 797" width="5.523" height="2.373" transform="translate(71.43 73.688)" fill="#ffc4d4"/>
  <rect id="사각형_798" data-name="사각형 798" width="5.523" height="2.373" transform="translate(81.347 71.479)" fill="#ffc4d4"/>
  <rect id="사각형_799" data-name="사각형 799" width="5.523" height="2.373" transform="translate(84.787 67.889)" fill="#ffc4d4"/>
  <rect id="사각형_800" data-name="사각형 800" width="5.523" height="2.373" transform="translate(91.647 89.671)" fill="#ffc4d4"/>
  <rect id="사각형_801" data-name="사각형 801" width="5.523" height="2.373" transform="translate(103.438 92.296)" fill="#ffc4d4"/>
  <rect id="사각형_802" data-name="사각형 802" width="5.523" height="2.373" transform="translate(109.464 74.706)" fill="#ffc4d4"/>
  <rect id="사각형_803" data-name="사각형 803" width="5.523" height="2.373" transform="translate(111.184 67.889)" fill="#ffc4d4"/>
  <rect id="사각형_804" data-name="사각형 804" width="5.523" height="2.373" transform="translate(99.824 70.042)" fill="#ffc4d4"/>
  <rect id="사각형_805" data-name="사각형 805" width="5.523" height="2.373" transform="translate(111.184 96.257)" fill="#ffc4d4"/>
  <rect id="사각형_806" data-name="사각형 806" width="5.523" height="2.373" transform="translate(88.207 64.598)" fill="#ffc4d4"/>
  <rect id="사각형_807" data-name="사각형 807" width="5.523" height="2.373" transform="translate(77.748 67.813)" fill="#ffc4d4"/>
  <rect id="사각형_808" data-name="사각형 808" width="5.523" height="2.373" transform="translate(69.987 94.868)" fill="#ffc4d4"/>
  <rect id="사각형_809" data-name="사각형 809" width="5.523" height="2.373" transform="translate(109.464 129.302)" fill="#ffc4d4"/>
  <rect id="사각형_810" data-name="사각형 810" width="5.523" height="2.373" transform="translate(108.422 135.006)" fill="#ffc4d4"/>
  <rect id="사각형_811" data-name="사각형 811" width="5.523" height="2.373" transform="translate(114.047 139.064)" fill="#ffc4d4"/>
  <rect id="사각형_812" data-name="사각형 812" width="5.523" height="2.373" transform="translate(108.422 144.67)" fill="#ffc4d4"/>
  <rect id="사각형_813" data-name="사각형 813" width="5.523" height="2.373" transform="translate(111.184 124.494)" fill="#ffc4d4"/>
  <rect id="사각형_814" data-name="사각형 814" width="5.523" height="2.373" transform="translate(43.113 139.064)" fill="#ffc4d4"/>
  <rect id="사각형_815" data-name="사각형 815" width="5.523" height="2.373" transform="translate(49.804 142.064)" fill="#ffc4d4"/>
  <rect id="사각형_816" data-name="사각형 816" width="5.523" height="2.373" transform="translate(57.231 142.064)" fill="#ffc4d4"/>
  <rect id="사각형_817" data-name="사각형 817" width="5.523" height="2.373" transform="translate(63.787 125.53)" fill="#ffc4d4"/>
  <rect id="사각형_818" data-name="사각형 818" width="5.523" height="2.373" transform="translate(62.431 136.541)" fill="#ffc4d4"/>
  <rect id="사각형_819" data-name="사각형 819" width="5.523" height="2.373" transform="translate(21.653 149.226)" fill="#ffc4d4"/>
  <rect id="사각형_820" data-name="사각형 820" width="5.523" height="2.373" transform="translate(29.438 149.226)" fill="#ffc4d4"/>
  <rect id="사각형_821" data-name="사각형 821" width="5.523" height="2.373" transform="translate(27.277 139.064)" fill="#ffc4d4"/>
  <rect id="사각형_822" data-name="사각형 822" width="5.523" height="2.373" transform="translate(34.02 139.064)" fill="#ffc4d4"/>
  <rect id="사각형_823" data-name="사각형 823" width="5.523" height="2.373" transform="translate(21.754 142.624)" fill="#ffc4d4"/>
  <rect id="사각형_824" data-name="사각형 824" width="5.523" height="2.373" transform="translate(25.413 145.856)" fill="#ffc4d4"/>
  <rect id="사각형_825" data-name="사각형 825" width="5.523" height="2.373" transform="translate(30.038 142.624)" fill="#ffc4d4"/>
  <rect id="사각형_826" data-name="사각형 826" width="5.523" height="2.373" transform="translate(66.548 133.289)" fill="#ffc4d4"/>
  <rect id="사각형_827" data-name="사각형 827" width="5.523" height="2.373" transform="translate(72.749 143.25)" fill="#ffc4d4"/>
  <rect id="사각형_828" data-name="사각형 828" width="5.523" height="2.373" transform="translate(46.588 122.34)" fill="#ffc4d4"/>
  <rect id="사각형_829" data-name="사각형 829" width="5.298" height="2.373" transform="translate(45.445 110.673)" fill="#ffc4d4"/>
  <rect id="사각형_830" data-name="사각형 830" width="6.432" height="2.373" transform="translate(47.527 114.458)" fill="#ffc4d4"/>
  <rect id="사각형_831" data-name="사각형 831" width="6.432" height="2.373" transform="translate(49.204 107.311)" fill="#ffc4d4"/>
  <g id="그룹_911" data-name="그룹 911" transform="translate(49.542 106.638)">
    <path id="패스_12389" data-name="패스 12389" d="M-161.749,157.88v-8.232l-.006-.105.006-.1v-.649h.058a5.157,5.157,0,0,1,5.222-4.184,5.158,5.158,0,0,1,5.223,4.184h.042l.017.337v.312l.006.1-.006.105v8.232Z" transform="translate(161.969 -144.268)" fill="#e3879c"/>
    <path id="패스_12390" data-name="패스 12390" d="M-150.985,148.423a5.516,5.516,0,0,0-5.5-4.183,5.516,5.516,0,0,0-5.5,4.183l.021,9.765h10.982Zm-.558,1.2v7.895h-9.886v-7.894c0-.036-.006-.069-.006-.105s0-.069.006-.1V149.1h.018a4.821,4.821,0,0,1,4.925-4.183,4.821,4.821,0,0,1,4.926,4.183h.018v.312c0,.035.006.069.006.1S-151.542,149.585-151.543,149.62Z" transform="translate(161.987 -144.24)" fill="#f77170"/>
  </g>
  <path id="패스_12391" data-name="패스 12391" d="M-167.3,120.293l-2.382,4.106-1,2.2,27.344.06L-157.1,102.708l5.344,17.585Z" transform="translate(212.191 -34.44)" fill="#ff5f66"/>
  <path id="패스_12392" data-name="패스 12392" d="M-146.853,125.212v2.657h-3.155v-2.715h-5.057v2.715h-5.953v-2.715h-5.057v2.715h-3.155v-2.657h-5.057l.538,7.194h31.416l.538-7.194Z" transform="translate(212.465 -36.149)" fill="#ffe6ed"/>
  <path id="패스_12393" data-name="패스 12393" d="M-151.444,157.57v-7.895c0-.035.006-.069.006-.1s0-.069-.006-.1v-.312h-.018a4.821,4.821,0,0,0-4.926-4.183,5.07,5.07,0,0,0-3.86,1.739c-.094.188-.36.4-.44.589a3.676,3.676,0,0,1,3.816.505,6.664,6.664,0,0,1,1.978,3.3,13.369,13.369,0,0,1,.309,6.467Z" transform="translate(211.43 -37.658)" fill="#cc616e"/>
  <path id="패스_12394" data-name="패스 12394" d="M-94.351,87.213V89.87h-3.195V87.155h-5.122V89.87h-3.195V87.155h-5.122V89.87h-3.195V87.155h-5.557V89.87h-3.195V87.155h-5.122V89.87h-3.195V87.155h-5.122V89.87h-3.195V87.213h-5.122l4.271,7.194h47.394l3.792-7.194Z" transform="translate(210.212 -33.257)" fill="#ffe6ed"/>
  <path id="패스_12395" data-name="패스 12395" d="M-100.061,175.893l-.007-1.029-.052-.476h-.053C-101.119,167.3-107.714,162-115.7,162s-14.585,5.294-15.531,12.384h-.1v1.39l-.007.115c-.006.068-.01.137-.01.206s0,.138.01.205l.007,23.949h31.271V176.417l.007-.115c.006-.068.01-.136.01-.205S-100.055,175.96-100.061,175.893Zm-.95.335-.01,23.071h-29.366V176.4l-.01-.168c0-.043-.007-.087-.007-.131s0-.088.007-.131l.059-1.055c.685-6.815,6.975-11.955,14.634-11.955s13.95,5.14,14.633,11.955l.06,1.056c0,.042.007.087.007.13S-101.007,176.186-101.01,176.228Z" transform="translate(209.197 -38.954)" fill="#ffadc3"/>
  <path id="패스_12396" data-name="패스 12396" d="M-36.262,202.394V196.93H-44v3.737h-4.867V196.93h-7.742v3.737h-4.868V196.93h-7.742v3.737h-4.868V196.93h-7.742v3.737H-86.7V196.93h-7.743v3.737H-99.31V196.93h-7.742v3.737h-4.868V196.93h-7.742v2.937h-4.91V196.93h-7.742v3.737h-4.867V196.93h-7.742v3.737h-4.868V196.93h-7.742v3.737H-162.4V196.93h-7.742v3.737h-4.867V196.93h-7.742v3.737h-4.868V196.93h-7.742v3.737h-4.868V196.93h-7.742v5.464l-7.638,14.559H-28.625Z" transform="translate(215.611 -41.613)" fill="#ff7b8a"/>
  <g id="그룹_912" data-name="그룹 912" transform="translate(73.859 71.307)">
    <path id="패스_12397" data-name="패스 12397" d="M-125.415,111.727h-.018c-.226-2.943-2.344-5.251-4.926-5.251s-4.7,2.308-4.926,5.251h-.017v10.564h9.886Z" transform="translate(135.639 -106.034)" fill="#e3879c"/>
    <path id="패스_12398" data-name="패스 12398" d="M-125.546,121.941V111.189c0-.035,0-.068,0-.1s0-.069,0-.1v-.312h-.016a4.534,4.534,0,0,0-4.471-4.183,4.434,4.434,0,0,0-3.5,1.739c-.086.188-.3.407-.37.593a3.042,3.042,0,0,1,3.433.5,6.82,6.82,0,0,1,1.8,3.3,30.279,30.279,0,0,1,.28,9.325Z" transform="translate(135.533 -106.035)" fill="#cc616e"/>
    <path id="패스_12399" data-name="패스 12399" d="M-125.154,111.249c-.364-3.015-2.567-5.251-5.232-5.251s-4.868,2.237-5.231,5.251l-.05,11.24h10.562Zm-9.837,10.565v-9.571l-.006-.132.022-.5c.217-2.816,2.19-4.94,4.589-4.94s4.373,2.124,4.59,4.94l.016,10.2Z" transform="translate(135.667 -105.998)" fill="#f77170"/>
  </g>
  <g id="그룹_913" data-name="그룹 913" transform="translate(53.958 53.322)">
    <path id="패스_12400" data-name="패스 12400" d="M-152.976,88.9a2.2,2.2,0,0,0-2.04-2.167A2.2,2.2,0,0,0-157.05,88.9l-.006,4.36h4.08Z" transform="translate(157.196 -86.547)" fill="#e3879c"/>
    <path id="패스_12401" data-name="패스 12401" d="M-153.03,93.111V88.674c0-.014,0-.029,0-.043s0-.029,0-.043v-.129a1.877,1.877,0,0,0-1.851-1.726,1.828,1.828,0,0,0-1.446.718c-.035.077-.123.168-.152.245a1.255,1.255,0,0,1,1.416.206,2.809,2.809,0,0,1,.741,1.362,12.5,12.5,0,0,1,.115,3.848Z" transform="translate(157.152 -86.547)" fill="#cc616e"/>
    <path id="패스_12402" data-name="패스 12402" d="M-152.868,88.7a2.3,2.3,0,0,0-2.159-2.167,2.3,2.3,0,0,0-2.159,2.167l-.02,4.638h4.359Zm-4.06,4.359v-3.95l0-.055.009-.205a2.044,2.044,0,0,1,1.894-2.038,2.046,2.046,0,0,1,1.894,2.038l.006,4.209Z" transform="translate(157.207 -86.532)" fill="#f77170"/>
  </g>
  <g id="그룹_914" data-name="그룹 914" transform="translate(60.257 53.322)">
    <path id="패스_12403" data-name="패스 12403" d="M-146.158,88.9a2.2,2.2,0,0,0-2.04-2.167,2.2,2.2,0,0,0-2.033,2.167l-.006,4.36h4.08Z" transform="translate(150.378 -86.547)" fill="#e3879c"/>
    <path id="패스_12404" data-name="패스 12404" d="M-146.212,93.111V88.674c0-.014,0-.029,0-.043s0-.029,0-.043v-.129a1.877,1.877,0,0,0-1.851-1.726,1.828,1.828,0,0,0-1.446.718c-.035.077-.123.168-.152.245a1.255,1.255,0,0,1,1.416.206,2.817,2.817,0,0,1,.741,1.362,12.5,12.5,0,0,1,.115,3.848Z" transform="translate(150.334 -86.547)" fill="#cc616e"/>
    <path id="패스_12405" data-name="패스 12405" d="M-146.051,88.7a2.3,2.3,0,0,0-2.159-2.167,2.3,2.3,0,0,0-2.158,2.167l-.02,4.638h4.358Zm-4.06,4.359v-3.95l0-.055.009-.205a2.044,2.044,0,0,1,1.893-2.038,2.046,2.046,0,0,1,1.895,2.038l.006,4.209Z" transform="translate(150.389 -86.532)" fill="#f77170"/>
  </g>
  <g id="그룹_915" data-name="그룹 915" transform="translate(87.877 71.307)">
    <path id="패스_12406" data-name="패스 12406" d="M-110.241,111.727h-.018c-.226-2.943-2.344-5.251-4.926-5.251s-4.7,2.308-4.926,5.251h-.017v10.564h9.886Z" transform="translate(120.465 -106.034)" fill="#e3879c"/>
    <path id="패스_12407" data-name="패스 12407" d="M-110.372,121.941V111.189c0-.035,0-.068,0-.1s0-.069,0-.1v-.312h-.016a4.534,4.534,0,0,0-4.471-4.183,4.434,4.434,0,0,0-3.5,1.739c-.086.188-.3.407-.37.593a3.042,3.042,0,0,1,3.433.5,6.829,6.829,0,0,1,1.8,3.3,30.307,30.307,0,0,1,.279,9.325Z" transform="translate(120.359 -106.035)" fill="#cc616e"/>
    <path id="패스_12408" data-name="패스 12408" d="M-109.98,111.249c-.364-3.015-2.567-5.251-5.232-5.251s-4.868,2.237-5.231,5.251l-.05,11.24h10.562Zm-9.837,10.565v-9.571l-.006-.132.022-.5c.217-2.816,2.19-4.94,4.589-4.94s4.373,2.124,4.59,4.94l.016,10.2Z" transform="translate(120.493 -105.998)" fill="#f77170"/>
  </g>
  <g id="그룹_916" data-name="그룹 916" transform="translate(101.894 71.307)">
    <path id="패스_12409" data-name="패스 12409" d="M-95.07,111.727h-.018c-.226-2.943-2.344-5.251-4.926-5.251s-4.7,2.308-4.926,5.251h-.017v10.564h9.886Z" transform="translate(105.294 -106.034)" fill="#e3879c"/>
    <path id="패스_12410" data-name="패스 12410" d="M-95.2,121.941V111.189c0-.035,0-.068,0-.1s0-.069,0-.1v-.312h-.016a4.534,4.534,0,0,0-4.471-4.183,4.434,4.434,0,0,0-3.5,1.739c-.086.188-.3.407-.37.593a3.042,3.042,0,0,1,3.433.5,6.828,6.828,0,0,1,1.8,3.3,30.307,30.307,0,0,1,.279,9.325Z" transform="translate(105.188 -106.035)" fill="#cc616e"/>
    <path id="패스_12411" data-name="패스 12411" d="M-94.809,111.249c-.364-3.015-2.567-5.251-5.232-5.251s-4.868,2.237-5.231,5.251l-.05,11.24H-94.76Zm-9.837,10.565v-9.571l-.006-.132.022-.5c.217-2.816,2.19-4.94,4.589-4.94s4.373,2.124,4.59,4.94l.016,10.2Z" transform="translate(105.322 -105.998)" fill="#f77170"/>
  </g>
  <path id="패스_12412" data-name="패스 12412" d="M-189.189,170.334h-1.376v1.089h1.376v4.03h1.154v-5.12Z" transform="translate(213.705 -39.589)" fill="#cc616e"/>
  <path id="패스_12413" data-name="패스 12413" d="M-182.486,170.334h-1.376v1.089h1.376v4.03h1.154v-5.12Z" transform="translate(213.194 -39.589)" fill="#cc616e"/>
  <path id="패스_12414" data-name="패스 12414" d="M-175.793,170.334h-1.376v1.089h1.376v4.03h1.154v-5.12Z" transform="translate(212.685 -39.589)" fill="#cc616e"/>
</svg>
