<svg id="구성_요소_57_1" data-name="구성 요소 57 – 1" xmlns="http://www.w3.org/2000/svg" width="25.866" height="25.359" viewBox="0 0 25.866 25.359">
  <g id="그룹_7153" data-name="그룹 7153" transform="translate(0)" opacity="0.179">
    <path id="패스_130" data-name="패스 130" d="M707.335,566.37l-4.24-8.891a2.583,2.583,0,0,0-3.825-.911l-.6.494-7.316,5.708a3.567,3.567,0,0,0-1.248,1.671,2.261,2.261,0,0,0,1.473,2.767l13.439,3.071a2.374,2.374,0,0,0,2.664-1.821A2.959,2.959,0,0,0,707.335,566.37Z" transform="translate(-688.445 -544.966)"/>
    <g id="그룹_5" data-name="그룹 5" transform="translate(0 6.185)">
      <path id="패스_131" data-name="패스 131" d="M692.308,550.113c.286,2.37-.7,4.439-2.2,4.621s-2.953-1.593-3.239-3.963.7-4.439,2.2-4.62S692.022,547.743,692.308,550.113Z" transform="translate(-686.816 -546.138)"/>
    </g>
    <g id="그룹_6" data-name="그룹 6" transform="translate(6.844)">
      <path id="패스_132" data-name="패스 132" d="M706.117,537.635c.286,2.37-.7,4.438-2.2,4.62s-2.953-1.593-3.24-3.963.7-4.439,2.2-4.62S705.831,535.264,706.117,537.635Z" transform="translate(-700.625 -533.659)"/>
    </g>
    <g id="그룹_7" data-name="그룹 7" transform="translate(15.218 2.305)">
      <path id="패스_133" data-name="패스 133" d="M723.11,543.773c-1.405,1.93-3.537,2.771-4.76,1.881s-1.077-3.179.329-5.108,3.536-2.772,4.76-1.881S724.515,541.843,723.11,543.773Z" transform="translate(-717.52 -538.309)"/>
    </g>
    <g id="그룹_8" data-name="그룹 8" transform="translate(19.118 10.522)">
      <path id="패스_134" data-name="패스 134" d="M730.98,560.352c-1.405,1.93-3.537,2.772-4.761,1.881s-1.077-3.178.329-5.108,3.537-2.772,4.76-1.881S732.385,558.423,730.98,560.352Z" transform="translate(-725.39 -554.888)"/>
    </g>
  </g>
</svg>
