<svg id="구성_요소_92_1" data-name="구성 요소 92 – 1" xmlns="http://www.w3.org/2000/svg" width="188.341" height="143.943" viewBox="0 0 188.341 143.943">
  <ellipse id="타원_490" data-name="타원 490" cx="35.724" cy="6.113" rx="35.724" ry="6.113" transform="translate(34.565 131.716)" fill="#dbdbdb" opacity="0.999"/>
  <ellipse id="타원_491" data-name="타원 491" cx="35.724" cy="6.113" rx="35.724" ry="6.113" transform="translate(110.7 131.716)" fill="#dbdbdb" opacity="0.999"/>
  <g id="그룹_1050" data-name="그룹 1050">
    <g id="그룹_986" data-name="그룹 986" transform="translate(160.394 72.179)">
      <path id="패스_12531" data-name="패스 12531" d="M1081.521-31.444c6.311-.623,17.969-7.356,15.15-20.667-1.935-9.135,5.934-6.94,6.633.788,1.895,20.958-13.063,24.194-20.444,25.41S1075.207-30.821,1081.521-31.444Z" transform="translate(-1076.279 58.845)" fill="#fff"/>
      <path id="패스_12532" data-name="패스 12532" d="M1081.1-24.955a5.131,5.131,0,0,1-4.179-1.573,2.7,2.7,0,0,1-.357-2.8c.654-1.531,2.5-2.588,4.929-2.828a18.425,18.425,0,0,0,12.044-7.13,15.194,15.194,0,0,0,2.441-12.627c-.821-3.876.066-5.567.952-6.305a2.785,2.785,0,0,1,2.938-.314c1.856.771,3.885,3.29,4.237,7.181,2.029,22.42-14.755,25.185-21.073,26.226A11.924,11.924,0,0,1,1081.1-24.955Zm.544-5.692c-2.209.218-3.352,1.132-3.687,1.915a1.2,1.2,0,0,0,.155,1.269c.264.337,1.386,1.392,4.675.846,5.939-.978,21.714-3.576,19.812-24.595-.293-3.244-1.922-5.343-3.31-5.921a1.331,1.331,0,0,0-1.39.082c-.292.242-1.184,1.3-.438,4.826a16.871,16.871,0,0,1-2.7,13.835,20.047,20.047,0,0,1-13.116,7.743Zm-.075-.753h0Z" transform="translate(-1076.323 58.801)"/>
    </g>
    <g id="그룹_987" data-name="그룹 987" transform="translate(89.187 102.059)">
      <path id="패스_12533" data-name="패스 12533" d="M1011.255-20.678s21.735-14.854,23.915-6.953c.552,2-9.587,4.438-9.587,4.438s1.583,6.029-2.761,5.353-2.071-.025-2.071-.025-.875,3.718-10.782.693" transform="translate(-1009.209 30.701)" fill="#fff"/>
      <path id="패스_12534" data-name="패스 12534" d="M1016.545-15.177a23.943,23.943,0,0,1-6.753-1.224.762.762,0,0,1-.505-.949.759.759,0,0,1,.949-.5c5.741,1.751,8.156,1.117,9.085.584a2.243,2.243,0,0,0,.352-.246.709.709,0,0,1-.211-.717c.184-.833.824-.733,3.525-.313,1.141.179,1.517-.236,1.639-.371.839-.931.466-3.287.269-4.039a.764.764,0,0,1,.084-.583.758.758,0,0,1,.473-.349c4.564-1.1,8.784-2.767,9.03-3.568a2.111,2.111,0,0,0-1.371-1.463c-4.457-1.632-16.944,5.881-21.38,8.913a.76.76,0,0,1-1.057-.2.76.76,0,0,1,.2-1.056c1.7-1.16,16.773-11.278,22.762-9.085a3.639,3.639,0,0,1,2.315,2.559,1.434,1.434,0,0,1-.176,1.137c-1.064,1.808-6.909,3.463-9.248,4.063.2,1.181.387,3.408-.771,4.689a3.142,3.142,0,0,1-3,.855c-.589-.092-1.036-.156-1.374-.2a3.246,3.246,0,0,1-1.3,1.291A7.062,7.062,0,0,1,1016.545-15.177Z" transform="translate(-1009.253 30.657)" fill="#080000"/>
    </g>
    <g id="그룹_988" data-name="그룹 988" transform="translate(37.183 96.282)">
      <path id="패스_12535" data-name="패스 12535" d="M1019.128-32.158c.209.518-.985,13-8.808,16.3,0,0,6.027,10.934,5.216,12.374S1002.576,6.9,995.483,4.1c-2.666-1.055,2.434-4.7,2.434-4.7l-8.229-5.754s-15.184,6.33-19.7,6.33c-2.365,0-7.418-3.645-8.925-14.579-1.124-8.159,10.315-6.331,11.822-1.631a10.442,10.442,0,0,0,2.435-1.246s-8.115-6.426-8.809-14.291S1019.128-32.158,1019.128-32.158Z" transform="translate(-960.227 36.143)" fill="#fff"/>
      <path id="패스_12536" data-name="패스 12536" d="M998.642,5.449a9.166,9.166,0,0,1-3.394-.6,1.753,1.753,0,0,1-1.239-1.432c-.168-1.374,1.5-2.993,2.667-3.946l-7.036-4.921C987.18-4.44,974.291.776,970.029.776c-2.93,0-8.148-4.135-9.677-15.234-.454-3.3,1.013-5.659,3.924-6.32,3.117-.711,7.573.755,9.072,3.63.214-.1.466-.241.725-.39-2.132-1.9-7.689-7.455-8.278-14.126a2.432,2.432,0,0,1,.812-2.022c5.858-5.566,47.9.15,52.671.82a.759.759,0,0,1,.6.467c.363.9-.99,13.036-8.46,16.933,2.737,5.025,5.628,10.978,4.824,12.4C1015.492-1.736,1006.13,5.448,998.642,5.449ZM989.733-7.073a.756.756,0,0,1,.436.137L998.4-1.182a.759.759,0,0,1,.324.619A.76.76,0,0,1,998.4.06c-1.42,1.017-2.958,2.59-2.885,3.171.009.069.16.154.289.2,6.643,2.633,18.31-5.9,19.11-7.245.185-.954-2.557-6.8-5.22-11.632a.766.766,0,0,1-.053-.616.762.762,0,0,1,.422-.451c6.5-2.748,8.172-12.481,8.352-14.942-13.24-1.822-46.331-5.346-50.763-1.133a.9.9,0,0,0-.347.787c.659,7.44,8.446,13.7,8.524,13.763a.761.761,0,0,1,.287.629.758.758,0,0,1-.339.6,9.721,9.721,0,0,1-2.75,1.367.768.768,0,0,1-.827-.521c-.736-2.293-4.64-4.008-7.591-3.336-1.5.342-3.2,1.422-2.755,4.631,1.434,10.416,6.212,13.922,8.172,13.922,4.317,0,19.261-6.209,19.412-6.271A.763.763,0,0,1,989.733-7.073Z" transform="translate(-960.27 36.099)" fill="#080000"/>
    </g>
    <g id="그룹_989" data-name="그룹 989" transform="translate(49.081 115.43)">
      <path id="패스_12537" data-name="패스 12537" d="M972.932-9.832a.772.772,0,0,1-.11-.008.757.757,0,0,1-.641-.859c.321-2.227-.672-6.386-.683-6.427a.759.759,0,0,1,.558-.915.756.756,0,0,1,.916.558c.044.183,1.073,4.488.709,7A.761.761,0,0,1,972.932-9.832Z" transform="translate(-971.477 18.064)"/>
    </g>
    <g id="그룹_990" data-name="그룹 990" transform="translate(65.772 115.814)">
      <line id="선_14" data-name="선 14" y1="9.496" x2="20.747" transform="translate(0.758 0.758)" fill="#d27eb6"/>
      <path id="패스_12538" data-name="패스 12538" d="M987.956-6.689a.758.758,0,0,1-.689-.443.758.758,0,0,1,.374-1.005l20.746-9.5a.76.76,0,0,1,1.006.374.759.759,0,0,1-.375,1.005l-20.746,9.5A.754.754,0,0,1,987.956-6.689Z" transform="translate(-987.198 17.702)"/>
    </g>
    <g id="그룹_991" data-name="그룹 991" transform="translate(51.514 108.428)">
      <line id="선_15" data-name="선 15" y1="5.755" x2="12.17" transform="translate(0.759 0.759)" fill="#896651"/>
      <path id="패스_12539" data-name="패스 12539" d="M974.527-17.387a.757.757,0,0,1-.685-.434.757.757,0,0,1,.361-1.01l12.17-5.754a.756.756,0,0,1,1.009.361.758.758,0,0,1-.361,1.01l-12.17,5.754A.755.755,0,0,1,974.527-17.387Z" transform="translate(-973.769 24.659)"/>
    </g>
    <g id="그룹_993" data-name="그룹 993" transform="translate(14.876 69.945)">
      <g id="그룹_992" data-name="그룹 992" transform="translate(0 0)">
        <path id="패스_12540" data-name="패스 12540" d="M972.44-59.636s-26.638-.724-29.67-.517S938-46.894,943.835-43.385c2.417,2.272,29.834-2.062,29.834-2.062s6.392-.7,5.786-8.314C979-59.453,972.44-59.636,972.44-59.636Z" transform="translate(-939.215 60.95)" fill="#fff"/>
        <path id="패스_12541" data-name="패스 12541" d="M948.516-41.943c-2.5,0-4.369-.219-5.08-.777-4.494-2.758-4.661-10.04-3.706-14,.623-2.584,1.7-4.058,3.033-4.148,3.04-.209,28.654.486,29.742.515h0c2.507.07,7.351,1.533,7.752,6.575.656,8.257-6.391,9.123-6.461,9.13C968.991-43.886,955.955-41.943,948.516-41.943Zm-3.56-17.443c-.995,0-1.722.011-2.09.036-.384.027-1.141.844-1.659,2.989-.92,3.817-.58,10.178,3.063,12.371a.834.834,0,0,1,.129.1c1.355,1.264,15.909-.158,29.2-2.258.265-.032,5.685-.742,5.146-7.5-.392-4.927-6.025-5.167-6.279-5.175C972.186-58.839,951.965-59.387,944.956-59.387Z" transform="translate(-939.26 60.906)" fill="#080000"/>
      </g>
    </g>
    <g id="그룹_994" data-name="그룹 994" transform="translate(42.422 53.774)">
      <path id="패스_12542" data-name="패스 12542" d="M974.836-69.587s-10.1,13.073-8.8,41.55c0,0,22.523,8.025,52.81,0,0,0-.776-34.56-11.131-45.95C997.616-78.907,974.836-69.587,974.836-69.587Z" transform="translate(-965.161 76.181)" fill="#8ac5ff"/>
      <path id="패스_12543" data-name="패스 12543" d="M991.836-23.7c-15.684,0-25.86-3.53-26.012-3.584a.758.758,0,0,1-.5-.678c-1.291-28.427,8.54-41.5,8.959-42.047a.753.753,0,0,1,.313-.238c.943-.386,23.208-9.392,33.495-4.382a.781.781,0,0,1,.228.171c10.426,11.468,11.3,45.021,11.328,46.444a.758.758,0,0,1-.563.748A106.4,106.4,0,0,1,991.836-23.7Zm-25.024-4.853c3.387,1.066,24.288,6.971,51.3-.023-.167-4.6-1.6-34.412-10.818-44.754-9.252-4.338-29.694,3.519-31.931,4.4C974.265-67.358,965.76-54.372,966.813-28.548Z" transform="translate(-965.205 76.137)"/>
    </g>
    <g id="그룹_996" data-name="그룹 996" transform="translate(81.571 65.333)">
      <g id="그룹_995" data-name="그룹 995">
        <path id="패스_12544" data-name="패스 12544" d="M1003.9-51.909s19.332,19.753,21.753,21.589,12.62-5.137,12.734-10.173c-.328-3.3-26.58-23.037-26.58-23.037s-4.1-2.68-7.087.71C1000.95-58.535,1003.9-51.909,1003.9-51.909Z" transform="translate(-1002.034 65.293)" fill="#fff"/>
        <path id="패스_12545" data-name="패스 12545" d="M1026.778-29.216a2.479,2.479,0,0,1-1.536-.455c-2.438-1.849-21.047-20.855-21.838-21.662a.788.788,0,0,1-.151-.222c-.13-.289-3.1-7.125.945-11.723,2.7-3.071,6.464-1.9,8.074-.845,24.647,18.528,26.835,22.746,26.92,23.6-.09,4.156-5.461,8.62-9.063,10.357A8.344,8.344,0,0,1,1026.778-29.216Zm-22.186-23.077c1.523,1.552,19.309,19.7,21.569,21.411.376.285,1.547.193,3.308-.656,3.826-1.846,8.139-5.967,8.206-8.93-.269-1.831-13.572-12.86-26.277-22.412-.1-.064-3.555-2.237-6.06.605C1002.2-58.709,1004.238-53.171,1004.592-52.292Z" transform="translate(-1002.079 65.249)" fill="#080000"/>
      </g>
    </g>
    <g id="그룹_997" data-name="그룹 997" transform="translate(14.976 68.343)">
      <path id="패스_12546" data-name="패스 12546" d="M940.13-51.6c0-1.043-1.042-9.381,4.865-10.076s7.644,11.814.7,14.941" transform="translate(-939.31 62.459)" fill="#fff"/>
      <path id="패스_12547" data-name="패스 12547" d="M945.734-45.926a.762.762,0,0,1-.693-.448.761.761,0,0,1,.381-1.005c3.589-1.615,4.713-6.266,3.726-9.83-.26-.94-1.334-3.981-4.021-3.663-3.142.369-4.521,3.26-4.215,8.836.012.218.021.383.021.485a.76.76,0,0,1-.76.76.759.759,0,0,1-.76-.76c0-.085-.009-.222-.018-.4-.354-6.444,1.514-9.953,5.554-10.429,2.609-.306,4.766,1.521,5.664,4.767,1.142,4.125-.071,9.6-4.567,11.621A.754.754,0,0,1,945.734-45.926Z" transform="translate(-939.353 62.415)" fill="#080000"/>
    </g>
    <g id="그룹_1016" data-name="그룹 1016" transform="translate(17.825 6.297)">
      <g id="그룹_1014" data-name="그룹 1014" transform="translate(0 0)">
        <g id="그룹_998" data-name="그룹 998" transform="translate(13.401 40.665)">
          <path id="패스_12548" data-name="패스 12548" d="M957.243-81.837a15.348,15.348,0,0,0-1.587,10.487c.326,1.894-.171,7.675,2.362,8.313" transform="translate(-954.615 82.598)" fill="#717873"/>
          <path id="패스_12549" data-name="패스 12549" d="M958.063-62.232a.755.755,0,0,1-.187-.023c-2.483-.625-2.662-4.4-2.791-7.151a17.552,17.552,0,0,0-.134-1.77,16.144,16.144,0,0,1,1.679-11,.76.76,0,0,1,1.039-.274.761.761,0,0,1,.275,1.039,14.45,14.45,0,0,0-1.495,9.976,17.89,17.89,0,0,1,.154,1.956c.095,2.019.254,5.4,1.645,5.749a.762.762,0,0,1,.552.924A.761.761,0,0,1,958.063-62.232Z" transform="translate(-954.659 82.554)" fill="#080000"/>
        </g>
        <g id="그룹_1013" data-name="그룹 1013">
          <g id="그룹_999" data-name="그룹 999" transform="translate(0 19.796)">
            <path id="패스_12550" data-name="패스 12550" d="M957.451-73.274,955.57-71.2s-4.61,3.961-8.633.643a8.046,8.046,0,0,1-3.011-7.659c-2.771-4.1.192-8.122.192-8.122a8.92,8.92,0,0,1,6.235-7.795,10.754,10.754,0,0,1,6.893-5.788s4.253-2.44,6.085-1.25" transform="translate(-941.993 102.254)" fill="#fff"/>
            <path id="패스_12551" data-name="패스 12551" d="M950.557-68.446a6.241,6.241,0,0,1-4.059-1.484,8.813,8.813,0,0,1-3.329-8.084c-2.423-3.888-.291-7.692.26-8.554a9.762,9.762,0,0,1,6.428-8.149,11.481,11.481,0,0,1,7.154-5.88c.8-.444,4.728-2.5,6.777-1.171a.76.76,0,0,1,.224,1.051.76.76,0,0,1-1.051.224c-1.092-.711-4.038.55-5.292,1.271a.776.776,0,0,1-.223.084,10.1,10.1,0,0,0-6.362,5.373.766.766,0,0,1-.5.41,8.1,8.1,0,0,0-5.666,7.141.767.767,0,0,1-.144.366c-.105.147-2.6,3.656-.175,7.246a.758.758,0,0,1,.112.6,7.244,7.244,0,0,0,2.754,6.9c3.476,2.861,7.487-.49,7.655-.635l1.814-2a.761.761,0,0,1,1.073-.052.76.76,0,0,1,.051,1.074l-1.882,2.069A9.14,9.14,0,0,1,950.557-68.446Z" transform="translate(-942.037 102.21)" fill="#080000"/>
          </g>
          <g id="그룹_1000" data-name="그룹 1000" transform="translate(12.394 7.526)">
            <path id="패스_12552" data-name="패스 12552" d="M958.764-92.85a12.551,12.551,0,0,1,3.62-7.657s3.9-7.922,9.091-7.867a15.974,15.974,0,0,1,9.5-3.2s5.643-3.091,10.406-.3c0,0,5.837-1.233,9.3,2.077,0,0,6.829.149,8.616,4.976a10.039,10.039,0,0,1,5.943,5.3,11.108,11.108,0,0,1,4.226,6.618s4.914,3.841,3.42,8.606a11.329,11.329,0,0,1,1.971,9.884,9.433,9.433,0,0,1-2.359,8.234s-1.437,6.1-5.714,8.584c0,0-2.144,4.992-7.6,4.976,0,0-4.634,3.789-10.12,3.552,0,0-5.337,2.689-10.789.8a11.44,11.44,0,0,1-9.039-.3h0s-5.914.584-10.22-2.81c0,0-3.012-.1-5.982-3.682-2.724-3.286-6.845-6.517-8.107-10.907-1.141-3.969-.418-13.416,2.73-16.221" transform="translate(-953.667 113.812)" fill="#fff"/>
            <path id="패스_12553" data-name="패스 12553" d="M984.106-46.674a11.739,11.739,0,0,1-4.961-1.085c-1.135.073-6.321.22-10.37-2.847-.854-.11-3.6-.708-6.274-3.932-.715-.862-1.522-1.716-2.378-2.619-2.409-2.543-4.9-5.171-5.875-8.562-1.238-4.309-.37-14.036,2.955-17a.76.76,0,0,1,1.073.062.761.761,0,0,1-.062,1.073c-2.8,2.492-3.615,11.581-2.5,15.443.873,3.034,3.234,5.528,5.518,7.938.873.922,1.7,1.793,2.444,2.693,2.686,3.24,5.317,3.4,5.427,3.408a.778.778,0,0,1,.439.162,13.535,13.535,0,0,0,6.928,2.585.756.756,0,0,1-.024-.188.774.774,0,0,1,.076-.329.755.755,0,0,1,1.015-.354l2.084,1.008a10.691,10.691,0,0,0,8.4.294.759.759,0,0,1,.563-.025c5.071,1.76,10.148-.734,10.2-.759a.79.79,0,0,1,.374-.081c5.125.231,9.563-3.346,9.606-3.381a.762.762,0,0,1,.481-.171h.026c4.878,0,6.854-4.471,6.874-4.516a.752.752,0,0,1,.316-.357c3.936-2.291,5.344-8.043,5.357-8.1a.771.771,0,0,1,.174-.331,8.694,8.694,0,0,0,2.189-7.532.762.762,0,0,1,.005-.412,10.591,10.591,0,0,0-1.824-9.179.762.762,0,0,1-.145-.718c1.318-4.2-3.117-7.745-3.162-7.78a.76.76,0,0,1-.276-.445,10.445,10.445,0,0,0-3.9-6.14.758.758,0,0,1-.279-.341,9.284,9.284,0,0,0-5.457-4.858.763.763,0,0,1-.5-.466c-1.583-4.277-7.855-4.477-7.919-4.479a.756.756,0,0,1-.506-.21c-3.13-2.986-8.568-1.894-8.622-1.882a.763.763,0,0,1-.542-.088c-4.322-2.534-9.6.282-9.658.311a.773.773,0,0,1-.361.092,15.268,15.268,0,0,0-9.019,3.026.83.83,0,0,1-.5.178h-.045c-4.626,0-8.317,7.368-8.354,7.443a.75.75,0,0,1-.161.217,11.877,11.877,0,0,0-3.381,7.148.759.759,0,0,1-.8.713.76.76,0,0,1-.714-.8,13.256,13.256,0,0,1,3.76-8.072c.544-1.059,4.29-7.974,9.44-8.164a16.819,16.819,0,0,1,9.586-3.205c1.024-.517,6.141-2.837,10.728-.339,1.254-.209,6.181-.8,9.481,2.129,1.372.087,6.985.715,8.879,5.115a10.69,10.69,0,0,1,5.984,5.408,11.914,11.914,0,0,1,4.3,6.695c.973.836,4.7,4.388,3.568,8.863a11.976,11.976,0,0,1,1.92,10.068,10.2,10.2,0,0,1-2.451,8.577c-.287,1.081-1.847,6.3-5.817,8.751a9.247,9.247,0,0,1-7.922,5.2c-1,.754-5.213,3.7-10.226,3.561a15.974,15.974,0,0,1-10.923.842A12.312,12.312,0,0,1,984.106-46.674Z" transform="translate(-953.711 113.767)" fill="#080000"/>
          </g>
          <g id="그룹_1001" data-name="그룹 1001" transform="translate(33.013 33.53)">
            <path id="패스_12554" data-name="패스 12554" d="M976.608-87.454a1.931,1.931,0,0,1-1.431,2.3,1.928,1.928,0,0,1-2.019-1.8,1.93,1.93,0,0,1,1.428-2.3A1.931,1.931,0,0,1,976.608-87.454Z" transform="translate(-973.132 89.274)" fill="#080000"/>
          </g>
          <g id="그룹_1004" data-name="그룹 1004" transform="translate(36.339 36.469)">
            <g id="그룹_1002" data-name="그룹 1002" transform="translate(2.171)">
              <path id="패스_12555" data-name="패스 12555" d="M984.079-83.016a8.272,8.272,0,0,1-3.223.236c-2.415-.45-3.633-2.69-1.279-3.388,1.581-.468,6.454-.745,6.688,1.237C986.376-83.98,985.33-83.354,984.079-83.016Z" transform="translate(-978.31 86.506)" fill="#080000"/>
            </g>
            <g id="그룹_1003" data-name="그룹 1003" transform="translate(0 2.603)">
              <path id="패스_12556" data-name="패스 12556" d="M985.165-78.027a4.267,4.267,0,0,1-2.006-.505,2.459,2.459,0,0,1-.964-.906,2.761,2.761,0,0,1-1.319.857,3.458,3.458,0,0,1-2.671-.453,3.981,3.981,0,0,1-1.922-2.357.76.76,0,0,1,.573-.91.763.763,0,0,1,.91.573,2.513,2.513,0,0,0,1.2,1.379,1.992,1.992,0,0,0,1.468.312c1.006-.3,1.19-1.662,1.192-2.614,0-.2-.008-.389-.02-.567v-.02a.76.76,0,0,1,.7-.814.759.759,0,0,1,.816.7h0v.013q.027.384.025.743c0,.056,0,.111,0,.169.013,1.276.071,2.206.716,2.549a2.716,2.716,0,0,0,2.614-.012,2.949,2.949,0,0,0,1.571-2.235.754.754,0,0,1,.833-.678.759.759,0,0,1,.678.833,4.479,4.479,0,0,1-2.367,3.421A4.3,4.3,0,0,1,985.165-78.027Z" transform="translate(-976.265 84.054)" fill="#080000"/>
            </g>
          </g>
          <g id="그룹_1005" data-name="그룹 1005" transform="translate(65.842 17.812)">
            <path id="패스_12557" data-name="패스 12557" d="M1011.942-103.205s5.866-1.542,9.246,4.615a12.779,12.779,0,0,1,6.75,6.5s5.414,5.864,3.446,12.377c0,0,2.8,5-2.72,9.944a7.6,7.6,0,0,1-9.373.534,7.525,7.525,0,0,1-6.736-5.687c-.344-1.17-1.485-2.365-1.962-3.543-.844-2.082-.6-4.118-1.237-6.126-.467-1.47-.808-.949-1.625-2.086-3-4.172-4.292-11.183-1.138-15.55" transform="translate(-1004.01 104.122)" fill="#fff"/>
            <path id="패스_12558" data-name="패스 12558" d="M1023.633-67.043a8.357,8.357,0,0,1-4.55-1.4,8.361,8.361,0,0,1-7.214-6.216,7.236,7.236,0,0,0-.941-1.725,10.426,10.426,0,0,1-1-1.746,13.324,13.324,0,0,1-.782-3.593,13.811,13.811,0,0,0-.475-2.588c-.2-.637-.311-.718-.55-.895a3.948,3.948,0,0,1-.967-.978c-3.191-4.436-4.489-11.8-1.137-16.439a.759.759,0,0,1,1.061-.172.76.76,0,0,1,.171,1.062c-2.91,4.032-1.675,10.751,1.139,14.662a2.534,2.534,0,0,0,.637.643,2.725,2.725,0,0,1,1.1,1.657,15.111,15.111,0,0,1,.534,2.868,12.092,12.092,0,0,0,.683,3.2,9.344,9.344,0,0,0,.858,1.483,8.416,8.416,0,0,1,1.129,2.132,6.735,6.735,0,0,0,6.025,5.142.762.762,0,0,1,.4.126,6.877,6.877,0,0,0,8.432-.454c4.984-4.471,2.678-8.839,2.577-9.022a.767.767,0,0,1-.064-.588c1.822-6.028-3.224-11.586-3.277-11.642a.793.793,0,0,1-.144-.227,12.114,12.114,0,0,0-6.314-6.078.765.765,0,0,1-.4-.345c-3.056-5.571-8.332-4.26-8.387-4.246a.757.757,0,0,1-.928-.543.759.759,0,0,1,.543-.928,9.183,9.183,0,0,1,9.972,4.746,13.429,13.429,0,0,1,6.87,6.694c.747.851,5.331,6.4,3.6,12.726.532,1.238,2.082,5.994-3.021,10.572A8.943,8.943,0,0,1,1023.633-67.043Z" transform="translate(-1004.054 104.079)" fill="#080000"/>
          </g>
          <g id="그룹_1006" data-name="그룹 1006" transform="translate(21.295 38.089)">
            <path id="패스_12559" data-name="패스 12559" d="M971.91-80.749a4.933,4.933,0,0,1-4.179,5.585,4.934,4.934,0,0,1-5.585-4.179,4.933,4.933,0,0,1,4.178-5.587A4.932,4.932,0,0,1,971.91-80.749Z" transform="translate(-962.095 84.98)" fill="#f09391"/>
          </g>
          <g id="그룹_1007" data-name="그룹 1007" transform="translate(55.511 39.227)">
            <path id="패스_12560" data-name="패스 12560" d="M1004.137-79.678a4.931,4.931,0,0,1-4.179,5.584,4.93,4.93,0,0,1-5.584-4.178,4.932,4.932,0,0,1,4.178-5.586A4.933,4.933,0,0,1,1004.137-79.678Z" transform="translate(-994.323 83.908)" fill="#f09391"/>
          </g>
          <g id="그룹_1008" data-name="그룹 1008" transform="translate(31.176 29.7)">
            <path id="패스_12561" data-name="패스 12561" d="M972.161-90.834a.761.761,0,0,1-.752-.655.76.76,0,0,1,.648-.858c.4-.055.793-.121,1.188-.186a13.1,13.1,0,0,1,4.84-.188.76.76,0,0,1,.585.9.758.758,0,0,1-.9.586,11.777,11.777,0,0,0-4.277.2c-.407.067-.815.134-1.223.191A.734.734,0,0,1,972.161-90.834Z" transform="translate(-971.402 92.882)" fill="#080000"/>
          </g>
          <g id="그룹_1011" data-name="그룹 1011" transform="translate(48.979 30.099)">
            <g id="그룹_1009" data-name="그룹 1009" transform="translate(1.337 3.817)">
              <path id="패스_12562" data-name="패스 12562" d="M992.913-86.874a1.932,1.932,0,0,1-1.7,2.113A1.929,1.929,0,0,1,989.43-86.8a1.931,1.931,0,0,1,1.7-2.111A1.93,1.93,0,0,1,992.913-86.874Z" transform="translate(-989.43 88.91)" fill="#080000"/>
            </g>
            <g id="그룹_1010" data-name="그룹 1010">
              <path id="패스_12563" data-name="패스 12563" d="M996.04-90.228a.763.763,0,0,1-.272-.051,16.636,16.636,0,0,0-6.383-.692l-.445.006h-.011a.76.76,0,0,1-.76-.748.759.759,0,0,1,.749-.771l.444-.006a17.982,17.982,0,0,1,6.949.792.76.76,0,0,1,.438.981A.759.759,0,0,1,996.04-90.228Z" transform="translate(-988.17 92.506)" fill="#080000"/>
            </g>
          </g>
          <g id="그룹_1012" data-name="그룹 1012" transform="translate(16.405)">
            <path id="패스_12564" data-name="패스 12564" d="M1009.082-96.816c.372.1-2.285,2.555-2.562,2.708a8.447,8.447,0,0,1-3.869.907c-2.1.042-6.191-.685-6.618-3.338a4.513,4.513,0,0,1-4.67,2.8c-2-.074-5.028-1.184-4.928-3.788-1.187,4.511-10.991,4.99-11.275-.329-1.373,1.376-2.813,3.049-4.98,2.828a3.631,3.631,0,0,1-3.3-3.636c-3.4.725-6.954.392-8.31-3.312a4.173,4.173,0,0,1,.079-3.571,6.948,6.948,0,0,1,5.205-2.664c.1.08.093.086-.009.02-2.148-2.117.491-4.893,2.375-5.852a15.788,15.788,0,0,1,7.581-1.327c.548-1.67,3.3-2.985,4.928-3.358,2.394-.545,3.274.6,5.269,1.408,2.777-4.452,9.014-3.061,11.865.241a5.511,5.511,0,0,1,8.521,1.467c2.784-2.164,8.306-.055,7.354,3.8,2.322-.443,7.2,2.024,4.06,4.4,2.744,2.329,3.1,4.549.734,7.511C1014.851-97.794,1011.838-96.06,1009.082-96.816Z" transform="translate(-957.444 120.9)" fill="#fff"/>
            <path id="패스_12565" data-name="패스 12565" d="M1002.505-92.395c-2.184,0-5.212-.677-6.545-2.486a5.192,5.192,0,0,1-4.579,1.943,7.045,7.045,0,0,1-4.658-1.9,3.942,3.942,0,0,1-.49-.649,8.16,8.16,0,0,1-6.7,2.233c-2.369-.242-4.082-1.37-4.767-3.051-1.185,1.147-2.656,2.27-4.622,2.07a4.412,4.412,0,0,1-3.911-3.49c-5.353.855-7.489-1.638-8.337-3.954a4.923,4.923,0,0,1,.14-4.222,7.478,7.478,0,0,1,4.514-2.875,3.061,3.061,0,0,1-.189-1.655c.283-1.823,2.04-3.482,3.553-4.253a15.708,15.708,0,0,1,7.433-1.411c.97-1.771,3.646-2.972,5.253-3.338a5.52,5.52,0,0,1,4.358.785c.261.138.527.279.81.415a6.524,6.524,0,0,1,4.864-2.606,9.945,9.945,0,0,1,7.344,2.766,6.386,6.386,0,0,1,4.87-1.012,5.959,5.959,0,0,1,3.838,2.445,6.094,6.094,0,0,1,5.881.426,4.243,4.243,0,0,1,2.081,3.638c1.828.1,4.1,1.151,4.775,2.662a2.271,2.271,0,0,1-.458,2.542c2.512,2.469,2.571,5.026.205,7.989-1.653,2.069-4.675,3.943-7.628,3.473a15.946,15.946,0,0,1-2.61,2.509,9.077,9.077,0,0,1-4.219,1Zm-6.426-4.86a.711.711,0,0,1,.116.009.76.76,0,0,1,.635.631c.341,2.122,4.122,2.734,5.852,2.7a7.7,7.7,0,0,0,3.518-.813,20.965,20.965,0,0,0,2.172-2.119.707.707,0,0,1,.023-.124.755.755,0,0,1,.933-.532c2.483.682,5.188-.985,6.654-2.822,2.053-2.572,1.881-4.323-.633-6.457a.76.76,0,0,1-.268-.6.763.763,0,0,1,.3-.585c.927-.7.726-1.152.652-1.322-.453-1.017-2.757-1.986-4.111-1.728a.757.757,0,0,1-.694-.224.757.757,0,0,1-.186-.7,2.689,2.689,0,0,0-1.3-2.985,4.376,4.376,0,0,0-4.844-.036.76.76,0,0,1-.64.14.753.753,0,0,1-.51-.41,4.378,4.378,0,0,0-3.182-2.347,4.811,4.811,0,0,0-4.143,1.112.758.758,0,0,1-.557.2.752.752,0,0,1-.531-.262,8.3,8.3,0,0,0-6.578-2.777,5.089,5.089,0,0,0-4.068,2.442.761.761,0,0,1-.929.3,15.558,15.558,0,0,1-1.508-.727,4.059,4.059,0,0,0-3.308-.643c-1.518.346-3.951,1.561-4.375,2.853a.76.76,0,0,1-.722.523h0c-2.582-.011-4.929.072-7.232,1.244a5.256,5.256,0,0,0-2.741,3.131,1.615,1.615,0,0,0,.441,1.384.559.559,0,0,1,.071.052.858.858,0,0,1,.2,1.1.824.824,0,0,1-.871.251,6.257,6.257,0,0,0-4.366,2.291,3.486,3.486,0,0,0-.017,2.92c.994,2.719,3.5,3.67,7.438,2.831a.752.752,0,0,1,.646.161.758.758,0,0,1,.272.609,2.876,2.876,0,0,0,2.618,2.852c1.636.168,2.8-1.018,4.031-2.271l.335-.337a.756.756,0,0,1,.81-.174.762.762,0,0,1,.487.67c.135,2.531,2.886,3.008,3.726,3.093,2.469.254,5.5-.79,6.056-2.916a.757.757,0,0,1,.846-.558.761.761,0,0,1,.649.781,2.112,2.112,0,0,0,.6,1.588,5.516,5.516,0,0,0,3.6,1.41,3.761,3.761,0,0,0,3.962-2.379A.761.761,0,0,1,996.079-97.255Z" transform="translate(-957.488 120.856)" fill="#080000"/>
          </g>
        </g>
      </g>
      <g id="그룹_1015" data-name="그룹 1015" transform="translate(39.135 39.816)">
        <path id="패스_12566" data-name="패스 12566" d="M982.195-81.679h0a2.473,2.473,0,0,1-2.636,2.095c.252,5.239,2.314,5.353,4.05,4.427s1.176-3.915,1.176-3.915A2.735,2.735,0,0,1,982.195-81.679Z" transform="translate(-978.857 83.394)" fill="#ec688a"/>
        <path id="패스_12567" data-name="패스 12567" d="M982.134-73.974a2.463,2.463,0,0,1-1.228-.315c-1.214-.689-1.871-2.4-2.007-5.221a.7.7,0,0,1,.216-.538.707.707,0,0,1,.545-.193,1.728,1.728,0,0,0,1.888-1.522h0l.187-1.015a.7.7,0,0,1,.817-.562.7.7,0,0,1,.573.688.643.643,0,0,1-.013.127l-.171.928a2.013,2.013,0,0,0,1.926,1.869.708.708,0,0,1,.649.57c.027.143.629,3.51-1.535,4.663A3.941,3.941,0,0,1,982.134-73.974Zm-1.789-4.914c.215,2.427.863,3.161,1.252,3.381a1.806,1.806,0,0,0,1.723-.227c.9-.48.928-1.925.873-2.687a3.483,3.483,0,0,1-2.085-1.389A3.152,3.152,0,0,1,980.345-78.889Z" transform="translate(-978.898 83.354)" fill="#080000"/>
      </g>
    </g>
    <g id="그룹_431" data-name="그룹 431" transform="translate(22.487 64.87)">
      <g id="그룹_427" data-name="그룹 427" transform="translate(0.818 0.816)">
        <g id="그룹_426" data-name="그룹 426">
          <g id="그룹_425" data-name="그룹 425">
            <g id="선_2" data-name="선 2">
              <line id="선_16" data-name="선 16" x2="5.135" y2="12.563" fill="none"/>
            </g>
          </g>
        </g>
      </g>
      <g id="그룹_430" data-name="그룹 430" transform="translate(0 0)">
        <g id="그룹_429" data-name="그룹 429">
          <g id="그룹_428" data-name="그룹 428">
            <g id="패스_11810" data-name="패스 11810">
              <path id="패스_12568" data-name="패스 12568" d="M952.381-51.488a.818.818,0,0,1-.757-.507L946.488-64.56a.819.819,0,0,1,.448-1.066.817.817,0,0,1,1.066.448l5.136,12.565a.816.816,0,0,1-.448,1.065h0A.813.813,0,0,1,952.381-51.488Z" transform="translate(-946.428 65.686)" fill="#0c0c0c"/>
            </g>
          </g>
        </g>
      </g>
    </g>
    <g id="그룹_1017" data-name="그룹 1017" transform="translate(0 31.15)">
      <path id="패스_12569" data-name="패스 12569" d="M929.149-71.941a.518.518,0,0,1,.176.5,8.632,8.632,0,0,0-.148,2.541,8.687,8.687,0,0,0,8.838,7.906h.019a26.894,26.894,0,0,0,6.809-1.02,23.23,23.23,0,0,0,5.916-2.541,17.568,17.568,0,0,0,5.319-4.988c.01-.013.019-.027.03-.038A8.614,8.614,0,0,0,958.1-75.92a8.642,8.642,0,0,0-4.656-6.94.516.516,0,0,1-.278-.481,8.784,8.784,0,0,0-.025-1.159,8.686,8.686,0,0,0-8.861-7.905.52.52,0,0,1-.45-.24,8.65,8.65,0,0,0-7.319-4.032c-.258,0-.516.012-.776.035a8.613,8.613,0,0,0-5.886,3.073,8.615,8.615,0,0,0-1.99,6.334,8.715,8.715,0,0,0,.511,2.262.518.518,0,0,1-.1.528,8.7,8.7,0,0,0-2.22,6.6A8.611,8.611,0,0,0,929.149-71.941Z" transform="translate(-925.2 97.495)" fill="#f6d4d7"/>
      <path id="패스_12570" data-name="패스 12570" d="M937.839-60.124a9.5,9.5,0,0,1-9.429-8.654,9.374,9.374,0,0,1,.128-2.6,9.416,9.416,0,0,1-3.254-6.348,9.521,9.521,0,0,1,2.308-7.083,9.579,9.579,0,0,1-.5-2.3,9.43,9.43,0,0,1,2.177-6.932,9.429,9.429,0,0,1,6.439-3.362,9.451,9.451,0,0,1,8.767,4.231h.085A9.5,9.5,0,0,1,954-84.525a9.547,9.547,0,0,1,.035,1.077,9.454,9.454,0,0,1,4.925,7.5,9.428,9.428,0,0,1-2.183,6.938,18.351,18.351,0,0,1-5.546,5.2,24.1,24.1,0,0,1-6.124,2.631,27.541,27.541,0,0,1-7.044,1.051C937.992-60.124,937.917-60.124,937.839-60.124Zm-8.121-12.4a1.334,1.334,0,0,1,.453,1.3,7.81,7.81,0,0,0-.134,2.3,7.884,7.884,0,0,0,8.005,7.161,26.164,26.164,0,0,0,6.627-.991,22.48,22.48,0,0,0,5.709-2.449,16.769,16.769,0,0,0,5.074-4.756l.077-.1a7.818,7.818,0,0,0,1.808-5.746,7.832,7.832,0,0,0-4.218-6.287,1.335,1.335,0,0,1-.719-1.245,8.139,8.139,0,0,0-.023-1.048,7.868,7.868,0,0,0-7.819-7.164c-.07,0-.137,0-.207,0a1.356,1.356,0,0,1-1.161-.619,7.831,7.831,0,0,0-7.334-3.621A7.8,7.8,0,0,0,930.526-93a7.814,7.814,0,0,0-1.8,5.737,7.957,7.957,0,0,0,.463,2.05,1.331,1.331,0,0,1-.262,1.361,7.886,7.886,0,0,0-2.012,5.977,7.806,7.806,0,0,0,2.807,5.351Zm-1.045,1.257Zm25.359-12v0Z" transform="translate(-925.247 97.447)" fill="#0f0f0f"/>
    </g>
    <g id="그룹_1018" data-name="그룹 1018" transform="translate(118.212 94.654)">
      <path id="패스_12571" data-name="패스 12571" d="M1083.17-29.643c.849,1.884,1.214,8.869-9.78,14.032,0,0,3.042,12.224,2.369,13.667s-6.8,7.619-12.688,4.8c-2.213-1.058,2.019-4.713,2.019-4.713l-6.829-5.77s-12.6,6.347-16.348,6.347c-1.961,0-4.163-1.67-4.6-12.694-.182-4.557,5.856-5.806,7.107-1.094.576-.1,3.279-2.734,3.279-2.734s-5.272-8.661-5.848-16.547S1083.17-29.643,1083.17-29.643Z" transform="translate(-1036.548 37.675)" fill="#fff"/>
      <path id="패스_12572" data-name="패스 12572" d="M1066.31,4.389a8.073,8.073,0,0,1-3.523-.8,1.737,1.737,0,0,1-1.054-1.368c-.183-1.367,1.313-3.075,2.257-4l-5.794-4.9c-2.326,1.153-12.723,6.2-16.24,6.2-3.335,0-4.989-4.139-5.359-13.422a4.461,4.461,0,0,1,3.752-4.816,4.2,4.2,0,0,1,4.51,2.558c.493-.408,1.233-1.072,1.926-1.731-1.158-2.02-5.14-9.408-5.648-16.36a2.489,2.489,0,0,1,.965-2.2c5.543-4.452,37.683,5.029,41.33,6.126a.756.756,0,0,1,.471.413c.976,2.161,1.246,9.426-9.587,14.759.989,4.024,2.848,12.125,2.174,13.57-.568,1.215-3.435,4.128-6.891,5.366A9.74,9.74,0,0,1,1066.31,4.389Zm-8.005-12.726a.75.75,0,0,1,.489.179l6.829,5.769a.752.752,0,0,1,.267.574.755.755,0,0,1-.262.576c-1.224,1.061-2.479,2.62-2.393,3.254,0,.041.014.111.206.2a7.118,7.118,0,0,0,5.647.14,13,13,0,0,0,6.03-4.581c.3-.93-.992-7.429-2.417-13.164a.755.755,0,0,1,.412-.867c10.686-5.019,9.855-11.306,9.5-12.737-9.984-2.974-35.443-9.583-39.563-6.28a.985.985,0,0,0-.4.912c.555,7.608,5.688,16.124,5.741,16.209a.759.759,0,0,1-.118.935c-2.874,2.8-3.485,2.906-3.685,2.939a.756.756,0,0,1-.857-.552,2.824,2.824,0,0,0-3.152-2.391,2.988,2.988,0,0,0-2.466,3.259c.48,11.968,3.014,11.968,3.848,11.968,2.928,0,12.549-4.523,16.009-6.266A.753.753,0,0,1,1058.305-8.337Z" transform="translate(-1036.592 37.632)"/>
    </g>
    <g id="그룹_1019" data-name="그룹 1019" transform="translate(125.323 116.508)">
      <path id="패스_12573" data-name="패스 12573" d="M1044.527-11.266a.885.885,0,0,1-.091-.005.757.757,0,0,1-.662-.842,8.611,8.611,0,0,0-.427-3.89.756.756,0,0,1,.411-.987.757.757,0,0,1,.988.412,10.1,10.1,0,0,1,.531,4.645A.756.756,0,0,1,1044.527-11.266Z" transform="translate(-1043.29 17.048)"/>
    </g>
    <g id="그룹_1020" data-name="그룹 1020" transform="translate(139.073 116.021)">
      <line id="선_17" data-name="선 17" y1="7.927" x2="15.163" transform="translate(0.757 0.757)" fill="#d27eb6"/>
      <path id="패스_12574" data-name="패스 12574" d="M1057-8.066a.758.758,0,0,1-.672-.406.756.756,0,0,1,.321-1.021l15.163-7.928a.756.756,0,0,1,1.021.321.756.756,0,0,1-.32,1.021l-15.163,7.926A.74.74,0,0,1,1057-8.066Z" transform="translate(-1056.241 17.506)"/>
    </g>
    <g id="그룹_1021" data-name="그룹 1021" transform="translate(128.604 107.578)">
      <line id="선_18" data-name="선 18" y1="6.196" x2="7.107" transform="translate(0.756 0.757)" fill="#896651"/>
      <path id="패스_12575" data-name="패스 12575" d="M1047.137-17.749a.752.752,0,0,1-.57-.26.757.757,0,0,1,.072-1.068l7.105-6.195a.756.756,0,0,1,1.069.073.757.757,0,0,1-.072,1.068l-7.106,6.195A.758.758,0,0,1,1047.137-17.749Z" transform="translate(-1046.38 25.459)"/>
    </g>
    <g id="그룹_1022" data-name="그룹 1022" transform="translate(113.903 66.596)">
      <path id="패스_12576" data-name="패스 12576" d="M1084.393-49.152c-1.276-9.658-5.424-13.169-5.468-13.3l-32.468-.89c-.055.169-5.284,1.732-13.211,16.037,0,0,6.926,5.589,7.935,6.485l.009-.059c-.016,3.129.44,11.29,2.383,14.874a251.054,251.054,0,0,0,39.908-2.006,63.754,63.754,0,0,0-.729-12.208S1085.26-42.583,1084.393-49.152Z" transform="translate(-1032.49 64.105)" fill="#ff6464"/>
      <path id="패스_12577" data-name="패스 12577" d="M1050.436-25.1c-4.244,0-6.786-.11-6.855-.115a.754.754,0,0,1-.629-.395c-1.98-3.652-2.449-11.561-2.474-14.82-1.557-1.322-7.6-6.2-7.662-6.251a.757.757,0,0,1-.188-.956c4.647-8.385,9.383-14.148,13.337-16.227l.071-.038a.671.671,0,0,1,.487-.16l32.467.89a.754.754,0,0,1,.585.3c1.7,1.8,4.579,5.845,5.612,13.657h0c.74,5.6-.895,8.365-1.586,9.254a65.289,65.289,0,0,1,.679,12.011.757.757,0,0,1-.657.723A258.816,258.816,0,0,1,1050.436-25.1Zm-6.345-1.61a255.078,255.078,0,0,0,38.7-1.932,63.53,63.53,0,0,0-.734-11.408.753.753,0,0,1,.226-.685c.015-.016,2.2-2.254,1.408-8.28-.958-7.259-3.541-11.016-5.059-12.654l-31.921-.875-.036.019c-2.1,1.107-6.485,4.533-12.408,15.066,1.529,1.235,6.067,4.908,7.287,5.954a.712.712,0,0,1,.441.664C1041.972-37.045,1042.532-30.032,1044.091-26.7Z" transform="translate(-1032.533 64.06)"/>
    </g>
    <g id="그룹_1023" data-name="그룹 1023" transform="translate(122.129 80.581)">
      <path id="패스_12578" data-name="패스 12578" d="M1041.254-42.626h-.019a.972.972,0,0,1-.953-.992s.053-2.63.179-6.331a.992.992,0,0,1,1-.939.971.971,0,0,1,.939,1.005c-.124,3.682-.177,6.3-.177,6.3A.972.972,0,0,1,1041.254-42.626Z" transform="translate(-1040.281 50.888)"/>
    </g>
    <g id="그룹_1024" data-name="그룹 1024" transform="translate(104.36 0)">
      <path id="패스_12579" data-name="패스 12579" d="M1070.489-104.765s12.9-14.656,20.184-11.987,3.424,23.881,3.424,23.881,6.307,14.3.273,29.948c-1.8,4.68-7.425,18.751-40.134,16.151-28.494-3.866-30-24.514-29.979-29.529a35.109,35.109,0,0,1,12.889-27.1s5.335-23.67,13.02-22.64c6.968.934,9.694,19.887,9.694,19.887A33.9,33.9,0,0,1,1070.489-104.765Z" transform="translate(-1023.501 126.831)" fill="#fff"/>
      <path id="패스_12580" data-name="패스 12580" d="M1062.617-45.581c-3.454,0-6.411-.235-8.4-.393-28.577-3.875-30.7-24.162-30.675-30.286a36.288,36.288,0,0,1,12.969-27.53c.8-3.48,5.85-24.018,13.8-22.957,6.749.9,9.665,16.369,10.238,19.859a35.175,35.175,0,0,1,9.739,1.308c2.115-2.326,13.6-14.441,20.689-11.838,7.452,2.735,4.371,22.056,3.949,24.5a42.99,42.99,0,0,1,.194,30.31C1089.466-47.943,1073.557-45.581,1062.617-45.581Zm-12.9-79.693c-5.575,0-10.381,15.833-11.791,22.083a.757.757,0,0,1-.294.446,34.642,34.642,0,0,0-12.575,26.492c-.028,5.813,2.01,25.07,29.323,28.775,32.292,2.567,37.585-11.162,39.325-15.672,5.854-15.186-.2-29.23-.258-29.37a.747.747,0,0,1-.052-.442c1.039-5.726,2.537-21.024-2.941-23.034-5.579-2.038-15.859,7.809-19.354,11.776a.757.757,0,0,1-.786.225,33.541,33.541,0,0,0-10.365-1.36.754.754,0,0,1-.8-.648c-.736-5.114-3.8-18.541-9.045-19.244A2.861,2.861,0,0,0,1049.719-125.274Z" transform="translate(-1023.545 126.787)"/>
    </g>
    <g id="그룹_1027" data-name="그룹 1027" transform="translate(126.388 41.666)">
      <g id="그룹_1025" data-name="그룹 1025">
        <path id="패스_12581" data-name="패스 12581" d="M1048.835-84.672a2.306,2.306,0,0,1-2.8,1.672,2.3,2.3,0,0,1-1.672-2.8,2.308,2.308,0,0,1,2.8-1.673A2.307,2.307,0,0,1,1048.835-84.672Z" transform="translate(-1044.293 87.542)"/>
      </g>
      <g id="그룹_1026" data-name="그룹 1026" transform="translate(16.143 2.362)">
        <path id="패스_12582" data-name="패스 12582" d="M1064.039-82.447a2.307,2.307,0,0,1-2.8,1.673,2.308,2.308,0,0,1-1.671-2.8,2.306,2.306,0,0,1,2.8-1.673A2.308,2.308,0,0,1,1064.039-82.447Z" transform="translate(-1059.498 85.317)"/>
      </g>
    </g>
    <g id="그룹_1031" data-name="그룹 1031" transform="translate(125.75 46.769)">
      <g id="그룹_1028" data-name="그룹 1028" transform="translate(0 6.738)">
        <path id="패스_12583" data-name="패스 12583" d="M1055.786-71.058c-7.5,0-11.553-3.484-11.775-3.68a.944.944,0,0,1-.082-1.332.944.944,0,0,1,1.333-.082c.263.229,6.628,5.623,18.514,1.906a.945.945,0,0,1,1.184.619.946.946,0,0,1-.619,1.183A28.642,28.642,0,0,1,1055.786-71.058Z" transform="translate(-1043.692 76.389)"/>
      </g>
      <g id="그룹_1029" data-name="그룹 1029" transform="translate(8.4 0.438)">
        <path id="패스_12584" data-name="패스 12584" d="M1052.547-70.985h-.026a.942.942,0,0,1-.917-.969l.262-9.45a.992.992,0,0,1,.969-.917.944.944,0,0,1,.918.97l-.262,9.449A.945.945,0,0,1,1052.547-70.985Z" transform="translate(-1051.604 82.323)"/>
      </g>
      <g id="그룹_1030" data-name="그룹 1030" transform="translate(5.786 0)">
        <path id="패스_12585" data-name="패스 12585" d="M1052.668-76.673s3.285.423,4.007-2.457-2.413-3.49-3.476-3.583-4.256-.039-4.047,2.922S1052.668-76.673,1052.668-76.673Z" transform="translate(-1049.142 82.736)"/>
      </g>
    </g>
    <g id="그룹_1034" data-name="그룹 1034" transform="translate(123 9.022)">
      <g id="그룹_1032" data-name="그룹 1032" transform="translate(33.979 6.659)">
        <path id="패스_12586" data-name="패스 12586" d="M1086.138-94.768s2.2-15.979-1.165-16.465-10.56,9.007-10.881,10.022C1078.341-100.258,1083.663-96.909,1086.138-94.768Z" transform="translate(-1073.046 112.065)" fill="#f6d4d7"/>
        <path id="패스_12587" data-name="패스 12587" d="M1086.8-93.118l-1.139-.985c-2.361-2.043-7.548-5.335-11.687-6.263l-.869-.194.266-.848c.411-1.306,7.815-11.155,11.777-10.585,3.757.54,2.552,12.337,1.857,17.384Zm-11.4-8.561a35.783,35.783,0,0,1,10.169,5.407c.874-7.377.6-13.924-.656-14.1-.413-.057-2.014.065-5.781,4.1A43.115,43.115,0,0,0,1075.4-101.679Z" transform="translate(-1073.107 112.017)" fill="#0f0f0f"/>
      </g>
      <g id="그룹_1033" data-name="그룹 1033" transform="translate(0 0)">
        <path id="패스_12588" data-name="패스 12588" d="M1042.089-102.889s3.017-15.493,6.291-14.594,5.654,12.053,5.543,13.112A51.331,51.331,0,0,0,1042.089-102.889Z" transform="translate(-1041.041 118.337)" fill="#f6d4d7"/>
        <path id="패스_12589" data-name="패스 12589" d="M1041.1-101.733l.245-1.266c.259-1.328,2.618-13.035,5.719-14.959a1.968,1.968,0,0,1,1.592-.265c3.9,1.069,6.273,12.718,6.14,13.985l-.077.73h-.734a50.513,50.513,0,0,0-11.635,1.457Zm7.063-14.923a.466.466,0,0,0-.239.087c-1.725,1.071-3.69,7.856-4.719,12.637a53.275,53.275,0,0,1,9.906-1.2c-.391-2.762-2.651-10.9-4.889-11.518A.221.221,0,0,0,1048.166-116.656Z" transform="translate(-1041.102 118.289)" fill="#0f0f0f"/>
      </g>
    </g>
    <g id="그룹_1041" data-name="그룹 1041" transform="translate(108.128 79.742)">
      <g id="그룹_1040" data-name="그룹 1040" transform="translate(0 0)">
        <g id="그룹_1035" data-name="그룹 1035" transform="translate(25.203 1.938)">
          <path id="패스_12590" data-name="패스 12590" d="M1051.546-29.137l4.958.346,2.114-20-4.957-.346Z" transform="translate(-1050.789 49.896)" fill="#fff"/>
          <path id="패스_12591" data-name="패스 12591" d="M1056.55-27.991h-.054l-4.959-.346a.755.755,0,0,1-.526-.269.747.747,0,0,1-.173-.566l2.115-20a.739.739,0,0,1,.806-.674l4.957.346a.752.752,0,0,1,.527.269.748.748,0,0,1,.173.565l-2.113,20A.756.756,0,0,1,1056.55-27.991Zm-4.125-1.8,3.447.241,1.955-18.494-3.446-.24Z" transform="translate(-1050.833 49.852)"/>
        </g>
        <g id="그룹_1036" data-name="그룹 1036">
          <path id="패스_12592" data-name="패스 12592" d="M1027.806-30.964l25.2,1.94,2.114-20-25.2-1.939Z" transform="translate(-1027.05 51.722)" fill="#fff"/>
          <path id="패스_12593" data-name="패스 12593" d="M1053.056-28.223l-.06,0-25.2-1.94a.757.757,0,0,1-.523-.271A.757.757,0,0,1,1027.1-31l2.114-20a.757.757,0,0,1,.811-.676l25.2,1.941a.76.76,0,0,1,.524.27.755.755,0,0,1,.171.564l-2.114,20A.757.757,0,0,1,1053.056-28.223Zm-24.371-3.392,23.695,1.824,1.954-18.494-23.694-1.823Z" transform="translate(-1027.094 51.678)"/>
        </g>
        <g id="그룹_1037" data-name="그룹 1037" transform="translate(6.432 3.856)">
          <path id="패스_12594" data-name="패스 12594" d="M1033.879-39.679a7.987,7.987,0,0,1,5.437-7.1l.033-.55,2.442.141c.174,0,.347-.005.522.005a7.982,7.982,0,0,1,7.508,8.432,7.977,7.977,0,0,1-7.984,7.511v.023l-3.411-.2.033-.575A7.986,7.986,0,0,1,1033.879-39.679Z" transform="translate(-1033.108 48.09)" fill="#aeaeae"/>
          <path id="패스_12595" data-name="패스 12595" d="M1041.874-30.421h-.038l-3.411-.2a.761.761,0,0,1-.522-.253.768.768,0,0,1-.19-.549l.005-.079a8.7,8.7,0,0,1-4.551-8.179h0a8.7,8.7,0,0,1,5.465-7.6l0-.055a.786.786,0,0,1,.8-.711l2.443.141.07,0c.15,0,.3,0,.452.006a8.683,8.683,0,0,1,6.022,2.913,8.68,8.68,0,0,1,2.2,6.319,8.733,8.733,0,0,1-8.561,8.222A.714.714,0,0,1,1041.874-30.421Zm-2.626-1.667,2.495.144a.393.393,0,0,1,.139-.014h.019a7.219,7.219,0,0,0,7.208-6.8,7.181,7.181,0,0,0-1.816-5.225,7.179,7.179,0,0,0-4.98-2.408c-.119-.007-.232-.007-.35-.005h-.124l-1.762-.1a.758.758,0,0,1-.474.469,7.2,7.2,0,0,0-4.922,6.431,7.2,7.2,0,0,0,4.146,6.956A.761.761,0,0,1,1039.247-32.088Z" transform="translate(-1033.152 48.046)"/>
        </g>
        <g id="그룹_1038" data-name="그룹 1038" transform="translate(3.601 3.825)">
          <path id="패스_12596" data-name="패스 12596" d="M1031.213-39.842a7.981,7.981,0,0,0,7.507,8.432,7.985,7.985,0,0,0,8.434-7.507,7.985,7.985,0,0,0-7.509-8.433A7.983,7.983,0,0,0,1031.213-39.842Z" transform="translate(-1030.442 48.119)" fill="#fff"/>
          <path id="패스_12597" data-name="패스 12597" d="M1039.231-30.6c-.17,0-.34-.005-.511-.015a8.684,8.684,0,0,1-6.022-2.913,8.685,8.685,0,0,1-2.2-6.318h0a8.684,8.684,0,0,1,2.914-6.022,8.722,8.722,0,0,1,6.317-2.2,8.75,8.75,0,0,1,8.222,9.232A8.754,8.754,0,0,1,1039.231-30.6Zm-.013-15.968a7.179,7.179,0,0,0-4.8,1.83,7.175,7.175,0,0,0-2.407,4.978h0a7.176,7.176,0,0,0,1.817,5.225,7.176,7.176,0,0,0,4.978,2.408,7.223,7.223,0,0,0,7.635-6.8,7.236,7.236,0,0,0-6.8-7.632C1039.5-46.559,1039.359-46.563,1039.219-46.563Zm-7.962,6.765h0Z" transform="translate(-1030.486 48.076)"/>
        </g>
        <g id="그룹_1039" data-name="그룹 1039" transform="translate(6.886 7.108)">
          <path id="패스_12598" data-name="패스 12598" d="M1033.59-39.842a5.454,5.454,0,0,0,5.13,5.762,5.458,5.458,0,0,0,5.764-5.13,5.458,5.458,0,0,0-5.133-5.763A5.454,5.454,0,0,0,1033.59-39.842Z" transform="translate(-1033.58 44.983)"/>
        </g>
      </g>
    </g>
    <g id="그룹_1042" data-name="그룹 1042" transform="translate(133.618 84.355)">
      <path id="패스_12599" data-name="패스 12599" d="M1055.013-40.428c-3.866.015-4.472,7.164-.479,9.279s14.093-.429,17.208-1.977c7.9-3.924,10.038-9.4,10.038-9.4l-12.206-4.1S1067.076-39.807,1055.013-40.428Z" transform="translate(-1051.059 47.377)" fill="#fff"/>
      <path id="패스_12600" data-name="패스 12600" d="M1058.908-29.55a10.3,10.3,0,0,1-4.684-.886c-2.719-1.44-3.54-4.843-2.931-7.315.513-2.084,1.954-3.382,3.76-3.39a.187.187,0,0,1,.042,0c11.3.574,13.714-5.445,13.813-5.7a.764.764,0,0,1,.95-.453l12.207,4.1a.754.754,0,0,1,.445.4.756.756,0,0,1,.019.6c-.092.235-2.341,5.79-10.407,9.8A37.31,37.31,0,0,1,1058.908-29.55Zm-3.867-10.077c-1.562.019-2.113,1.57-2.278,2.238-.471,1.915.128,4.534,2.17,5.615,3.645,1.927,13.5-.487,16.516-1.986,5.847-2.9,8.441-6.711,9.311-8.277l-10.752-3.611C1069.007-43.844,1065.357-39.1,1055.041-39.627Z" transform="translate(-1051.103 47.333)"/>
    </g>
    <g id="그룹_1043" data-name="그룹 1043" transform="translate(104.338 86.836)">
      <path id="패스_12601" data-name="패스 12601" d="M1026.923-44.1c.807-.108,3.453-1.534,3.425,5.76-.007,1.639.448,5.628-3.36,6.289S1023.472-43.631,1026.923-44.1Z" transform="translate(-1023.48 45.04)" fill="#fff"/>
      <path id="패스_12602" data-name="패스 12602" d="M1026.745-31.224a2.409,2.409,0,0,1-1.888-.961c-1.685-2.07-1.668-7.212-.531-10.088.756-1.911,1.8-2.431,2.54-2.532h0c.059-.008.128-.027.209-.047a2.684,2.684,0,0,1,2.452.355c1.119.885,1.635,2.857,1.622,6.2,0,.142,0,.3.007.479.036,1.9.11,5.84-3.994,6.553A2.416,2.416,0,0,1,1026.745-31.224Zm.323-12.081c-.474.064-.962.643-1.335,1.587-1.04,2.635-.885,7.124.3,8.577a.846.846,0,0,0,.87.388c2.608-.452,2.783-2.734,2.739-5.032,0-.188-.007-.361-.006-.514.014-3.628-.649-4.7-1.048-5.011-.314-.248-.678-.184-1.158-.069-.138.033-.26.061-.36.074Z" transform="translate(-1023.524 44.996)"/>
    </g>
    <g id="그룹_1044" data-name="그룹 1044" transform="translate(156.865 26.645)">
      <path id="패스_12603" data-name="패스 12603" d="M1073.712-100.977c.331,1.126,21.017,21.027,25.566,16.512S1092-98.845,1092-98.845Z" transform="translate(-1072.955 101.734)" fill="#4a68d0"/>
      <path id="패스_12604" data-name="패스 12604" d="M1097.477-83a6.767,6.767,0,0,1-1.674-.235c-7.383-1.9-22.312-15.911-22.773-17.486a.756.756,0,0,1,.147-.7.742.742,0,0,1,.667-.264l18.289,2.132a.752.752,0,0,1,.4.171c.342.285,8.361,7.034,8.582,12.2a4.2,4.2,0,0,1-1.259,3.3A3.231,3.231,0,0,1,1097.477-83Zm-21.888-16.958c3.759,3.85,15.632,14.644,21.333,15.4a2.125,2.125,0,0,0,1.866-.406,2.721,2.721,0,0,0,.815-2.161c-.177-4.126-6.731-9.969-7.872-10.958Z" transform="translate(-1072.999 101.69)"/>
    </g>
    <g id="그룹_1045" data-name="그룹 1045" transform="translate(149.253 7.504)">
      <path id="패스_12605" data-name="패스 12605" d="M1066.542-106.689a37.189,37.189,0,0,0,30.281,13.971c-.119-.822,7.457-18.119-9.283-24.994C1072.842-123.751,1066.542-106.689,1066.542-106.689Z" transform="translate(-1065.785 119.764)" fill="#4a68d0"/>
      <path id="패스_12606" data-name="패스 12606" d="M1096.174-91.913a38.259,38.259,0,0,1-30.21-14.3.759.759,0,0,1-.089-.7c.13-.349,3.244-8.6,10.267-11.684,3.589-1.576,7.536-1.5,11.728.222,12.68,5.209,12.416,16.432,9.962,24.928-.107.363-.186.624-.21.764a.76.76,0,0,1-.18.493.758.758,0,0,1-.563.266C1096.644-91.915,1096.407-91.913,1096.174-91.913Zm-28.726-14.844a36.89,36.89,0,0,0,28.726,13.33h.079c.036-.124.077-.268.126-.434,3.319-11.495.264-19.269-9.082-23.107a13.1,13.1,0,0,0-10.538-.241C1071.133-114.744,1068.132-108.371,1067.448-106.757Z" transform="translate(-1065.829 119.72)"/>
    </g>
    <g id="그룹_1046" data-name="그룹 1046" transform="translate(154.945 45.618)">
      <path id="패스_12607" data-name="패스 12607" d="M1072.134-78.683a.944.944,0,0,1-.917-.726.944.944,0,0,1,.7-1.136l13.738-3.25a.947.947,0,0,1,1.138.7.945.945,0,0,1-.7,1.136l-13.739,3.25A.969.969,0,0,1,1072.134-78.683Z" transform="translate(-1071.191 83.82)"/>
    </g>
    <g id="그룹_1047" data-name="그룹 1047" transform="translate(154.945 56.178)">
      <path id="패스_12608" data-name="패스 12608" d="M1085.874-68.714a.925.925,0,0,1-.22-.027l-13.738-3.269a.945.945,0,0,1-.7-1.137.944.944,0,0,1,1.137-.7l13.739,3.27a.944.944,0,0,1,.7,1.136A.946.946,0,0,1,1085.874-68.714Z" transform="translate(-1071.191 73.873)"/>
    </g>
    <g id="그룹_1048" data-name="그룹 1048" transform="translate(107.901 41.426)">
      <path id="패스_12609" data-name="패스 12609" d="M1037.393-82.808a.853.853,0,0,1-.274-.046l-9.651-3.236a.861.861,0,0,1-.544-1.09.86.86,0,0,1,1.09-.543l9.652,3.236a.862.862,0,0,1,.544,1.09A.864.864,0,0,1,1037.393-82.808Z" transform="translate(-1026.879 87.768)"/>
    </g>
    <g id="그룹_1049" data-name="그룹 1049" transform="translate(107.293 52.014)">
      <path id="패스_12610" data-name="패스 12610" d="M1027.168-74.155a.862.862,0,0,1-.846-.7.86.86,0,0,1,.689-1l10.259-1.918a.86.86,0,0,1,1.005.688.862.862,0,0,1-.688,1.005l-10.259,1.917A.834.834,0,0,1,1027.168-74.155Z" transform="translate(-1026.307 77.795)"/>
    </g>
  </g>
</svg>
