<svg id="구성_요소_82_1" data-name="구성 요소 82 1" xmlns="http://www.w3.org/2000/svg" width="24.883" height="23.57" viewBox="0 0 24.883 23.57">
  <g id="선_2" data-name="선 2" transform="translate(0 21.634)">
    <path id="패스_1" data-name="패스 1" d="M-1052.109,895.89h-22.773a.969.969,0,0,1-.968-.968.969.969,0,0,1,.968-.968h22.773a.968.968,0,0,1,.968.968A.968.968,0,0,1-1052.109,895.89Z" transform="translate(1075.85 -893.954)" fill="#141414"/>
  </g>
  <g id="선_3" data-name="선 3">
    <path id="패스_2" data-name="패스 2" d="M-1052.109,876.89h-22.773a.969.969,0,0,1-.968-.968.969.969,0,0,1,.968-.968h22.773a.968.968,0,0,1,.968.968A.968.968,0,0,1-1052.109,876.89Z" transform="translate(1075.85 -874.954)" fill="#141414"/>
  </g>
  <g id="선_4" data-name="선 4" transform="translate(0 11.511)">
    <path id="패스_3" data-name="패스 3" d="M-1060.19,887h-14.692a.969.969,0,0,1-.968-.968.969.969,0,0,1,.968-.968h14.692a.968.968,0,0,1,.968.968A.968.968,0,0,1-1060.19,887Z" transform="translate(1075.85 -885.063)" fill="#141414"/>
  </g>
  <g id="선_5" data-name="선 5" transform="translate(18.755 11.511)">
    <path id="패스_4" data-name="패스 4" d="M-1054.219,887h-4.193a.968.968,0,0,1-.968-.968.969.969,0,0,1,.968-.968h4.193a.968.968,0,0,1,.968.968A.968.968,0,0,1-1054.219,887Z" transform="translate(1059.379 -885.063)" fill="#141414"/>
  </g>
</svg>
