<svg id="구성_요소_95_1" data-name="구성 요소 95 – 1" xmlns="http://www.w3.org/2000/svg" width="12.533" height="10.802" viewBox="0 0 12.533 10.802">
  <path id="패스_19677" data-name="패스 19677" d="M-141.522,179.128a3.1,3.1,0,0,0-3.2-2.983,3.168,3.168,0,0,0-3.1,2.238,3.166,3.166,0,0,0-3.094-2.238,3.146,3.146,0,0,0-2.845,1.7,3.293,3.293,0,0,0,.242,3.162,19.37,19.37,0,0,0,5.635,5.876s.082.062.082.06a50.7,50.7,0,0,0,4.04-3.824C-142.745,182.008-141.522,180.692-141.522,179.128Z" transform="translate(154.055 -176.145)" fill="#ff6464"/>
</svg>
