<svg xmlns="http://www.w3.org/2000/svg" width="20.138" height="19.237" viewBox="0 0 20.138 19.237">
  <g id="구성_요소_12_1" data-name="구성 요소 12 – 1" transform="translate(0 0)">
    <path id="패스_109" data-name="패스 109" d="M609.113,474.529l2.157,5.188a.86.86,0,0,0,.725.527l5.6.448a.86.86,0,0,1,.491,1.51l-4.267,3.655a.859.859,0,0,0-.277.852l1.3,5.465a.86.86,0,0,1-1.284.933l-4.8-2.929a.86.86,0,0,0-.9,0l-4.8,2.929a.859.859,0,0,1-1.284-.933l1.3-5.465a.859.859,0,0,0-.277-.852l-4.267-3.655a.86.86,0,0,1,.49-1.51l5.6-.448a.858.858,0,0,0,.724-.527l2.158-5.188A.859.859,0,0,1,609.113,474.529Z" transform="translate(-598.25 -474)" fill="#c1c1c1"/>
  </g>
</svg>
