<svg id="구성_요소_1_1" data-name="구성 요소 1 – 1" xmlns="http://www.w3.org/2000/svg" width="12.846" height="12.271" viewBox="0 0 12.846 12.271">
  <path id="패스_109" data-name="패스 109" d="M605.179,474.338l1.376,3.309a.548.548,0,0,0,.462.336l3.573.286a.548.548,0,0,1,.313.963l-2.722,2.332a.548.548,0,0,0-.177.544l.832,3.486a.548.548,0,0,1-.819.6l-3.059-1.868a.549.549,0,0,0-.571,0l-3.059,1.868a.548.548,0,0,1-.819-.6l.832-3.486a.548.548,0,0,0-.177-.544l-2.722-2.332a.548.548,0,0,1,.313-.963l3.573-.286a.547.547,0,0,0,.462-.336l1.377-3.309A.548.548,0,0,1,605.179,474.338Z" transform="translate(-598.25 -474)" fill="#ffb858"/>
</svg>
