<svg id="구성_요소_25_1" data-name="구성 요소 25 – 1" xmlns="http://www.w3.org/2000/svg" width="43.802" height="33.514" viewBox="0 0 43.802 33.514">
  <path id="패스_12777" data-name="패스 12777" d="M1894.679,1717.885a45.5,45.5,0,0,1,3.543-4.838,16.087,16.087,0,0,1,5.859-3.962,16.593,16.593,0,0,1,6.783-1.8c4.785.012,10.195,3.862,8.8,9.241a6.41,6.41,0,0,1-2,3.238c-2.05,1.758-4.491,2.122-7.091,2.22-2.984.112-4.645-1.606-5.931-4.078-4.576-8.8.642-22.652,10.879-24.307a21.825,21.825,0,0,1,13.385,2.587c4.39,2.487,5.9,7.008,6.088,11.817-.914.146-1.873.128-2.742.3s-1.564.674-2.386.868c.258-.061-.535-3.178-.63-3.474a12.026,12.026,0,0,0-1.508-3.109,10.029,10.029,0,0,0-5.383-4.015,11.987,11.987,0,0,0-1.657-.251,14.36,14.36,0,0,0-3.289.089,11.2,11.2,0,0,0-8.789,6.92,13.932,13.932,0,0,0-.349,5.642,8.088,8.088,0,0,0,2.35,5.448c.89.822,2.709.734,3.772.237a2.094,2.094,0,0,0,.575-2.983c-.663-.8-2.107-.861-3.074-.766a13.452,13.452,0,0,0-6.49,2.294,24.126,24.126,0,0,0-5.457,5.021c-1.371,1.762-3.482,4.295-3.328,6.685-.013-.207-1.1-.507-1.273-.561-.418-.13-.842-.214-1.257-.354a11.167,11.167,0,0,0-2.883-.773,6.092,6.092,0,0,1,.632-2,19.677,19.677,0,0,1,1.064-2.12c.422-.831.849-1.663,1.328-2.463Q1894.444,1718.258,1894.679,1717.885Z" transform="translate(-1891.193 -1693.386)" fill="#8cde59"/>
</svg>
