<svg id="구성_요소_2_1" data-name="구성 요소 2 – 1" xmlns="http://www.w3.org/2000/svg" width="84.24" height="137.062" viewBox="0 0 84.24 137.062">
  <g id="그룹_7152" data-name="그룹 7152" transform="translate(56.214 72.384)">
    <path id="패스_12531" data-name="패스 12531" d="M1081.534-31.369c6.329-.625,18.02-7.377,15.193-20.725-1.94-9.161,5.951-6.96,6.652.79,1.9,21.017-13.1,24.262-20.5,25.482S1075.2-30.744,1081.534-31.369Z" transform="translate(-1076.277 58.847)" fill="#fff"/>
    <path id="패스_12532" data-name="패스 12532" d="M1081.109-24.859a5.145,5.145,0,0,1-4.191-1.578,2.7,2.7,0,0,1-.358-2.8c.656-1.535,2.5-2.6,4.943-2.836a18.477,18.477,0,0,0,12.078-7.15,15.238,15.238,0,0,0,2.448-12.662c-.823-3.887.066-5.583.955-6.323a2.793,2.793,0,0,1,2.946-.315c1.861.773,3.9,3.3,4.25,7.2,2.034,22.484-14.8,25.256-21.132,26.3A11.955,11.955,0,0,1,1081.109-24.859Zm.545-5.708c-2.215.218-3.362,1.135-3.7,1.921a1.2,1.2,0,0,0,.156,1.272c.265.338,1.389,1.4,4.688.849,5.956-.981,21.775-3.586,19.868-24.664-.294-3.254-1.927-5.359-3.32-5.938a1.335,1.335,0,0,0-1.393.082c-.293.243-1.188,1.308-.44,4.84a16.919,16.919,0,0,1-2.707,13.874,20.106,20.106,0,0,1-13.153,7.765Zm-.075-.755h0Z" transform="translate(-1076.323 58.801)"/>
  </g>
  <g id="그룹_7153" data-name="그룹 7153" transform="translate(13.914 94.922)">
    <path id="패스_12571" data-name="패스 12571" d="M1083.3-29.622c.852,1.89,1.217,8.894-9.808,14.072,0,0,3.051,12.259,2.376,13.706s-6.824,7.64-12.724,4.818c-2.219-1.061,2.025-4.726,2.025-4.726l-6.848-5.787s-12.633,6.365-16.395,6.365c-1.967,0-4.175-1.675-4.617-12.73-.183-4.57,5.873-5.823,7.127-1.1.578-.1,3.289-2.742,3.289-2.742s-5.286-8.686-5.865-16.594S1083.3-29.622,1083.3-29.622Z" transform="translate(-1036.547 37.677)" fill="#fff"/>
    <path id="패스_12572" data-name="패스 12572" d="M1066.395,4.508a8.1,8.1,0,0,1-3.532-.806A1.742,1.742,0,0,1,1061.8,2.33c-.183-1.371,1.316-3.083,2.264-4.013l-5.81-4.91c-2.333,1.156-12.759,6.222-16.286,6.222-3.344,0-5-4.151-5.374-13.46a4.473,4.473,0,0,1,3.762-4.829,4.211,4.211,0,0,1,4.522,2.565c.495-.409,1.236-1.075,1.932-1.735-1.161-2.026-5.154-9.434-5.664-16.407a2.5,2.5,0,0,1,.968-2.209c5.559-4.464,37.79,5.043,41.447,6.143a.758.758,0,0,1,.473.414c.978,2.167,1.25,9.452-9.614,14.8.992,4.035,2.856,12.16,2.18,13.609-.57,1.218-3.444,4.139-6.911,5.381A9.765,9.765,0,0,1,1066.395,4.508Zm-8.028-12.762a.753.753,0,0,1,.49.18l6.848,5.785a.755.755,0,0,1,.268.576.759.759,0,0,1-.263.578c-1.228,1.064-2.486,2.628-2.4,3.263,0,.042.014.112.206.2a7.139,7.139,0,0,0,5.663.141,13.041,13.041,0,0,0,6.047-4.594c.3-.933-.995-7.45-2.424-13.2a.757.757,0,0,1,.413-.87c10.716-5.033,9.884-11.338,9.527-12.773-10.012-2.982-35.543-9.61-39.675-6.3a.987.987,0,0,0-.4.915c.557,7.63,5.7,16.169,5.757,16.254a.761.761,0,0,1-.118.938c-2.882,2.812-3.494,2.914-3.7,2.947a.758.758,0,0,1-.859-.554,2.832,2.832,0,0,0-3.161-2.4,3,3,0,0,0-2.473,3.269c.481,12,3.023,12,3.859,12,2.936,0,12.585-4.536,16.054-6.284A.757.757,0,0,1,1058.367-8.254Z" transform="translate(-1036.593 37.632)"/>
  </g>
  <g id="그룹_7154" data-name="그룹 7154" transform="translate(21.045 116.838)">
    <path id="패스_12573" data-name="패스 12573" d="M1044.531-11.25a.893.893,0,0,1-.092-.005.76.76,0,0,1-.664-.844,8.631,8.631,0,0,0-.428-3.9.758.758,0,0,1,.412-.99.759.759,0,0,1,.991.413,10.133,10.133,0,0,1,.532,4.658A.758.758,0,0,1,1044.531-11.25Z" transform="translate(-1043.29 17.048)"/>
  </g>
  <g id="그룹_7155" data-name="그룹 7155" transform="translate(34.833 116.35)">
    <line id="선_17" data-name="선 17" y1="7.949" x2="15.206" transform="translate(0.759 0.759)" fill="#d27eb6"/>
    <path id="패스_12574" data-name="패스 12574" d="M1057-8.039a.761.761,0,0,1-.674-.407.759.759,0,0,1,.322-1.024l15.206-7.95a.758.758,0,0,1,1.024.322.758.758,0,0,1-.321,1.024l-15.206,7.949A.741.741,0,0,1,1057-8.039Z" transform="translate(-1056.241 17.506)"/>
  </g>
  <g id="그룹_7156" data-name="그룹 7156" transform="translate(24.335 107.883)">
    <line id="선_18" data-name="선 18" y1="6.213" x2="7.127" transform="translate(0.758 0.76)" fill="#896651"/>
    <path id="패스_12575" data-name="패스 12575" d="M1047.139-17.727a.756.756,0,0,1-.572-.261.759.759,0,0,1,.073-1.071l7.126-6.212a.758.758,0,0,1,1.071.073.759.759,0,0,1-.072,1.071l-7.126,6.212A.762.762,0,0,1,1047.139-17.727Z" transform="translate(-1046.38 25.459)"/>
  </g>
  <g id="그룹_7157" data-name="그룹 7157" transform="translate(9.592 66.784)">
    <path id="패스_12576" data-name="패스 12576" d="M1084.538-49.112c-1.28-9.685-5.44-13.206-5.484-13.34l-32.559-.892c-.055.169-5.3,1.737-13.249,16.082,0,0,6.946,5.6,7.957,6.5l.009-.06c-.016,3.138.441,11.322,2.39,14.916a251.763,251.763,0,0,0,40.021-2.011,63.964,63.964,0,0,0-.731-12.243S1085.407-42.524,1084.538-49.112Z" transform="translate(-1032.487 64.107)" fill="#ff6464"/>
    <path id="패스_12577" data-name="패스 12577" d="M1050.487-24.985c-4.256,0-6.805-.111-6.875-.115a.756.756,0,0,1-.631-.4c-1.986-3.663-2.456-11.593-2.48-14.862-1.561-1.326-7.62-6.217-7.684-6.269a.759.759,0,0,1-.189-.958c4.66-8.409,9.41-14.188,13.375-16.273l.071-.038a.673.673,0,0,1,.489-.161l32.559.892a.757.757,0,0,1,.587.3c1.707,1.8,4.592,5.861,5.628,13.7h0c.742,5.619-.9,8.389-1.591,9.28a65.49,65.49,0,0,1,.682,12.045.76.76,0,0,1-.659.725A259.552,259.552,0,0,1,1050.487-24.985Zm-6.363-1.614a255.8,255.8,0,0,0,38.8-1.938,63.688,63.688,0,0,0-.736-11.44.755.755,0,0,1,.226-.687c.015-.016,2.21-2.26,1.412-8.3-.961-7.279-3.551-11.047-5.073-12.69l-32.011-.877-.036.019c-2.11,1.11-6.5,4.546-12.443,15.109,1.533,1.238,6.084,4.922,7.308,5.971a.714.714,0,0,1,.442.665C1042-36.968,1042.56-29.936,1044.124-26.6Z" transform="translate(-1032.533 64.06)"/>
  </g>
  <g id="그룹_7158" data-name="그룹 7158" transform="translate(0.023)">
    <path id="패스_12579" data-name="패스 12579" d="M1070.62-104.7s12.939-14.7,20.241-12.021,3.433,23.949,3.433,23.949,6.325,14.336.274,30.033c-1.81,4.693-7.446,18.8-40.247,16.2-28.575-3.876-30.087-24.583-30.063-29.613a35.21,35.21,0,0,1,12.925-27.177s5.35-23.737,13.058-22.7c6.988.937,9.721,19.944,9.721,19.944A34,34,0,0,1,1070.62-104.7Z" transform="translate(-1023.499 126.834)" fill="#fff"/>
    <path id="패스_12580" data-name="패스 12580" d="M1062.728-45.352c-3.464,0-6.429-.235-8.421-.394-28.657-3.886-30.789-24.23-30.762-30.372a36.39,36.39,0,0,1,13.006-27.608c.807-3.49,5.867-24.086,13.837-23.022,6.768.907,9.692,16.415,10.267,19.915a35.271,35.271,0,0,1,9.766,1.312c2.121-2.333,13.637-14.482,20.747-11.871,7.473,2.743,4.383,22.119,3.96,24.571a43.112,43.112,0,0,1,.2,30.4C1089.652-47.719,1073.7-45.352,1062.728-45.352Zm-12.934-79.918c-5.59,0-10.41,15.878-11.824,22.145a.758.758,0,0,1-.3.447,34.742,34.742,0,0,0-12.611,26.567c-.028,5.829,2.016,25.141,29.407,28.856,32.383,2.574,37.691-11.194,39.436-15.717,5.871-15.229-.2-29.313-.259-29.453a.748.748,0,0,1-.052-.443c1.042-5.742,2.545-21.084-2.95-23.1-5.595-2.044-15.9,7.831-19.409,11.809a.759.759,0,0,1-.788.226,33.639,33.639,0,0,0-10.395-1.364.756.756,0,0,1-.8-.649c-.738-5.129-3.807-18.594-9.071-19.3A2.87,2.87,0,0,0,1049.793-125.27Z" transform="translate(-1023.545 126.787)"/>
  </g>
  <g id="그룹_7159" data-name="그룹 7159" transform="translate(22.112 41.784)">
    <g id="그룹_1025" data-name="그룹 1025">
      <path id="패스_12581" data-name="패스 12581" d="M1048.848-84.664a2.313,2.313,0,0,1-2.808,1.677,2.312,2.312,0,0,1-1.677-2.807,2.315,2.315,0,0,1,2.807-1.678A2.314,2.314,0,0,1,1048.848-84.664Z" transform="translate(-1044.293 87.542)"/>
    </g>
    <g id="그룹_1026" data-name="그룹 1026" transform="translate(16.189 2.369)">
      <path id="패스_12582" data-name="패스 12582" d="M1064.052-82.439a2.313,2.313,0,0,1-2.807,1.678,2.314,2.314,0,0,1-1.676-2.808,2.312,2.312,0,0,1,2.805-1.678A2.314,2.314,0,0,1,1064.052-82.439Z" transform="translate(-1059.498 85.317)"/>
    </g>
  </g>
  <g id="그룹_7160" data-name="그룹 7160" transform="translate(21.473 46.901)">
    <g id="그룹_1028" data-name="그룹 1028" transform="translate(0 6.757)">
      <path id="패스_12583" data-name="패스 12583" d="M1055.82-71.043c-7.522,0-11.586-3.494-11.808-3.69a.946.946,0,0,1-.082-1.336.947.947,0,0,1,1.336-.082c.263.23,6.646,5.639,18.567,1.911a.948.948,0,0,1,1.187.621.948.948,0,0,1-.621,1.186A28.72,28.72,0,0,1,1055.82-71.043Z" transform="translate(-1043.692 76.389)"/>
    </g>
    <g id="그룹_1029" data-name="그룹 1029" transform="translate(8.423 0.439)">
      <path id="패스_12584" data-name="패스 12584" d="M1052.549-70.953h-.026a.944.944,0,0,1-.919-.972l.262-9.477a1,1,0,0,1,.972-.92.947.947,0,0,1,.92.973l-.263,9.476A.948.948,0,0,1,1052.549-70.953Z" transform="translate(-1051.604 82.323)"/>
    </g>
    <g id="그룹_1030" data-name="그룹 1030" transform="translate(5.802 0)">
      <path id="패스_12585" data-name="패스 12585" d="M1052.678-76.656s3.294.424,4.018-2.464-2.42-3.5-3.486-3.593-4.267-.039-4.059,2.93S1052.678-76.656,1052.678-76.656Z" transform="translate(-1049.142 82.736)"/>
    </g>
  </g>
  <g id="그룹_7161" data-name="그룹 7161" transform="translate(18.715 9.048)">
    <g id="그룹_1032" data-name="그룹 1032" transform="translate(34.075 6.677)">
      <path id="패스_12586" data-name="패스 12586" d="M1086.172-94.722s2.2-16.025-1.168-16.511-10.59,9.033-10.912,10.051C1078.354-100.227,1083.69-96.868,1086.172-94.722Z" transform="translate(-1073.043 112.067)" fill="#f6d4d7"/>
      <path id="패스_12587" data-name="패스 12587" d="M1086.841-93.065l-1.142-.988c-2.368-2.048-7.57-5.35-11.721-6.281l-.871-.195.267-.851c.412-1.31,7.837-11.187,11.81-10.615,3.768.542,2.559,12.372,1.862,17.433Zm-11.43-8.586a35.885,35.885,0,0,1,10.2,5.422c.877-7.4.6-13.963-.658-14.144-.414-.057-2.02.065-5.8,4.116A43.282,43.282,0,0,0,1075.411-101.65Z" transform="translate(-1073.107 112.017)" fill="#0f0f0f"/>
    </g>
    <g id="그룹_1033" data-name="그룹 1033" transform="translate(0 0)">
      <path id="패스_12588" data-name="패스 12588" d="M1042.089-102.848s3.026-15.537,6.308-14.635,5.671,12.087,5.559,13.149A51.474,51.474,0,0,0,1042.089-102.848Z" transform="translate(-1041.038 118.339)" fill="#f6d4d7"/>
      <path id="패스_12589" data-name="패스 12589" d="M1041.1-101.686l.246-1.269c.26-1.332,2.625-13.072,5.734-15a1.974,1.974,0,0,1,1.6-.266c3.908,1.072,6.291,12.754,6.157,14.025l-.078.732h-.736A50.649,50.649,0,0,0,1042.355-102Zm7.083-14.965a.469.469,0,0,0-.24.087c-1.73,1.074-3.7,7.879-4.732,12.673a53.422,53.422,0,0,1,9.933-1.2c-.392-2.77-2.658-10.934-4.9-11.551A.218.218,0,0,0,1048.186-116.652Z" transform="translate(-1041.102 118.289)" fill="#0f0f0f"/>
    </g>
  </g>
  <g id="그룹_7162" data-name="그룹 7162" transform="translate(3.801 79.968)">
    <g id="그룹_1040" data-name="그룹 1040" transform="translate(0 0)">
      <g id="그룹_1035" data-name="그룹 1035" transform="translate(25.274 1.944)">
        <path id="패스_12590" data-name="패스 12590" d="M1051.546-29.08l4.972.347,2.12-20.057-4.971-.347Z" transform="translate(-1050.787 49.899)" fill="#fff"/>
        <path id="패스_12591" data-name="패스 12591" d="M1056.566-27.929h-.054l-4.974-.347a.757.757,0,0,1-.528-.269.75.75,0,0,1-.173-.567l2.12-20.058a.741.741,0,0,1,.808-.676l4.971.347a.754.754,0,0,1,.528.269.75.75,0,0,1,.173.566l-2.119,20.056A.759.759,0,0,1,1056.566-27.929Zm-4.137-1.808,3.458.242,1.96-18.547-3.456-.241Z" transform="translate(-1050.833 49.852)"/>
      </g>
      <g id="그룹_1036" data-name="그룹 1036">
        <path id="패스_12592" data-name="패스 12592" d="M1027.806-30.908l25.276,1.945,2.121-20.057-25.276-1.945Z" transform="translate(-1027.048 51.724)" fill="#fff"/>
        <path id="패스_12593" data-name="패스 12593" d="M1053.13-28.157l-.06,0L1027.794-30.1a.759.759,0,0,1-.524-.272.758.758,0,0,1-.172-.565L1029.218-51a.759.759,0,0,1,.814-.678l25.276,1.946a.762.762,0,0,1,.525.27.756.756,0,0,1,.171.565l-2.12,20.058A.759.759,0,0,1,1053.13-28.157Zm-24.44-3.4,23.762,1.829,1.96-18.547L1030.65-50.1Z" transform="translate(-1027.094 51.678)"/>
      </g>
      <g id="그룹_1037" data-name="그룹 1037" transform="translate(6.45 3.867)">
        <path id="패스_12594" data-name="패스 12594" d="M1033.879-39.658a8.009,8.009,0,0,1,5.452-7.125l.033-.551,2.449.142c.174,0,.347-.005.523.005a8,8,0,0,1,7.529,8.456,8,8,0,0,1-8.007,7.533v.023l-3.421-.2.034-.577A8.009,8.009,0,0,1,1033.879-39.658Z" transform="translate(-1033.106 48.092)" fill="#aeaeae"/>
        <path id="패스_12595" data-name="패스 12595" d="M1041.9-30.371h-.038l-3.421-.2a.762.762,0,0,1-.524-.253.773.773,0,0,1-.191-.55l.006-.079a8.726,8.726,0,0,1-4.563-8.2h0a8.723,8.723,0,0,1,5.481-7.62l0-.055a.789.789,0,0,1,.8-.713l2.45.142.07,0c.15,0,.3,0,.453.006a8.707,8.707,0,0,1,6.039,2.922,8.7,8.7,0,0,1,2.2,6.337,8.758,8.758,0,0,1-8.585,8.245A.716.716,0,0,1,1041.9-30.371Zm-2.634-1.672,2.5.145a.393.393,0,0,1,.14-.014h.019a7.24,7.24,0,0,0,7.228-6.817,7.2,7.2,0,0,0-1.821-5.239,7.2,7.2,0,0,0-4.995-2.415c-.119-.007-.233-.007-.351-.005h-.125l-1.767-.1a.759.759,0,0,1-.476.471,7.217,7.217,0,0,0-4.936,6.449,7.22,7.22,0,0,0,4.157,6.976A.763.763,0,0,1,1039.265-32.043Z" transform="translate(-1033.152 48.046)"/>
      </g>
      <g id="그룹_1038" data-name="그룹 1038" transform="translate(3.611 3.836)">
        <path id="패스_12596" data-name="패스 12596" d="M1031.213-39.821a8,8,0,0,0,7.529,8.456,8.007,8.007,0,0,0,8.457-7.528,8.007,8.007,0,0,0-7.53-8.457A8.006,8.006,0,0,0,1031.213-39.821Z" transform="translate(-1030.44 48.122)" fill="#fff"/>
        <path id="패스_12597" data-name="패스 12597" d="M1039.257-30.546c-.171,0-.341-.005-.513-.015a8.708,8.708,0,0,1-6.038-2.921,8.709,8.709,0,0,1-2.2-6.336h0a8.707,8.707,0,0,1,2.922-6.039,8.747,8.747,0,0,1,6.335-2.2A8.775,8.775,0,0,1,1048-38.8,8.779,8.779,0,0,1,1039.257-30.546Zm-.013-16.013a7.2,7.2,0,0,0-4.813,1.836,7.2,7.2,0,0,0-2.414,4.992h0a7.2,7.2,0,0,0,1.822,5.239,7.2,7.2,0,0,0,4.992,2.415,7.243,7.243,0,0,0,7.656-6.815,7.256,7.256,0,0,0-6.817-7.654C1039.527-46.555,1039.385-46.559,1039.244-46.559Zm-7.984,6.784h0Z" transform="translate(-1030.486 48.076)"/>
      </g>
      <g id="그룹_1039" data-name="그룹 1039" transform="translate(6.906 7.128)">
        <path id="패스_12598" data-name="패스 12598" d="M1033.59-39.828a5.47,5.47,0,0,0,5.144,5.778,5.473,5.473,0,0,0,5.781-5.145,5.474,5.474,0,0,0-5.147-5.779A5.469,5.469,0,0,0,1033.59-39.828Z" transform="translate(-1033.58 44.983)"/>
      </g>
    </g>
  </g>
  <g id="그룹_7163" data-name="그룹 7163" transform="translate(29.363 84.594)">
    <path id="패스_12599" data-name="패스 12599" d="M1055.023-40.411c-3.877.015-4.485,7.184-.481,9.305s14.133-.43,17.256-1.982c7.918-3.935,10.067-9.422,10.067-9.422l-12.241-4.111S1067.119-39.788,1055.023-40.411Z" transform="translate(-1051.057 47.379)" fill="#fff"/>
    <path id="패스_12600" data-name="패스 12600" d="M1058.931-29.5a10.328,10.328,0,0,1-4.7-.889c-2.727-1.444-3.55-4.857-2.94-7.336.515-2.09,1.96-3.392,3.772-3.4a.187.187,0,0,1,.042,0c11.327.576,13.752-5.461,13.851-5.717a.766.766,0,0,1,.953-.455l12.241,4.111a.757.757,0,0,1,.447.4.759.759,0,0,1,.019.6c-.092.235-2.348,5.807-10.436,9.825A37.415,37.415,0,0,1,1058.931-29.5Zm-3.878-10.106c-1.567.019-2.119,1.575-2.284,2.244-.473,1.921.128,4.547,2.176,5.631,3.655,1.932,13.537-.489,16.563-1.992,5.863-2.913,8.465-6.73,9.338-8.3l-10.782-3.621C1069.058-43.834,1065.4-39.076,1055.052-39.606Z" transform="translate(-1051.103 47.333)"/>
  </g>
  <g id="그룹_7164" data-name="그룹 7164" transform="translate(0 87.082)">
    <path id="패스_12601" data-name="패스 12601" d="M1026.931-44.1c.809-.109,3.462-1.538,3.435,5.776-.007,1.644.449,5.644-3.37,6.307S1023.47-43.629,1026.931-44.1Z" transform="translate(-1023.478 45.042)" fill="#fff"/>
    <path id="패스_12602" data-name="패스 12602" d="M1026.754-31.185a2.416,2.416,0,0,1-1.894-.964c-1.689-2.076-1.672-7.232-.533-10.117.758-1.916,1.8-2.438,2.547-2.539h0c.059-.009.128-.027.209-.047a2.692,2.692,0,0,1,2.459.356c1.122.888,1.64,2.865,1.627,6.222,0,.143,0,.3.007.48.036,1.9.111,5.857-4.005,6.571A2.424,2.424,0,0,1,1026.754-31.185Zm.324-12.115c-.476.064-.965.645-1.339,1.592-1.043,2.643-.887,7.144.3,8.6a.848.848,0,0,0,.873.389c2.615-.454,2.79-2.742,2.747-5.047,0-.188-.008-.362-.007-.515.014-3.638-.651-4.71-1.051-5.025-.314-.249-.68-.184-1.161-.069-.138.033-.261.061-.361.075Z" transform="translate(-1023.524 44.996)"/>
  </g>
  <g id="그룹_7165" data-name="그룹 7165" transform="translate(52.676 26.72)">
    <path id="패스_12603" data-name="패스 12603" d="M1073.712-100.977c.332,1.13,21.077,21.086,25.638,16.559s-7.3-14.421-7.3-14.421Z" transform="translate(-1072.953 101.737)" fill="#4a68d0"/>
    <path id="패스_12604" data-name="패스 12604" d="M1097.547-82.946a6.789,6.789,0,0,1-1.679-.235c-7.4-1.9-22.375-15.956-22.837-17.535a.757.757,0,0,1,.148-.7.744.744,0,0,1,.669-.265l18.341,2.138a.753.753,0,0,1,.4.171c.343.285,8.384,7.054,8.607,12.232a4.216,4.216,0,0,1-1.263,3.309A3.241,3.241,0,0,1,1097.547-82.946ZM1075.6-99.952c3.77,3.861,15.676,14.685,21.393,15.449a2.131,2.131,0,0,0,1.871-.407,2.729,2.729,0,0,0,.817-2.167c-.177-4.137-6.75-10-7.895-10.989Z" transform="translate(-1073 101.69)"/>
  </g>
  <g id="그룹_7166" data-name="그룹 7166" transform="translate(45.042 7.525)">
    <path id="패스_12605" data-name="패스 12605" d="M1066.542-106.655a37.294,37.294,0,0,0,30.367,14.01c-.119-.824,7.478-18.17-9.309-25.065C1072.859-123.764,1066.542-106.655,1066.542-106.655Z" transform="translate(-1065.783 119.766)" fill="#4a68d0"/>
    <path id="패스_12606" data-name="패스 12606" d="M1096.26-91.834a38.368,38.368,0,0,1-30.3-14.34.762.762,0,0,1-.089-.7c.13-.35,3.253-8.625,10.3-11.717,3.6-1.58,7.557-1.5,11.761.223,12.716,5.223,12.451,16.478,9.99,25-.107.364-.186.626-.211.767a.762.762,0,0,1-.181.494.76.76,0,0,1-.565.267C1096.731-91.836,1096.493-91.834,1096.26-91.834Zm-28.808-14.886a36.994,36.994,0,0,0,28.808,13.368h.079c.036-.125.077-.268.126-.435,3.328-11.527.265-19.324-9.108-23.173a13.141,13.141,0,0,0-10.568-.242C1071.148-114.73,1068.138-108.339,1067.453-106.72Z" transform="translate(-1065.829 119.72)"/>
  </g>
  <g id="그룹_7167" data-name="그룹 7167" transform="translate(50.75 45.747)">
    <path id="패스_12607" data-name="패스 12607" d="M1072.136-78.668a.947.947,0,0,1-.92-.728.947.947,0,0,1,.7-1.139l13.777-3.259a.949.949,0,0,1,1.141.7.947.947,0,0,1-.7,1.139l-13.778,3.259A.967.967,0,0,1,1072.136-78.668Z" transform="translate(-1071.191 83.82)"/>
  </g>
  <g id="그룹_7168" data-name="그룹 7168" transform="translate(50.75 56.337)">
    <path id="패스_12608" data-name="패스 12608" d="M1085.916-68.7a.927.927,0,0,1-.22-.027L1071.919-72a.947.947,0,0,1-.7-1.14.946.946,0,0,1,1.14-.7l13.778,3.279a.946.946,0,0,1,.7,1.139A.949.949,0,0,1,1085.916-68.7Z" transform="translate(-1071.191 73.873)"/>
  </g>
  <g id="그룹_7169" data-name="그룹 7169" transform="translate(3.573 41.543)">
    <path id="패스_12609" data-name="패스 12609" d="M1037.423-82.794a.854.854,0,0,1-.275-.046l-9.678-3.245a.864.864,0,0,1-.545-1.093.862.862,0,0,1,1.094-.544l9.679,3.245a.864.864,0,0,1,.545,1.093A.866.866,0,0,1,1037.423-82.794Z" transform="translate(-1026.88 87.768)"/>
  </g>
  <g id="그룹_7170" data-name="그룹 7170" transform="translate(2.964 52.161)">
    <path id="패스_12610" data-name="패스 12610" d="M1027.17-74.144a.865.865,0,0,1-.848-.7.863.863,0,0,1,.691-1.007L1037.3-77.78a.863.863,0,0,1,1.008.69.864.864,0,0,1-.69,1.008l-10.288,1.923A.83.83,0,0,1,1027.17-74.144Z" transform="translate(-1026.307 77.795)"/>
  </g>
</svg>
