<svg xmlns="http://www.w3.org/2000/svg" width="24.098" height="24.016" viewBox="0 0 24.098 24.016">
  <g id="구성_요소_16_1" data-name="구성 요소 16 – 1" transform="translate(0.732 0.732)">
    <g id="그룹_10" data-name="그룹 10">
      <path id="패스_10" data-name="패스 10" d="M753.641,1060.57a.7.7,0,0,1-.5-1.2l21.227-21.227a.7.7,0,0,1,1,1l-21.227,21.227A.7.7,0,0,1,753.641,1060.57Z" transform="translate(-752.936 -1037.936)" fill="#272727" stroke="#272727" stroke-width="1.3"/>
    </g>
    <g id="그룹_11" data-name="그룹 11">
      <path id="패스_11" data-name="패스 11" d="M774.866,1060.57a.7.7,0,0,1-.5-.205l-21.227-21.227a.7.7,0,0,1,1-1l21.227,21.227a.7.7,0,0,1-.5,1.2Z" transform="translate(-752.936 -1037.936)" fill="#272727" stroke="#272727" stroke-width="1.3"/>
    </g>
  </g>
</svg>
