<svg id="구성_요소_19_1" data-name="구성 요소 19 – 1" xmlns="http://www.w3.org/2000/svg" width="112.999" height="125.233" viewBox="0 0 112.999 125.233">
  <g id="그룹_1051" data-name="그룹 1051" transform="translate(84.915 91.176)">
    <path id="패스_12611" data-name="패스 12611" d="M972.088-21.121s20.695-14.143,22.77-6.62c.525,1.9-9.128,4.225-9.128,4.225s1.507,5.74-2.628,5.1-1.972-.024-1.972-.024-.833,3.54-10.267.66" transform="translate(-970.14 30.665)" fill="#fff"/>
    <path id="패스_12612" data-name="패스 12612" d="M977.09-15.918a22.8,22.8,0,0,1-6.43-1.165.725.725,0,0,1-.481-.9.723.723,0,0,1,.9-.48c5.466,1.667,7.765,1.063,8.65.556a2.193,2.193,0,0,0,.335-.235.676.676,0,0,1-.2-.682c.175-.793.783-.7,3.355-.3,1.088.171,1.446-.224,1.562-.353.8-.886.444-3.13.256-3.845a.726.726,0,0,1,.079-.555.726.726,0,0,1,.452-.333c4.345-1.047,8.363-2.634,8.6-3.4A2.007,2.007,0,0,0,992.86-29c-4.242-1.554-16.132,5.6-20.355,8.486a.723.723,0,0,1-1.006-.19.723.723,0,0,1,.188-1.006c1.617-1.1,15.97-10.738,21.671-8.65a3.464,3.464,0,0,1,2.2,2.436,1.365,1.365,0,0,1-.167,1.083c-1.014,1.721-6.579,3.3-8.806,3.868.194,1.124.369,3.245-.733,4.465A2.991,2.991,0,0,1,983-17.7c-.561-.088-.986-.149-1.308-.19a3.089,3.089,0,0,1-1.237,1.229A6.726,6.726,0,0,1,977.09-15.918Z" transform="translate(-970.148 30.657)" fill="#080000"/>
  </g>
  <g id="그룹_1052" data-name="그룹 1052" transform="translate(35.402 85.676)">
    <path id="패스_12613" data-name="패스 12613" d="M977.238-32.312c.2.493-.938,12.374-8.387,15.523,0,0,5.739,10.411,4.966,11.781s-12.339,9.887-19.091,7.214c-2.538-1,2.318-4.475,2.318-4.475l-7.835-5.479S934.752-1.72,930.448-1.72c-2.25,0-7.062-3.47-8.5-13.881-1.069-7.768,9.822-6.028,11.256-1.553a9.93,9.93,0,0,0,2.317-1.187s-7.725-6.119-8.387-13.607S977.238-32.312,977.238-32.312Z" transform="translate(-921.157 36.107)" fill="#fff"/>
    <path id="패스_12614" data-name="패스 12614" d="M957.7,3.459a8.729,8.729,0,0,1-3.232-.572,1.665,1.665,0,0,1-1.18-1.364c-.161-1.308,1.424-2.85,2.538-3.757l-6.7-4.685c-2.34.963-14.613,5.93-18.67,5.93-2.79,0-7.758-3.937-9.215-14.5-.432-3.138.965-5.388,3.737-6.017,2.967-.677,7.21.719,8.637,3.456.2-.1.444-.229.689-.371-2.03-1.811-7.319-7.1-7.881-13.449A2.32,2.32,0,0,1,927.2-33.8c5.577-5.3,45.6.143,50.147.78a.724.724,0,0,1,.571.445c.346.857-.942,12.412-8.054,16.122,2.606,4.784,5.358,10.452,4.593,11.81C973.742-3.382,964.829,3.458,957.7,3.459ZM949.217-8.463a.717.717,0,0,1,.414.13l7.835,5.479a.721.721,0,0,1,.309.589.724.724,0,0,1-.3.592c-1.354.968-2.816,2.466-2.749,3.019.008.066.154.147.276.194,6.325,2.507,17.433-5.616,18.195-6.9.176-.909-2.435-6.475-4.97-11.075a.725.725,0,0,1-.051-.586.727.727,0,0,1,.4-.43c6.185-2.616,7.781-11.883,7.951-14.226-12.606-1.735-44.111-5.09-48.333-1.079a.863.863,0,0,0-.33.749c.627,7.084,8.041,13.044,8.116,13.1a.725.725,0,0,1,.273.6.721.721,0,0,1-.323.571,9.258,9.258,0,0,1-2.618,1.3.731.731,0,0,1-.787-.5c-.7-2.183-4.418-3.816-7.227-3.176-1.429.325-3.045,1.353-2.624,4.409,1.367,9.917,5.915,13.255,7.781,13.255,4.11,0,18.338-5.911,18.482-5.971A.722.722,0,0,1,949.217-8.463Z" transform="translate(-921.165 36.099)" fill="#080000"/>
  </g>
  <g id="그룹_1053" data-name="그룹 1053" transform="translate(46.73 103.906)">
    <path id="패스_12615" data-name="패스 12615" d="M933.757-10.226a.736.736,0,0,1-.1-.008.722.722,0,0,1-.611-.818c.307-2.121-.639-6.08-.649-6.12a.722.722,0,0,1,.532-.871.72.72,0,0,1,.872.532c.041.174,1.021,4.273.674,6.666A.723.723,0,0,1,933.757-10.226Z" transform="translate(-932.372 18.064)"/>
  </g>
  <g id="그룹_1054" data-name="그룹 1054" transform="translate(62.621 104.271)">
    <line id="선_19" data-name="선 19" y1="9.041" x2="19.753" transform="translate(0.722 0.722)" fill="#d27eb6"/>
    <path id="패스_12616" data-name="패스 12616" d="M948.815-7.217a.723.723,0,0,1-.657-.422.722.722,0,0,1,.357-.957l19.753-9.041a.722.722,0,0,1,.956.356.722.722,0,0,1-.356.957L949.115-7.282A.719.719,0,0,1,948.815-7.217Z" transform="translate(-948.092 17.702)"/>
  </g>
  <g id="그룹_1055" data-name="그룹 1055" transform="translate(49.047 97.239)">
    <line id="선_20" data-name="선 20" y1="5.479" x2="11.587" transform="translate(0.722 0.723)" fill="#896651"/>
    <path id="패스_12617" data-name="패스 12617" d="M935.386-17.735a.721.721,0,0,1-.652-.413.721.721,0,0,1,.344-.961l11.586-5.479a.721.721,0,0,1,.962.344.722.722,0,0,1-.344.961L935.7-17.8A.718.718,0,0,1,935.386-17.735Z" transform="translate(-934.664 24.659)"/>
  </g>
  <g id="그룹_1057" data-name="그룹 1057" transform="translate(14.164 60.6)">
    <g id="그룹_1056" data-name="그룹 1056" transform="translate(0 0)">
      <path id="패스_12618" data-name="패스 12618" d="M931.78-59.662s-25.363-.689-28.249-.492-4.54,12.624,1.013,15.965c2.3,2.163,28.406-1.963,28.406-1.963s6.086-.664,5.509-7.916C938.028-59.488,931.78-59.662,931.78-59.662Z" transform="translate(-900.147 60.914)" fill="#fff"/>
      <path id="패스_12619" data-name="패스 12619" d="M908.966-42.852c-2.38,0-4.159-.208-4.836-.74-4.279-2.626-4.437-9.559-3.529-13.328.594-2.46,1.618-3.863,2.887-3.949,2.9-.2,27.283.463,28.319.49h0c2.385.067,7,1.46,7.381,6.26.625,7.861-6.085,8.686-6.152,8.693C928.461-44.7,916.05-42.852,908.966-42.852Zm-3.388-16.608c-.947,0-1.64.01-1.99.034s-1.086.8-1.579,2.845c-.877,3.634-.552,9.691,2.916,11.778a.729.729,0,0,1,.122.092c1.291,1.2,15.148-.151,27.8-2.15.252-.03,5.413-.707,4.9-7.145-.373-4.691-5.736-4.92-5.978-4.927C931.5-58.938,912.25-59.459,905.578-59.459Z" transform="translate(-900.154 60.906)" fill="#080000"/>
    </g>
  </g>
  <g id="그룹_1058" data-name="그룹 1058" transform="translate(40.39 45.204)">
    <path id="패스_12620" data-name="패스 12620" d="M935.3-69.866s-9.613,12.447-8.381,39.56c0,0,21.445,7.641,50.282,0,0,0-.739-32.9-10.6-43.75C956.993-78.74,935.3-69.866,935.3-69.866Z" transform="translate(-926.092 76.145)" fill="#8ac5ff"/>
    <path id="패스_12621" data-name="패스 12621" d="M951.456-26.207c-14.934,0-24.623-3.361-24.766-3.413a.72.72,0,0,1-.478-.646c-1.23-27.066,8.131-39.516,8.53-40.033a.709.709,0,0,1,.3-.226c.9-.368,22.1-8.942,31.89-4.172a.736.736,0,0,1,.217.163c9.927,10.919,10.756,42.865,10.787,44.22a.721.721,0,0,1-.536.713A101.3,101.3,0,0,1,951.456-26.207Zm-23.825-4.62c3.225,1.015,23.124,6.637,48.844-.022-.159-4.38-1.519-32.764-10.3-42.61-8.807-4.13-28.271,3.351-30.4,4.194C934.726-67.778,926.628-55.414,927.63-30.828Z" transform="translate(-926.1 76.137)"/>
  </g>
  <g id="그룹_1060" data-name="그룹 1060" transform="translate(77.664 56.209)">
    <g id="그룹_1059" data-name="그룹 1059">
      <path id="패스_12622" data-name="패스 12622" d="M964.745-52.514s18.406,18.806,20.711,20.555,12.016-4.891,12.125-9.686c-.312-3.143-25.306-21.934-25.306-21.934s-3.907-2.551-6.748.676C961.934-58.823,964.745-52.514,964.745-52.514Z" transform="translate(-962.966 65.257)" fill="#fff"/>
      <path id="패스_12623" data-name="패스 12623" d="M986.49-30.941a2.361,2.361,0,0,1-1.463-.434C982.705-33.136,964.988-51.231,964.235-52a.754.754,0,0,1-.145-.211c-.122-.275-2.955-6.784.9-11.162,2.574-2.924,6.154-1.805,7.686-.8,23.466,17.641,25.551,21.657,25.632,22.469-.086,3.957-5.2,8.207-8.629,9.861A7.945,7.945,0,0,1,986.49-30.941ZM965.367-52.913c1.449,1.478,18.384,18.753,20.536,20.385.358.271,1.473.184,3.15-.625,3.643-1.758,7.749-5.681,7.813-8.5-.256-1.744-12.922-12.244-25.018-21.339-.1-.061-3.385-2.13-5.77.576C963.088-59.022,965.03-53.75,965.367-52.913Z" transform="translate(-962.974 65.249)" fill="#080000"/>
    </g>
  </g>
  <g id="그룹_1061" data-name="그룹 1061" transform="translate(14.258 59.074)">
    <path id="패스_12624" data-name="패스 12624" d="M901.022-52.079c0-.993-.992-8.932,4.632-9.594s7.278,11.249.662,14.225" transform="translate(-900.24 62.423)" fill="#fff"/>
    <path id="패스_12625" data-name="패스 12625" d="M906.323-46.716a.726.726,0,0,1-.66-.427.725.725,0,0,1,.363-.957c3.417-1.537,4.487-5.966,3.548-9.359-.248-.895-1.271-3.791-3.828-3.487-2.992.352-4.3,3.1-4.013,8.413.012.207.02.365.02.462a.724.724,0,0,1-.724.724.723.723,0,0,1-.724-.724c0-.081-.008-.211-.018-.383-.337-6.136,1.443-9.477,5.289-9.929,2.485-.291,4.538,1.449,5.393,4.539,1.087,3.927-.069,9.139-4.349,11.065A.723.723,0,0,1,906.323-46.716Z" transform="translate(-900.247 62.415)" fill="#080000"/>
  </g>
  <g id="그룹_1080" data-name="그룹 1080" transform="translate(16.971)">
    <g id="그룹_1078" data-name="그룹 1078">
      <g id="그룹_1062" data-name="그룹 1062" transform="translate(12.759 38.717)">
        <path id="패스_12626" data-name="패스 12626" d="M918.048-81.837a14.606,14.606,0,0,0-1.511,9.985c.31,1.8-.163,7.307,2.249,7.915" transform="translate(-915.545 82.562)" fill="#717873"/>
        <path id="패스_12627" data-name="패스 12627" d="M918.795-63.206a.713.713,0,0,1-.178-.022c-2.365-.6-2.535-4.187-2.659-6.809a16.2,16.2,0,0,0-.127-1.685,15.377,15.377,0,0,1,1.6-10.472.725.725,0,0,1,.991-.261.724.724,0,0,1,.262.99,13.751,13.751,0,0,0-1.423,9.5,17.052,17.052,0,0,1,.147,1.862c.09,1.923.242,5.141,1.566,5.474a.724.724,0,0,1,.525.879A.724.724,0,0,1,918.795-63.206Z" transform="translate(-915.553 82.554)" fill="#080000"/>
      </g>
      <g id="그룹_1077" data-name="그룹 1077">
        <g id="그룹_1063" data-name="그룹 1063" transform="translate(0 18.848)">
          <path id="패스_12628" data-name="패스 12628" d="M917.642-74.626l-1.791,1.97s-4.389,3.771-8.219.613a7.658,7.658,0,0,1-2.867-7.292c-2.639-3.9.183-7.733.183-7.733a8.493,8.493,0,0,1,5.937-7.422A10.239,10.239,0,0,1,917.447-100s4.049-2.323,5.794-1.19" transform="translate(-902.924 102.218)" fill="#fff"/>
          <path id="패스_12629" data-name="패스 12629" d="M911.044-70.064a5.941,5.941,0,0,1-3.864-1.413,8.4,8.4,0,0,1-3.17-7.7c-2.306-3.7-.276-7.323.248-8.144a9.3,9.3,0,0,1,6.122-7.759,10.93,10.93,0,0,1,6.81-5.6c.758-.423,4.5-2.383,6.453-1.115a.724.724,0,0,1,.213,1,.724.724,0,0,1-1,.213c-1.04-.677-3.845.524-5.039,1.21a.741.741,0,0,1-.212.08,9.618,9.618,0,0,0-6.058,5.116.725.725,0,0,1-.475.39,7.715,7.715,0,0,0-5.395,6.8.73.73,0,0,1-.137.349,6.182,6.182,0,0,0-.167,6.9.722.722,0,0,1,.105.569,6.9,6.9,0,0,0,2.623,6.57c3.309,2.724,7.128-.467,7.288-.6l1.728-1.906a.725.725,0,0,1,1.022-.05.724.724,0,0,1,.049,1.023l-1.792,1.97A8.705,8.705,0,0,1,911.044-70.064Z" transform="translate(-902.931 102.21)" fill="#080000"/>
        </g>
        <g id="그룹_1064" data-name="그룹 1064" transform="translate(11.801 7.166)">
          <path id="패스_12630" data-name="패스 12630" d="M919.451-93.817a11.943,11.943,0,0,1,3.446-7.29s3.716-7.543,8.655-7.49a15.211,15.211,0,0,1,9.05-3.051s5.373-2.943,9.908-.285c0,0,5.558-1.174,8.858,1.977,0,0,6.5.142,8.2,4.738a9.556,9.556,0,0,1,5.659,5.043,10.574,10.574,0,0,1,4.024,6.3s4.678,3.657,3.256,8.194a10.784,10.784,0,0,1,1.876,9.411,8.979,8.979,0,0,1-2.245,7.84s-1.37,5.8-5.441,8.173c0,0-2.04,4.753-7.234,4.738,0,0-4.413,3.608-9.636,3.382,0,0-5.081,2.56-10.272.76a10.9,10.9,0,0,1-8.607-.288h0s-5.629.556-9.73-2.676c0,0-2.867-.1-5.694-3.506-2.594-3.129-6.517-6.2-7.72-10.384-1.086-3.778-.4-12.774,2.6-15.444" transform="translate(-914.598 113.775)" fill="#fff"/>
          <path id="패스_12631" data-name="패스 12631" d="M943.546-49.888a11.178,11.178,0,0,1-4.724-1.033c-1.082.07-6.018.209-9.873-2.711a9.678,9.678,0,0,1-5.974-3.744c-.681-.821-1.451-1.633-2.264-2.494-2.294-2.421-4.664-4.924-5.594-8.152-1.179-4.1-.352-13.364,2.813-16.184a.724.724,0,0,1,1.022.059.724.724,0,0,1-.059,1.022c-2.662,2.372-3.442,11.026-2.385,14.7.831,2.889,3.078,5.263,5.253,7.558.831.877,1.615,1.707,2.327,2.564,2.557,3.085,5.061,3.24,5.167,3.245a.742.742,0,0,1,.418.155,12.887,12.887,0,0,0,6.6,2.461.754.754,0,0,1-.022-.179.721.721,0,0,1,.073-.313.719.719,0,0,1,.966-.337l1.984.959a10.18,10.18,0,0,0,7.994.28.722.722,0,0,1,.536-.024c4.829,1.676,9.662-.7,9.71-.723a.747.747,0,0,1,.357-.077c4.879.22,9.1-3.186,9.145-3.219a.727.727,0,0,1,.459-.163h.025c4.644,0,6.526-4.257,6.544-4.3a.722.722,0,0,1,.3-.34c3.747-2.181,5.089-7.658,5.1-7.714a.729.729,0,0,1,.165-.315,8.277,8.277,0,0,0,2.085-7.171.729.729,0,0,1,.005-.392,10.083,10.083,0,0,0-1.736-8.74.727.727,0,0,1-.138-.683c1.254-4-2.968-7.374-3.01-7.407a.723.723,0,0,1-.263-.424,9.949,9.949,0,0,0-3.717-5.846.719.719,0,0,1-.266-.324,8.839,8.839,0,0,0-5.2-4.626.728.728,0,0,1-.475-.444c-1.507-4.073-7.479-4.263-7.54-4.265a.718.718,0,0,1-.482-.2c-2.981-2.843-8.158-1.8-8.209-1.792a.726.726,0,0,1-.516-.084c-4.116-2.413-9.143.269-9.2.3a.739.739,0,0,1-.344.088,14.534,14.534,0,0,0-8.587,2.881.789.789,0,0,1-.474.17h-.043c-4.4,0-7.919,7.015-7.953,7.087a.732.732,0,0,1-.154.206,11.317,11.317,0,0,0-3.221,6.806.72.72,0,0,1-.765.679.723.723,0,0,1-.679-.764,12.615,12.615,0,0,1,3.58-7.685c.516-1.008,4.085-7.592,8.987-7.773a16.015,16.015,0,0,1,9.127-3.052c.974-.492,5.847-2.7,10.214-.322,1.194-.2,5.884-.76,9.027,2.027,1.306.083,6.65.68,8.453,4.87a10.178,10.178,0,0,1,5.7,5.149,11.341,11.341,0,0,1,4.092,6.374c.926.8,4.475,4.178,3.4,8.438a11.408,11.408,0,0,1,1.828,9.586,9.713,9.713,0,0,1-2.333,8.166c-.274,1.029-1.759,5.994-5.539,8.332a8.8,8.8,0,0,1-7.542,4.951c-.949.718-4.964,3.527-9.736,3.39a15.209,15.209,0,0,1-10.4.8A11.726,11.726,0,0,1,943.546-49.888Z" transform="translate(-914.606 113.767)" fill="#080000"/>
        </g>
        <g id="그룹_1065" data-name="그룹 1065" transform="translate(31.432 31.924)">
          <path id="패스_12632" data-name="패스 12632" d="M937.336-87.541a1.838,1.838,0,0,1-1.363,2.19,1.836,1.836,0,0,1-1.923-1.717,1.837,1.837,0,0,1,1.359-2.191A1.839,1.839,0,0,1,937.336-87.541Z" transform="translate(-934.027 89.274)" fill="#080000"/>
        </g>
        <g id="그룹_1068" data-name="그룹 1068" transform="translate(34.599 34.722)">
          <g id="그룹_1066" data-name="그룹 1066" transform="translate(2.067)">
            <path id="패스_12633" data-name="패스 12633" d="M944.7-83.183a7.876,7.876,0,0,1-3.069.224c-2.3-.429-3.46-2.561-1.218-3.226,1.505-.446,6.145-.71,6.367,1.178C946.884-84.1,945.887-83.5,944.7-83.183Z" transform="translate(-939.204 86.506)" fill="#080000"/>
          </g>
          <g id="그룹_1067" data-name="그룹 1067" transform="translate(0 2.479)">
            <path id="패스_12634" data-name="패스 12634" d="M945.634-78.316a4.061,4.061,0,0,1-1.909-.481,2.338,2.338,0,0,1-.919-.862,2.627,2.627,0,0,1-1.254.816,3.293,3.293,0,0,1-2.543-.432,3.787,3.787,0,0,1-1.83-2.244.724.724,0,0,1,.546-.866.725.725,0,0,1,.865.546,2.4,2.4,0,0,0,1.147,1.313,1.9,1.9,0,0,0,1.4.3c.956-.288,1.133-1.582,1.134-2.489,0-.188-.007-.37-.019-.54v-.019a.723.723,0,0,1,.667-.775.721.721,0,0,1,.775.667h0v.012q.027.365.025.708c0,.054,0,.106,0,.161.011,1.215.068,2.1.681,2.427a2.585,2.585,0,0,0,2.489-.011,2.806,2.806,0,0,0,1.5-2.128.718.718,0,0,1,.793-.646.722.722,0,0,1,.646.794,4.267,4.267,0,0,1-2.254,3.257A4.094,4.094,0,0,1,945.634-78.316Z" transform="translate(-937.16 84.054)" fill="#080000"/>
          </g>
        </g>
        <g id="그룹_1069" data-name="그룹 1069" transform="translate(62.689 16.959)">
          <path id="패스_12635" data-name="패스 12635" d="M972.492-103.213a7.973,7.973,0,0,1,8.8,4.394,12.166,12.166,0,0,1,6.427,6.19s5.154,5.583,3.28,11.784c0,0,2.663,4.756-2.59,9.467a7.233,7.233,0,0,1-8.922.508,7.165,7.165,0,0,1-6.414-5.415c-.327-1.114-1.414-2.252-1.868-3.373-.8-1.982-.571-3.921-1.178-5.832-.445-1.4-.769-.9-1.549-1.986-2.858-3.973-4.085-10.647-1.083-14.806" transform="translate(-964.941 104.087)" fill="#fff"/>
          <path id="패스_12636" data-name="패스 12636" d="M983.59-68.817a7.956,7.956,0,0,1-4.331-1.336,7.96,7.96,0,0,1-6.869-5.918,6.915,6.915,0,0,0-.9-1.643,9.872,9.872,0,0,1-.948-1.663A12.739,12.739,0,0,1,969.8-82.8a13.022,13.022,0,0,0-.451-2.464c-.192-.606-.3-.683-.525-.852a3.788,3.788,0,0,1-.921-.931c-3.038-4.223-4.273-11.232-1.082-15.652a.723.723,0,0,1,1.01-.164.724.724,0,0,1,.163,1.011c-2.771,3.839-1.6,10.236,1.084,13.96a2.391,2.391,0,0,0,.608.613,2.6,2.6,0,0,1,1.043,1.578,14.484,14.484,0,0,1,.508,2.73,11.463,11.463,0,0,0,.65,3.049,8.889,8.889,0,0,0,.816,1.412,7.985,7.985,0,0,1,1.076,2.03,6.413,6.413,0,0,0,5.737,4.9.729.729,0,0,1,.382.12,6.549,6.549,0,0,0,8.028-.433c4.744-4.257,2.548-8.415,2.453-8.59a.726.726,0,0,1-.061-.56c1.734-5.739-3.07-11.031-3.12-11.085a.78.78,0,0,1-.138-.216,11.532,11.532,0,0,0-6.01-5.787.727.727,0,0,1-.381-.329,7.288,7.288,0,0,0-7.985-4.042.72.72,0,0,1-.884-.517.723.723,0,0,1,.516-.883,8.743,8.743,0,0,1,9.495,4.518,12.784,12.784,0,0,1,6.541,6.373c.712.811,5.074,6.092,3.429,12.117.506,1.179,1.982,5.707-2.876,10.066A8.514,8.514,0,0,1,983.59-68.817Z" transform="translate(-964.948 104.079)" fill="#080000"/>
        </g>
        <g id="그룹_1070" data-name="그룹 1070" transform="translate(20.276 36.265)">
          <path id="패스_12637" data-name="패스 12637" d="M932.335-80.952a4.7,4.7,0,0,1-3.98,5.318,4.7,4.7,0,0,1-5.317-3.979,4.7,4.7,0,0,1,3.978-5.319A4.7,4.7,0,0,1,932.335-80.952Z" transform="translate(-922.99 84.98)" fill="#f09391"/>
        </g>
        <g id="그룹_1071" data-name="그룹 1071" transform="translate(52.853 37.348)">
          <path id="패스_12638" data-name="패스 12638" d="M964.562-79.881a4.7,4.7,0,0,1-3.979,5.317,4.694,4.694,0,0,1-5.316-3.978,4.7,4.7,0,0,1,3.978-5.318A4.7,4.7,0,0,1,964.562-79.881Z" transform="translate(-955.218 83.908)" fill="#f09391"/>
        </g>
        <g id="그룹_1072" data-name="그룹 1072" transform="translate(29.684 28.278)">
          <path id="패스_12639" data-name="패스 12639" d="M933.02-90.932a.723.723,0,0,1-.716-.624.723.723,0,0,1,.616-.817c.377-.053.755-.115,1.131-.177a12.478,12.478,0,0,1,4.609-.179.724.724,0,0,1,.557.858.722.722,0,0,1-.859.558,11.211,11.211,0,0,0-4.072.191c-.388.064-.777.127-1.165.182A.712.712,0,0,1,933.02-90.932Z" transform="translate(-932.297 92.882)" fill="#080000"/>
        </g>
        <g id="그룹_1075" data-name="그룹 1075" transform="translate(46.633 28.658)">
          <g id="그룹_1073" data-name="그룹 1073" transform="translate(1.272 3.634)">
            <path id="패스_12640" data-name="패스 12640" d="M953.641-86.971a1.839,1.839,0,0,1-1.617,2.012,1.838,1.838,0,0,1-1.7-1.941,1.839,1.839,0,0,1,1.615-2.01A1.839,1.839,0,0,1,953.641-86.971Z" transform="translate(-950.323 88.91)" fill="#080000"/>
          </g>
          <g id="그룹_1074" data-name="그룹 1074">
            <path id="패스_12641" data-name="패스 12641" d="M956.558-90.337a.729.729,0,0,1-.259-.049,15.839,15.839,0,0,0-6.077-.659l-.425.006h-.009a.723.723,0,0,1-.724-.713.723.723,0,0,1,.714-.734l.423-.006a17.12,17.12,0,0,1,6.616.754.725.725,0,0,1,.417.934A.725.725,0,0,1,956.558-90.337Z" transform="translate(-949.065 92.506)" fill="#080000"/>
          </g>
        </g>
        <g id="그룹_1076" data-name="그룹 1076" transform="translate(15.619)">
          <path id="패스_12642" data-name="패스 12642" d="M967.541-97.933c.354.1-2.175,2.433-2.439,2.579a8.049,8.049,0,0,1-3.683.863c-2,.04-5.894-.652-6.3-3.178a4.3,4.3,0,0,1-4.446,2.664c-1.905-.071-4.788-1.127-4.692-3.607-1.13,4.3-10.465,4.751-10.736-.313-1.306,1.31-2.678,2.9-4.742,2.693a3.458,3.458,0,0,1-3.144-3.462c-3.238.69-6.621.373-7.911-3.154a3.973,3.973,0,0,1,.074-3.4,6.617,6.617,0,0,1,4.956-2.536c.092.076.089.082-.009.019-2.045-2.016.469-4.659,2.262-5.572a15.028,15.028,0,0,1,7.217-1.264c.523-1.59,3.139-2.842,4.693-3.2,2.279-.519,3.117.574,5.017,1.34,2.644-4.238,8.582-2.914,11.3.229a5.248,5.248,0,0,1,8.114,1.4c2.65-2.06,7.908-.053,7,3.622,2.212-.422,6.855,1.927,3.866,4.192,2.612,2.218,2.949,4.331.7,7.152C973.034-98.864,970.164-97.213,967.541-97.933Z" transform="translate(-918.375 120.864)" fill="#fff"/>
          <path id="패스_12643" data-name="패스 12643" d="M961.243-93.758c-2.078,0-4.961-.645-6.232-2.367a4.943,4.943,0,0,1-4.359,1.85,6.708,6.708,0,0,1-4.436-1.8,3.674,3.674,0,0,1-.466-.618,7.771,7.771,0,0,1-6.376,2.126c-2.256-.23-3.887-1.3-4.54-2.905a5.53,5.53,0,0,1-4.4,1.971,4.2,4.2,0,0,1-3.725-3.323c-5.1.814-7.129-1.56-7.937-3.764a4.687,4.687,0,0,1,.133-4.02,7.118,7.118,0,0,1,4.3-2.737,2.9,2.9,0,0,1-.18-1.576c.268-1.736,1.942-3.316,3.383-4.049a14.951,14.951,0,0,1,7.076-1.343c.924-1.686,3.472-2.829,5-3.178a5.257,5.257,0,0,1,4.15.747c.248.131.5.266.771.4a6.209,6.209,0,0,1,4.631-2.482,9.47,9.47,0,0,1,6.992,2.633,6.08,6.08,0,0,1,4.637-.963,5.676,5.676,0,0,1,3.654,2.328,5.8,5.8,0,0,1,5.6.405,4.043,4.043,0,0,1,1.981,3.464c1.74.091,3.906,1.1,4.546,2.534a2.163,2.163,0,0,1-.436,2.42c2.392,2.351,2.446,4.785.2,7.606-1.574,1.97-4.451,3.754-7.264,3.306a15.126,15.126,0,0,1-2.486,2.389,8.636,8.636,0,0,1-4.016.953Zm-6.118-4.628a.681.681,0,0,1,.11.008.724.724,0,0,1,.6.6c.324,2.021,3.924,2.6,5.571,2.57a7.329,7.329,0,0,0,3.35-.774A19.915,19.915,0,0,0,966.829-98a.8.8,0,0,1,.021-.118.72.72,0,0,1,.89-.506c2.364.649,4.94-.938,6.336-2.687,1.954-2.449,1.791-4.116-.6-6.148a.724.724,0,0,1-.255-.572.726.726,0,0,1,.286-.557c.882-.668.692-1.1.622-1.258-.432-.968-2.625-1.891-3.914-1.646a.721.721,0,0,1-.661-.213.724.724,0,0,1-.178-.671,2.56,2.56,0,0,0-1.241-2.842,4.168,4.168,0,0,0-4.613-.034.72.72,0,0,1-.609.133.722.722,0,0,1-.487-.39,4.164,4.164,0,0,0-3.03-2.235,4.579,4.579,0,0,0-3.943,1.058.723.723,0,0,1-.531.188.718.718,0,0,1-.506-.25,7.9,7.9,0,0,0-6.264-2.644,4.844,4.844,0,0,0-3.871,2.325.725.725,0,0,1-.885.288,14.731,14.731,0,0,1-1.436-.692,3.862,3.862,0,0,0-3.149-.613c-1.447.33-3.762,1.486-4.166,2.716a.725.725,0,0,1-.688.5h0a14.3,14.3,0,0,0-6.885,1.185,5,5,0,0,0-2.61,2.981,1.535,1.535,0,0,0,.421,1.318.639.639,0,0,1,.068.05.818.818,0,0,1,.192,1.046.787.787,0,0,1-.831.239,5.957,5.957,0,0,0-4.156,2.181,3.318,3.318,0,0,0-.016,2.78c.946,2.589,3.332,3.494,7.081,2.7a.718.718,0,0,1,.617.154.725.725,0,0,1,.259.58,2.738,2.738,0,0,0,2.492,2.715c1.558.16,2.666-.969,3.839-2.162l.318-.32a.718.718,0,0,1,.77-.166.722.722,0,0,1,.464.638c.128,2.41,2.749,2.864,3.548,2.945,2.35.242,5.233-.752,5.765-2.777a.723.723,0,0,1,.807-.532.726.726,0,0,1,.618.744,2.009,2.009,0,0,0,.568,1.512,5.25,5.25,0,0,0,3.428,1.342,3.58,3.58,0,0,0,3.772-2.265A.725.725,0,0,1,955.125-98.385Z" transform="translate(-918.383 120.856)" fill="#080000"/>
        </g>
      </g>
    </g>
    <g id="그룹_1079" data-name="그룹 1079" transform="translate(37.261 37.909)">
      <path id="패스_12644" data-name="패스 12644" d="M942.963-81.728h0a2.353,2.353,0,0,1-2.509,1.994c.24,4.988,2.2,5.1,3.855,4.215s1.121-3.728,1.121-3.728A2.606,2.606,0,0,1,942.963-81.728Z" transform="translate(-939.786 83.361)" fill="#ec688a"/>
      <path id="패스_12645" data-name="패스 12645" d="M942.874-74.423a2.345,2.345,0,0,1-1.17-.3c-1.156-.656-1.781-2.282-1.911-4.971a.669.669,0,0,1,.2-.512.677.677,0,0,1,.52-.184,1.644,1.644,0,0,0,1.8-1.45h0l.179-.966a.668.668,0,0,1,.777-.535.668.668,0,0,1,.546.655.618.618,0,0,1-.012.121l-.163.883a1.915,1.915,0,0,0,1.833,1.779.674.674,0,0,1,.619.543c.025.136.6,3.342-1.463,4.44A3.748,3.748,0,0,1,942.874-74.423Zm-1.7-4.679c.2,2.311.822,3.009,1.192,3.219A1.719,1.719,0,0,0,944-76.1c.858-.457.882-1.833.831-2.558a3.313,3.313,0,0,1-1.985-1.322A3.007,3.007,0,0,1,941.171-79.1Z" transform="translate(-939.793 83.353)" fill="#080000"/>
    </g>
  </g>
  <g id="그룹_431" data-name="그룹 431" transform="translate(21.41 55.767)">
    <g id="그룹_427" data-name="그룹 427" transform="translate(0.778 0.777)">
      <g id="그룹_426" data-name="그룹 426">
        <g id="그룹_425" data-name="그룹 425">
          <g id="선_2" data-name="선 2">
            <line id="선_21" data-name="선 21" x2="4.889" y2="11.961" fill="none"/>
          </g>
        </g>
      </g>
    </g>
    <g id="그룹_430" data-name="그룹 430" transform="translate(0 0)">
      <g id="그룹_429" data-name="그룹 429">
        <g id="그룹_428" data-name="그룹 428">
          <g id="패스_11810" data-name="패스 11810">
            <path id="패스_12646" data-name="패스 12646" d="M912.991-52.168a.779.779,0,0,1-.721-.483L907.38-64.613a.779.779,0,0,1,.427-1.015.778.778,0,0,1,1.015.427l4.888,11.963a.777.777,0,0,1-.426,1.014h0A.777.777,0,0,1,912.991-52.168Z" transform="translate(-907.323 65.686)" fill="#0c0c0c"/>
          </g>
        </g>
      </g>
    </g>
  </g>
  <g id="그룹_1081" data-name="그룹 1081" transform="translate(0 23.663)">
    <path id="패스_12647" data-name="패스 12647" d="M889.894-73.126a.491.491,0,0,1,.167.479,8.294,8.294,0,0,0-.14,2.419,8.272,8.272,0,0,0,8.415,7.528h.019a25.6,25.6,0,0,0,6.481-.971,22.139,22.139,0,0,0,5.633-2.419,16.726,16.726,0,0,0,5.064-4.749c.009-.012.018-.025.028-.036a8.206,8.206,0,0,0,1.9-6.039,8.229,8.229,0,0,0-4.432-6.608.493.493,0,0,1-.266-.458,8.363,8.363,0,0,0-.024-1.1A8.268,8.268,0,0,0,904.3-92.61a.5.5,0,0,1-.429-.228,8.233,8.233,0,0,0-6.968-3.839q-.368,0-.74.033a8.2,8.2,0,0,0-5.6,2.925,8.2,8.2,0,0,0-1.894,6.031,8.285,8.285,0,0,0,.485,2.154.491.491,0,0,1-.1.5,8.284,8.284,0,0,0-2.114,6.282A8.2,8.2,0,0,0,889.894-73.126Z" transform="translate(-886.134 97.455)" fill="#f6d4d7"/>
    <path id="패스_12648" data-name="패스 12648" d="M898.131-61.911a9.05,9.05,0,0,1-8.978-8.239,9.01,9.01,0,0,1,.121-2.479,8.969,8.969,0,0,1-3.1-6.044,9.064,9.064,0,0,1,2.2-6.744,9.084,9.084,0,0,1-.473-2.194,8.977,8.977,0,0,1,2.073-6.6,8.975,8.975,0,0,1,6.131-3.2,9,9,0,0,1,8.346,4.028h.081a9.049,9.049,0,0,1,8.989,8.239,9.1,9.1,0,0,1,.033,1.025,9,9,0,0,1,4.689,7.146,8.976,8.976,0,0,1-2.078,6.606,17.459,17.459,0,0,1-5.281,4.949,22.926,22.926,0,0,1-5.829,2.5,26.224,26.224,0,0,1-6.707,1C898.277-61.911,898.2-61.911,898.131-61.911Zm-7.732-11.8a1.271,1.271,0,0,1,.432,1.238,7.428,7.428,0,0,0-.127,2.19,7.505,7.505,0,0,0,7.621,6.818,24.912,24.912,0,0,0,6.31-.943,21.408,21.408,0,0,0,5.435-2.332,15.978,15.978,0,0,0,4.831-4.529l.072-.093a7.434,7.434,0,0,0,1.721-5.471,7.456,7.456,0,0,0-4.015-5.986,1.271,1.271,0,0,1-.684-1.186,7.6,7.6,0,0,0-.022-1,7.491,7.491,0,0,0-7.445-6.821c-.066,0-.131,0-.2,0a1.291,1.291,0,0,1-1.106-.589,7.456,7.456,0,0,0-6.983-3.448,7.429,7.429,0,0,0-5.075,2.65,7.436,7.436,0,0,0-1.716,5.463,7.532,7.532,0,0,0,.441,1.952,1.268,1.268,0,0,1-.25,1.3,7.508,7.508,0,0,0-1.916,5.691,7.428,7.428,0,0,0,2.673,5.095Zm-1,1.2ZM913.549-83.94v0Z" transform="translate(-886.142 97.447)" fill="#0f0f0f"/>
  </g>
</svg>
