<svg id="구성_요소_66_1" data-name="구성 요소 66 – 1" xmlns="http://www.w3.org/2000/svg" width="13.869" height="13.597" viewBox="0 0 13.869 13.597">
  <g id="그룹_934" data-name="그룹 934" transform="translate(0 0)" opacity="0.179">
    <path id="패스_130" data-name="패스 130" d="M699.316,561.6l-2.273-4.767a1.385,1.385,0,0,0-2.051-.489l-.32.265-3.923,3.06a1.914,1.914,0,0,0-.669.9,1.212,1.212,0,0,0,.79,1.484l7.205,1.646a1.273,1.273,0,0,0,1.428-.977A1.587,1.587,0,0,0,699.316,561.6Z" transform="translate(-689.187 -550.12)"/>
    <g id="그룹_5" data-name="그룹 5" transform="translate(0 3.316)">
      <path id="패스_131" data-name="패스 131" d="M689.761,548.269c.153,1.271-.376,2.38-1.182,2.477s-1.583-.854-1.737-2.125.376-2.38,1.182-2.477S689.607,547,689.761,548.269Z" transform="translate(-686.816 -546.138)"/>
    </g>
    <g id="그룹_6" data-name="그룹 6" transform="translate(3.67)">
      <path id="패스_132" data-name="패스 132" d="M703.569,535.791c.153,1.271-.376,2.38-1.181,2.477s-1.584-.854-1.737-2.125.376-2.38,1.181-2.477S703.416,534.52,703.569,535.791Z" transform="translate(-700.624 -533.659)"/>
    </g>
    <g id="그룹_7" data-name="그룹 7" transform="translate(8.159 1.236)">
      <path id="패스_133" data-name="패스 133" d="M720.517,541.239c-.753,1.035-1.9,1.486-2.552,1.008s-.577-1.7.176-2.739,1.9-1.486,2.552-1.008S721.271,540.2,720.517,541.239Z" transform="translate(-717.52 -538.309)"/>
    </g>
    <g id="그룹_8" data-name="그룹 8" transform="translate(10.251 5.641)">
      <path id="패스_134" data-name="패스 134" d="M728.387,557.818c-.753,1.035-1.9,1.486-2.552,1.009s-.577-1.7.176-2.739,1.9-1.486,2.552-1.009S729.14,556.783,728.387,557.818Z" transform="translate(-725.39 -554.888)"/>
    </g>
  </g>
</svg>
