<svg xmlns="http://www.w3.org/2000/svg" width="12.51" height="12.51" viewBox="0 0 12.51 12.51">
  <g id="구성_요소_55_1" data-name="구성 요소 55 – 1" transform="translate(0)">
    <g id="그룹_60" data-name="그룹 60" transform="translate(5.853 1.911)">
      <path id="패스_177" data-name="패스 177" d="M217.48,314.628a.519.519,0,0,1-.31-.1l-2.585-1.911a.521.521,0,0,1-.211-.419v-3.823a.521.521,0,1,1,1.043,0v3.56l2.373,1.755a.521.521,0,0,1-.31.94Z" transform="translate(-214.375 -307.852)" fill="#363636"/>
    </g>
    <g id="그룹_61" data-name="그룹 61" transform="translate(0)">
      <path id="패스_178" data-name="패스 178" d="M186.943,309.362a6.255,6.255,0,1,1,6.255-6.255A6.262,6.262,0,0,1,186.943,309.362Zm0-11.468a5.213,5.213,0,1,0,5.213,5.213A5.219,5.219,0,0,0,186.943,297.894Z" transform="translate(-180.688 -296.852)" fill="#363636"/>
    </g>
  </g>
</svg>
