<svg id="구성_요소_120_1" data-name="구성 요소 120 – 1" xmlns="http://www.w3.org/2000/svg" xmlns:xlink="http://www.w3.org/1999/xlink" width="2050.854" height="2079.047" viewBox="0 0 2050.854 2079.047">
  <defs>
    <linearGradient id="linear-gradient" x1="0.5" x2="0.5" y2="1" gradientUnits="objectBoundingBox">
      <stop offset="0" stop-color="#fff"/>
      <stop offset="0.079" stop-color="#ffe8cd"/>
      <stop offset="1" stop-color="#ffe8cd"/>
    </linearGradient>
    <linearGradient id="linear-gradient-2" x1="0.5" y1="1" x2="0.5" gradientUnits="objectBoundingBox">
      <stop offset="0" stop-color="#fff"/>
      <stop offset="0.276" stop-color="#fafbfc"/>
      <stop offset="0.492" stop-color="#fffef3"/>
      <stop offset="1" stop-color="#fff"/>
    </linearGradient>
    <linearGradient id="linear-gradient-4" x1="0.5" y1="1" x2="0.5" gradientUnits="objectBoundingBox">
      <stop offset="0" stop-color="#c97d9d"/>
      <stop offset="1" stop-color="#e5bdca"/>
    </linearGradient>
    <linearGradient id="linear-gradient-5" x1="-15.509" y1="0.5" x2="-14.509" y2="0.5" gradientUnits="objectBoundingBox">
      <stop offset="0" stop-color="#dbdbdb"/>
      <stop offset="1" stop-color="#ededed"/>
    </linearGradient>
    <linearGradient id="linear-gradient-6" x1="-8.481" y1="0.5" x2="-7.481" y2="0.5" gradientUnits="objectBoundingBox">
      <stop offset="0" stop-color="#e6e6e6"/>
      <stop offset="1" stop-color="#ededed"/>
    </linearGradient>
    <linearGradient id="linear-gradient-7" x1="-10.431" y1="0.5" x2="-9.431" y2="0.5" gradientUnits="objectBoundingBox">
      <stop offset="0" stop-color="#7784a5"/>
      <stop offset="1" stop-color="#67728f"/>
    </linearGradient>
    <linearGradient id="linear-gradient-8" x1="-7.208" y1="0.5" x2="-6.208" y2="0.5" xlink:href="#linear-gradient-7"/>
    <linearGradient id="linear-gradient-9" x1="-2.411" y1="1" x2="-2.411" y2="0" xlink:href="#linear-gradient-6"/>
    <linearGradient id="linear-gradient-10" x1="-64.878" y1="0.5" x2="-63.878" y2="0.5" gradientUnits="objectBoundingBox">
      <stop offset="0" stop-color="#fff"/>
      <stop offset="1" stop-color="#fff"/>
    </linearGradient>
    <linearGradient id="linear-gradient-11" x1="-17.215" y1="0.5" x2="-16.215" y2="0.5" gradientUnits="objectBoundingBox">
      <stop offset="0" stop-color="#ab6a85"/>
      <stop offset="1" stop-color="#c78aa2"/>
    </linearGradient>
    <linearGradient id="linear-gradient-12" x1="-28.216" y1="1" x2="-28.216" y2="0" xlink:href="#linear-gradient-5"/>
    <linearGradient id="linear-gradient-13" x1="-18.312" y1="1" x2="-18.312" y2="0" xlink:href="#linear-gradient-6"/>
    <linearGradient id="linear-gradient-14" x1="-24.625" y1="0.5" x2="-23.625" y2="0.5" xlink:href="#linear-gradient-7"/>
    <linearGradient id="linear-gradient-15" x1="-13.383" y1="0.5" x2="-12.383" y2="0.5" xlink:href="#linear-gradient-7"/>
    <linearGradient id="linear-gradient-16" x1="-5.258" y1="1" x2="-5.258" y2="0" xlink:href="#linear-gradient-6"/>
    <linearGradient id="linear-gradient-17" x1="-117.64" y1="0.5" x2="-116.64" y2="0.5" xlink:href="#linear-gradient-10"/>
    <linearGradient id="linear-gradient-18" x1="-13.594" y1="0.5" x2="-12.594" y2="0.5" xlink:href="#linear-gradient-11"/>
    <linearGradient id="linear-gradient-19" y1="0.5" x2="1" y2="0.5" gradientUnits="objectBoundingBox">
      <stop offset="0" stop-color="#ededed"/>
      <stop offset="1" stop-color="#fff"/>
    </linearGradient>
    <linearGradient id="linear-gradient-21" y1="0.5" x2="1" y2="0.5" gradientUnits="objectBoundingBox">
      <stop offset="0" stop-color="#99a6cc"/>
      <stop offset="1" stop-color="#8896bc"/>
    </linearGradient>
    <linearGradient id="linear-gradient-22" y1="0.5" x2="1" y2="0.5" gradientUnits="objectBoundingBox">
      <stop offset="0" stop-color="#535e7a"/>
      <stop offset="1" stop-color="#99a6cc"/>
    </linearGradient>
    <linearGradient id="linear-gradient-23" y1="0.5" x2="1" y2="0.5" gradientUnits="objectBoundingBox">
      <stop offset="0" stop-color="#8896bc"/>
      <stop offset="0.469" stop-color="#8896bc"/>
      <stop offset="1" stop-color="#99a6cc"/>
    </linearGradient>
    <linearGradient id="linear-gradient-25" x1="0" y1="0.5" x2="1" y2="0.5" xlink:href="#linear-gradient-6"/>
    <linearGradient id="linear-gradient-29" x1="0.5" y1="1" x2="0.5" y2="0" xlink:href="#linear-gradient-10"/>
    <linearGradient id="linear-gradient-30" x1="0" y1="0.5" x2="1" y2="0.5" xlink:href="#linear-gradient-10"/>
    <linearGradient id="linear-gradient-31" x1="0" y1="0.5" x2="1" y2="0.5" xlink:href="#linear-gradient-4"/>
    <linearGradient id="linear-gradient-32" x1="0.5" y1="1" x2="0.5" y2="0" xlink:href="#linear-gradient-6"/>
  </defs>
  <rect id="사각형_681" data-name="사각형 681" width="2050.854" height="2079.047" opacity="0.479" fill="url(#linear-gradient)"/>
  <g id="구성_요소_37_1" data-name="구성 요소 37 – 1" transform="translate(12.752 212.787)">
    <path id="패스_12070" data-name="패스 12070" d="M1679.856,628.55a22.17,22.17,0,1,0-17.065-36.427,27.475,27.475,0,0,0-44.065-11.155,37.036,37.036,0,0,0-72.307,8.448A21.405,21.405,0,1,0,1534.5,628.55Z" transform="translate(-1513.019 -554.946)" fill="url(#linear-gradient-2)"/>
  </g>
  <path id="패스_12071" data-name="패스 12071" d="M1635.82,609.413a16.406,16.406,0,1,0-12.561-26.956,20.171,20.171,0,0,0-32.434-8.254,27.236,27.236,0,0,0-53.222,6.251,15.809,15.809,0,1,0-8.775,28.959Z" transform="translate(-698.102 -404.52)" fill="url(#linear-gradient-2)"/>
  <ellipse id="타원_317" data-name="타원 317" cx="11.412" cy="11.412" rx="11.412" ry="11.412" transform="translate(1802.099 212.378) rotate(-76.718)" fill="#fffef3"/>
  <ellipse id="타원_318" data-name="타원 318" cx="6.624" cy="6.624" rx="6.624" ry="6.624" transform="translate(769.247 195.089) rotate(-76.718)" fill="#fffef3"/>
  <ellipse id="타원_319" data-name="타원 319" cx="7.525" cy="7.525" rx="7.525" ry="7.525" transform="translate(279.32 187.79) rotate(-76.718)" fill="#fffef3"/>
  <path id="패스_12072" data-name="패스 12072" d="M2227.922,1860.079h676.032l-286.965-303.272c-27.188-28.731-79.921-28.731-107.107,0l-24.291,25.672-86.541-91.458c-33.083-34.965-97.254-34.965-130.339,0L1891.1,1860.079Z" transform="translate(-900.903 -1233.252)" fill="#f9cac3" opacity="0.312"/>
  <path id="패스_12073" data-name="패스 12073" d="M1313.762,2125.049,992.424,1734.962c-30.444-36.957-89.492-36.957-119.936,0L551.149,2125.049Z" transform="translate(-449.531 -1555.526)" fill="#f9cac3" opacity="0.312"/>
  <g id="그룹_816" data-name="그룹 816" transform="translate(1528.095 96.579)">
    <g id="그룹_245" data-name="그룹 245" transform="translate(29.274 77.8)">
      <path id="패스_710" data-name="패스 710" d="M-311.166-49.236a.849.849,0,0,1-.848.848h0a.849.849,0,0,1-.848-.848V-80.121a.849.849,0,0,1,.848-.848h0a.849.849,0,0,1,.848.848Z" transform="translate(312.862 80.969)" fill="#00537f"/>
      <path id="패스_711" data-name="패스 711" d="M-303.655-49.236a.849.849,0,0,1-.848.848h0a.848.848,0,0,1-.848-.848V-80.121a.848.848,0,0,1,.848-.848h0a.849.849,0,0,1,.848.848Z" transform="translate(320.964 80.969)" fill="#00537f"/>
    </g>
    <g id="그룹_246" data-name="그룹 246" transform="translate(0.001 0)">
      <path id="패스_712" data-name="패스 712" d="M-278.668-27.023s.339-5.089,14.253-22.4,13.32-31.479,13.32-31.479a37.5,37.5,0,0,0-37.5-37.5h-.848a37.5,37.5,0,0,0-37.5,37.5s-.595,14.172,13.322,31.479,14.254,22.4,14.254,22.4Z" transform="translate(326.945 118.397)" fill="#f49f9f"/>
      <path id="패스_713" data-name="패스 713" d="M-294.791-27.023s.156-5.089,6.6-22.4A94.519,94.519,0,0,0-282.02-80.9c0-20.708-7.776-37.5-17.367-37.5h-.393c-9.591,0-17.367,16.789-17.367,37.5a94.541,94.541,0,0,0,6.17,31.479c6.444,17.309,6.6,22.4,6.6,22.4Z" transform="translate(337.511 118.397)" fill="#fff2cb"/>
    </g>
    <g id="그룹_247" data-name="그룹 247" transform="translate(24.87 100.538)">
      <path id="패스_714" data-name="패스 714" d="M-291-69.044v10.331A4.792,4.792,0,0,1-295.8-53.92H-309.51a4.793,4.793,0,0,1-4.793-4.793V-69.044Z" transform="translate(315.712 71.093)" fill="#ffb97c"/>
      <path id="패스_715" data-name="패스 715" d="M-288.862-68.735a1.3,1.3,0,0,1-1.3,1.3h-23.526a1.3,1.3,0,0,1-1.3-1.3h0a1.3,1.3,0,0,1,1.3-1.3h23.526a1.3,1.3,0,0,1,1.3,1.3Z" transform="translate(314.981 70.03)" fill="#d35c38"/>
    </g>
  </g>
  <g id="그룹_7276" data-name="그룹 7276" transform="translate(147.438 -936.588)">
    <ellipse id="타원_316" data-name="타원 316" cx="7.997" cy="7.997" rx="7.997" ry="7.997" transform="translate(909.206 1308.383) rotate(-76.718)" fill="#fffef3"/>
    <rect id="사각형_52" data-name="사각형 52" width="41.28" height="140.353" transform="translate(875.815 1160.886)" fill="url(#linear-gradient-4)"/>
    <rect id="사각형_53" data-name="사각형 53" width="4.128" height="140.353" transform="translate(784.998 1160.886)" fill="#cb83a1"/>
    <rect id="사각형_54" data-name="사각형 54" width="4.128" height="140.353" transform="translate(838.662 1160.886)" fill="#c17c9b"/>
    <rect id="사각형_55" data-name="사각형 55" width="4.128" height="140.353" transform="translate(894.804 1160.886)" fill="#cb83a1"/>
    <rect id="사각형_56" data-name="사각형 56" width="3.302" height="140.353" transform="translate(951.77 1160.886)" fill="#c17c9b"/>
    <rect id="사각형_57" data-name="사각형 57" width="3.302" height="140.353" transform="translate(1006.441 1160.886)" fill="#cb83a1"/>
    <g id="그룹_125" data-name="그룹 125" transform="translate(800.613 1222.152)">
      <g id="그룹_117" data-name="그룹 117" transform="translate(48.954 34.542)">
        <g id="그룹_116" data-name="그룹 116">
          <g id="그룹_115" data-name="그룹 115">
            <path id="패스_483" data-name="패스 483" d="M2356.281,2437.631l-6.437-10.1-6.806,3.973s5.886,6.93,8.081,9.6l3.132,8.453a3.054,3.054,0,0,0,4.013,1.6h0a3.055,3.055,0,0,0,1.6-4.013Z" transform="translate(-2343.037 -2427.533)" fill="url(#linear-gradient-5)"/>
          </g>
        </g>
      </g>
      <g id="그룹_120" data-name="그룹 120" transform="translate(6.736 34.542)">
        <g id="그룹_119" data-name="그룹 119">
          <g id="그룹_118" data-name="그룹 118">
            <path id="패스_484" data-name="패스 484" d="M2205.944,2437.631l5.84-10.1,11.564,5.047s-10.047,5.856-12.244,8.526l-3.724,8.453a3.056,3.056,0,0,1-4.014,1.6h0a3.057,3.057,0,0,1-1.606-4.013Z" transform="translate(-2201.513 -2427.533)" fill="url(#linear-gradient-6)"/>
          </g>
        </g>
      </g>
      <path id="패스_485" data-name="패스 485" d="M2194.825,2382.3s-9.02.767-9.808,8.543-2.141,17.692-6.085,18.256a5.4,5.4,0,0,0,6.534-3.865c1.692-5.15,5.523-10.2,8.9-10.879Z" transform="translate(-2178.932 -2361.255)" fill="url(#linear-gradient-7)"/>
      <path id="패스_486" data-name="패스 486" d="M2323.413,2319.875s-4.027-4.11-10.076,0c-1.1.749-24.62,15.99-24.62,15.99l11.047.971Z" transform="translate(-2255.968 -2316.167)" fill="url(#linear-gradient-8)"/>
      <g id="그룹_122" data-name="그룹 122" transform="translate(0.79 3.035)">
        <g id="그룹_121" data-name="그룹 121">
          <path id="패스_487" data-name="패스 487" d="M2181.826,2373.04l4.184-9.518,5.81-10.043a57.3,57.3,0,0,1,.505-8.011c1.647-6.974,9.817-6.887,9.817-6.887h20.434c3.238,0,14.1-10.582,17.817-14.381,1.262-1.29,3.993-2.808,6.481-2.1,6.548,1.859,13.435,11.5,13.914,14.471,0,0,.189,1.011-.347,1.444-.09.226-.019.592-.322.949-.146.173-.428.175-.77.205.028.3-.281.64-.466.828-1.115,1.12-12.723-2.093-13.4-1.626-2.955,2.038-2.8,15.841-2.774,17.253l5.037,7.9,3.587,9.518a3.057,3.057,0,0,1-5.619,2.409l-3.131-8.452c-1.963-2.386-6.874-8.178-7.892-9.376a83.007,83.007,0,0,1-30.233.258c-.006,0-11.092,6.449-13.285,9.118l-3.727,8.452a3.057,3.057,0,0,1-5.62-2.409Z" transform="translate(-2181.579 -2321.917)" fill="url(#linear-gradient-9)"/>
        </g>
      </g>
      <path id="패스_488" data-name="패스 488" d="M2414.138,2340.83c.178.489.576.792.888.677s.42-.6.242-1.092-.578-.792-.89-.678S2413.958,2340.341,2414.138,2340.83Z" transform="translate(-2343.913 -2331.369)" fill="#535e7a"/>
      <g id="그룹_124" data-name="그룹 124" transform="translate(61.577)">
        <g id="그룹_123" data-name="그룹 123">
          <path id="패스_489" data-name="패스 489" d="M2385.383,2317.063s.28-2.269,4.243-5.321a10.393,10.393,0,0,0-1.056,3.744s.1.456-.174.573c-.76.32-2.769,1.323-2.769,1.323S2385.239,2317.392,2385.383,2317.063Z" transform="translate(-2385.351 -2311.743)" fill="url(#linear-gradient-10)"/>
        </g>
      </g>
    </g>
    <g id="그룹_127" data-name="그룹 127" transform="translate(848.434 1235.551)">
      <g id="그룹_126" data-name="그룹 126">
        <path id="패스_490" data-name="패스 490" d="M2342.542,2356.657s6.218,7.369,11.838,9.641a89.367,89.367,0,0,0-1.049,11.529s-11.137-7.175-14.094-18.381Z" transform="translate(-2339.237 -2356.657)" fill="url(#linear-gradient-11)"/>
      </g>
    </g>
    <g id="그룹_139" data-name="그룹 139" transform="translate(913.404 1222.152)">
      <g id="그룹_131" data-name="그룹 131" transform="translate(48.954 34.542)">
        <g id="그룹_130" data-name="그룹 130">
          <g id="그룹_129" data-name="그룹 129">
            <path id="패스_491" data-name="패스 491" d="M2734.384,2437.631l-6.436-10.1-6.809,3.973s5.885,6.93,8.082,9.6l3.131,8.453a3.054,3.054,0,0,0,4.012,1.6h0a3.055,3.055,0,0,0,1.606-4.013Z" transform="translate(-2721.14 -2427.533)" fill="url(#linear-gradient-12)"/>
          </g>
        </g>
      </g>
      <g id="그룹_134" data-name="그룹 134" transform="translate(6.737 34.542)">
        <g id="그룹_133" data-name="그룹 133">
          <g id="그룹_132" data-name="그룹 132">
            <path id="패스_492" data-name="패스 492" d="M2584.049,2437.631l5.841-10.1,11.564,5.047s-10.048,5.856-12.244,8.526l-3.724,8.453a3.056,3.056,0,0,1-4.014,1.6h0a3.058,3.058,0,0,1-1.607-4.013Z" transform="translate(-2579.617 -2427.533)" fill="url(#linear-gradient-13)"/>
          </g>
        </g>
      </g>
      <path id="패스_493" data-name="패스 493" d="M2572.927,2382.3s-9.019.767-9.807,8.543-2.141,17.692-6.085,18.256a5.4,5.4,0,0,0,6.535-3.865c1.69-5.15,4.991-8.786,8.371-9.463Z" transform="translate(-2557.035 -2361.255)" fill="url(#linear-gradient-14)"/>
      <path id="패스_494" data-name="패스 494" d="M2702.431,2319.917s-3.28-5.547-11.774.086c-1.111.734-23.837,15.46-23.837,15.46l11.048.97Z" transform="translate(-2634.07 -2315.767)" fill="url(#linear-gradient-15)"/>
      <g id="그룹_136" data-name="그룹 136" transform="translate(0.79 3.035)">
        <g id="그룹_135" data-name="그룹 135">
          <path id="패스_495" data-name="패스 495" d="M2559.932,2373.04l4.183-9.518,5.81-10.043a57.483,57.483,0,0,1,.505-8.011c1.648-6.974,9.818-6.887,9.818-6.887h20.433c3.239,0,14.1-10.582,17.818-14.381,1.261-1.29,3.992-2.808,6.481-2.1,6.548,1.859,13.434,11.5,13.914,14.471,0,0,.189,1.011-.346,1.444-.091.226-.02.592-.323.949-.146.173-.427.175-.77.205.029.3-.28.64-.466.828-1.116,1.12-12.723-2.093-13.4-1.626-2.955,2.038-2.8,15.848-2.774,17.254l5.036,7.9,3.588,9.518a3.057,3.057,0,0,1-5.619,2.409l-3.132-8.452c-1.963-2.386-6.874-8.177-7.891-9.376a83.011,83.011,0,0,1-30.233.258s-11.091,6.449-13.287,9.118l-3.725,8.452a3.057,3.057,0,0,1-5.619-2.409Z" transform="translate(-2559.684 -2321.917)" fill="url(#linear-gradient-16)"/>
        </g>
      </g>
      <path id="패스_496" data-name="패스 496" d="M2792.241,2340.83c.178.489.576.792.889.677s.42-.6.243-1.092-.578-.792-.889-.678S2792.061,2340.341,2792.241,2340.83Z" transform="translate(-2722.015 -2331.369)" fill="#535e7a"/>
      <g id="그룹_138" data-name="그룹 138" transform="translate(61.577)">
        <g id="그룹_137" data-name="그룹 137">
          <path id="패스_497" data-name="패스 497" d="M2763.487,2317.063s.279-2.269,4.243-5.321a10.371,10.371,0,0,0-1.056,3.744s.1.456-.173.573c-.761.32-2.769,1.323-2.769,1.323S2763.342,2317.392,2763.487,2317.063Z" transform="translate(-2763.454 -2311.743)" fill="url(#linear-gradient-17)"/>
        </g>
      </g>
    </g>
    <g id="그룹_142" data-name="그룹 142" transform="translate(924.708 1241.576)">
      <g id="그룹_141" data-name="그룹 141">
        <g id="그룹_140" data-name="그룹 140">
          <path id="패스_498" data-name="패스 498" d="M2604.786,2377.13s21.616-.253,21.747-.278c-.227,4.571-3.252,14.968-19.243,12.224-6.416-.9-10.078-2.145-12.365-3.4a11.9,11.9,0,0,1,.184-1.511C2596.809,2377.014,2604.786,2377.13,2604.786,2377.13Z" transform="translate(-2594.926 -2376.852)" fill="url(#linear-gradient-18)"/>
        </g>
      </g>
    </g>
    <g id="그룹_144" data-name="그룹 144" transform="translate(765.657 1031.593)">
      <path id="패스_499" data-name="패스 499" d="M2187.431,1660.921s-63.938,105.636-133.438,103.985h69.5S2173.532,1745.067,2187.431,1660.921Z" transform="translate(-2053.993 -1660.921)" fill="#ef4343"/>
    </g>
    <path id="패스_500" data-name="패스 500" d="M2286.968,1764.906s49.986-19.84,63.94-103.985l-.344,103.985Z" transform="translate(-1451.813 -629.328)" fill="url(#linear-gradient-19)"/>
    <path id="패스_501" data-name="패스 501" d="M2501.308,1660.921s63.939,105.636,133.437,103.985h-69.5S2515.208,1745.067,2501.308,1660.921Z" transform="translate(-1602.212 -629.328)" fill="url(#linear-gradient-19)"/>
    <g id="그룹_145" data-name="그룹 145" transform="translate(898.753 1031.593)">
      <path id="패스_502" data-name="패스 502" d="M2564.441,1764.906s-49.983-19.84-63.938-103.985h0l-.343,103.985Z" transform="translate(-2500.16 -1660.921)" fill="#ef4343"/>
    </g>
    <g id="그룹_147" data-name="그룹 147" transform="translate(761.85 1123.813)">
      <path id="패스_503" data-name="패스 503" d="M2319.82,2015.036v-28.208s.389-4.736-12.023-4.736-17.406,8.2-31.389,4.736h0c-5.592-1.529-10.663-4.736-18.535-4.736s-12.661,3.207-18.254,4.736h0c-13.985,3.464-18.955-4.736-31.369-4.736s-17.206,8.2-31.19,4.736h0c-5.6-1.529-10.36-4.736-18.233-4.736-12.411,0-17.2,8.2-31.189,4.736h0c-5.594-1.529-10.358-4.736-18.23-4.736s-12.884,3.207-18.478,4.736h0c-13.985,3.464-18.28-4.736-30.695-4.736s-11.211,4.736-11.211,4.736v28.208Z" transform="translate(-2048.99 -1982.092)" fill="#ef4c4e"/>
    </g>
    <g id="그룹_148" data-name="그룹 148" transform="translate(768.25 1134.705)">
      <path id="패스_504" data-name="패스 504" d="M2078.2,2018.6l2.394,4.852,5.353.777-3.873,3.776.913,5.332-4.788-2.518-4.789,2.518.915-5.332-3.873-3.776,5.354-.777Z" transform="translate(-2070.449 -2018.604)" fill="#f9c7d4"/>
      <path id="패스_505" data-name="패스 505" d="M2238.992,2018.6l2.394,4.852,5.356.777-3.874,3.776.913,5.332-4.788-2.518-4.788,2.518.913-5.332-3.873-3.776,5.353-.777Z" transform="translate(-2183.278 -2018.604)" fill="#f9c7d4"/>
      <path id="패스_506" data-name="패스 506" d="M2399.791,2018.6l2.4,4.852,5.354.777-3.874,3.776.914,5.332-4.79-2.518-4.787,2.518.914-5.332-3.874-3.776,5.354-.777Z" transform="translate(-2296.109 -2018.604)" fill="#f9c7d4"/>
      <path id="패스_507" data-name="패스 507" d="M2560.593,2018.6l2.394,4.852,5.354.777-3.873,3.776.913,5.332-4.787-2.518-4.789,2.518.913-5.332-3.874-3.776,5.356-.777Z" transform="translate(-2408.94 -2018.604)" fill="#f9c7d4"/>
      <path id="패스_508" data-name="패스 508" d="M2721.391,2018.6l2.394,4.852,5.353.777-3.872,3.776.914,5.332-4.788-2.518-4.788,2.518.914-5.332-3.875-3.776,5.357-.777Z" transform="translate(-2521.77 -2018.604)" fill="#f9c7d4"/>
      <path id="패스_509" data-name="패스 509" d="M2882.192,2018.6l2.393,4.852,5.354.777-3.875,3.776.915,5.332-4.788-2.518-4.788,2.518.912-5.332-3.872-3.776,5.354-.777Z" transform="translate(-2634.604 -2018.604)" fill="#f9c7d4"/>
    </g>
    <g id="그룹_149" data-name="그룹 149" transform="translate(763.957 1126.185)">
      <path id="패스_510" data-name="패스 510" d="M2058.205,1994.092a1.076,1.076,0,1,1-1.077-1.076A1.076,1.076,0,0,1,2058.205,1994.092Z" transform="translate(-2056.054 -1992.129)" fill="#f9c7d4"/>
      <path id="패스_511" data-name="패스 511" d="M2076.035,1991.118a1.076,1.076,0,1,1-1.075-1.076A1.076,1.076,0,0,1,2076.035,1991.118Z" transform="translate(-2068.565 -1990.043)" fill="#f9c7d4"/>
      <path id="패스_512" data-name="패스 512" d="M2093.866,1991.118a1.077,1.077,0,1,1-1.076-1.076A1.076,1.076,0,0,1,2093.866,1991.118Z" transform="translate(-2081.076 -1990.043)" fill="#f9c7d4"/>
      <path id="패스_513" data-name="패스 513" d="M2111.7,1997.064a1.077,1.077,0,1,1-1.076-1.075A1.077,1.077,0,0,1,2111.7,1997.064Z" transform="translate(-2093.59 -1994.215)" fill="#f9c7d4"/>
      <path id="패스_514" data-name="패스 514" d="M2129.531,2003.008a1.075,1.075,0,1,1-1.076-1.075A1.076,1.076,0,0,1,2129.531,2003.008Z" transform="translate(-2106.104 -1998.386)" fill="#f9c7d4"/>
      <path id="패스_515" data-name="패스 515" d="M2147.365,2008.951a1.075,1.075,0,1,1-1.076-1.076A1.075,1.075,0,0,1,2147.365,2008.951Z" transform="translate(-2118.617 -2002.556)" fill="#f9c7d4"/>
      <path id="패스_516" data-name="패스 516" d="M2165.195,2011.925a1.077,1.077,0,1,1-1.075-1.075A1.076,1.076,0,0,1,2165.195,2011.925Z" transform="translate(-2131.126 -2004.643)" fill="#f9c7d4"/>
      <path id="패스_517" data-name="패스 517" d="M2270.032,1994.092a1.075,1.075,0,1,0,1.075-1.076A1.075,1.075,0,0,0,2270.032,1994.092Z" transform="translate(-2206.2 -1992.129)" fill="#f9c7d4"/>
      <path id="패스_518" data-name="패스 518" d="M2252.2,1991.118a1.076,1.076,0,1,0,1.076-1.076A1.076,1.076,0,0,0,2252.2,1991.118Z" transform="translate(-2193.688 -1990.043)" fill="#f9c7d4"/>
      <path id="패스_519" data-name="패스 519" d="M2234.369,1994.092a1.076,1.076,0,1,0,1.075-1.076A1.074,1.074,0,0,0,2234.369,1994.092Z" transform="translate(-2181.176 -1992.129)" fill="#f9c7d4"/>
      <path id="패스_520" data-name="패스 520" d="M2216.536,2000.037a1.076,1.076,0,1,0,1.077-1.075A1.077,1.077,0,0,0,2216.536,2000.037Z" transform="translate(-2168.662 -1996.301)" fill="#f9c7d4"/>
      <path id="패스_521" data-name="패스 521" d="M2198.706,2005.981a1.076,1.076,0,1,0,1.077-1.076A1.076,1.076,0,0,0,2198.706,2005.981Z" transform="translate(-2156.151 -2000.472)" fill="#f9c7d4"/>
      <path id="패스_522" data-name="패스 522" d="M2180.873,2011.925a1.076,1.076,0,1,0,1.077-1.075A1.076,1.076,0,0,0,2180.873,2011.925Z" transform="translate(-2143.639 -2004.643)" fill="#f9c7d4"/>
      <path id="패스_523" data-name="패스 523" d="M2290.016,2000.037a1.077,1.077,0,1,1-1.077-1.075A1.076,1.076,0,0,1,2290.016,2000.037Z" transform="translate(-2218.712 -1996.301)" fill="#f9c7d4"/>
      <path id="패스_524" data-name="패스 524" d="M2307.849,2005.981a1.076,1.076,0,1,1-1.078-1.076A1.077,1.077,0,0,1,2307.849,2005.981Z" transform="translate(-2231.225 -2000.472)" fill="#f9c7d4"/>
      <path id="패스_525" data-name="패스 525" d="M2325.682,2011.925a1.076,1.076,0,1,1-1.078-1.075A1.076,1.076,0,0,1,2325.682,2011.925Z" transform="translate(-2243.738 -2004.643)" fill="#f9c7d4"/>
      <path id="패스_526" data-name="패스 526" d="M2430.517,1994.092a1.076,1.076,0,1,0,1.076-1.076A1.075,1.075,0,0,0,2430.517,1994.092Z" transform="translate(-2318.81 -1992.129)" fill="#f9c7d4"/>
      <path id="패스_527" data-name="패스 527" d="M2412.684,1994.092a1.076,1.076,0,1,0,1.078-1.076A1.076,1.076,0,0,0,2412.684,1994.092Z" transform="translate(-2306.296 -1992.129)" fill="#f9c7d4"/>
      <path id="패스_528" data-name="패스 528" d="M2394.859,1997.064a1.076,1.076,0,1,0,1.074-1.075A1.075,1.075,0,0,0,2394.859,1997.064Z" transform="translate(-2293.791 -1994.215)" fill="#f9c7d4"/>
      <path id="패스_529" data-name="패스 529" d="M2377.021,2003.008a1.077,1.077,0,1,0,1.077-1.075A1.076,1.076,0,0,0,2377.021,2003.008Z" transform="translate(-2281.273 -1998.386)" fill="#f9c7d4"/>
      <path id="패스_530" data-name="패스 530" d="M2359.191,2008.951a1.076,1.076,0,1,0,1.076-1.076A1.075,1.075,0,0,0,2359.191,2008.951Z" transform="translate(-2268.762 -2002.556)" fill="#f9c7d4"/>
      <path id="패스_531" data-name="패스 531" d="M2341.364,2011.925a1.076,1.076,0,1,0,1.075-1.075A1.075,1.075,0,0,0,2341.364,2011.925Z" transform="translate(-2256.253 -2004.643)" fill="#f9c7d4"/>
      <path id="패스_532" data-name="패스 532" d="M2450.5,2000.037a1.077,1.077,0,1,1-1.078-1.075A1.078,1.078,0,0,1,2450.5,2000.037Z" transform="translate(-2331.323 -1996.301)" fill="#f9c7d4"/>
      <path id="패스_533" data-name="패스 533" d="M2468.329,2005.981a1.075,1.075,0,1,1-1.074-1.076A1.074,1.074,0,0,1,2468.329,2005.981Z" transform="translate(-2343.833 -2000.472)" fill="#f9c7d4"/>
      <path id="패스_534" data-name="패스 534" d="M2486.165,2011.925a1.076,1.076,0,1,1-1.076-1.075A1.075,1.075,0,0,1,2486.165,2011.925Z" transform="translate(-2356.348 -2004.643)" fill="#f9c7d4"/>
      <path id="패스_535" data-name="패스 535" d="M2573.17,1994.092a1.075,1.075,0,1,0,1.076-1.076A1.075,1.075,0,0,0,2573.17,1994.092Z" transform="translate(-2418.908 -1992.129)" fill="#f9c7d4"/>
      <path id="패스_536" data-name="패스 536" d="M2555.341,1997.064a1.077,1.077,0,1,0,1.075-1.075A1.076,1.076,0,0,0,2555.341,1997.064Z" transform="translate(-2406.398 -1994.215)" fill="#f9c7d4"/>
      <path id="패스_537" data-name="패스 537" d="M2537.507,2003.008a1.077,1.077,0,1,0,1.077-1.075A1.075,1.075,0,0,0,2537.507,2003.008Z" transform="translate(-2393.884 -1998.386)" fill="#f9c7d4"/>
      <path id="패스_538" data-name="패스 538" d="M2519.677,2008.951a1.076,1.076,0,1,0,1.076-1.076A1.076,1.076,0,0,0,2519.677,2008.951Z" transform="translate(-2381.373 -2002.556)" fill="#f9c7d4"/>
      <path id="패스_539" data-name="패스 539" d="M2501.843,2011.925a1.076,1.076,0,1,0,1.077-1.075A1.076,1.076,0,0,0,2501.843,2011.925Z" transform="translate(-2368.859 -2004.643)" fill="#f9c7d4"/>
      <path id="패스_540" data-name="패스 540" d="M2591.314,1994.092a1.076,1.076,0,1,0,1.075-1.076A1.075,1.075,0,0,0,2591.314,1994.092Z" transform="translate(-2431.639 -1992.129)" fill="#f9c7d4"/>
      <path id="패스_541" data-name="패스 541" d="M2611.3,2000.037a1.077,1.077,0,1,1-1.076-1.075A1.077,1.077,0,0,1,2611.3,2000.037Z" transform="translate(-2444.153 -1996.301)" fill="#f9c7d4"/>
      <path id="패스_542" data-name="패스 542" d="M2629.133,2005.981a1.076,1.076,0,1,1-1.075-1.076A1.075,1.075,0,0,1,2629.133,2005.981Z" transform="translate(-2456.667 -2000.472)" fill="#f9c7d4"/>
      <path id="패스_543" data-name="패스 543" d="M2646.965,2011.925a1.077,1.077,0,1,1-1.077-1.075A1.077,1.077,0,0,1,2646.965,2011.925Z" transform="translate(-2469.179 -2004.643)" fill="#f9c7d4"/>
      <path id="패스_544" data-name="패스 544" d="M2733.965,1994.092a1.077,1.077,0,1,0,1.078-1.076A1.077,1.077,0,0,0,2733.965,1994.092Z" transform="translate(-2531.737 -1992.129)" fill="#f9c7d4"/>
      <path id="패스_545" data-name="패스 545" d="M2754.437,1994.092a1.076,1.076,0,1,0,1.076-1.076A1.075,1.075,0,0,0,2754.437,1994.092Z" transform="translate(-2546.101 -1992.129)" fill="#f9c7d4"/>
      <path id="패스_546" data-name="패스 546" d="M2716.142,1997.064a1.076,1.076,0,1,0,1.075-1.075A1.075,1.075,0,0,0,2716.142,1997.064Z" transform="translate(-2519.23 -1994.215)" fill="#f9c7d4"/>
      <path id="패스_547" data-name="패스 547" d="M2698.308,2003.008a1.075,1.075,0,1,0,1.076-1.075A1.075,1.075,0,0,0,2698.308,2003.008Z" transform="translate(-2506.716 -1998.386)" fill="#f9c7d4"/>
      <path id="패스_548" data-name="패스 548" d="M2680.48,2008.951a1.076,1.076,0,1,0,1.074-1.076A1.074,1.074,0,0,0,2680.48,2008.951Z" transform="translate(-2494.206 -2002.556)" fill="#f9c7d4"/>
      <path id="패스_549" data-name="패스 549" d="M2662.647,2011.925a1.076,1.076,0,1,0,1.076-1.075A1.075,1.075,0,0,0,2662.647,2011.925Z" transform="translate(-2481.693 -2004.643)" fill="#f9c7d4"/>
      <path id="패스_550" data-name="패스 550" d="M2777.945,2000.037a1.077,1.077,0,1,1-1.076-1.075A1.076,1.076,0,0,1,2777.945,2000.037Z" transform="translate(-2561.085 -1996.301)" fill="#f9c7d4"/>
      <path id="패스_551" data-name="패스 551" d="M2795.777,2005.981a1.077,1.077,0,1,1-1.077-1.076A1.076,1.076,0,0,1,2795.777,2005.981Z" transform="translate(-2573.598 -2000.472)" fill="#f9c7d4"/>
      <path id="패스_552" data-name="패스 552" d="M2813.612,2011.925a1.076,1.076,0,1,1-1.077-1.075A1.077,1.077,0,0,1,2813.612,2011.925Z" transform="translate(-2586.113 -2004.643)" fill="#f9c7d4"/>
      <path id="패스_553" data-name="패스 553" d="M2900.616,1994.092a1.076,1.076,0,1,0,1.076-1.076A1.076,1.076,0,0,0,2900.616,1994.092Z" transform="translate(-2648.673 -1992.129)" fill="#f9c7d4"/>
      <path id="패스_554" data-name="패스 554" d="M2921.081,1994.092a1.076,1.076,0,1,0,1.077-1.076A1.076,1.076,0,0,0,2921.081,1994.092Z" transform="translate(-2663.034 -1992.129)" fill="#f9c7d4"/>
      <path id="패스_555" data-name="패스 555" d="M2938.625,1997.016a1.075,1.075,0,1,0,1.076-1.075A1.075,1.075,0,0,0,2938.625,1997.016Z" transform="translate(-2675.344 -1994.182)" fill="#f9c7d4"/>
      <path id="패스_556" data-name="패스 556" d="M2882.785,1997.064a1.076,1.076,0,1,0,1.075-1.075A1.075,1.075,0,0,0,2882.785,1997.064Z" transform="translate(-2636.162 -1994.215)" fill="#f9c7d4"/>
      <path id="패스_557" data-name="패스 557" d="M2864.954,2003.008a1.076,1.076,0,1,0,1.076-1.075A1.076,1.076,0,0,0,2864.954,2003.008Z" transform="translate(-2623.649 -1998.386)" fill="#f9c7d4"/>
      <path id="패스_558" data-name="패스 558" d="M2847.125,2008.951a1.076,1.076,0,1,0,1.075-1.076A1.075,1.075,0,0,0,2847.125,2008.951Z" transform="translate(-2611.139 -2002.556)" fill="#f9c7d4"/>
      <path id="패스_559" data-name="패스 559" d="M2829.289,2011.925a1.076,1.076,0,1,0,1.077-1.075A1.076,1.076,0,0,0,2829.289,2011.925Z" transform="translate(-2598.623 -2004.643)" fill="#f9c7d4"/>
    </g>
    <path id="패스_560" data-name="패스 560" d="M2351.332,2105.93c-6.752-4.5-16.913-7.486-28.268-7.486s-21.413,2.8-28.167,7.3c-6.754-4.5-16.908-7.393-28.262-7.393s-21.425,2.847-28.178,7.349c-6.756-4.5-16.907-7.373-28.261-7.373s-21.411,2.86-28.165,7.361c-6.755-4.5-16.367-7.366-27.719-7.366s-22.769,2.86-27.722,7.361v-13.157H2351.31Z" transform="translate(-1341.591 -935.77)" fill="url(#linear-gradient-21)"/>
    <g id="그룹_151" data-name="그룹 151" transform="translate(888.665 1010.946)">
      <path id="패스_561" data-name="패스 561" d="M2482.216,1603.738a164.819,164.819,0,0,1-8.116,26.1h16.232A164.966,164.966,0,0,1,2482.216,1603.738Z" transform="translate(-2474.1 -1603.738)" fill="#f7a1a1"/>
    </g>
    <path id="패스_562" data-name="패스 562" d="M2480.308,1704.438c-2.7-3.3-5.389-9.081-7.416-13.209h-16.233c-2.027,4.128-4.717,9.907-7.415,13.209Z" transform="translate(-1567.993 -654.183)" fill="url(#linear-gradient-22)"/>
    <path id="패스_563" data-name="패스 563" d="M2475.312,1705.779l.723,1.462,1.613.235-1.166,1.138.273,1.607-1.443-.759-1.441.759.274-1.607-1.167-1.138,1.614-.235Z" transform="translate(-1584.649 -664.393)" fill="#f9c7d4"/>
    <path id="패스_564" data-name="패스 564" d="M2495.777,1705.779l.722,1.462,1.613.235-1.167,1.138.274,1.607-1.442-.759-1.443.759.274-1.607-1.165-1.138,1.613-.235Z" transform="translate(-1599.008 -664.393)" fill="#f9c7d4"/>
    <path id="패스_565" data-name="패스 565" d="M2516.24,1705.779l.722,1.462,1.613.235-1.166,1.138.274,1.607-1.443-.759-1.442.759.274-1.607-1.167-1.138,1.614-.235Z" transform="translate(-1613.367 -664.393)" fill="#f9c7d4"/>
    <rect id="사각형_58" data-name="사각형 58" width="245.204" height="17.338" transform="translate(772.615 1301.239)" fill="url(#linear-gradient-23)"/>
    <rect id="사각형_59" data-name="사각형 59" width="274.926" height="20.427" transform="translate(757.753 1316.313)" fill="url(#linear-gradient-22)"/>
    <path id="패스_566" data-name="패스 566" d="M2096.188,2600.74a1.078,1.078,0,1,1-1.078-1.079A1.078,1.078,0,0,1,2096.188,2600.74Z" transform="translate(-1318.746 -1291.62)" fill="#f9c7d4"/>
    <path id="패스_567" data-name="패스 567" d="M2113.841,2600.74a1.078,1.078,0,1,1-1.077-1.079A1.078,1.078,0,0,1,2113.841,2600.74Z" transform="translate(-1331.133 -1291.62)" fill="#f9c7d4"/>
    <path id="패스_568" data-name="패스 568" d="M2131.5,2600.74a1.078,1.078,0,1,1-1.078-1.079A1.078,1.078,0,0,1,2131.5,2600.74Z" transform="translate(-1343.521 -1291.62)" fill="#f9c7d4"/>
    <path id="패스_569" data-name="패스 569" d="M2149.151,2600.74a1.078,1.078,0,1,1-1.078-1.079A1.079,1.079,0,0,1,2149.151,2600.74Z" transform="translate(-1355.909 -1291.62)" fill="#f9c7d4"/>
    <path id="패스_570" data-name="패스 570" d="M2166.8,2600.74a1.078,1.078,0,1,1-1.078-1.079A1.078,1.078,0,0,1,2166.8,2600.74Z" transform="translate(-1368.297 -1291.62)" fill="#f9c7d4"/>
    <path id="패스_571" data-name="패스 571" d="M2184.457,2600.74a1.078,1.078,0,1,1-1.079-1.079A1.078,1.078,0,0,1,2184.457,2600.74Z" transform="translate(-1380.684 -1291.62)" fill="#f9c7d4"/>
    <path id="패스_572" data-name="패스 572" d="M2202.111,2600.74a1.078,1.078,0,1,1-1.079-1.079A1.078,1.078,0,0,1,2202.111,2600.74Z" transform="translate(-1393.071 -1291.62)" fill="#f9c7d4"/>
    <path id="패스_573" data-name="패스 573" d="M2219.762,2600.74a1.078,1.078,0,1,1-1.078-1.079A1.078,1.078,0,0,1,2219.762,2600.74Z" transform="translate(-1405.458 -1291.62)" fill="#f9c7d4"/>
    <path id="패스_574" data-name="패스 574" d="M2237.418,2600.74a1.078,1.078,0,1,1-1.078-1.079A1.079,1.079,0,0,1,2237.418,2600.74Z" transform="translate(-1417.845 -1291.62)" fill="#f9c7d4"/>
    <path id="패스_575" data-name="패스 575" d="M2255.072,2600.74a1.078,1.078,0,1,1-1.078-1.079A1.078,1.078,0,0,1,2255.072,2600.74Z" transform="translate(-1430.234 -1291.62)" fill="#f9c7d4"/>
    <path id="패스_576" data-name="패스 576" d="M2272.725,2600.74a1.078,1.078,0,1,1-1.077-1.079A1.078,1.078,0,0,1,2272.725,2600.74Z" transform="translate(-1442.621 -1291.62)" fill="#f9c7d4"/>
    <path id="패스_577" data-name="패스 577" d="M2290.378,2600.74a1.078,1.078,0,1,1-1.077-1.079A1.077,1.077,0,0,1,2290.378,2600.74Z" transform="translate(-1455.007 -1291.62)" fill="#f9c7d4"/>
    <path id="패스_578" data-name="패스 578" d="M2308.032,2600.74a1.078,1.078,0,1,1-1.078-1.079A1.078,1.078,0,0,1,2308.032,2600.74Z" transform="translate(-1467.395 -1291.62)" fill="#f9c7d4"/>
    <path id="패스_579" data-name="패스 579" d="M2325.687,2600.74a1.079,1.079,0,1,1-1.08-1.079A1.079,1.079,0,0,1,2325.687,2600.74Z" transform="translate(-1479.782 -1291.62)" fill="#f9c7d4"/>
    <path id="패스_580" data-name="패스 580" d="M2343.34,2600.74a1.078,1.078,0,1,1-1.079-1.079A1.079,1.079,0,0,1,2343.34,2600.74Z" transform="translate(-1492.168 -1291.62)" fill="#f9c7d4"/>
    <path id="패스_581" data-name="패스 581" d="M2360.994,2600.74a1.08,1.08,0,1,1-1.079-1.079A1.08,1.08,0,0,1,2360.994,2600.74Z" transform="translate(-1504.555 -1291.62)" fill="#f9c7d4"/>
    <path id="패스_582" data-name="패스 582" d="M2378.648,2600.74a1.078,1.078,0,1,1-1.078-1.079A1.078,1.078,0,0,1,2378.648,2600.74Z" transform="translate(-1516.945 -1291.62)" fill="#f9c7d4"/>
    <path id="패스_583" data-name="패스 583" d="M2396.3,2600.74a1.078,1.078,0,1,1-1.079-1.079A1.079,1.079,0,0,1,2396.3,2600.74Z" transform="translate(-1529.332 -1291.62)" fill="#f9c7d4"/>
    <path id="패스_584" data-name="패스 584" d="M2413.954,2600.74a1.079,1.079,0,1,1-1.078-1.079A1.078,1.078,0,0,1,2413.954,2600.74Z" transform="translate(-1541.717 -1291.62)" fill="#f9c7d4"/>
    <path id="패스_585" data-name="패스 585" d="M2431.607,2600.74a1.078,1.078,0,1,1-1.08-1.079A1.078,1.078,0,0,1,2431.607,2600.74Z" transform="translate(-1554.106 -1291.62)" fill="#f9c7d4"/>
    <path id="패스_586" data-name="패스 586" d="M2449.259,2600.74a1.079,1.079,0,1,1-1.078-1.079A1.078,1.078,0,0,1,2449.259,2600.74Z" transform="translate(-1566.491 -1291.62)" fill="#f9c7d4"/>
    <path id="패스_587" data-name="패스 587" d="M2466.916,2600.74a1.078,1.078,0,1,1-1.077-1.079A1.078,1.078,0,0,1,2466.916,2600.74Z" transform="translate(-1578.881 -1291.62)" fill="#f9c7d4"/>
    <path id="패스_588" data-name="패스 588" d="M2484.57,2600.74a1.078,1.078,0,1,1-1.079-1.079A1.079,1.079,0,0,1,2484.57,2600.74Z" transform="translate(-1591.27 -1291.62)" fill="#f9c7d4"/>
    <path id="패스_589" data-name="패스 589" d="M2502.219,2600.74a1.079,1.079,0,1,1-1.078-1.079A1.078,1.078,0,0,1,2502.219,2600.74Z" transform="translate(-1603.652 -1291.62)" fill="#f9c7d4"/>
    <path id="패스_590" data-name="패스 590" d="M2519.879,2600.74a1.078,1.078,0,1,1-1.079-1.079A1.079,1.079,0,0,1,2519.879,2600.74Z" transform="translate(-1616.045 -1291.62)" fill="#f9c7d4"/>
    <path id="패스_591" data-name="패스 591" d="M2537.529,2600.74a1.079,1.079,0,1,1-1.079-1.079A1.078,1.078,0,0,1,2537.529,2600.74Z" transform="translate(-1628.429 -1291.62)" fill="#f9c7d4"/>
    <path id="패스_592" data-name="패스 592" d="M2555.183,2600.74a1.078,1.078,0,1,1-1.077-1.079A1.077,1.077,0,0,1,2555.183,2600.74Z" transform="translate(-1640.818 -1291.62)" fill="#f9c7d4"/>
    <path id="패스_593" data-name="패스 593" d="M2572.84,2600.74a1.078,1.078,0,1,1-1.079-1.079A1.078,1.078,0,0,1,2572.84,2600.74Z" transform="translate(-1653.208 -1291.62)" fill="#f9c7d4"/>
    <path id="패스_594" data-name="패스 594" d="M2591.849,2600.74a1.078,1.078,0,1,1-1.08-1.079A1.079,1.079,0,0,1,2591.849,2600.74Z" transform="translate(-1666.546 -1291.62)" fill="#f9c7d4"/>
    <path id="패스_595" data-name="패스 595" d="M2609.547,2600.74a1.078,1.078,0,1,1-1.08-1.079A1.079,1.079,0,0,1,2609.547,2600.74Z" transform="translate(-1678.965 -1291.62)" fill="#f9c7d4"/>
    <path id="패스_596" data-name="패스 596" d="M2627.25,2600.74a1.078,1.078,0,1,1-1.078-1.079A1.079,1.079,0,0,1,2627.25,2600.74Z" transform="translate(-1691.386 -1291.62)" fill="#f9c7d4"/>
    <path id="패스_597" data-name="패스 597" d="M2644.118,2600.74a1.078,1.078,0,1,1-1.076-1.079A1.077,1.077,0,0,1,2644.118,2600.74Z" transform="translate(-1703.223 -1291.62)" fill="#f9c7d4"/>
    <path id="패스_598" data-name="패스 598" d="M2662.444,2600.74a1.078,1.078,0,1,1-1.078-1.079A1.078,1.078,0,0,1,2662.444,2600.74Z" transform="translate(-1716.081 -1291.62)" fill="#f9c7d4"/>
    <path id="패스_599" data-name="패스 599" d="M2680.767,2600.74a1.078,1.078,0,1,1-1.077-1.079A1.078,1.078,0,0,1,2680.767,2600.74Z" transform="translate(-1728.94 -1291.62)" fill="#f9c7d4"/>
    <path id="패스_600" data-name="패스 600" d="M2699.087,2600.74a1.078,1.078,0,1,1-1.078-1.079A1.077,1.077,0,0,1,2699.087,2600.74Z" transform="translate(-1741.794 -1291.62)" fill="#f9c7d4"/>
    <path id="패스_601" data-name="패스 601" d="M2715.759,2600.74a1.079,1.079,0,1,1-1.08-1.079A1.08,1.08,0,0,1,2715.759,2600.74Z" transform="translate(-1753.491 -1291.62)" fill="#f9c7d4"/>
    <path id="패스_602" data-name="패스 602" d="M2733.462,2600.74a1.079,1.079,0,1,1-1.077-1.079A1.077,1.077,0,0,1,2733.462,2600.74Z" transform="translate(-1765.913 -1291.62)" fill="#f9c7d4"/>
    <path id="패스_603" data-name="패스 603" d="M2751.164,2600.74a1.078,1.078,0,1,1-1.08-1.079A1.079,1.079,0,0,1,2751.164,2600.74Z" transform="translate(-1778.334 -1291.62)" fill="#f9c7d4"/>
    <path id="패스_604" data-name="패스 604" d="M2768.863,2600.74a1.078,1.078,0,1,1-1.077-1.079A1.078,1.078,0,0,1,2768.863,2600.74Z" transform="translate(-1790.756 -1291.62)" fill="#f9c7d4"/>
    <path id="패스_605" data-name="패스 605" d="M2786.567,2600.74a1.078,1.078,0,1,1-1.078-1.079A1.078,1.078,0,0,1,2786.567,2600.74Z" transform="translate(-1803.177 -1291.62)" fill="#f9c7d4"/>
    <path id="패스_606" data-name="패스 606" d="M2804.27,2600.74a1.078,1.078,0,1,1-1.079-1.079A1.078,1.078,0,0,1,2804.27,2600.74Z" transform="translate(-1815.599 -1291.62)" fill="#f9c7d4"/>
    <path id="패스_607" data-name="패스 607" d="M2821.973,2600.74a1.079,1.079,0,1,1-1.078-1.079A1.079,1.079,0,0,1,2821.973,2600.74Z" transform="translate(-1828.019 -1291.62)" fill="#f9c7d4"/>
    <path id="패스_608" data-name="패스 608" d="M2839.673,2600.74a1.078,1.078,0,1,1-1.078-1.079A1.077,1.077,0,0,1,2839.673,2600.74Z" transform="translate(-1840.44 -1291.62)" fill="#f9c7d4"/>
    <path id="패스_609" data-name="패스 609" d="M2857.377,2600.74a1.078,1.078,0,1,1-1.08-1.079A1.079,1.079,0,0,1,2857.377,2600.74Z" transform="translate(-1852.863 -1291.62)" fill="#f9c7d4"/>
    <path id="패스_610" data-name="패스 610" d="M2875.077,2600.74a1.079,1.079,0,1,1-1.077-1.079A1.078,1.078,0,0,1,2875.077,2600.74Z" transform="translate(-1865.283 -1291.62)" fill="#f9c7d4"/>
    <path id="패스_611" data-name="패스 611" d="M2892.779,2600.74a1.077,1.077,0,1,1-1.077-1.079A1.077,1.077,0,0,1,2892.779,2600.74Z" transform="translate(-1877.707 -1291.62)" fill="#f9c7d4"/>
    <g id="그룹_161" data-name="그룹 161" transform="translate(852.14 1226.335)">
      <g id="그룹_156" data-name="그룹 156" transform="translate(15.622 38.547)">
        <g id="그룹_155" data-name="그룹 155">
          <path id="패스_612" data-name="패스 612" d="M2408.312,2466.25l7.183-11.27,7.6,4.433s-6.569,7.736-9.019,10.714l-3.495,9.433a3.41,3.41,0,0,1-4.478,1.79h0a3.41,3.41,0,0,1-1.792-4.479Z" transform="translate(-2404.031 -2454.98)" fill="url(#linear-gradient-25)"/>
        </g>
      </g>
      <g id="그룹_158" data-name="그룹 158" transform="translate(57.427 38.547)">
        <g id="그룹_157" data-name="그룹 157">
          <path id="패스_613" data-name="패스 613" d="M2563.595,2466.25l-6.518-11.27-12.906,5.633s11.213,6.536,13.664,9.513l4.158,9.433a3.412,3.412,0,0,0,4.479,1.79h0a3.412,3.412,0,0,0,1.791-4.479Z" transform="translate(-2544.171 -2454.98)" fill="url(#linear-gradient-25)"/>
        </g>
      </g>
      <path id="패스_614" data-name="패스 614" d="M2591.606,2404.507s10.065.855,10.945,9.533,2.389,19.743,6.79,20.373a6.024,6.024,0,0,1-7.292-4.314c-1.886-5.746-6.165-11.387-9.936-12.14Z" transform="translate(-2520.029 -2381.016)" fill="url(#linear-gradient-21)"/>
      <path id="패스_615" data-name="패스 615" d="M2398.747,2334.839s4.494-4.586,11.244,0c1.23.836,27.475,17.844,27.475,17.844l-12.328,1.084Z" transform="translate(-2384.702 -2330.702)" fill="url(#linear-gradient-21)"/>
      <g id="그룹_159" data-name="그룹 159" transform="translate(0 3.387)">
        <path id="패스_616" data-name="패스 616" d="M2439.818,2394.168l-4.668-10.622-6.483-11.208a64.274,64.274,0,0,0-.563-8.939c-1.84-7.782-10.957-7.687-10.957-7.687h-22.8c-3.614,0-15.738-11.808-19.884-16.047-1.407-1.439-4.456-3.134-7.233-2.347-7.308,2.073-14.991,12.832-15.527,16.148,0,0-.212,1.129.387,1.61.1.253.021.661.359,1.06.164.193.478.194.859.228-.031.34.313.716.52.924,1.244,1.251,14.2-2.337,14.956-1.814,3.3,2.276,3.123,17.678,3.1,19.254l-5.62,8.818-4,10.622a3.411,3.411,0,0,0,6.271,2.688l3.493-9.433c2.191-2.662,7.671-9.124,8.806-10.464a92.574,92.574,0,0,0,33.74.289c.007,0,12.377,7.2,14.826,10.175l4.157,9.433a3.412,3.412,0,0,0,6.271-2.688Z" transform="translate(-2351.663 -2337.118)" fill="url(#linear-gradient-29)"/>
      </g>
      <path id="패스_617" data-name="패스 617" d="M2385.156,2358.224c-.2.545-.642.884-.992.755s-.469-.673-.271-1.219.646-.883.994-.756S2385.356,2357.677,2385.156,2358.224Z" transform="translate(-2374.212 -2347.666)" fill="#535e7a"/>
      <g id="그룹_160" data-name="그룹 160" transform="translate(15.825)">
        <path id="패스_618" data-name="패스 618" d="M2409.447,2331.7s-.312-2.531-4.735-5.937a11.622,11.622,0,0,1,1.179,4.18s-.115.508.193.638c.849.356,3.089,1.477,3.089,1.477S2409.608,2332.068,2409.447,2331.7Z" transform="translate(-2404.712 -2325.763)" fill="url(#linear-gradient-30)"/>
      </g>
    </g>
    <g id="그룹_162" data-name="그룹 162" transform="translate(871.189 1241.287)">
      <path id="패스_619" data-name="패스 619" d="M2428.728,2375.884s-6.939,8.225-13.209,10.761a99.865,99.865,0,0,1,1.168,12.864s12.429-8.005,15.729-20.513Z" transform="translate(-2415.518 -2375.884)" fill="url(#linear-gradient-31)"/>
    </g>
    <g id="그룹_170" data-name="그룹 170" transform="translate(741.865 1226.335)">
      <g id="그룹_165" data-name="그룹 165" transform="translate(15.621 38.547)">
        <g id="그룹_164" data-name="그룹 164">
          <path id="패스_620" data-name="패스 620" d="M2038.646,2466.25l7.182-11.27,7.6,4.433s-6.569,7.736-9.018,10.714l-3.495,9.433a3.411,3.411,0,0,1-4.479,1.79h0a3.412,3.412,0,0,1-1.792-4.479Z" transform="translate(-2034.365 -2454.98)" fill="url(#linear-gradient-32)"/>
        </g>
      </g>
      <g id="그룹_167" data-name="그룹 167" transform="translate(57.427 38.547)">
        <g id="그룹_166" data-name="그룹 166">
          <path id="패스_621" data-name="패스 621" d="M2193.93,2466.25l-6.52-11.27-12.9,5.633s11.213,6.536,13.665,9.513l4.156,9.433a3.413,3.413,0,0,0,4.479,1.79h0a3.411,3.411,0,0,0,1.791-4.479Z" transform="translate(-2174.506 -2454.98)" fill="url(#linear-gradient-32)"/>
        </g>
      </g>
      <path id="패스_622" data-name="패스 622" d="M2221.941,2404.507s10.064.855,10.945,9.533,2.391,19.743,6.792,20.373a6.025,6.025,0,0,1-7.293-4.314c-1.886-5.746-5.569-9.8-9.343-10.56Z" transform="translate(-2150.364 -2381.016)" fill="url(#linear-gradient-21)"/>
      <path id="패스_623" data-name="패스 623" d="M2025.657,2334.886s3.66-6.193,13.14.094c1.239.823,26.6,17.254,26.6,17.254l-12.33,1.083Z" transform="translate(-2012.633 -2330.252)" fill="url(#linear-gradient-21)"/>
      <g id="그룹_168" data-name="그룹 168" transform="translate(0 3.387)">
        <path id="패스_624" data-name="패스 624" d="M2070.154,2394.168l-4.667-10.622L2059,2372.338a64.193,64.193,0,0,0-.564-8.939c-1.84-7.782-10.956-7.687-10.956-7.687h-22.8c-3.614,0-15.738-11.808-19.885-16.047-1.407-1.439-4.455-3.134-7.232-2.347-7.309,2.073-14.994,12.832-15.528,16.148,0,0-.211,1.129.387,1.61.1.253.021.661.359,1.06.164.193.478.194.859.228-.032.34.313.716.52.924,1.245,1.251,14.2-2.337,14.956-1.814,3.3,2.277,3.122,17.686,3.1,19.256l-5.618,8.817-4.005,10.622a3.412,3.412,0,0,0,6.272,2.688l3.494-9.433c2.191-2.662,7.671-9.124,8.807-10.464a92.591,92.591,0,0,0,33.739.289s12.376,7.2,14.827,10.175l4.158,9.433a3.411,3.411,0,0,0,6.27-2.688Z" transform="translate(-1981.999 -2337.118)" fill="url(#linear-gradient-29)"/>
      </g>
      <path id="패스_625" data-name="패스 625" d="M2015.491,2358.224c-.2.545-.643.884-.993.755s-.468-.673-.269-1.219.645-.883.991-.756S2015.69,2357.677,2015.491,2358.224Z" transform="translate(-2004.547 -2347.666)" fill="#535e7a"/>
      <g id="그룹_169" data-name="그룹 169" transform="translate(15.824)">
        <path id="패스_626" data-name="패스 626" d="M2039.78,2331.7s-.311-2.531-4.734-5.937a11.614,11.614,0,0,1,1.177,4.18s-.115.508.193.638c.848.356,3.089,1.477,3.089,1.477S2039.941,2332.068,2039.78,2331.7Z" transform="translate(-2035.046 -2325.763)" fill="url(#linear-gradient-30)"/>
      </g>
    </g>
    <g id="그룹_172" data-name="그룹 172" transform="translate(783.291 1248.01)">
      <g id="그룹_171" data-name="그룹 171">
        <path id="패스_627" data-name="패스 627" d="M2145.137,2398.733s-24.123-.281-24.269-.31c.253,5.1,3.629,16.7,21.474,13.643,7.159-1,11.247-2.394,13.8-3.8a12.809,12.809,0,0,0-.208-1.685C2154.037,2398.6,2145.137,2398.733,2145.137,2398.733Z" transform="translate(-2120.868 -2398.423)" fill="url(#linear-gradient-31)"/>
      </g>
    </g>
    <g id="그룹_180" data-name="그룹 180" transform="translate(961.604 1226.335)">
      <g id="그룹_175" data-name="그룹 175" transform="translate(15.621 38.547)">
        <g id="그룹_174" data-name="그룹 174">
          <path id="패스_628" data-name="패스 628" d="M2775.252,2466.25l7.183-11.27,7.6,4.433s-6.569,7.736-9.02,10.714l-3.493,9.433a3.412,3.412,0,0,1-4.479,1.79h0a3.413,3.413,0,0,1-1.793-4.479Z" transform="translate(-2770.971 -2454.98)" fill="url(#linear-gradient-32)"/>
        </g>
      </g>
      <g id="그룹_177" data-name="그룹 177" transform="translate(57.427 38.547)">
        <g id="그룹_176" data-name="그룹 176">
          <path id="패스_629" data-name="패스 629" d="M2930.535,2466.25l-6.519-11.27-12.905,5.633s11.215,6.536,13.664,9.513l4.158,9.433a3.411,3.411,0,0,0,4.479,1.79h0a3.412,3.412,0,0,0,1.792-4.479Z" transform="translate(-2911.11 -2454.98)" fill="url(#linear-gradient-32)"/>
        </g>
      </g>
      <path id="패스_630" data-name="패스 630" d="M2958.546,2404.507s10.064.855,10.946,9.533,2.389,19.743,6.79,20.373a6.025,6.025,0,0,1-7.294-4.314c-1.885-5.746-5.568-9.8-9.342-10.56Z" transform="translate(-2886.969 -2381.016)" fill="url(#linear-gradient-21)"/>
      <path id="패스_631" data-name="패스 631" d="M2762.261,2334.886s3.661-6.193,13.139.094c1.241.823,26.6,17.254,26.6,17.254l-12.33,1.083Z" transform="translate(-2749.238 -2330.252)" fill="url(#linear-gradient-21)"/>
      <g id="그룹_178" data-name="그룹 178" transform="translate(0 3.387)">
        <path id="패스_632" data-name="패스 632" d="M2806.759,2394.168l-4.669-10.622-6.482-11.208a64.081,64.081,0,0,0-.564-8.939c-1.839-7.782-10.956-7.687-10.956-7.687h-22.8c-3.614,0-15.739-11.808-19.884-16.047-1.408-1.439-4.456-3.134-7.232-2.347-7.308,2.073-14.993,12.832-15.528,16.148,0,0-.212,1.129.386,1.61.1.253.023.661.359,1.06.163.193.477.194.86.228-.033.34.313.716.519.924,1.245,1.251,14.2-2.337,14.957-1.814,3.3,2.277,3.121,17.686,3.1,19.256l-5.62,8.817-4,10.622a3.411,3.411,0,0,0,6.27,2.688l3.495-9.433c2.192-2.662,7.671-9.124,8.807-10.464a92.593,92.593,0,0,0,33.74.289s12.375,7.2,14.827,10.175l4.157,9.433a3.412,3.412,0,0,0,6.271-2.688Z" transform="translate(-2718.604 -2337.118)" fill="url(#linear-gradient-29)"/>
      </g>
      <path id="패스_633" data-name="패스 633" d="M2752.1,2358.224c-.2.545-.642.884-.992.755s-.469-.673-.27-1.219.645-.883.993-.756S2752.3,2357.677,2752.1,2358.224Z" transform="translate(-2741.153 -2347.666)" fill="#535e7a"/>
      <g id="그룹_179" data-name="그룹 179" transform="translate(15.824)">
        <path id="패스_634" data-name="패스 634" d="M2776.385,2331.7s-.312-2.531-4.734-5.937a11.578,11.578,0,0,1,1.177,4.18s-.115.508.195.638c.847.356,3.088,1.477,3.088,1.477S2776.546,2332.068,2776.385,2331.7Z" transform="translate(-2771.651 -2325.763)" fill="url(#linear-gradient-30)"/>
      </g>
    </g>
    <g id="그룹_182" data-name="그룹 182" transform="translate(1003.03 1248.01)">
      <g id="그룹_181" data-name="그룹 181">
        <path id="패스_635" data-name="패스 635" d="M2881.741,2398.733s-24.122-.281-24.268-.31c.253,5.1,3.629,16.7,21.474,13.643,7.16-1,11.246-2.394,13.8-3.8a13.127,13.127,0,0,0-.207-1.685C2890.642,2398.6,2881.741,2398.733,2881.741,2398.733Z" transform="translate(-2857.473 -2398.423)" fill="url(#linear-gradient-31)"/>
      </g>
    </g>
  </g>
  <ellipse id="타원_324" data-name="타원 324" cx="5.497" cy="5.497" rx="5.497" ry="5.497" transform="translate(1887.612 140.669) rotate(-76.718)" fill="#fffef3"/>
  <g id="구성_요소_39_1" data-name="구성 요소 39 – 1" transform="translate(492.741 250.899)">
    <g id="그룹_818" data-name="그룹 818" transform="translate(-0.001)" opacity="0.491">
      <g id="그룹_245-2" data-name="그룹 245" transform="translate(24.644 65.497)">
        <path id="패스_710-2" data-name="패스 710" d="M-311.434-54.254a.715.715,0,0,1-.714.714h0a.715.715,0,0,1-.714-.714v-26a.715.715,0,0,1,.714-.714h0a.715.715,0,0,1,.714.714Z" transform="translate(312.862 80.969)" fill="#00537f"/>
        <path id="패스_711-2" data-name="패스 711" d="M-303.923-54.254a.715.715,0,0,1-.714.714h0a.714.714,0,0,1-.714-.714v-26a.714.714,0,0,1,.714-.714h0a.715.715,0,0,1,.714.714Z" transform="translate(318.495 80.969)" fill="#00537f"/>
      </g>
      <g id="그룹_246-2" data-name="그룹 246" transform="translate(0.001 0)">
        <path id="패스_712-2" data-name="패스 712" d="M-286.3-41.473s.285-4.284,12-18.856,11.214-26.5,11.214-26.5A31.568,31.568,0,0,0-294.659-118.4h-.714A31.569,31.569,0,0,0-326.942-86.83s-.5,11.931,11.215,26.5,12,18.856,12,18.856Z" transform="translate(326.945 118.397)" fill="#f49f9f"/>
        <path id="패스_713-2" data-name="패스 713" d="M-298.327-41.473s.131-4.284,5.556-18.856a79.574,79.574,0,0,0,5.2-26.5c0-17.433-6.547-31.567-14.621-31.567h-.331c-8.074,0-14.621,14.134-14.621,31.567a79.591,79.591,0,0,0,5.194,26.5c5.425,14.572,5.558,18.856,5.558,18.856Z" transform="translate(334.291 118.397)" fill="#fff2cb"/>
      </g>
      <g id="그룹_247-2" data-name="그룹 247" transform="translate(20.936 84.639)">
        <path id="패스_714-2" data-name="패스 714" d="M-294.688-69.044v8.7a4.034,4.034,0,0,1-4.035,4.035h-11.544a4.036,4.036,0,0,1-4.035-4.035v-8.7Z" transform="translate(315.489 70.769)" fill="#ffb97c"/>
        <path id="패스_715-2" data-name="패스 715" d="M-292.993-68.94a1.092,1.092,0,0,1-1.092,1.092h-19.806a1.092,1.092,0,0,1-1.09-1.092h0a1.092,1.092,0,0,1,1.09-1.09h19.806a1.092,1.092,0,0,1,1.092,1.09Z" transform="translate(314.981 70.03)" fill="#d35c38"/>
      </g>
    </g>
  </g>
  <ellipse id="타원_334" data-name="타원 334" cx="7.36" cy="7.36" rx="7.36" ry="7.36" transform="translate(184.17 114.277) rotate(-76.718)" fill="#fffef3"/>
  <ellipse id="타원_335" data-name="타원 335" cx="7.36" cy="7.36" rx="7.36" ry="7.36" transform="translate(1622.904 169.76) rotate(-76.718)" fill="#fffef3"/>
  <g id="구성_요소_36_1" data-name="구성 요소 36 – 1" transform="translate(435.146 83.503)">
    <ellipse id="타원_419" data-name="타원 419" cx="10.448" cy="10.448" rx="10.448" ry="10.448" transform="translate(0 20.338) rotate(-76.718)" fill="#fffef3"/>
  </g>
  <ellipse id="타원_320" data-name="타원 320" cx="9.624" cy="9.624" rx="9.624" ry="9.624" transform="translate(1256.41 135.71) rotate(-76.718)" fill="#fffef3"/>
  <path id="패스_12078" data-name="패스 12078" d="M1671.368,625.179a21.155,21.155,0,1,0-16.2-34.759,26.009,26.009,0,0,0-41.823-10.644,35.121,35.121,0,0,0-68.629,8.061,20.386,20.386,0,1,0-11.315,37.342Z" transform="translate(178.529 -279.008)" fill="url(#linear-gradient-2)"/>
</svg>
