<svg xmlns="http://www.w3.org/2000/svg" width="15.812" height="15.104" viewBox="0 0 15.812 15.104">
  <g id="구성_요소_56_1" data-name="구성 요소 56 – 1" transform="translate(0)">
    <path id="패스_109" data-name="패스 109" d="M606.78,474.416l1.694,4.073a.675.675,0,0,0,.569.414l4.4.352a.675.675,0,0,1,.385,1.186l-3.35,2.87a.675.675,0,0,0-.218.669l1.024,4.291a.675.675,0,0,1-1.008.732l-3.765-2.3a.675.675,0,0,0-.7,0l-3.765,2.3a.675.675,0,0,1-1.008-.732l1.024-4.291a.675.675,0,0,0-.218-.669l-3.35-2.87a.675.675,0,0,1,.385-1.186l4.4-.352a.674.674,0,0,0,.569-.414l1.695-4.073A.675.675,0,0,1,606.78,474.416Z" transform="translate(-598.25 -474)" fill="#72ccbc"/>
  </g>
</svg>
