<svg id="구성_요소_122_1" data-name="구성 요소 122 – 1" xmlns="http://www.w3.org/2000/svg" xmlns:xlink="http://www.w3.org/1999/xlink" width="2114.693" height="1225.171" viewBox="0 0 2114.693 1225.171">
  <defs>
    <linearGradient id="linear-gradient" x1="0.5" x2="0.5" y2="1" gradientUnits="objectBoundingBox">
      <stop offset="0" stop-color="#fff"/>
      <stop offset="0.158" stop-color="#cce9ff"/>
      <stop offset="1" stop-color="#cbe9ff"/>
    </linearGradient>
    <linearGradient id="linear-gradient-2" x1="0.5" y1="1" x2="0.5" gradientUnits="objectBoundingBox">
      <stop offset="0" stop-color="#fff"/>
      <stop offset="0.276" stop-color="#fafbfc"/>
      <stop offset="0.492" stop-color="#fffef3"/>
      <stop offset="1" stop-color="#fff"/>
    </linearGradient>
    <linearGradient id="linear-gradient-5" x1="0.5" y1="1" x2="0.5" gradientUnits="objectBoundingBox">
      <stop offset="0" stop-color="#535e7a"/>
      <stop offset="1" stop-color="#99a6cc"/>
    </linearGradient>
    <linearGradient id="linear-gradient-6" x1="0.5" y1="1" x2="0.5" gradientUnits="objectBoundingBox">
      <stop offset="0" stop-color="#ff5a6d"/>
      <stop offset="1" stop-color="#ff9fbe"/>
    </linearGradient>
    <linearGradient id="linear-gradient-7" y1="0.5" x2="1" y2="0.5" gradientUnits="objectBoundingBox">
      <stop offset="0" stop-color="#fff"/>
      <stop offset="1" stop-color="#fff"/>
    </linearGradient>
    <linearGradient id="linear-gradient-8" x1="0.5" y1="1" x2="0.5" gradientUnits="objectBoundingBox">
      <stop offset="0" stop-color="#7dc99a"/>
      <stop offset="1" stop-color="#ddffd3"/>
    </linearGradient>
    <linearGradient id="linear-gradient-9" x1="0.5" y1="1" x2="0.5" gradientUnits="objectBoundingBox">
      <stop offset="0" stop-color="#a0c97d"/>
      <stop offset="1" stop-color="#f5f896"/>
    </linearGradient>
    <linearGradient id="linear-gradient-10" x1="0.5" y1="1" x2="0.5" gradientUnits="objectBoundingBox">
      <stop offset="0" stop-color="#46a1ef"/>
      <stop offset="1" stop-color="#c7e8ff"/>
    </linearGradient>
    <linearGradient id="linear-gradient-11" x1="0.5" y1="1" x2="0.5" gradientUnits="objectBoundingBox">
      <stop offset="0" stop-color="#ac7be6"/>
      <stop offset="1" stop-color="#e5bdca"/>
    </linearGradient>
    <linearGradient id="linear-gradient-12" x1="0.5" y1="1" x2="0.5" gradientUnits="objectBoundingBox">
      <stop offset="0" stop-color="#ffa8a8"/>
      <stop offset="1" stop-color="#ff8b94"/>
    </linearGradient>
    <linearGradient id="linear-gradient-13" x1="0.5" y1="1" x2="0.5" gradientUnits="objectBoundingBox">
      <stop offset="0" stop-color="#ffcf2e"/>
      <stop offset="1" stop-color="#fffdcc"/>
    </linearGradient>
    <linearGradient id="linear-gradient-14" x1="0.5" y1="1" x2="0.5" gradientUnits="objectBoundingBox">
      <stop offset="0" stop-color="#ff9315"/>
      <stop offset="1" stop-color="#ffe7cc"/>
    </linearGradient>
  </defs>
  <rect id="사각형_100" data-name="사각형 100" width="2079.717" height="1225.171" opacity="0.479" fill="url(#linear-gradient)"/>
  <path id="패스_12062" data-name="패스 12062" d="M1690.7,633.754a23.738,23.738,0,1,0-18.174-39,29.185,29.185,0,0,0-46.929-11.943,39.408,39.408,0,0,0-77.008,9.045,22.874,22.874,0,1,0-12.7,41.9Z" transform="translate(400.253 -364.631)" fill="url(#linear-gradient-2)"/>
  <ellipse id="타원_305" data-name="타원 305" cx="10.156" cy="10.156" rx="10.156" ry="10.156" transform="translate(811.162 269.445) rotate(-76.718)" fill="#fffef3"/>
  <g id="구성_요소_59_1" data-name="구성 요소 59 – 1" transform="translate(73.17 187.694)">
    <path id="패스_12064" data-name="패스 12064" d="M1517.838,2265.544l-407.329-521.262c-38.591-49.384-113.44-49.384-152.031,0L551.149,2265.544Z" transform="translate(-551.149 -1707.244)" fill="#cee9f1" opacity="0.702"/>
  </g>
  <g id="그룹_815" data-name="그룹 815" transform="translate(477.924 240.23)" opacity="0.491">
    <g id="그룹_245" data-name="그룹 245" transform="translate(25.541 64.468)">
      <path id="패스_710" data-name="패스 710" d="M-310.938-44.981a.963.963,0,0,1-.962.962h0a.963.963,0,0,1-.962-.962V-80.007a.963.963,0,0,1,.962-.962h0a.963.963,0,0,1,.962.962Z" transform="translate(312.862 80.969)" fill="#00537f"/>
      <path id="패스_711" data-name="패스 711" d="M-303.427-44.981a.963.963,0,0,1-.961.962h0a.961.961,0,0,1-.962-.962V-80.007a.961.961,0,0,1,.962-.962h0a.963.963,0,0,1,.961.962Z" transform="translate(323.057 80.969)" fill="#00537f"/>
    </g>
    <g id="그룹_246" data-name="그룹 246">
      <path id="패스_712" data-name="패스 712" d="M-281.941-38.535s.316-4.447,13.287-19.576,12.417-27.513,12.417-27.513c0-18.1-15.649-32.773-34.957-32.773h-.791c-19.306,0-34.957,14.674-34.957,32.773,0,0-.554,12.387,12.419,27.513s13.287,19.576,13.287,19.576Z" transform="translate(326.945 118.397)" fill="#f49f9f"/>
      <path id="패스_713" data-name="패스 713" d="M-291.793-38.535s.177-4.447,7.485-19.576,7-27.513,7-27.513c0-18.1-8.819-32.773-19.7-32.773h-.446c-10.877,0-19.7,14.674-19.7,32.773,0,0-.311,12.387,7,27.513s7.487,19.576,7.487,19.576Z" transform="translate(332.584 118.397)" fill="#fff2cb"/>
    </g>
    <g id="그룹_247" data-name="그룹 247" transform="translate(20.546 90.256)">
      <path id="패스_714" data-name="패스 714" d="M-287.879-69.044v11.716a5.435,5.435,0,0,1-5.436,5.436h-15.552a5.436,5.436,0,0,1-5.436-5.436V-69.044Z" transform="translate(315.901 71.368)" fill="#ffb97c"/>
      <path id="패스_715" data-name="패스 715" d="M-285.36-68.561a1.472,1.472,0,0,1-1.471,1.471h-26.681a1.471,1.471,0,0,1-1.469-1.471h0a1.47,1.47,0,0,1,1.469-1.469h26.681a1.471,1.471,0,0,1,1.471,1.469Z" transform="translate(314.981 70.03)" fill="#d35c38"/>
    </g>
  </g>
  <ellipse id="타원_313" data-name="타원 313" cx="8.963" cy="8.963" rx="8.963" ry="8.963" transform="translate(1622.232 256.34) rotate(-76.718)" fill="#fffef3"/>
  <ellipse id="타원_414" data-name="타원 414" cx="5.627" cy="5.627" rx="5.627" ry="5.627" transform="translate(252.432 227.418) rotate(-76.718)" fill="#fffef3"/>
  <g id="구성_요소_61_1" data-name="구성 요소 61 – 1" transform="translate(1261.014 207.958)">
    <path id="패스_12065" data-name="패스 12065" d="M1662.17,621.1a19.926,19.926,0,1,0-15.256-32.74,24.5,24.5,0,0,0-39.394-10.026,33.08,33.08,0,0,0-64.642,7.593,19.2,19.2,0,1,0-10.658,35.173Z" transform="translate(-1513.019 -554.946)" fill="url(#linear-gradient-2)"/>
  </g>
  <path id="패스_12479" data-name="패스 12479" d="M1676.29,627.362a21.812,21.812,0,1,0-16.7-35.839,26.818,26.818,0,0,0-43.123-10.975,36.212,36.212,0,0,0-70.762,8.312,21.019,21.019,0,1,0-11.667,38.5Z" transform="translate(-1459.302 -259.85)" fill="url(#linear-gradient-2)"/>
  <g id="구성_요소_60_1" data-name="구성 요소 60 – 1" transform="translate(952.559 258.266)">
    <path id="패스_12527" data-name="패스 12527" d="M2270.95,1883.045h762.392l-323.623-320.892c-30.661-30.4-90.13-30.4-120.79,0l-27.394,27.163-97.6-96.771c-37.309-37-109.678-37-146.989,0l-425.851,390.5Z" transform="translate(-1891.098 -1464.798)" fill="#d5ecf5"/>
  </g>
  <g id="그룹_7277" data-name="그룹 7277" transform="translate(893.964 103.475)">
    <path id="패스_12102" data-name="패스 12102" d="M-1343.456,3293.665h-115.217a1.352,1.352,0,0,1-1.352-1.352,1.353,1.353,0,0,1,1.352-1.352h115.217a1.352,1.352,0,0,1,1.352,1.352A1.352,1.352,0,0,1-1343.456,3293.665Z" transform="translate(1573.109 -2944.58)" fill="#636f8d"/>
    <path id="패스_12103" data-name="패스 12103" d="M-1321.639,3139.6h-89.5a1.353,1.353,0,0,1-1.353-1.352,1.352,1.352,0,0,1,1.353-1.353h89.5a1.352,1.352,0,0,1,1.353,1.353A1.353,1.353,0,0,1-1321.639,3139.6Z" transform="translate(1538.435 -2832.186)" fill="#737fa0"/>
    <path id="패스_12104" data-name="패스 12104" d="M-1441.807,2598.458l-4.086,1.259-4.087-1.259-70.743,229.58h8.491l66.338-215.285,66.337,215.285h8.491Z" transform="translate(1617.388 -2439.396)" fill="url(#linear-gradient-5)"/>
    <path id="패스_12105" data-name="패스 12105" d="M-1248.505,2406.17a1.353,1.353,0,0,1-1.353-1.353v-228.88a1.352,1.352,0,0,1,1.353-1.353,1.352,1.352,0,0,1,1.352,1.353v228.88A1.353,1.353,0,0,1-1248.505,2406.17Z" transform="translate(1419.791 -2130.178)" fill="#8b98bc"/>
    <path id="패스_12106" data-name="패스 12106" d="M-1442.7,2600.365h-228.88a1.352,1.352,0,0,1-1.352-1.353,1.353,1.353,0,0,1,1.352-1.352h228.88a1.352,1.352,0,0,1,1.353,1.352A1.352,1.352,0,0,1-1442.7,2600.365Z" transform="translate(1728.427 -2438.813)" fill="#8b98bc"/>
    <path id="패스_12107" data-name="패스 12107" d="M-1547.665,2463.049a1.35,1.35,0,0,1-.956-.4,1.353,1.353,0,0,1,0-1.914l161.843-161.842a1.351,1.351,0,0,1,1.912,0,1.351,1.351,0,0,1,0,1.911l-161.843,161.844A1.351,1.351,0,0,1-1547.665,2463.049Z" transform="translate(1638.03 -2220.575)" fill="#8b98bc"/>
    <path id="패스_12108" data-name="패스 12108" d="M-1385.823,2463.049a1.349,1.349,0,0,1-.956-.4l-161.843-161.844a1.35,1.35,0,0,1,0-1.911,1.351,1.351,0,0,1,1.912,0l161.843,161.842a1.353,1.353,0,0,1,0,1.914A1.351,1.351,0,0,1-1385.823,2463.049Z" transform="translate(1638.03 -2220.575)" fill="#8b98bc"/>
    <path id="패스_12109" data-name="패스 12109" d="M-1578.951,2392.662a123.114,123.114,0,0,1-48.22-9.735,123.474,123.474,0,0,1-39.376-26.548A123.454,123.454,0,0,1-1693.094,2317a123.1,123.1,0,0,1-9.736-48.22,123.1,123.1,0,0,1,9.736-48.219,123.457,123.457,0,0,1,26.547-39.376,123.455,123.455,0,0,1,39.376-26.548,123.123,123.123,0,0,1,48.22-9.735,123.116,123.116,0,0,1,48.219,9.735,123.456,123.456,0,0,1,39.376,26.548,123.464,123.464,0,0,1,26.548,39.376,123.106,123.106,0,0,1,9.736,48.219,123.106,123.106,0,0,1-9.736,48.22,123.461,123.461,0,0,1-26.548,39.376,123.475,123.475,0,0,1-39.376,26.548A123.107,123.107,0,0,1-1578.951,2392.662Zm0-245.053a121.311,121.311,0,0,0-121.175,121.174,121.312,121.312,0,0,0,121.175,121.175,121.312,121.312,0,0,0,121.175-121.175A121.312,121.312,0,0,0-1578.951,2147.609Z" transform="translate(1750.236 -2108.526)" fill="#8b98bc"/>
    <path id="패스_12110" data-name="패스 12110" d="M-1509.651,2436.266a97.572,97.572,0,0,1-38.218-7.716,97.851,97.851,0,0,1-31.208-21.042,97.85,97.85,0,0,1-21.041-31.208,97.572,97.572,0,0,1-7.716-38.218,97.572,97.572,0,0,1,7.716-38.219,97.852,97.852,0,0,1,21.041-31.208,97.86,97.86,0,0,1,31.208-21.041,97.577,97.577,0,0,1,38.218-7.717,97.579,97.579,0,0,1,38.218,7.717,97.864,97.864,0,0,1,31.208,21.041,97.851,97.851,0,0,1,21.041,31.208,97.568,97.568,0,0,1,7.717,38.219,97.569,97.569,0,0,1-7.717,38.218,97.849,97.849,0,0,1-21.041,31.208,97.855,97.855,0,0,1-31.208,21.042A97.574,97.574,0,0,1-1509.651,2436.266Zm0-193.661a95.586,95.586,0,0,0-95.478,95.479,95.586,95.586,0,0,0,95.478,95.478,95.586,95.586,0,0,0,95.479-95.478A95.586,95.586,0,0,0-1509.651,2242.6Z" transform="translate(1680.936 -2177.825)" fill="#8b98bc"/>
    <g id="그룹_833" data-name="그룹 833" transform="translate(144.789)">
      <g id="그룹_832" data-name="그룹 832" transform="translate(0)">
        <ellipse id="타원_336" data-name="타원 336" cx="26.497" cy="26.497" rx="26.497" ry="26.497" fill="url(#linear-gradient-6)"/>
      </g>
    </g>
    <g id="그룹_834" data-name="그룹 834" transform="translate(148.642 3.853)">
      <path id="패스_12111" data-name="패스 12111" d="M-1328.569,2047.3a22.644,22.644,0,0,1,22.644-22.643,22.643,22.643,0,0,1,22.643,22.643Z" transform="translate(1328.569 -2024.661)" fill="url(#linear-gradient-7)"/>
    </g>
    <g id="그룹_836" data-name="그룹 836" transform="translate(133.814 256.651)">
      <g id="그룹_835" data-name="그룹 835" transform="translate(0 0)">
        <circle id="타원_337" data-name="타원 337" cx="26.497" cy="26.497" r="26.497" transform="translate(0 37.472) rotate(-45)" fill="url(#linear-gradient-8)"/>
      </g>
    </g>
    <g id="그룹_838" data-name="그룹 838" transform="translate(278.602 133.813)">
      <g id="그룹_837" data-name="그룹 837" transform="translate(0 0)">
        <ellipse id="타원_338" data-name="타원 338" cx="26.497" cy="26.497" rx="26.497" ry="26.497" fill="url(#linear-gradient-9)"/>
      </g>
    </g>
    <g id="그룹_840" data-name="그룹 840" transform="translate(0 122.838)">
      <g id="그룹_839" data-name="그룹 839" transform="translate(0 0)">
        <circle id="타원_339" data-name="타원 339" cx="26.497" cy="26.497" r="26.497" transform="translate(0 37.472) rotate(-45)" fill="url(#linear-gradient-10)"/>
      </g>
    </g>
    <g id="그룹_842" data-name="그룹 842" transform="translate(239.409 39.193)">
      <g id="그룹_841" data-name="그룹 841" transform="translate(0 0)">
        <ellipse id="타원_340" data-name="타원 340" cx="26.497" cy="26.497" rx="26.497" ry="26.497" fill="url(#linear-gradient-11)"/>
      </g>
    </g>
    <g id="그룹_844" data-name="그룹 844" transform="translate(50.169 228.434)">
      <g id="그룹_843" data-name="그룹 843" transform="translate(0 0)">
        <ellipse id="타원_341" data-name="타원 341" cx="26.497" cy="26.497" rx="26.497" ry="26.497" fill="url(#linear-gradient-12)"/>
      </g>
    </g>
    <g id="그룹_846" data-name="그룹 846" transform="translate(239.409 228.434)">
      <g id="그룹_845" data-name="그룹 845" transform="translate(0 0)">
        <ellipse id="타원_342" data-name="타원 342" cx="26.497" cy="26.497" rx="26.497" ry="26.497" fill="url(#linear-gradient-13)"/>
      </g>
    </g>
    <g id="그룹_848" data-name="그룹 848" transform="translate(50.169 39.193)">
      <g id="그룹_847" data-name="그룹 847" transform="translate(0 0)">
        <ellipse id="타원_343" data-name="타원 343" cx="26.497" cy="26.497" rx="26.497" ry="26.497" fill="url(#linear-gradient-14)"/>
      </g>
    </g>
    <g id="그룹_849" data-name="그룹 849" transform="translate(148.642 270.105)">
      <path id="패스_12112" data-name="패스 12112" d="M-1328.569,3031.617a22.644,22.644,0,0,1,22.644-22.644,22.643,22.643,0,0,1,22.643,22.644Z" transform="translate(1328.569 -3008.974)" fill="url(#linear-gradient-7)"/>
    </g>
    <g id="그룹_850" data-name="그룹 850" transform="translate(54.022 42.551)">
      <path id="패스_12113" data-name="패스 12113" d="M-1678.373,2190.369a22.643,22.643,0,0,1,22.643-22.643,22.644,22.644,0,0,1,22.644,22.643Z" transform="translate(1678.373 -2167.726)" fill="url(#linear-gradient-7)"/>
    </g>
    <g id="그룹_851" data-name="그룹 851" transform="translate(54.022 232.287)">
      <path id="패스_12114" data-name="패스 12114" d="M-1678.373,2891.806a22.643,22.643,0,0,1,22.643-22.644,22.644,22.644,0,0,1,22.644,22.644Z" transform="translate(1678.373 -2869.163)" fill="url(#linear-gradient-7)"/>
    </g>
    <g id="그룹_852" data-name="그룹 852" transform="translate(14.829 137.498)">
      <path id="패스_12115" data-name="패스 12115" d="M-1823.266,2541.379a22.643,22.643,0,0,1,22.643-22.643,22.644,22.644,0,0,1,22.644,22.643Z" transform="translate(1823.266 -2518.736)" fill="url(#linear-gradient-7)"/>
    </g>
    <g id="그룹_853" data-name="그룹 853" transform="translate(243.394 42.935)">
      <path id="패스_12116" data-name="패스 12116" d="M-978.278,2191.783a22.644,22.644,0,0,1,22.644-22.643,22.644,22.644,0,0,1,22.643,22.643Z" transform="translate(978.278 -2169.14)" fill="url(#linear-gradient-7)"/>
    </g>
    <g id="그룹_854" data-name="그룹 854" transform="translate(243.394 232.67)">
      <path id="패스_12117" data-name="패스 12117" d="M-978.278,2893.22a22.644,22.644,0,0,1,22.644-22.644,22.644,22.644,0,0,1,22.643,22.644Z" transform="translate(978.278 -2870.577)" fill="url(#linear-gradient-7)"/>
    </g>
    <g id="그룹_855" data-name="그룹 855" transform="translate(282.455 137.498)">
      <path id="패스_12118" data-name="패스 12118" d="M-833.872,2541.379a22.644,22.644,0,0,1,22.644-22.643,22.644,22.644,0,0,1,22.644,22.643Z" transform="translate(833.872 -2518.736)" fill="url(#linear-gradient-7)"/>
    </g>
  </g>
  <g id="그룹_814" data-name="그룹 814" transform="translate(1515.345 65.255)" opacity="0.85">
    <g id="그룹_245-2" data-name="그룹 245" transform="translate(24.546 65.236)">
      <path id="패스_710-2" data-name="패스 710" d="M-311.44-54.361a.712.712,0,0,1-.711.711h0a.712.712,0,0,1-.711-.711v-25.9a.712.712,0,0,1,.711-.711h0a.712.712,0,0,1,.711.711Z" transform="translate(312.862 80.969)" fill="#00537f"/>
      <path id="패스_711-2" data-name="패스 711" d="M-303.929-54.361a.712.712,0,0,1-.711.711h0a.711.711,0,0,1-.711-.711v-25.9a.711.711,0,0,1,.711-.711h0a.712.712,0,0,1,.711.711Z" transform="translate(318.442 80.969)" fill="#00537f"/>
    </g>
    <g id="그룹_246-2" data-name="그룹 246" transform="translate(0 0)">
      <path id="패스_712-2" data-name="패스 712" d="M-286.465-41.779s.284-4.267,11.952-18.781,11.169-26.4,11.169-26.4A31.442,31.442,0,0,0-294.787-118.4h-.711a31.443,31.443,0,0,0-31.443,31.442s-.5,11.884,11.171,26.4,11.952,18.781,11.952,18.781Z" transform="translate(326.945 118.397)" fill="#f49f9f"/>
      <path id="패스_713-2" data-name="패스 713" d="M-298.4-41.779s.131-4.267,5.534-18.781a79.257,79.257,0,0,0,5.175-26.4c0-17.364-6.52-31.442-14.563-31.442h-.329c-8.042,0-14.563,14.078-14.563,31.442a79.275,79.275,0,0,0,5.173,26.4c5.4,14.514,5.536,18.781,5.536,18.781Z" transform="translate(334.223 118.397)" fill="#fff2cb"/>
    </g>
    <g id="그룹_247-2" data-name="그룹 247" transform="translate(20.853 84.302)">
      <path id="패스_714-2" data-name="패스 714" d="M-294.766-69.044v8.663a4.018,4.018,0,0,1-4.019,4.019h-11.5a4.019,4.019,0,0,1-4.019-4.019v-8.663Z" transform="translate(315.485 70.763)" fill="#ffb97c"/>
      <path id="패스_715-2" data-name="패스 715" d="M-293.08-68.944a1.088,1.088,0,0,1-1.088,1.088h-19.727a1.088,1.088,0,0,1-1.086-1.088h0a1.087,1.087,0,0,1,1.086-1.086h19.727a1.088,1.088,0,0,1,1.088,1.086Z" transform="translate(314.981 70.03)" fill="#d35c38"/>
    </g>
  </g>
  <ellipse id="타원_520" data-name="타원 520" cx="5.792" cy="5.792" rx="5.792" ry="5.792" transform="translate(301.432 306.05) rotate(-76.718)" fill="#fffef3"/>
  <ellipse id="타원_521" data-name="타원 521" cx="5.627" cy="5.627" rx="5.627" ry="5.627" transform="translate(168.432 278.438) rotate(-76.718)" fill="#fffef3"/>
  <ellipse id="타원_523" data-name="타원 523" cx="5.792" cy="5.792" rx="5.792" ry="5.792" transform="translate(1320.08 157.257) rotate(-76.718)" fill="#fffef3"/>
  <ellipse id="타원_524" data-name="타원 524" cx="5.792" cy="5.792" rx="5.792" ry="5.792" transform="translate(1248.08 308.257) rotate(-76.718)" fill="#fffef3"/>
  <ellipse id="타원_525" data-name="타원 525" cx="5.792" cy="5.792" rx="5.792" ry="5.792" transform="translate(1745.08 193.108) rotate(-76.718)" fill="#fffef3"/>
  <ellipse id="타원_526" data-name="타원 526" cx="7.007" cy="7.007" rx="7.007" ry="7.007" transform="translate(1913.271 306.515) rotate(-76.718)" fill="#fffef3"/>
  <ellipse id="타원_527" data-name="타원 527" cx="7.007" cy="7.007" rx="7.007" ry="7.007" transform="translate(1861.271 221.469) rotate(-76.718)" fill="#fffef3"/>
  <ellipse id="타원_529" data-name="타원 529" cx="7.007" cy="7.007" rx="7.007" ry="7.007" transform="translate(1869.701 288.55) rotate(-76.718)" fill="#fffef3"/>
  <ellipse id="타원_530" data-name="타원 530" cx="7.292" cy="7.292" rx="7.292" ry="7.292" transform="translate(354.432 179.05) rotate(-76.718)" fill="#fffef3"/>
</svg>
