<svg id="구성_요소_127_1" data-name="구성 요소 127 – 1" xmlns="http://www.w3.org/2000/svg" xmlns:xlink="http://www.w3.org/1999/xlink" width="2157.704" height="2326.562" viewBox="0 0 2157.704 2326.562">
  <defs>
    <linearGradient id="linear-gradient" x1="0.5" x2="0.5" y2="1" gradientUnits="objectBoundingBox">
      <stop offset="0" stop-color="#fff"/>
      <stop offset="0.232" stop-color="#6963b7"/>
      <stop offset="1" stop-color="#32257b"/>
    </linearGradient>
  </defs>
  <g id="구성_요소_85_1" data-name="구성 요소 85 – 1" transform="translate(99.519)">
    <rect id="사각형_837" data-name="사각형 837" width="1924.04" height="2326.561" opacity="0.694" fill="url(#linear-gradient)"/>
  </g>
  <path id="패스_12457" data-name="패스 12457" d="M1691.822,633.877a23.775,23.775,0,1,0-18.288-39.063,29.436,29.436,0,0,0-47.225-11.962,39.688,39.688,0,0,0-77.494,9.059,22.949,22.949,0,1,0-12.777,41.966Z" transform="translate(-1513.019 -340.141)" fill="#fff" opacity="0.66"/>
  <g id="구성_요소_88_1" data-name="구성 요소 88 – 1" transform="translate(764.883 236.869)" opacity="0.674">
    <path id="패스_12458" data-name="패스 12458" d="M2354.279,1989.557h929.64L2889.3,1586.946c-37.388-38.142-109.9-38.142-147.289,0l-33.4,34.081L2589.6,1499.612c-45.494-46.417-133.739-46.417-179.235,0L1891.1,1989.557Z" transform="translate(-1891.097 -1464.798)" fill="#827fb4" opacity="0.702"/>
  </g>
  <g id="구성_요소_87_7" data-name="구성 요소 87 – 7" transform="translate(101.345 249.775)" opacity="0.674">
    <path id="패스_12459" data-name="패스 12459" d="M1471.673,2141.761,1083.8,1736.071c-36.748-38.435-108.023-38.435-144.77,0l-387.877,405.69Z" transform="translate(-551.149 -1707.245)" fill="#827fb4" opacity="0.702"/>
  </g>
  <path id="패스_12489" data-name="패스 12489" d="M5.134.005A5.156,5.156,0,1,1,.005,5.156,5.158,5.158,0,0,1,5.134.005Z" transform="translate(1430.707 137.236) rotate(-76.718)" fill="#fffef3"/>
  <path id="패스_12490" data-name="패스 12490" d="M5.134.005A5.156,5.156,0,1,1,.005,5.156,5.158,5.158,0,0,1,5.134.005Z" transform="translate(1875.098 127.533) rotate(-76.718)" fill="#fffef3"/>
  <path id="패스_12460" data-name="패스 12460" d="M1677.4,627.511a21.857,21.857,0,1,0-16.813-35.913,27.062,27.062,0,0,0-43.417-11,36.487,36.487,0,0,0-71.244,8.329,21.1,21.1,0,1,0-11.747,38.582Z" transform="translate(346.575 -266.865)" fill="#fff" opacity="0.476"/>
  <path id="패스_12491" data-name="패스 12491" d="M6.874.007A6.9,6.9,0,1,1,.007,6.9,6.906,6.906,0,0,1,6.874.007Z" transform="translate(194.384 403.121) rotate(-76.718)" fill="#fffef3" opacity="0.445"/>
  <path id="패스_12493" data-name="패스 12493" d="M7.439.007A7.472,7.472,0,1,1,.007,7.471,7.475,7.475,0,0,1,7.439.007Z" transform="translate(278.6 211.639) rotate(-76.718)" fill="#fffef3" opacity="0.445"/>
  <g id="그룹_897" data-name="그룹 897" transform="translate(1352.375 150.938)">
    <path id="패스_12288" data-name="패스 12288" d="M-2.491,56.565c2.144-1.755,4.98-3.525,7.5-2.382,2.55,1.158,3.026,4.8,1.734,7.272S2.979,65.527.659,67.093a123.963,123.963,0,0,0-43.486,51.566A122.458,122.458,0,0,1-2.491,56.565Z" transform="translate(205.644 5.161)" fill="#ffdb8b"/>
    <path id="패스_12289" data-name="패스 12289" d="M26.829,67.09c2.759-.291,6.107-.218,7.581,2.119,1.489,2.363-.121,5.666-2.569,7.025s-5.4,1.333-8.2,1.369A124.829,124.829,0,0,0-41.172,96.868,123.346,123.346,0,0,1,26.829,67.09Z" transform="translate(210.044 39.897)" fill="#e6ffe5"/>
    <path id="패스_12290" data-name="패스 12290" d="M26.727,59.145c2.7-.619,6.037-.947,7.783,1.2,1.764,2.167.563,5.637-1.7,7.28s-5.2,1.97-7.976,2.342A124.733,124.733,0,0,0-37.183,96.847,123.193,123.193,0,0,1,26.727,59.145Z" transform="translate(220.651 17.999)" fill="#ffb9d4"/>
    <path id="패스_12291" data-name="패스 12291" d="M-6.376,48.875c2.016-1.9,4.72-3.864,7.318-2.9,2.623.976,3.359,4.574,2.243,7.13S.243,58.562-2.493,59.159c-12.664,2.768-27.574,23.951-39.74,54.479A122.4,122.4,0,0,1-6.376,48.875Z" transform="translate(207.223 -16.225)" fill="#e6ffe5"/>
    <path id="패스_12292" data-name="패스 12292" d="M28.268,103.852c2.137,1.763,4.424,4.2,3.772,6.879-.659,2.713-4.157,3.871-6.846,3.077s-4.731-2.91-6.714-4.88A124.562,124.562,0,0,0-40.651,76.237,123.441,123.441,0,0,1,28.268,103.852Z" transform="translate(211.429 64.378)" fill="#ffdb8b"/>
    <path id="패스_12293" data-name="패스 12293" d="M39.6,80.582c2.616.921,5.6,2.425,5.92,5.167.318,2.771-2.565,5.058-5.36,5.233A14.526,14.526,0,0,1,32.17,88.7C14.3,78.353-11.042,75.239-34.653,78.258A123.635,123.635,0,0,1,39.6,80.582Z" transform="translate(227.378 57.542)" fill="#ffb9d4"/>
    <path id="패스_12294" data-name="패스 12294" d="M10.937,134.248c1.255,2.575,2.364,5.852.593,8.106-1.793,2.28-5.594,1.879-7.79-.022s-3.209-4.767-4.233-7.476A128.461,128.461,0,0,0-42.209,78.724,127.351,127.351,0,0,1,10.937,134.248Z" transform="translate(207.287 70.947)" fill="#e6ffe5"/>
    <path id="패스_12295" data-name="패스 12295" d="M24.79,131.173c1.559,2.407,3.055,5.528,1.566,7.979-1.5,2.476-5.327,2.531-7.735.907a14.053,14.053,0,0,1-5.1-6.915c-9.209-25.386-27.039-40.721-48.17-50.761A127.533,127.533,0,0,1,24.79,131.173Z" transform="translate(227.378 80.61)" fill="#ffb9d4"/>
    <path id="패스_12296" data-name="패스 12296" d="M-22.943,157.957c-.135,3.034-.761,6.639-3.553,7.851-2.825,1.224-6.165-1.056-7.248-3.926s-.574-6.052-.157-9.09A135.449,135.449,0,0,0-44.344,79.571,134.135,134.135,0,0,1-22.943,157.957Z" transform="translate(201.61 73.185)" fill="#ffb9d4"/>
    <path id="패스_12297" data-name="패스 12297" d="M-16.28,165.009c-.135,3.03-.761,6.639-3.553,7.848-2.825,1.227-6.165-1.056-7.248-3.922s-.574-6.056-.157-9.09A135.439,135.439,0,0,0-37.681,86.622,134.1,134.1,0,0,1-16.28,165.009Z" transform="translate(219.326 91.811)" fill="#ffdb8b"/>
    <path id="패스_12298" data-name="패스 12298" d="M-62.989,66.861c-2.755-.317-6.1-.277-7.6,2.05-1.511,2.349.066,5.663,2.5,7.047A11.447,11.447,0,0,0-59.9,77.407C-42.832,73.1-18.087,81.821,4.727,97.283A123.343,123.343,0,0,0-62.989,66.861Z" transform="translate(130.253 39.238)" fill="#e6ffe5"/>
    <path id="패스_12299" data-name="패스 12299" d="M-66.845,103.535c-2.17,1.719-4.5,4.108-3.908,6.8.6,2.728,4.076,3.955,6.78,3.216s4.79-2.819,6.813-4.749A124.611,124.611,0,0,1,2.613,77.3,123.443,123.443,0,0,0-66.845,103.535Z" transform="translate(131.141 67.178)" fill="#ffdb8b"/>
    <path id="패스_12300" data-name="패스 12300" d="M-69.9,135.664c-1.3,2.44-2.47,5.561-.834,7.793,1.65,2.254,5.327,1.988,7.5.229s3.249-4.49,4.325-7.068A123.9,123.9,0,0,1-16.876,83.869,122.774,122.774,0,0,0-69.9,135.664Z" transform="translate(129.32 84.539)" fill="#ffdb8b"/>
    <path id="패스_12301" data-name="패스 12301" d="M-60.976,131.663c-1.255,2.465-2.378,5.6-.71,7.808,1.69,2.225,5.364,1.9,7.512.109s3.172-4.545,4.2-7.138A123.92,123.92,0,0,1-8.811,79.016,122.784,122.784,0,0,0-60.976,131.663Z" transform="translate(153.263 71.719)" fill="#ffb9d4"/>
    <path id="패스_12302" data-name="패스 12302" d="M-60.037,160.867c.018,2.76.468,6.063,2.971,7.258,2.528,1.205,5.642-.761,6.721-3.332s.724-5.492.446-8.267A123.324,123.324,0,0,1-37.973,90.259,122.109,122.109,0,0,0-60.037,160.867Z" transform="translate(159.876 101.419)" fill="#ffdb8b"/>
    <path id="패스_12303" data-name="패스 12303" d="M-52.634,156.979c-.015,3.033.443,6.668,3.172,8.008,2.762,1.355,6.209-.765,7.428-3.58s.864-6.02.589-9.071A135.458,135.458,0,0,1-27.534,79.689,134.121,134.121,0,0,0-52.634,156.979Z" transform="translate(179.567 73.497)" fill="#e6ffe5"/>
    <path id="패스_12304" data-name="패스 12304" d="M-50.872,57.76c-2.144-1.752-4.98-3.525-7.5-2.378-2.55,1.158-3.026,4.8-1.734,7.272a12.42,12.42,0,0,0,6.088,5.634c19.484,8.15,34.463,28.31,43.486,51.569A122.483,122.483,0,0,0-50.872,57.76Z" transform="translate(157.843 8.324)" fill="#ffdb8b"/>
    <path id="패스_12305" data-name="패스 12305" d="M-47.611,50.137c-1.745-2.145-4.168-4.446-6.871-3.827-2.73.626-3.933,4.1-3.165,6.777s2.872,4.741,4.83,6.737a123.642,123.642,0,0,1,32.206,59.2A122.2,122.2,0,0,0-47.611,50.137Z" transform="translate(165.631 -14.951)" fill="#ffb9d4"/>
    <path id="패스_12306" data-name="패스 12306" d="M-64.378,57.317c-2.645-.838-5.938-1.435-7.856.561-1.936,2.017-1.025,5.575,1.1,7.393s5.016,2.389,7.753,2.986a124.6,124.6,0,0,1,59.6,31.835A123.063,123.063,0,0,0-64.378,57.317Z" transform="translate(124.628 12.332)" fill="#ffb9d4"/>
    <path id="패스_12307" data-name="패스 12307" d="M-74.2,80.7c-2.638.859-5.66,2.294-6.041,5.029-.384,2.764,2.448,5.117,5.24,5.353s5.474-.983,8.042-2.094a124.982,124.982,0,0,1,67.05-8.9A123.659,123.659,0,0,0-74.2,80.7Z" transform="translate(106.079 60.258)" fill="#ffdb8b"/>
    <path id="패스_12308" data-name="패스 12308" d="M-35.078,56.244l-8.342,65.7a241.112,241.112,0,0,1-.959-59.169c.333-3.114.765-6.322,2.367-9.017l.048-.08C-39.9,50.29-34.577,52.311-35.078,56.244Z" transform="translate(197.862 0.244)" fill="#ffdb8b"/>
    <path id="패스_12309" data-name="패스 12309" d="M-47.39,162.232-37.8,87.677a273.363,273.363,0,0,1,.984,67.159c-.388,3.532-.878,7.174-2.7,10.229l-.055.091C-41.924,169-47.965,166.7-47.39,162.232Z" transform="translate(193.409 94.598)" fill="#ffdb8b"/>
    <path id="패스_12310" data-name="패스 12310" d="M-29.251,73.639A101.8,101.8,0,0,0-70.622,54.488c-2.173-.455-4.874-1.384-5-3.591-.124-2.181,2.488-3.456,4.676-3.642,5.587-.47,10.94,2.167,15.733,5.069A118.107,118.107,0,0,1-29.251,73.639Z" transform="translate(118.428 -12.325)" fill="#ffdb8b"/>
    <path id="패스_12311" data-name="패스 12311" d="M-37.614,88.758A100.692,100.692,0,0,0-51.108,45.379c-1.116-1.912-2.236-4.527-.677-6.1,1.54-1.559,4.244-.488,5.847,1.005,4.1,3.809,5.726,9.53,6.78,15.015A117.02,117.02,0,0,1-37.614,88.758Z" transform="translate(179.784 -35.273)" fill="#ffdb8b"/>
    <path id="패스_12312" data-name="패스 12312" d="M-17.358,68.7A101.915,101.915,0,0,1,26.933,79.624c1.979,1,4.669,1.963,6.158.324,1.471-1.621.241-4.246-1.346-5.754-4.054-3.856-9.886-5.146-15.448-5.878A118.823,118.823,0,0,0-17.358,68.7Z" transform="translate(273.364 40.78)" fill="#e6ffe5"/>
    <path id="패스_12313" data-name="패스 12313" d="M-19.335,85.511a101.326,101.326,0,0,1,31.972,32.4c1.156,1.883,2.942,4.1,5.071,3.489,2.108-.612,2.441-3.489,1.884-5.6-1.423-5.4-5.712-9.537-10.062-13.063A118.33,118.33,0,0,0-19.335,85.511Z" transform="translate(268.107 88.876)" fill="#e6ffe5"/>
    <path id="패스_12314" data-name="패스 12314" d="M-27.525,97.737A100.8,100.8,0,0,1-12.362,140.57c.245,2.2.915,4.96,3.11,5.3,2.17.335,3.7-2.127,4.091-4.279,1.01-5.492-1.112-11.049-3.553-16.074A117.615,117.615,0,0,0-27.525,97.737Z" transform="translate(246.33 121.173)" fill="#ffdb8b"/>
    <path id="패스_12315" data-name="패스 12315" d="M-30.51,106.342A100.69,100.69,0,0,1-41.3,150.468c-1,1.977-1.95,4.658-.3,6.133,1.636,1.457,4.266.222,5.777-1.366,3.857-4.053,5.126-9.862,5.836-15.4A117.165,117.165,0,0,0-30.51,106.342Z" transform="translate(206.539 143.904)" fill="#ffb9d4"/>
    <path id="패스_12316" data-name="패스 12316" d="M-27.525,68.843A102.029,102.029,0,0,1,16.441,56.687c2.217-.095,5.035-.575,5.521-2.728.483-2.134-1.884-3.816-4.014-4.355C12.515,48.231,6.8,49.961,1.6,52.044A118.5,118.5,0,0,0-27.525,68.843Z" transform="translate(246.33 -7.274)" fill="#ffb9d4"/>
    <path id="패스_12317" data-name="패스 12317" d="M-39.329,77.8A101.33,101.33,0,0,1-8,44.776C-6.157,43.552-3.995,41.7-4.7,39.6c-.692-2.076-3.593-2.3-5.693-1.664-5.368,1.621-9.36,6.041-12.733,10.5A117.524,117.524,0,0,0-39.329,77.8Z" transform="translate(214.945 -37.624)" fill="#ffdb8b"/>
    <path id="패스_12318" data-name="패스 12318" d="M-35.711,77.388A101.975,101.975,0,0,0-81.18,73.6c-2.2.317-5.053.372-5.935-1.657-.875-2.007,1.134-4.1,3.125-5.022,5.086-2.356,11.024-1.715,16.527-.637A118.6,118.6,0,0,1-35.711,77.388Z" transform="translate(87.326 35.517)" fill="#ffb9d4"/>
    <path id="패스_12319" data-name="패스 12319" d="M-43.871,88.144a101.324,101.324,0,0,0-30.837,33.47c-1.094,1.923-2.8,4.2-4.95,3.66-2.129-.543-2.561-3.4-2.075-5.535,1.237-5.444,5.379-9.727,9.608-13.4A118.312,118.312,0,0,1-43.871,88.144Z" transform="translate(101.713 95.832)" fill="#ffb9d4"/>
    <path id="패스_12320" data-name="패스 12320" d="M-44.218,97.837a100.822,100.822,0,0,0-16.754,42.239c-.329,2.185-1.1,4.924-3.308,5.178-2.181.255-3.615-2.265-3.93-4.428-.8-5.524,1.529-11,4.153-15.932A117.772,117.772,0,0,1-44.218,97.837Z" transform="translate(137.727 121.437)" fill="#e6ffe5"/>
    <path id="패스_12321" data-name="패스 12321" d="M-41.934,105.773A100.679,100.679,0,0,0-46.039,151c.307,2.185.34,5.029-1.7,5.9-2.023.856-4.109-1.158-5.024-3.146-2.338-5.073-1.654-10.98-.531-16.449A117.235,117.235,0,0,1-41.934,105.773Z" transform="translate(175.062 142.401)" fill="#e6ffe5"/>
  </g>
  <g id="그룹_918" data-name="그룹 918" transform="translate(385.935 56.535)">
    <path id="패스_12416" data-name="패스 12416" d="M-146.585,77.885c1.946-1.591,4.519-3.195,6.808-2.157,2.311,1.051,2.749,4.354,1.576,6.6s-3.422,3.689-5.526,5.109a112.508,112.508,0,0,0-39.461,46.8A111.135,111.135,0,0,1-146.585,77.885Z" transform="translate(330.931 -21.877)" fill="#ffb9d4"/>
    <path id="패스_12417" data-name="패스 12417" d="M-120.263,85.178c2.5-.265,5.539-.2,6.876,1.923,1.354,2.148-.108,5.145-2.33,6.376s-4.9,1.209-7.44,1.245A113.305,113.305,0,0,0-181.972,112.2,111.973,111.973,0,0,1-120.263,85.178Z" transform="translate(335.208 11.903)" fill="#e6ffe5"/>
    <path id="패스_12418" data-name="패스 12418" d="M-121.045,79.393c2.456-.562,5.476-.858,7.061,1.087,1.6,1.968.515,5.118-1.544,6.605s-4.713,1.793-7.237,2.13a113.149,113.149,0,0,0-56.273,24.394A111.819,111.819,0,0,1-121.045,79.393Z" transform="translate(345.519 -9.393)" fill="#ffe2a0"/>
    <path id="패스_12419" data-name="패스 12419" d="M-150.216,72.3c1.828-1.721,4.284-3.5,6.641-2.628,2.384.89,3.047,4.152,2.036,6.475s-2.668,4.943-5.151,5.486c-11.49,2.512-25.019,21.734-36.062,49.434A111.07,111.07,0,0,1-150.216,72.3Z" transform="translate(332.467 -42.675)" fill="#e6ffe5"/>
    <path id="패스_12420" data-name="패스 12420" d="M-119.053,116.944c1.941,1.6,4.013,3.806,3.422,6.241-.6,2.458-3.77,3.514-6.208,2.79s-4.293-2.637-6.095-4.426a113.019,113.019,0,0,0-53.655-29.664A111.928,111.928,0,0,1-119.053,116.944Z" transform="translate(336.557 35.714)" fill="#ffb9d4"/>
    <path id="패스_12421" data-name="패스 12421" d="M-109.8,96.274c2.375.836,5.088,2.2,5.372,4.686.293,2.516-2.325,4.592-4.862,4.749s-4.943-1.006-7.255-2.071a113.4,113.4,0,0,0-60.634-9.476A112.173,112.173,0,0,1-109.8,96.274Z" transform="translate(352.06 29.064)" fill="#ffb9d4"/>
    <path id="패스_12422" data-name="패스 12422" d="M-134.51,144.1c1.138,2.336,2.144,5.306.537,7.355-1.625,2.067-5.079,1.7-7.07-.018s-2.912-4.327-3.842-6.785a116.586,116.586,0,0,0-37.85-50.939A115.54,115.54,0,0,1-134.51,144.1Z" transform="translate(332.53 42.099)" fill="#e6ffe5"/>
    <path id="패스_12423" data-name="패스 12423" d="M-123.238,140.675c1.413,2.188,2.767,5.014,1.418,7.239-1.363,2.247-4.835,2.3-7.016.827a12.762,12.762,0,0,1-4.632-6.277c-8.356-23.037-24.536-36.952-43.71-46.06A115.738,115.738,0,0,1-123.238,140.675Z" transform="translate(352.06 51.499)" fill="#ffe2a0"/>
    <path id="패스_12424" data-name="패스 12424" d="M-164.887,165.464c-.122,2.75-.691,6.021-3.223,7.122-2.56,1.114-5.594-.957-6.578-3.559s-.519-5.5-.14-8.25A122.953,122.953,0,0,0-184.3,94.337,121.71,121.71,0,0,1-164.887,165.464Z" transform="translate(327.012 44.279)" fill="#ffb9d4"/>
    <path id="패스_12425" data-name="패스 12425" d="M-159.987,170.649c-.122,2.75-.686,6.025-3.223,7.122-2.56,1.114-5.593-.957-6.573-3.559s-.524-5.5-.144-8.249A122.912,122.912,0,0,0-179.4,99.522,121.677,121.677,0,0,1-159.987,170.649Z" transform="translate(344.233 62.391)" fill="#ffb9d4"/>
    <path id="패스_12426" data-name="패스 12426" d="M-196.609,85.013c-2.5-.288-5.535-.252-6.894,1.86-1.372,2.13.059,5.14,2.271,6.394a10.388,10.388,0,0,0,7.426,1.316c15.489-3.909,37.944,4,58.643,18.036A111.961,111.961,0,0,0-196.609,85.013Z" transform="translate(257.645 11.263)" fill="#e6ffe5"/>
    <path id="패스_12427" data-name="패스 12427" d="M-200.162,116.473c-1.968,1.559-4.09,3.725-3.548,6.174.551,2.471,3.7,3.586,6.153,2.916s4.347-2.557,6.18-4.309a113.083,113.083,0,0,1,54.242-28.59A112.006,112.006,0,0,0-200.162,116.473Z" transform="translate(258.507 38.435)" fill="#ffb9d4"/>
    <path id="패스_12428" data-name="패스 12428" d="M-202.817,144.5c-1.174,2.215-2.239,5.05-.759,7.072,1.5,2.044,4.84,1.806,6.812.211s2.948-4.075,3.923-6.416A112.443,112.443,0,0,1-154.706,97.5,111.466,111.466,0,0,0-202.817,144.5Z" transform="translate(256.738 55.317)" fill="#ffb9d4"/>
    <path id="패스_12429" data-name="패스 12429" d="M-196.27,141.7c-1.142,2.233-2.158,5.082-.641,7.081,1.53,2.022,4.862,1.725,6.812.1s2.88-4.125,3.819-6.475a112.423,112.423,0,0,1,37.344-48.482A111.425,111.425,0,0,0-196.27,141.7Z" transform="translate(280.014 42.85)" fill="#ffe2a0"/>
    <path id="패스_12430" data-name="패스 12430" d="M-195.845,166.265c.018,2.507.424,5.5,2.7,6.587,2.293,1.092,5.119-.692,6.1-3.024s.659-4.983.406-7.5A111.852,111.852,0,0,1-175.823,102.2,110.771,110.771,0,0,0-195.845,166.265Z" transform="translate(286.442 71.735)" fill="#ffb9d4"/>
    <path id="패스_12431" data-name="패스 12431" d="M-190.4,164.557c-.009,2.754.4,6.048,2.885,7.27,2.506,1.227,5.63-.7,6.736-3.248s.786-5.464.537-8.232a122.939,122.939,0,0,1,12.622-65.924A121.746,121.746,0,0,0-190.4,164.557Z" transform="translate(305.58 44.579)" fill="#e6ffe5"/>
    <path id="패스_12432" data-name="패스 12432" d="M-187.4,78.766c-1.946-1.591-4.519-3.195-6.808-2.157-2.311,1.051-2.749,4.354-1.576,6.6a11.292,11.292,0,0,0,5.526,5.109c17.679,7.4,31.272,25.692,39.461,46.8A111.153,111.153,0,0,0-187.4,78.766Z" transform="translate(284.464 -18.799)" fill="#ffb9d4"/>
    <path id="패스_12433" data-name="패스 12433" d="M-184.944,73.366c-1.585-1.946-3.779-4.035-6.235-3.473-2.479.566-3.566,3.716-2.871,6.151s2.6,4.3,4.384,6.111a112.209,112.209,0,0,1,29.222,53.721A110.86,110.86,0,0,0-184.944,73.366Z" transform="translate(292.037 -41.436)" fill="#ffe2a0"/>
    <path id="패스_12434" data-name="패스 12434" d="M-197.508,78.1c-2.4-.759-5.386-1.3-7.124.508-1.756,1.833-.93,5.059,1,6.708s4.551,2.17,7.038,2.709a113.086,113.086,0,0,1,54.079,28.887A111.705,111.705,0,0,0-197.508,78.1Z" transform="translate(252.179 -14.903)" fill="#ffe2a0"/>
    <path id="패스_12435" data-name="패스 12435" d="M-205.219,96.2c-2.388.782-5.133,2.085-5.476,4.565-.352,2.507,2.217,4.642,4.754,4.862s4.966-.9,7.3-1.905A113.4,113.4,0,0,1-137.8,95.646,112.24,112.24,0,0,0-205.219,96.2Z" transform="translate(234.147 31.705)" fill="#ffb9d4"/>
    <path id="패스_12436" data-name="패스 12436" d="M-175.651,77.917l-7.571,59.62a218.479,218.479,0,0,1-.871-53.689c.3-2.826.7-5.738,2.149-8.182l.045-.076C-180.03,72.516-175.2,74.35-175.651,77.917Z" transform="translate(323.365 -26.658)" fill="#ffb9d4"/>
    <path id="패스_12437" data-name="패스 12437" d="M-186.538,167.952l8.7-67.654a248,248,0,0,1,.889,60.941c-.348,3.2-.794,6.511-2.451,9.283l-.05.081C-181.581,174.09-187.057,172-186.538,167.952Z" transform="translate(319.039 65.102)" fill="#ffb9d4"/>
    <path id="패스_12438" data-name="패스 12438" d="M-165.228,94.519a92.4,92.4,0,0,0-37.543-17.375c-1.973-.413-4.42-1.258-4.537-3.258-.113-1.982,2.257-3.136,4.243-3.307,5.07-.422,9.927,1.968,14.275,4.6A107.321,107.321,0,0,1-165.228,94.519Z" transform="translate(246.151 -38.883)" fill="#ffb9d4"/>
    <path id="패스_12439" data-name="패스 12439" d="M-176.787,109.736a91.4,91.4,0,0,0-12.243-39.365c-1.016-1.734-2.027-4.107-.614-5.536s3.851-.44,5.3.912c3.72,3.455,5.2,8.649,6.153,13.623A106.213,106.213,0,0,1-176.787,109.736Z" transform="translate(305.794 -61.2)" fill="#ffb9d4"/>
    <path id="패스_12440" data-name="패스 12440" d="M-164.458,86.582a92.447,92.447,0,0,1,40.188,9.912c1.8.908,4.239,1.779,5.589.292,1.336-1.469.221-3.851-1.219-5.221-3.679-3.5-8.975-4.668-14.018-5.329A107.829,107.829,0,0,0-164.458,86.582Z" transform="translate(396.761 12.764)" fill="#e6ffe5"/>
    <path id="패스_12441" data-name="패스 12441" d="M-165.912,98.705a91.954,91.954,0,0,1,29.01,29.4c1.052,1.707,2.668,3.725,4.6,3.163,1.91-.557,2.217-3.163,1.706-5.082-1.291-4.9-5.183-8.658-9.128-11.853A107.284,107.284,0,0,0-165.912,98.705Z" transform="translate(391.651 59.537)" fill="#e6ffe5"/>
    <path id="패스_12442" data-name="패스 12442" d="M-171.935,107.7a91.472,91.472,0,0,1,13.756,38.871c.226,1.99.831,4.5,2.822,4.808,1.973.3,3.354-1.932,3.715-3.882.916-4.983-1.011-10.029-3.223-14.589A106.818,106.818,0,0,0-171.935,107.7Z" transform="translate(370.483 90.944)" fill="#ffb9d4"/>
    <path id="패스_12443" data-name="패스 12443" d="M-172.07,114.025a91.4,91.4,0,0,1-9.787,40.039c-.9,1.793-1.77,4.224-.271,5.563,1.481,1.325,3.869.207,5.241-1.236,3.5-3.675,4.65-8.95,5.3-13.974A106.455,106.455,0,0,0-172.07,114.025Z" transform="translate(331.802 113.053)" fill="#ffb9d4"/>
    <path id="패스_12444" data-name="패스 12444" d="M-171.935,89.838A92.6,92.6,0,0,1-132.04,78.807c2.014-.085,4.569-.521,5.011-2.476.438-1.937-1.711-3.46-3.643-3.95-4.93-1.245-10.117.324-14.839,2.215A107.481,107.481,0,0,0-171.935,89.838Z" transform="translate(370.483 -33.969)" fill="#ffe2a0"/>
    <path id="패스_12445" data-name="패스 12445" d="M-180.616,99.945A91.94,91.94,0,0,1-152.193,69.98c1.675-1.11,3.639-2.8,3-4.7-.632-1.883-3.259-2.085-5.169-1.51-4.871,1.474-8.492,5.486-11.553,9.53A106.767,106.767,0,0,0-180.616,99.945Z" transform="translate(339.973 -63.487)" fill="#ffb9d4"/>
    <path id="패스_12446" data-name="패스 12446" d="M-169.077,94.805a92.666,92.666,0,0,0-41.258-3.437c-2,.288-4.587.337-5.39-1.505-.79-1.82,1.034-3.716,2.84-4.556,4.614-2.139,10-1.555,15-.575A107.767,107.767,0,0,1-169.077,94.805Z" transform="translate(215.915 7.645)" fill="#ffe2a0"/>
    <path id="패스_12447" data-name="패스 12447" d="M-177.411,100.641A91.976,91.976,0,0,0-205.4,131.015c-.993,1.743-2.542,3.815-4.492,3.32-1.932-.494-2.325-3.091-1.883-5.023,1.124-4.943,4.885-8.829,8.718-12.159A107.4,107.4,0,0,1-177.411,100.641Z" transform="translate(229.901 66.3)" fill="#ffe2a0"/>
    <path id="패스_12448" data-name="패스 12448" d="M-180.058,107.77a91.49,91.49,0,0,0-15.2,38.327c-.3,1.981-1,4.466-3,4.7-1.977.234-3.277-2.053-3.562-4.017-.732-5.014,1.381-9.979,3.765-14.459A106.85,106.85,0,0,1-180.058,107.77Z" transform="translate(264.912 91.203)" fill="#e6ffe5"/>
    <path id="패스_12449" data-name="패스 12449" d="M-180.4,113.606a91.35,91.35,0,0,0-3.724,41.041c.275,1.986.307,4.565-1.544,5.351s-3.729-1.051-4.56-2.853c-2.122-4.606-1.5-9.966-.483-14.926A106.5,106.5,0,0,1-180.4,113.606Z" transform="translate(301.204 111.589)" fill="#e6ffe5"/>
  </g>
  <path id="패스_12494" data-name="패스 12494" d="M5.134.005A5.156,5.156,0,1,1,.005,5.156,5.158,5.158,0,0,1,5.134.005Z" transform="translate(361.753 349.371) rotate(-76.718)" fill="#fffef3" opacity="0.728"/>
  <g id="그룹_7279" data-name="그룹 7279" transform="translate(129.479 -10398.763)">
    <path id="패스_12483" data-name="패스 12483" d="M5.621,0A5.651,5.651,0,1,1,0,5.645,5.653,5.653,0,0,1,5.621,0Z" transform="translate(945.88 10587.533) rotate(-76.718)" fill="#fffef3"/>
    <path id="패스_12488" data-name="패스 12488" d="M3.21,0A3.227,3.227,0,1,1,0,3.224,3.229,3.229,0,0,1,3.21,0Z" transform="translate(870.927 10636.889) rotate(-76.718)" fill="#fffef3"/>
    <path id="패스_12322" data-name="패스 12322" d="M-123.731,115h-34.93l-2.22-32.6h37.15Z" transform="translate(993.653 10558.91)" fill="#ffe6ed"/>
    <path id="패스_12323" data-name="패스 12323" d="M-124.029,84.032V81.884h-36.735v4.243h30.485l.394,3.523h-5.393l6.61,10.893,1.659,14.847h3.129V84.006Z" transform="translate(993.744 10558.517)" fill="#ffc4d4"/>
    <path id="패스_12324" data-name="패스 12324" d="M-46.094,139.227a.646.646,0,0,1-.647-.644V115.008a.646.646,0,0,1,.647-.644.645.645,0,0,1,.645.644v23.575A.645.645,0,0,1-46.094,139.227Z" transform="translate(1081.262 10583.176)" fill="#399"/>
    <path id="패스_12325" data-name="패스 12325" d="M-78.293,62.236a.643.643,0,0,1-.645-.642V39.746a.643.643,0,0,1,.645-.642.644.644,0,0,1,.647.642V61.594A.644.644,0,0,1-78.293,62.236Z" transform="translate(1056.55 10526.038)" fill="#399"/>
    <path id="패스_12326" data-name="패스 12326" d="M-89.065,105.441l18.546-54.584,18.546,54.584Z" transform="translate(1048.777 10534.961)" fill="#ff7b8a"/>
    <path id="패스_12327" data-name="패스 12327" d="M-89.065,104.4h37.091l-15.08-44.383-3.466-7.795,7.148,37.587H-84.107Z" transform="translate(1048.777 10535.999)" fill="#ff5f66"/>
    <path id="패스_12328" data-name="패스 12328" d="M-83.907,75.229v4.688h4.058v-4.79h6.506v4.79h7.658v-4.79h6.506v4.79h4.058V75.229h6.506l-.692,12.695H-89.72l-.692-12.695Z" transform="translate(1047.743 10553.387)" fill="#ffe6ed"/>
    <path id="패스_12329" data-name="패스 12329" d="M-89.1,115h34.93l2.22-32.6H-89.1Z" transform="translate(1048.751 10558.91)" fill="#ffe6ed"/>
    <rect id="사각형_740" data-name="사각형 740" width="30.656" height="49.626" transform="translate(959.653 10673.907)" fill="#ffc4d4"/>
    <rect id="사각형_741" data-name="사각형 741" width="30.656" height="4.666" transform="translate(959.653 10673.907)" fill="#ffadc3"/>
    <path id="패스_12330" data-name="패스 12330" d="M-57.792,184.037l20.013-58.9,20.013,58.9Z" transform="translate(1072.781 10591.352)" fill="#ff7b8a"/>
    <path id="패스_12331" data-name="패스 12331" d="M-37.78,125.134l-.288.848q4.038,26.159,8.078,52.314H-55.841l-1.951,5.742h40.026Z" transform="translate(1072.781 10591.352)" fill="#ff5f66"/>
    <path id="패스_12332" data-name="패스 12332" d="M-18.174,165.932l8.045-7.907h-47.5v7.907Z" transform="translate(1072.904 10616.323)" fill="#ffe6ed"/>
    <path id="패스_12333" data-name="패스 12333" d="M-23.924,112.894a10.048,10.048,0,0,1-12.228,4.866c-1.75-.672-3.282-1.84-5.059-2.442s-4.085-.609-5.165.918v8.777c1.2-1.766,4.375-2.217,6.453-1.7s4.094,1.513,6.232,1.4a8.285,8.285,0,0,0,6.075-3.777A35.075,35.075,0,0,0-23.924,112.894Z" transform="translate(1081.544 10582.06)" fill="#f77170"/>
    <rect id="사각형_742" data-name="사각형 742" width="39.457" height="68.728" transform="translate(1015.273 10782.256)" fill="#ffe6ed"/>
    <path id="패스_12334" data-name="패스 12334" d="M-17.906,162.52H-57.98v67.652h1.21l5.467-63.548h33.4Z" transform="translate(1072.635 10619.736)" fill="#ffc4d4"/>
    <rect id="사각형_743" data-name="사각형 743" width="56.93" height="120.481" transform="translate(959.011 10730.502)" fill="#ffe6ed"/>
    <path id="패스_12335" data-name="패스 12335" d="M-32.874,132.8v5.989H-71.686l-3.29,115.24H-88.9V133.157Z" transform="translate(1048.905 10597.175)" fill="#ffc4d4"/>
    <path id="패스_12336" data-name="패스 12336" d="M-57.806,37.624a9.311,9.311,0,0,1-11.33,4.511c-1.623-.623-3.042-1.706-4.689-2.264s-3.786-.563-4.787.851v8.133c1.11-1.636,4.055-2.055,5.98-1.58s3.795,1.4,5.776,1.3a7.677,7.677,0,0,0,5.63-3.5A32.494,32.494,0,0,0-57.806,37.624Z" transform="translate(1056.8 10524.914)" fill="#f77170"/>
    <path id="패스_12337" data-name="패스 12337" d="M-35.032,148.316l-52.847-.115,26.524-45.493Z" transform="translate(1049.687 10574.328)" fill="#ff7b8a"/>
    <g id="그룹_898" data-name="그룹 898" transform="translate(1043.121 10794.677)">
      <rect id="사각형_744" data-name="사각형 744" width="6.129" height="11.057" transform="translate(0.646 0.642)" fill="#e3879c"/>
      <path id="패스_12338" data-name="패스 12338" d="M-34.454,181.923h-7.422V169.58h7.422Zm-6.13-1.286h4.838v-9.771h-4.838Z" transform="translate(41.876 -169.58)" fill="#f77170"/>
    </g>
    <g id="그룹_899" data-name="그룹 899" transform="translate(1031.29 10794.677)">
      <rect id="사각형_745" data-name="사각형 745" width="6.129" height="11.057" transform="translate(0.646 0.642)" fill="#e3879c"/>
      <path id="패스_12339" data-name="패스 12339" d="M-41.147,181.923h-7.422V169.58h7.422Zm-6.13-1.286h4.838v-9.771h-4.838Z" transform="translate(48.569 -169.58)" fill="#f77170"/>
    </g>
    <g id="그룹_900" data-name="그룹 900" transform="translate(1019.46 10794.677)">
      <rect id="사각형_746" data-name="사각형 746" width="6.129" height="11.057" transform="translate(0.646 0.642)" fill="#e3879c"/>
      <path id="패스_12340" data-name="패스 12340" d="M-47.84,181.923h-7.422V169.58h7.422Zm-6.13-1.286h4.838v-9.771H-53.97Z" transform="translate(55.262 -169.58)" fill="#f77170"/>
    </g>
    <rect id="사각형_747" data-name="사각형 747" width="10.136" height="4.519" transform="translate(997.376 10743.679)" fill="#ffc4d4"/>
    <rect id="사각형_748" data-name="사각형 748" width="10.136" height="4.519" transform="translate(1002.445 10749.118)" fill="#ffc4d4"/>
    <rect id="사각형_749" data-name="사각형 749" width="10.566" height="4.519" transform="translate(975.82 10779.997)" fill="#ffc4d4"/>
    <rect id="사각형_750" data-name="사각형 750" width="10.566" height="4.519" transform="translate(982.408 10788.333)" fill="#ffc4d4"/>
    <rect id="사각형_751" data-name="사각형 751" width="10.566" height="4.519" transform="translate(977.125 10794.882)" fill="#ffc4d4"/>
    <rect id="사각형_752" data-name="사각형 752" width="10.566" height="4.519" transform="translate(1001.313 10824.778)" fill="#ffc4d4"/>
    <rect id="사각형_753" data-name="사각형 753" width="10.566" height="4.519" transform="translate(1000.491 10811.844)" fill="#ffc4d4"/>
    <rect id="사각형_754" data-name="사각형 754" width="10.566" height="4.519" transform="translate(987.69 10817.558)" fill="#ffc4d4"/>
    <rect id="사각형_755" data-name="사각형 755" width="10.566" height="4.519" transform="translate(973.481 10817.558)" fill="#ffc4d4"/>
    <rect id="사각형_756" data-name="사각형 756" width="10.566" height="4.519" transform="translate(1041.549 10831.191)" fill="#ffc4d4"/>
    <rect id="사각형_757" data-name="사각형 757" width="10.566" height="4.519" transform="translate(1026.653 10831.191)" fill="#ffc4d4"/>
    <rect id="사각형_758" data-name="사각형 758" width="10.566" height="4.519" transform="translate(1030.789 10811.844)" fill="#ffc4d4"/>
    <rect id="사각형_759" data-name="사각형 759" width="10.566" height="4.519" transform="translate(1017.889 10811.844)" fill="#ffc4d4"/>
    <rect id="사각형_760" data-name="사각형 760" width="10.566" height="4.519" transform="translate(1041.354 10818.623)" fill="#ffc4d4"/>
    <rect id="사각형_761" data-name="사각형 761" width="10.566" height="4.519" transform="translate(1034.355 10824.778)" fill="#ffc4d4"/>
    <rect id="사각형_762" data-name="사각형 762" width="10.566" height="4.519" transform="translate(1025.506 10818.623)" fill="#ffc4d4"/>
    <rect id="사각형_763" data-name="사각형 763" width="10.566" height="4.519" transform="translate(993.843 10779.997)" fill="#ffc4d4"/>
    <rect id="사각형_764" data-name="사각형 764" width="10.136" height="4.519" transform="translate(996.459 10757.783)" fill="#ffc4d4"/>
    <rect id="사각형_765" data-name="사각형 765" width="12.306" height="4.519" transform="translate(990.306 10764.99)" fill="#ffc4d4"/>
    <rect id="사각형_766" data-name="사각형 766" width="12.306" height="4.519" transform="translate(987.098 10751.378)" fill="#ffc4d4"/>
    <g id="그룹_901" data-name="그룹 901" transform="translate(977.472 10750.097)">
      <path id="패스_12341" data-name="패스 12341" d="M-78.64,169.883V154.209l-.011-.2.011-.2v-1.237h.111a9.855,9.855,0,0,1,9.99-7.967,9.856,9.856,0,0,1,9.992,7.967h.08l.032.642v.595l.012.2-.012.2v15.675Z" transform="translate(79.298 -143.963)" fill="#e3879c"/>
      <path id="패스_12342" data-name="패스 12342" d="M-68.256,145.526c4.939,0,8.99,3.5,9.425,7.966h.032v.595c0,.067.011.132.011.2s-.009.132-.011.2v15.031H-77.714V154.484c0-.067-.011-.132-.011-.2s.009-.132.011-.2v-.595h.034C-77.248,149.027-73.2,145.526-68.256,145.526Zm0-1.286a10.545,10.545,0,0,0-10.526,7.966h-.191L-79,153.492v.595a1.773,1.773,0,0,0-.012.2c0,.07.005.139.011.208l0,15.024V170.8h21.5V154.486c.005-.062.011-.13.011-.2s-.005-.139-.011-.208v-1.872h-.224A10.545,10.545,0,0,0-68.256,144.24Z" transform="translate(79.017 -144.24)" fill="#f77170"/>
    </g>
    <path id="패스_12343" data-name="패스 12343" d="M-81.108,136.192l-4.558,7.818-1.912,4.192,52.315.114-26.323-45.608,10.225,33.484Z" transform="translate(1049.918 10574.328)" fill="#ff5f66"/>
    <path id="패스_12344" data-name="패스 12344" d="M-80.168,125.265v5.06h6.036v-5.17h9.676v5.17h11.389v-5.17h9.676v5.17h6.035v-5.06h9.676l-1.029,13.7h-60.1l-1.029-13.7Z" transform="translate(1048.179 10591.369)" fill="#ffe6ed"/>
    <path id="패스_12345" data-name="패스 12345" d="M-78.275,168.961V153.929c0-.067-.011-.132-.011-.2s.009-.132.011-.2v-.595h.034c.433-4.465,4.484-7.966,9.425-7.966a9.719,9.719,0,0,1,7.385,3.311c.18.357.357.712.509,1.068a6.5,6.5,0,0,0-6.968,1.015,12.678,12.678,0,0,0-3.784,6.282,25.34,25.34,0,0,0-.59,12.314Z" transform="translate(1057.05 10606.413)" fill="#cc616e"/>
    <path id="패스_12346" data-name="패스 12346" d="M-52.181,86.127V81.884H-88.916v2.147l-.149-.026V115.39h3.129l1.659-14.846,6.61-10.893H-83.06l.394-3.523Z" transform="translate(1048.776 10558.517)" fill="#ffc4d4"/>
    <g id="그룹_903" data-name="그룹 903" transform="translate(981.641 10648.579)">
      <g id="그룹_902" data-name="그룹 902">
        <path id="패스_12347" data-name="패스 12347" d="M-76.51,91.221c0-.035,0-.069.005-.1v-.308a4.2,4.2,0,0,1,3.9-4.125,4.187,4.187,0,0,1,3.887,4.125l.014.308c0,.035,0,.069,0,.1s0,.069,0,.1v7.785h-7.8V91.323C-76.506,91.29-76.51,91.254-76.51,91.221Z" transform="translate(76.772 -86.418)" fill="#e3879c"/>
        <path id="패스_12348" data-name="패스 12348" d="M-68.324,99.486h-8.334V90.658h.039a4.385,4.385,0,0,1,4.129-4.125,4.386,4.386,0,0,1,4.129,4.125h.025l.018.684,0,.065Zm-7.8-.53h7.27l-.012-8.011a3.9,3.9,0,0,0-3.622-3.883,3.906,3.906,0,0,0-3.623,3.883l-.016.355-.267.035.267.033,0,.069Z" transform="translate(76.658 -86.533)" fill="#f77170"/>
      </g>
      <path id="패스_12349" data-name="패스 12349" d="M-76.4,98.876V90.43c0-.028-.005-.055-.005-.083s0-.055.005-.081V90.02a3.582,3.582,0,0,1,3.54-3.286A3.5,3.5,0,0,1-70.094,88.1c.067.146.133.294.191.44a2.261,2.261,0,0,0-2.609.419,5.364,5.364,0,0,0-1.418,2.591,23.725,23.725,0,0,0-.219,7.325Z" transform="translate(76.853 -86.38)" fill="#cc616e"/>
      <path id="패스_12350" data-name="패스 12350" d="M-68.324,99.486h-8.334V90.658h.039a4.385,4.385,0,0,1,4.129-4.125,4.386,4.386,0,0,1,4.129,4.125h.025l.018.684,0,.065Zm-7.8-.53h7.27l-.012-8.011a3.9,3.9,0,0,0-3.622-3.883,3.906,3.906,0,0,0-3.623,3.883l-.016.355-.267.035.267.033,0,.069Z" transform="translate(76.658 -86.533)" fill="#f77170"/>
    </g>
    <g id="그룹_905" data-name="그룹 905" transform="translate(968.859 10648.579)">
      <g id="그룹_904" data-name="그룹 904" transform="translate(0)">
        <path id="패스_12351" data-name="패스 12351" d="M-83.742,91.221c0-.035.005-.069.005-.1v-.308a4.2,4.2,0,0,1,3.9-4.125,4.19,4.19,0,0,1,3.889,4.125l.012.308c0,.035.005.069.005.1s0,.069-.005.1v7.785h-7.8V91.323C-83.737,91.29-83.742,91.254-83.742,91.221Z" transform="translate(84.004 -86.418)" fill="#e3879c"/>
        <path id="패스_12352" data-name="패스 12352" d="M-75.554,99.486H-83.89V90.658h.039a4.385,4.385,0,0,1,4.129-4.125,4.385,4.385,0,0,1,4.129,4.125h.025l.018.684,0,.065Zm-7.8-.53h7.272l-.012-8.011a3.906,3.906,0,0,0-3.623-3.883,3.906,3.906,0,0,0-3.623,3.883l-.016.391,0,.1Z" transform="translate(83.89 -86.533)" fill="#f77170"/>
      </g>
      <path id="패스_12353" data-name="패스 12353" d="M-83.631,98.876V90.43c0-.028,0-.055,0-.083s0-.055,0-.081V90.02a3.583,3.583,0,0,1,3.54-3.286A3.5,3.5,0,0,1-77.327,88.1c.067.146.134.294.191.44a2.261,2.261,0,0,0-2.609.419,5.348,5.348,0,0,0-1.416,2.591,23.671,23.671,0,0,0-.221,7.325Z" transform="translate(84.086 -86.38)" fill="#cc616e"/>
      <path id="패스_12354" data-name="패스 12354" d="M-75.554,99.486H-83.89V90.658h.039a4.385,4.385,0,0,1,4.129-4.125,4.385,4.385,0,0,1,4.129,4.125h.025l.018.684,0,.065Zm-7.8-.53h7.272l-.012-8.011a3.906,3.906,0,0,0-3.623-3.883,3.906,3.906,0,0,0-3.623,3.883l-.016.391,0,.1Z" transform="translate(83.89 -86.533)" fill="#f77170"/>
    </g>
    <path id="패스_12355" data-name="패스 12355" d="M-38.927,170.334h2.633v2.074h-2.633v7.674h-2.209v-9.749Z" transform="translate(1085.565 10625.67)" fill="#cc616e"/>
    <path id="패스_12356" data-name="패스 12356" d="M-45.63,170.334H-43v2.074H-45.63v7.674h-2.209v-9.749Z" transform="translate(1080.42 10625.67)" fill="#cc616e"/>
    <path id="패스_12357" data-name="패스 12357" d="M-52.323,170.334h2.633v2.074h-2.633v7.674h-2.209v-9.749Z" transform="translate(1075.282 10625.67)" fill="#cc616e"/>
    <path id="패스_12358" data-name="패스 12358" d="M-182.305,139.227a.646.646,0,0,1-.647-.644V115.008a.646.646,0,0,1,.647-.644.644.644,0,0,1,.645.644v23.575A.644.644,0,0,1-182.305,139.227Z" transform="translate(976.713 10583.176)" fill="#399"/>
    <path id="패스_12359" data-name="패스 12359" d="M-114.133,63.264a.646.646,0,0,1-.647-.644V31.1a.644.644,0,0,1,.647-.642.644.644,0,0,1,.645.642V62.62A.645.645,0,0,1-114.133,63.264Z" transform="translate(1029.039 10519.476)" fill="#399"/>
    <path id="패스_12360" data-name="패스 12360" d="M-150.11,62.236a.644.644,0,0,1-.645-.642V39.746a.644.644,0,0,1,.645-.642.644.644,0,0,1,.647.642V61.594A.644.644,0,0,1-150.11,62.236Z" transform="translate(1001.426 10526.038)" fill="#399"/>
    <path id="패스_12361" data-name="패스 12361" d="M-48.211,125.474l-92.318-.2L-94.194,45.8Z" transform="translate(1009.275 10531.121)" fill="#ff7b8a"/>
    <path id="패스_12362" data-name="패스 12362" d="M-134.048,114.156l-6.481,11.116,92.318.2L-94.194,45.8l21.82,67.722Z" transform="translate(1009.275 10531.121)" fill="#ff5f66"/>
    <path id="패스_12363" data-name="패스 12363" d="M-160.882,105.441l18.546-54.584,18.546,54.584Z" transform="translate(993.653 10534.961)" fill="#ff7b8a"/>
    <path id="패스_12364" data-name="패스 12364" d="M-160.882,104.4h37.091l-15.08-44.383-3.466-7.795,7.148,37.587h-20.736Z" transform="translate(993.653 10535.999)" fill="#ff5f66"/>
    <path id="패스_12365" data-name="패스 12365" d="M-126.9,75.229v4.688h-4.058v-4.79h-6.506v4.79h-7.658v-4.79h-6.506v4.79h-4.058V75.229H-162.2l.692,12.695h40.413l.692-12.695Z" transform="translate(992.645 10553.387)" fill="#ffe6ed"/>
    <rect id="사각형_767" data-name="사각형 767" width="30.656" height="49.626" transform="translate(839.266 10673.907)" fill="#ffc4d4"/>
    <rect id="사각형_768" data-name="사각형 768" width="30.656" height="4.666" transform="translate(839.266 10673.907)" fill="#ffadc3"/>
    <path id="패스_12366" data-name="패스 12366" d="M-193.815,184.037l20.013-58.9,20.013,58.9Z" transform="translate(968.375 10591.352)" fill="#ff7b8a"/>
    <path id="패스_12367" data-name="패스 12367" d="M-173.8,125.134l-.29.848q4.041,26.159,8.078,52.314h-25.85l-1.951,5.742h40.026Z" transform="translate(968.375 10591.352)" fill="#ff5f66"/>
    <path id="패스_12368" data-name="패스 12368" d="M-190.16,165.932l-8.045-7.907h47.5v7.907Z" transform="translate(965.005 10616.323)" fill="#ffe6ed"/>
    <path id="패스_12369" data-name="패스 12369" d="M-160.05,112.894a10.048,10.048,0,0,1-12.228,4.866c-1.75-.672-3.282-1.84-5.059-2.442s-4.085-.609-5.167.918v8.777c1.2-1.766,4.377-2.217,6.453-1.7s4.1,1.513,6.234,1.4a8.278,8.278,0,0,0,6.073-3.777A35.007,35.007,0,0,0-160.05,112.894Z" transform="translate(977.058 10582.06)" fill="#f77170"/>
    <rect id="사각형_769" data-name="사각형 769" width="39.457" height="68.728" transform="translate(774.845 10782.256)" fill="#ffe6ed"/>
    <path id="패스_12370" data-name="패스 12370" d="M-193.654,162.52v4.1h33.4l5.467,63.548h1.21V162.52Z" transform="translate(968.499 10619.736)" fill="#ffc4d4"/>
    <rect id="사각형_770" data-name="사각형 770" width="56.93" height="120.481" transform="translate(813.633 10730.502)" fill="#ffe6ed"/>
    <path id="패스_12371" data-name="패스 12371" d="M-171.76,132.8v5.989h38.813l3.29,115.24h13.922V133.157Z" transform="translate(985.304 10597.175)" fill="#ffc4d4"/>
    <rect id="사각형_771" data-name="사각형 771" width="90.674" height="93.773" transform="translate(869.568 10663.397)" fill="#ffe6ed"/>
    <rect id="사각형_772" data-name="사각형 772" width="90.674" height="5.669" transform="translate(869.568 10663.397)" fill="#ffc4d4"/>
    <rect id="사각형_773" data-name="사각형 773" width="112.88" height="87.946" transform="translate(858.465 10765.326)" fill="#ffe6ed"/>
    <path id="패스_12372" data-name="패스 12372" d="M-39.149,144.172v5.06h-5.088v-5.17H-58.96v5.17h-3.265v-5.17H-76.948v5.17h-3.265v-5.17H-95.879v5.17h-2.292v-5.17h-15.7v5.17h-3.265v-5.17h-14.723v5.17h-5.088v-5.06h-11.078l1.179,13.7H-29.249l1.179-13.7Z" transform="translate(1003.523 10605.724)" fill="#ffc4d4"/>
    <path id="패스_12373" data-name="패스 12373" d="M-129.5,37.624a9.313,9.313,0,0,1-11.332,4.511c-1.623-.623-3.042-1.706-4.688-2.264s-3.786-.563-4.788.851v8.133c1.11-1.636,4.055-2.055,5.981-1.58s3.793,1.4,5.775,1.3a7.676,7.676,0,0,0,5.63-3.5A32.5,32.5,0,0,0-129.5,37.624Z" transform="translate(1001.766 10524.914)" fill="#f77170"/>
    <path id="패스_12374" data-name="패스 12374" d="M-92.22,28.816a10.05,10.05,0,0,1-12.228,4.868c-1.752-.674-3.282-1.842-5.059-2.444s-4.087-.609-5.167.918v8.778c1.2-1.766,4.375-2.218,6.453-1.7s4.094,1.513,6.232,1.4a8.271,8.271,0,0,0,6.075-3.777A35.048,35.048,0,0,0-92.22,28.816Z" transform="translate(1029.121 10518.227)" fill="#f77170"/>
    <path id="패스_12375" data-name="패스 12375" d="M-118.135,148.316l-52.847-.115,26.524-45.493Z" transform="translate(985.901 10574.328)" fill="#ff7b8a"/>
    <g id="그룹_906" data-name="그룹 906" transform="translate(779.032 10794.677)">
      <rect id="사각형_774" data-name="사각형 774" width="6.129" height="11.057" transform="translate(0.647 0.642)" fill="#e3879c"/>
      <path id="패스_12376" data-name="패스 12376" d="M-183.863,181.923h-7.422V169.58h7.422Zm-6.13-1.286h4.838v-9.771h-4.838Z" transform="translate(191.285 -169.58)" fill="#f77170"/>
    </g>
    <g id="그룹_907" data-name="그룹 907" transform="translate(790.863 10794.677)">
      <rect id="사각형_775" data-name="사각형 775" width="6.129" height="11.057" transform="translate(0.647 0.642)" fill="#e3879c"/>
      <path id="패스_12377" data-name="패스 12377" d="M-177.17,181.923h-7.422V169.58h7.422Zm-6.13-1.286h4.838v-9.771H-183.3Z" transform="translate(184.592 -169.58)" fill="#f77170"/>
    </g>
    <g id="그룹_908" data-name="그룹 908" transform="translate(802.693 10794.677)">
      <rect id="사각형_776" data-name="사각형 776" width="6.129" height="11.057" transform="translate(0.647 0.642)" fill="#e3879c"/>
      <path id="패스_12378" data-name="패스 12378" d="M-170.477,181.923H-177.9V169.58h7.422Zm-6.13-1.286h4.838v-9.771h-4.838Z" transform="translate(177.899 -169.58)" fill="#f77170"/>
    </g>
    <path id="패스_12379" data-name="패스 12379" d="M-39.206,145.081v5.06h-6.91v-5.169H-57.194v5.169H-64.1v-5.169H-75.183v5.169h-6.91v-5.169h-12.02v5.169h-6.91v-5.169H-112.1v5.169h-6.91v-5.169h-11.078v5.169H-137v-5.06h-11.078l1.179,13.7H-29.306l1.179-13.7Z" transform="translate(1003.48 10606.413)" fill="#ffe6ed"/>
    <rect id="사각형_777" data-name="사각형 777" width="112.88" height="4.883" transform="translate(858.465 10765.326)" fill="#ffc4d4"/>
    <path id="패스_12380" data-name="패스 12380" d="M-72.769,188.449c0-.2-.028-.391-.034-.589V186.1h-.1c-1.331-13.217-13.755-23.579-28.9-23.579s-27.572,10.362-28.9,23.579h-.1v1.759c-.005.2-.034.392-.034.591s.028.392.034.591v44.5H-72.8v-44.5C-72.8,188.84-72.769,188.648-72.769,188.449Z" transform="translate(1016.71 10619.736)" fill="#ff4e55"/>
    <g id="그룹_910" data-name="그룹 910" transform="translate(890.065 10781.359)" opacity="0.411">
      <g id="그룹_909" data-name="그룹 909" transform="translate(23.365)">
        <path id="패스_12381" data-name="패스 12381" d="M-113.6,162.543c-.191,0-.378-.023-.571-.023s-.38.021-.571.023v70.993h1.142Z" transform="translate(115.642 -161.623)" fill="#a4272c"/>
        <path id="패스_12382" data-name="패스 12382" d="M-112.3,234.822h-2.952V162.049l1.11-.028a6.342,6.342,0,0,1,.732,0l1.11.028Z" transform="translate(115.249 -162.01)" fill="#a4272c"/>
      </g>
      <path id="패스_12383" data-name="패스 12383" d="M-123.9,231.767h1.112V164.85c-.38.218-.744.457-1.112.69Z" transform="translate(131.976 -159.854)" fill="#a4272c"/>
      <path id="패스_12384" data-name="패스 12384" d="M-128.468,228.744h1.064V168.831c-.368.471-.73.945-1.064,1.437Z" transform="translate(128.468 -156.831)" fill="#a4272c"/>
      <path id="패스_12385" data-name="패스 12385" d="M-118.178,163.033c-.384.093-.765.188-1.144.292v69.821h1.144Z" transform="translate(135.488 -161.233)" fill="#a4272c"/>
      <path id="패스_12386" data-name="패스 12386" d="M-100.972,228.754h1.1V170.3c-.345-.508-.718-1-1.1-1.487Z" transform="translate(149.573 -156.841)" fill="#a4272c"/>
      <path id="패스_12387" data-name="패스 12387" d="M-104.458,165.535c-.364-.23-.723-.466-1.1-.683v66.913h1.1Z" transform="translate(146.054 -159.852)" fill="#a4272c"/>
      <path id="패스_12388" data-name="패스 12388" d="M-109.019,163.323c-.375-.1-.751-.2-1.131-.289v70.111h1.131Z" transform="translate(142.528 -161.233)" fill="#a4272c"/>
    </g>
    <rect id="사각형_778" data-name="사각형 778" width="10.136" height="4.519" transform="translate(822.063 10743.679)" fill="#ffc4d4"/>
    <rect id="사각형_779" data-name="사각형 779" width="10.136" height="4.519" transform="translate(816.994 10749.118)" fill="#ffc4d4"/>
    <rect id="사각형_780" data-name="사각형 780" width="10.566" height="4.519" transform="translate(843.188 10779.997)" fill="#ffc4d4"/>
    <rect id="사각형_781" data-name="사각형 781" width="10.566" height="4.519" transform="translate(836.601 10788.333)" fill="#ffc4d4"/>
    <rect id="사각형_782" data-name="사각형 782" width="10.566" height="4.519" transform="translate(841.884 10794.882)" fill="#ffc4d4"/>
    <rect id="사각형_783" data-name="사각형 783" width="10.566" height="4.519" transform="translate(875.217 10807.038)" fill="#ffc4d4"/>
    <rect id="사각형_784" data-name="사각형 784" width="10.566" height="4.519" transform="translate(868.636 10814.104)" fill="#ffc4d4"/>
    <rect id="사각형_785" data-name="사각형 785" width="10.566" height="4.519" transform="translate(877.209 10793.059)" fill="#ffc4d4"/>
    <rect id="사각형_786" data-name="사각형 786" width="10.566" height="4.519" transform="translate(817.696 10824.778)" fill="#ffc4d4"/>
    <rect id="사각형_787" data-name="사각형 787" width="10.566" height="4.519" transform="translate(932.299 10783.037)" fill="#ffc4d4"/>
    <rect id="사각형_788" data-name="사각형 788" width="10.566" height="4.519" transform="translate(885.846 10778.507)" fill="#ffc4d4"/>
    <rect id="사각형_789" data-name="사각형 789" width="10.566" height="4.519" transform="translate(869.933 10716.332)" fill="#ffc4d4"/>
    <rect id="사각형_790" data-name="사각형 790" width="10.566" height="4.519" transform="translate(882.493 10728.072)" fill="#ffc4d4"/>
    <rect id="사각형_791" data-name="사각형 791" width="10.566" height="4.519" transform="translate(887.775 10721.274)" fill="#ffc4d4"/>
    <rect id="사각형_792" data-name="사각형 792" width="10.566" height="4.519" transform="translate(887.444 10734.628)" fill="#ffc4d4"/>
    <rect id="사각형_793" data-name="사각형 793" width="10.566" height="4.519" transform="translate(899.509 10727.687)" fill="#ffc4d4"/>
    <rect id="사각형_794" data-name="사각형 794" width="10.566" height="4.519" transform="translate(934.479 10732.59)" fill="#ffc4d4"/>
    <rect id="사각형_795" data-name="사각형 795" width="10.566" height="4.519" transform="translate(943.466 10739.612)" fill="#ffc4d4"/>
    <rect id="사각형_796" data-name="사각형 796" width="10.566" height="4.519" transform="translate(871.927 10700.055)" fill="#ffc4d4"/>
    <rect id="사각형_797" data-name="사각형 797" width="10.566" height="4.519" transform="translate(872.693 10687.354)" fill="#ffc4d4"/>
    <rect id="사각형_798" data-name="사각형 798" width="10.566" height="4.519" transform="translate(891.667 10683.149)" fill="#ffc4d4"/>
    <rect id="사각형_799" data-name="사각형 799" width="10.566" height="4.519" transform="translate(898.247 10676.313)" fill="#ffc4d4"/>
    <rect id="사각형_800" data-name="사각형 800" width="10.566" height="4.519" transform="translate(911.372 10717.791)" fill="#ffc4d4"/>
    <rect id="사각형_801" data-name="사각형 801" width="10.566" height="4.519" transform="translate(933.93 10722.789)" fill="#ffc4d4"/>
    <rect id="사각형_802" data-name="사각형 802" width="10.566" height="4.519" transform="translate(945.46 10689.296)" fill="#ffc4d4"/>
    <rect id="사각형_803" data-name="사각형 803" width="10.566" height="4.519" transform="translate(948.75 10676.313)" fill="#ffc4d4"/>
    <rect id="사각형_804" data-name="사각형 804" width="10.566" height="4.519" transform="translate(927.017 10680.415)" fill="#ffc4d4"/>
    <rect id="사각형_805" data-name="사각형 805" width="10.566" height="4.519" transform="translate(948.75 10730.332)" fill="#ffc4d4"/>
    <rect id="사각형_806" data-name="사각형 806" width="10.566" height="4.519" transform="translate(904.792 10670.048)" fill="#ffc4d4"/>
    <rect id="사각형_807" data-name="사각형 807" width="10.566" height="4.519" transform="translate(884.781 10676.169)" fill="#ffc4d4"/>
    <rect id="사각형_808" data-name="사각형 808" width="10.566" height="4.519" transform="translate(869.933 10727.687)" fill="#ffc4d4"/>
    <rect id="사각형_809" data-name="사각형 809" width="10.566" height="4.519" transform="translate(945.46 10793.254)" fill="#ffc4d4"/>
    <rect id="사각형_810" data-name="사각형 810" width="10.566" height="4.519" transform="translate(943.466 10804.117)" fill="#ffc4d4"/>
    <rect id="사각형_811" data-name="사각형 811" width="10.566" height="4.519" transform="translate(954.228 10811.844)" fill="#ffc4d4"/>
    <rect id="사각형_812" data-name="사각형 812" width="10.566" height="4.519" transform="translate(943.466 10822.518)" fill="#ffc4d4"/>
    <rect id="사각형_813" data-name="사각형 813" width="10.566" height="4.519" transform="translate(948.75 10784.101)" fill="#ffc4d4"/>
    <rect id="사각형_814" data-name="사각형 814" width="10.566" height="4.519" transform="translate(818.517 10811.844)" fill="#ffc4d4"/>
    <rect id="사각형_815" data-name="사각형 815" width="10.566" height="4.519" transform="translate(831.318 10817.558)" fill="#ffc4d4"/>
    <rect id="사각형_816" data-name="사각형 816" width="10.566" height="4.519" transform="translate(845.527 10817.558)" fill="#ffc4d4"/>
    <rect id="사각형_817" data-name="사각형 817" width="10.566" height="4.519" transform="translate(858.071 10786.073)" fill="#ffc4d4"/>
    <rect id="사각형_818" data-name="사각형 818" width="10.566" height="4.519" transform="translate(855.476 10807.038)" fill="#ffc4d4"/>
    <rect id="사각형_819" data-name="사각형 819" width="10.566" height="4.519" transform="translate(777.46 10831.191)" fill="#ffc4d4"/>
    <rect id="사각형_820" data-name="사각형 820" width="10.566" height="4.519" transform="translate(792.355 10831.191)" fill="#ffc4d4"/>
    <rect id="사각형_821" data-name="사각형 821" width="10.566" height="4.519" transform="translate(788.22 10811.844)" fill="#ffc4d4"/>
    <rect id="사각형_822" data-name="사각형 822" width="10.566" height="4.519" transform="translate(801.121 10811.844)" fill="#ffc4d4"/>
    <rect id="사각형_823" data-name="사각형 823" width="10.566" height="4.519" transform="translate(777.654 10818.623)" fill="#ffc4d4"/>
    <rect id="사각형_824" data-name="사각형 824" width="10.566" height="4.519" transform="translate(784.654 10824.778)" fill="#ffc4d4"/>
    <rect id="사각형_825" data-name="사각형 825" width="10.566" height="4.519" transform="translate(793.503 10818.623)" fill="#ffc4d4"/>
    <rect id="사각형_826" data-name="사각형 826" width="10.566" height="4.519" transform="translate(863.353 10800.848)" fill="#ffc4d4"/>
    <rect id="사각형_827" data-name="사각형 827" width="10.566" height="4.519" transform="translate(875.217 10819.813)" fill="#ffc4d4"/>
    <rect id="사각형_828" data-name="사각형 828" width="10.566" height="4.519" transform="translate(825.165 10779.997)" fill="#ffc4d4"/>
    <rect id="사각형_829" data-name="사각형 829" width="10.136" height="4.519" transform="translate(822.979 10757.783)" fill="#ffc4d4"/>
    <rect id="사각형_830" data-name="사각형 830" width="12.305" height="4.519" transform="translate(826.963 10764.99)" fill="#ffc4d4"/>
    <rect id="사각형_831" data-name="사각형 831" width="12.305" height="4.519" transform="translate(830.171 10751.378)" fill="#ffc4d4"/>
    <g id="그룹_911" data-name="그룹 911" transform="translate(830.818 10750.097)">
      <path id="패스_12389" data-name="패스 12389" d="M-161.743,169.883V154.209l-.012-.2.012-.2v-1.237h.111a9.855,9.855,0,0,1,9.99-7.967,9.857,9.857,0,0,1,9.992,7.967h.08l.032.642v.595l.011.2-.011.2v15.675Z" transform="translate(162.165 -143.963)" fill="#e3879c"/>
      <path id="패스_12390" data-name="패스 12390" d="M-140.937,152.206a10.545,10.545,0,0,0-10.526-7.966,10.545,10.545,0,0,0-10.524,7.966l.041,18.595h21.011ZM-142,154.484v15.032h-18.915V154.486c0-.069-.011-.132-.011-.2s.009-.132.011-.2v-.595h.034c.433-4.465,4.484-7.966,9.423-7.966s8.992,3.5,9.425,7.966H-142v.595c0,.067.011.132.011.2S-142,154.417-142,154.484Z" transform="translate(161.987 -144.24)" fill="#f77170"/>
    </g>
    <path id="패스_12391" data-name="패스 12391" d="M-164.211,136.192l-4.558,7.818-1.912,4.192,52.315.114-26.323-45.608,10.225,33.484Z" transform="translate(986.132 10574.328)" fill="#ff5f66"/>
    <path id="패스_12392" data-name="패스 12392" d="M-121.8,125.265v5.06h-6.035v-5.17h-9.676v5.17H-148.9v-5.17h-9.676v5.17h-6.035v-5.06h-9.676l1.029,13.7h60.1l1.029-13.7Z" transform="translate(983.364 10591.369)" fill="#ffe6ed"/>
    <path id="패스_12393" data-name="패스 12393" d="M-143,168.961V153.929c0-.067.011-.132.011-.2s-.009-.132-.011-.2v-.595h-.034c-.433-4.465-4.484-7.966-9.425-7.966a9.719,9.719,0,0,0-7.385,3.311c-.18.357-.689.767-.841,1.121a7.06,7.06,0,0,1,7.3.962,12.678,12.678,0,0,1,3.784,6.282,25.341,25.341,0,0,1,.59,12.314Z" transform="translate(993.803 10606.413)" fill="#cc616e"/>
    <path id="패스_12394" data-name="패스 12394" d="M-48.385,87.265v5.059H-54.5V87.155h-9.8v5.169h-6.112V87.155h-9.8v5.169H-86.32V87.155H-96.953v5.169h-6.112V87.155h-9.8v5.169h-6.112V87.155h-9.8v5.169h-6.112V87.265h-9.8l8.171,13.7h90.674l7.255-13.7Z" transform="translate(1006.084 10562.519)" fill="#ffe6ed"/>
    <path id="패스_12395" data-name="패스 12395" d="M-71.481,188.45l-.014-1.96-.1-.906h-.1c-1.812-13.5-14.429-23.58-29.714-23.58s-27.9,10.08-29.714,23.58h-.2v2.646l-.014.218c-.011.13-.019.26-.019.392s.009.262.019.391l.014,45.6H-71.5V189.449l.014-.218c.011-.13.019-.259.019-.391S-71.47,188.579-71.481,188.45Zm-1.817.639-.019,43.931H-129.5V189.411l-.019-.32c-.007-.083-.014-.165-.014-.25s.007-.167.014-.25l.113-2.009c1.31-12.978,13.345-22.764,28-22.764s26.688,9.787,28,22.764l.115,2.011c.007.081.014.165.014.248S-73.291,189.008-73.3,189.089Z" transform="translate(1016.315 10619.346)" fill="#ffadc3"/>
    <path id="패스_12396" data-name="패스 12396" d="M127.517,207.334v-10.4H112.705v7.116h-9.311V196.93H88.582v7.116H79.268V196.93H64.456v7.116H55.143V196.93H40.331v7.116H31.02V196.93H16.206v7.116H6.894V196.93H-7.918v7.116h-9.313V196.93H-32.043v5.592h-9.395V196.93H-56.25v7.116h-9.311V196.93H-80.374v7.116h-9.313V196.93H-104.5v7.116h-9.313V196.93h-14.812v7.116h-9.312V196.93h-14.812v7.116h-9.313V196.93h-14.812v7.116h-9.313V196.93H-201v10.4l-14.612,27.723H142.13Z" transform="translate(951.646 10645.86)" fill="#ff7b8a"/>
    <g id="그룹_912" data-name="그룹 912" transform="translate(877.34 10682.824)">
      <path id="패스_12397" data-name="패스 12397" d="M-116.386,116.475h-.034c-.433-5.6-4.484-10-9.425-10s-8.99,4.395-9.425,10h-.032V136.59h18.915Z" transform="translate(135.948 -105.635)" fill="#e3879c"/>
      <path id="패스_12398" data-name="패스 12398" d="M-117.912,135.917V115.443c0-.067.009-.13.009-.2s-.009-.132-.009-.2v-.595h-.03a8.657,8.657,0,0,0-8.553-7.966,8.5,8.5,0,0,0-6.7,3.311c-.164.357-.571.776-.709,1.129a5.841,5.841,0,0,1,6.568.954,12.968,12.968,0,0,1,3.434,6.282c1.1,3.972,1.276,13.683.536,17.756Z" transform="translate(137.019 -105.628)" fill="#cc616e"/>
      <path id="패스_12399" data-name="패스 12399" d="M-115.554,116c-.7-5.74-4.912-10-10.01-10s-9.313,4.259-10.008,10l-.1,21.4h20.207Zm-18.821,20.117V117.889l-.011-.252.042-.946c.415-5.362,4.189-9.406,8.779-9.406s8.366,4.044,8.781,9.406l.03,19.423Z" transform="translate(135.667 -105.998)" fill="#f77170"/>
    </g>
    <g id="그룹_913" data-name="그룹 913" transform="translate(839.266 10648.578)">
      <path id="패스_12400" data-name="패스 12400" d="M-149.25,90.856a4.2,4.2,0,0,0-3.9-4.127,4.191,4.191,0,0,0-3.89,4.127l-.012,8.3h7.805Z" transform="translate(157.323 -86.382)" fill="#e3879c"/>
      <path id="패스_12401" data-name="패스 12401" d="M-149.88,98.879V90.429c0-.026,0-.055,0-.081s0-.055,0-.083v-.246a3.585,3.585,0,0,0-3.542-3.286,3.5,3.5,0,0,0-2.766,1.367c-.067.146-.235.32-.292.466a2.41,2.41,0,0,1,2.71.392,5.341,5.341,0,0,1,1.418,2.593,23.683,23.683,0,0,1,.221,7.327Z" transform="translate(157.765 -86.379)" fill="#cc616e"/>
      <path id="패스_12402" data-name="패스 12402" d="M-148.907,90.659a4.388,4.388,0,0,0-4.131-4.127,4.385,4.385,0,0,0-4.131,4.127l-.039,8.831h8.339Zm-7.768,8.3V91.438l0-.1.018-.391a3.9,3.9,0,0,1,3.624-3.881,3.9,3.9,0,0,1,3.623,3.881l.012,8.015Z" transform="translate(157.207 -86.532)" fill="#f77170"/>
    </g>
    <g id="그룹_914" data-name="그룹 914" transform="translate(851.318 10648.578)">
      <path id="패스_12403" data-name="패스 12403" d="M-142.432,90.856a4.2,4.2,0,0,0-3.9-4.127,4.189,4.189,0,0,0-3.89,4.127l-.012,8.3h7.805Z" transform="translate(150.505 -86.382)" fill="#e3879c"/>
      <path id="패스_12404" data-name="패스 12404" d="M-143.062,98.879V90.429c0-.026,0-.055,0-.081s0-.055,0-.083v-.246a3.585,3.585,0,0,0-3.542-3.286A3.5,3.5,0,0,0-149.37,88.1c-.067.146-.235.32-.292.466a2.41,2.41,0,0,1,2.71.392,5.356,5.356,0,0,1,1.418,2.593,23.684,23.684,0,0,1,.221,7.327Z" transform="translate(150.947 -86.379)" fill="#cc616e"/>
      <path id="패스_12405" data-name="패스 12405" d="M-142.09,90.659a4.385,4.385,0,0,0-4.131-4.127,4.385,4.385,0,0,0-4.129,4.127l-.039,8.831h8.338Zm-7.767,8.3V91.438l0-.1.018-.391a3.9,3.9,0,0,1,3.622-3.881,3.9,3.9,0,0,1,3.625,3.881l.012,8.015Z" transform="translate(150.389 -86.532)" fill="#f77170"/>
    </g>
    <g id="그룹_915" data-name="그룹 915" transform="translate(904.161 10682.824)">
      <path id="패스_12406" data-name="패스 12406" d="M-101.212,116.475h-.034c-.433-5.6-4.484-10-9.425-10s-8.99,4.395-9.425,10h-.032V136.59h18.915Z" transform="translate(120.774 -105.635)" fill="#e3879c"/>
      <path id="패스_12407" data-name="패스 12407" d="M-102.738,135.917V115.443c0-.067.009-.13.009-.2s-.007-.132-.009-.2v-.595h-.03a8.657,8.657,0,0,0-8.553-7.966,8.5,8.5,0,0,0-6.7,3.311c-.164.357-.571.776-.709,1.129a5.841,5.841,0,0,1,6.568.954,12.985,12.985,0,0,1,3.436,6.282c1.1,3.972,1.274,13.683.534,17.756Z" transform="translate(121.845 -105.628)" fill="#cc616e"/>
      <path id="패스_12408" data-name="패스 12408" d="M-100.38,116c-.7-5.74-4.912-10-10.01-10s-9.313,4.259-10.008,10l-.1,21.4h20.207ZM-119.2,136.114V117.889l-.011-.252.042-.946c.415-5.362,4.189-9.406,8.779-9.406s8.366,4.044,8.781,9.406l.03,19.423Z" transform="translate(120.493 -105.998)" fill="#f77170"/>
    </g>
    <g id="그룹_916" data-name="그룹 916" transform="translate(930.976 10682.824)">
      <path id="패스_12409" data-name="패스 12409" d="M-86.041,116.475h-.034c-.433-5.6-4.484-10-9.425-10s-8.99,4.395-9.425,10h-.032V136.59h18.915Z" transform="translate(105.603 -105.635)" fill="#e3879c"/>
      <path id="패스_12410" data-name="패스 12410" d="M-87.567,135.917V115.443c0-.067.009-.13.009-.2s-.007-.132-.009-.2v-.595h-.03a8.657,8.657,0,0,0-8.553-7.966,8.5,8.5,0,0,0-6.7,3.311c-.164.357-.569.776-.709,1.129a5.841,5.841,0,0,1,6.568.954,12.985,12.985,0,0,1,3.436,6.282c1.1,3.972,1.274,13.683.534,17.756Z" transform="translate(106.674 -105.628)" fill="#cc616e"/>
      <path id="패스_12411" data-name="패스 12411" d="M-85.209,116c-.7-5.74-4.912-10-10.01-10s-9.313,4.259-10.008,10l-.1,21.4h20.207Zm-18.821,20.117V117.889l-.011-.252.042-.946c.415-5.362,4.189-9.406,8.779-9.406s8.366,4.044,8.781,9.406l.03,19.423Z" transform="translate(105.322 -105.998)" fill="#f77170"/>
    </g>
    <path id="패스_12412" data-name="패스 12412" d="M-187.933,170.334h-2.633v2.074h2.633v7.674h2.209v-9.749Z" transform="translate(970.87 10625.67)" fill="#cc616e"/>
    <path id="패스_12413" data-name="패스 12413" d="M-181.229,170.334h-2.633v2.074h2.633v7.674h2.209v-9.749Z" transform="translate(976.014 10625.67)" fill="#cc616e"/>
    <path id="패스_12414" data-name="패스 12414" d="M-174.536,170.334h-2.633v2.074h2.633v7.674h2.209v-9.749Z" transform="translate(981.152 10625.67)" fill="#cc616e"/>
  </g>
  <path id="패스_19680" data-name="패스 19680" d="M1652.307,616.433A18.521,18.521,0,1,0,1638.06,586a22.931,22.931,0,0,0-36.788-9.319,30.917,30.917,0,0,0-60.368,7.057,17.877,17.877,0,1,0-9.953,32.692Z" transform="translate(-314.765 -437.41)" fill="#fff" opacity="0.476"/>
  <path id="패스_19681" data-name="패스 19681" d="M7.692.007A7.725,7.725,0,1,1,.007,7.724,7.729,7.729,0,0,1,7.692.007Z" transform="translate(795.055 327.854) rotate(-76.718)" fill="#fffef3" opacity="0.445"/>
  <path id="패스_19682" data-name="패스 19682" d="M4.777.007A4.795,4.795,0,1,1,.007,4.8,4.8,4.8,0,0,1,4.777.007Z" transform="translate(748.134 169.639) rotate(-76.718)" fill="#fffef3" opacity="0.792"/>
  <path id="패스_19683" data-name="패스 19683" d="M6.863.005A6.894,6.894,0,1,1,.005,6.892,6.9,6.9,0,0,1,6.863.005Z" transform="translate(1647.088 152.096) rotate(-76.718)" fill="#fffef3"/>
  <path id="패스_19684" data-name="패스 19684" d="M3.814.005A3.829,3.829,0,1,1,.005,3.83,3.831,3.831,0,0,1,3.814.005Z" transform="translate(1739.098 240.686) rotate(-76.718)" fill="#fffef3"/>
  <path id="패스_19685" data-name="패스 19685" d="M3.814.005A3.829,3.829,0,1,1,.005,3.83,3.831,3.831,0,0,1,3.814.005Z" transform="translate(1926.312 450.336) rotate(-76.718)" fill="#fffef3"/>
  <path id="패스_19686" data-name="패스 19686" d="M3.814.005A3.829,3.829,0,1,1,.005,3.83,3.831,3.831,0,0,1,3.814.005Z" transform="translate(1242.312 257.201) rotate(-76.718)" fill="#fffef3"/>
</svg>
