<svg id="구성_요소_126_1" data-name="구성 요소 126 – 1" xmlns="http://www.w3.org/2000/svg" xmlns:xlink="http://www.w3.org/1999/xlink" width="2186.864" height="1449.081" viewBox="0 0 2186.864 1449.081">
  <defs>
    <linearGradient id="linear-gradient" x1="0.5" x2="0.5" y2="1" gradientUnits="objectBoundingBox">
      <stop offset="0" stop-color="#fff"/>
      <stop offset="0.158" stop-color="#efccff"/>
      <stop offset="1" stop-color="#4f38cc"/>
    </linearGradient>
  </defs>
  <g id="구성_요소_80_1" data-name="구성 요소 80 – 1">
    <rect id="사각형_833" data-name="사각형 833" width="2087.893" height="1449.08" opacity="0.689" fill="url(#linear-gradient)"/>
  </g>
  <path id="패스_12450" data-name="패스 12450" d="M1714.051,657.367c14.833,0,26.857-13.812,26.857-30.85s-12.024-30.85-26.857-30.85c-8.254,0-15.636,4.281-20.563,11.011-4.562-14.669-16.761-25.168-31.1-25.168a30.631,30.631,0,0,0-22,9.646c-5.582-20.963-22.559-36.21-42.637-36.21-23.673,0-43.033,21.2-44.49,47.965a23.467,23.467,0,0,0-14.366-5c-14.294,0-25.88,13.309-25.88,29.727s11.586,29.728,25.88,29.728Z" transform="translate(-1512.288 -350.238)" fill="#fff" opacity="0.873"/>
  <ellipse id="타원_387" data-name="타원 387" cx="9.798" cy="9.798" rx="9.798" ry="9.798" transform="translate(1635.503 116.75) rotate(-76.718)" fill="#fffef3"/>
  <g id="구성_요소_83_1" data-name="구성 요소 83 – 1" transform="translate(709.883 280.375)">
    <path id="패스_12452" data-name="패스 12452" d="M2382.266,2022.378h985.813l-418.461-427.792c-39.647-40.529-116.543-40.529-156.188,0l-35.422,36.213-126.2-129.01c-48.244-49.321-141.819-49.321-190.065,0L1891.1,2022.378Z" transform="translate(-1891.098 -1464.798)" fill="#dec0eb" opacity="0.702"/>
  </g>
  <g id="구성_요소_84_1" data-name="구성 요소 84 – 1" transform="translate(73.745 233.496)">
    <path id="패스_12453" data-name="패스 12453" d="M1451.231,2194.672l-379.263-455.091c-35.932-43.115-105.624-43.115-141.556,0L551.149,2194.672Z" transform="translate(-551.149 -1707.245)" fill="#dec0eb" opacity="0.702"/>
  </g>
  <g id="그룹_920" data-name="그룹 920" transform="translate(1584.676 162.445)" opacity="0.491">
    <g id="그룹_245" data-name="그룹 245" transform="translate(28.713 76.311)">
      <path id="패스_710" data-name="패스 710" d="M-311.2-49.844a.833.833,0,0,1-.832.832h0a.833.833,0,0,1-.832-.832V-80.137a.833.833,0,0,1,.832-.832h0a.833.833,0,0,1,.832.832Z" transform="translate(312.862 80.969)" fill="#00537f"/>
      <path id="패스_711" data-name="패스 711" d="M-303.687-49.844a.833.833,0,0,1-.832.832h0a.831.831,0,0,1-.832-.832V-80.137a.831.831,0,0,1,.832-.832h0a.833.833,0,0,1,.832.832Z" transform="translate(320.665 80.969)" fill="#00537f"/>
    </g>
    <g id="그룹_246" data-name="그룹 246" transform="translate(0 0)">
      <path id="패스_712" data-name="패스 712" d="M-279.592-28.772s.332-4.991,13.98-21.969,13.065-30.877,13.065-30.877A36.78,36.78,0,0,0-289.328-118.4h-.832a36.781,36.781,0,0,0-36.781,36.779s-.583,13.9,13.067,30.877,13.981,21.969,13.981,21.969Z" transform="translate(326.945 118.397)" fill="#f49f9f"/>
      <path id="패스_713" data-name="패스 713" d="M-295.219-28.772s.153-4.991,6.473-21.969a92.712,92.712,0,0,0,6.053-30.877c0-20.311-7.627-36.779-17.035-36.779h-.385c-9.408,0-17.035,16.468-17.035,36.779A92.735,92.735,0,0,0-311.1-50.741c6.321,16.978,6.475,21.969,6.475,21.969Z" transform="translate(337.121 118.397)" fill="#fff2cb"/>
    </g>
    <g id="그룹_247" data-name="그룹 247" transform="translate(24.393 98.614)">
      <path id="패스_714" data-name="패스 714" d="M-291.449-69.044v10.133a4.7,4.7,0,0,1-4.7,4.7H-309.6a4.7,4.7,0,0,1-4.7-4.7V-69.044Z" transform="translate(315.685 71.054)" fill="#ffb97c"/>
      <path id="패스_715" data-name="패스 715" d="M-289.362-68.76a1.273,1.273,0,0,1-1.272,1.272h-23.076a1.272,1.272,0,0,1-1.27-1.272h0a1.272,1.272,0,0,1,1.27-1.27h23.076a1.272,1.272,0,0,1,1.272,1.27Z" transform="translate(314.981 70.03)" fill="#d35c38"/>
    </g>
  </g>
  <g id="그룹_921" data-name="그룹 921" transform="translate(364.494 271.291)">
    <g id="그룹_245-2" data-name="그룹 245" transform="translate(33.329 88.58)">
      <path id="패스_710-2" data-name="패스 710" d="M-310.931-44.839a.966.966,0,0,1-.966.966h0a.967.967,0,0,1-.966-.966V-80a.967.967,0,0,1,.966-.966h0a.967.967,0,0,1,.966.966Z" transform="translate(312.862 80.969)" fill="#00537f"/>
      <path id="패스_711-2" data-name="패스 711" d="M-303.42-44.839a.966.966,0,0,1-.965.966h0a.965.965,0,0,1-.966-.966V-80a.965.965,0,0,1,.966-.966h0a.966.966,0,0,1,.965.966Z" transform="translate(323.127 80.969)" fill="#00537f"/>
    </g>
    <g id="그룹_246-2" data-name="그룹 246" transform="translate(0 0)">
      <path id="패스_712-2" data-name="패스 712" d="M-271.979-14.362s.386-5.794,16.228-25.5S-240.585-75.7-240.585-75.7a42.694,42.694,0,0,0-42.7-42.693h-.966A42.7,42.7,0,0,0-326.94-75.7s-.677,16.136,15.168,35.841,16.228,25.5,16.228,25.5Z" transform="translate(326.945 118.397)" fill="#f49f9f"/>
      <path id="패스_713-2" data-name="패스 713" d="M-291.693-14.362s.178-5.794,7.514-25.5,7.027-35.841,7.027-35.841c0-23.577-8.854-42.693-19.774-42.693h-.447c-10.92,0-19.774,19.116-19.774,42.693,0,0-.312,16.136,7.024,35.841s7.516,25.5,7.516,25.5Z" transform="translate(340.333 118.397)" fill="#fff2cb"/>
    </g>
    <g id="그룹_247-2" data-name="그룹 247" transform="translate(28.314 114.469)">
      <path id="패스_714-2" data-name="패스 714" d="M-287.775-69.044v11.762a5.456,5.456,0,0,1-5.457,5.458h-15.613a5.458,5.458,0,0,1-5.458-5.458V-69.044Z" transform="translate(315.908 71.378)" fill="#ffb97c"/>
      <path id="패스_715-2" data-name="패스 715" d="M-285.244-68.556a1.477,1.477,0,0,1-1.477,1.477h-26.786a1.477,1.477,0,0,1-1.474-1.477h0a1.476,1.476,0,0,1,1.474-1.474h26.786a1.477,1.477,0,0,1,1.477,1.474Z" transform="translate(314.981 70.03)" fill="#d35c38"/>
    </g>
  </g>
  <g id="그룹_7278" data-name="그룹 7278" transform="translate(892.638 135.11)">
    <path id="패스_12462" data-name="패스 12462" d="M-531.481,185.351l-6.828-12.869a1.74,1.74,0,0,1,1.7-2.549l20.761,1.9a1.743,1.743,0,0,1,1.525,1.286l2.937,11.03a1.742,1.742,0,0,1-1.689,2.189l-16.87-.063A1.74,1.74,0,0,1-531.481,185.351Z" transform="translate(625.522 46.923)" fill="#b896de"/>
    <path id="패스_12463" data-name="패스 12463" d="M-427.925,185.17l6.48-12.212a2.045,2.045,0,0,0-1.993-2.995l-19.989,1.83a2.045,2.045,0,0,0-1.789,1.511L-448,183.746a2.045,2.045,0,0,0,1.982,2.571l16.291-.061A2.043,2.043,0,0,0-427.925,185.17Z" transform="translate(689.509 46.944)" fill="#b896de"/>
    <path id="패스_12464" data-name="패스 12464" d="M-509.489,111.819l-39.064,70.975,1.586.873,39.546-71.847Z" transform="translate(618.422 5.817)" fill="#775c9b"/>
    <path id="패스_12465" data-name="패스 12465" d="M-487.6,111.82c-10.228,26.1-24.758,62.9-34.178,86.722l1.684.664c16.895-42.7,27.638-69.955,34.456-87.386Z" transform="translate(637.366 5.817)" fill="#775c9b"/>
    <path id="패스_12466" data-name="패스 12466" d="M-463.04,111.819l-31.787,95.9,1.972.654,32-96.557Z" transform="translate(656.429 5.817)" fill="#1d1d1b"/>
    <path id="패스_12468" data-name="패스 12468" d="M-520.96,161.686l15.57,3.644a2.228,2.228,0,0,1,1.509,3.114l-10.548,22.485a2.228,2.228,0,0,1-2.025,1.281l-15.485-.058A2.226,2.226,0,0,1-534,189.1l10.463-26.071A2.225,2.225,0,0,1-520.96,161.686Z" transform="translate(628.604 41.053)" fill="#fff0fb"/>
    <path id="패스_12469" data-name="패스 12469" d="M-485.219,168.281l1.6-.135a1.8,1.8,0,0,1,1.827,2.459l-9.761,24.737a1.8,1.8,0,0,1-1.806,1.135l-17.513-1.257a1.8,1.8,0,0,1-1.583-2.368h0a1.8,1.8,0,0,1,1.873-1.226l14.57,1.316a1.805,1.805,0,0,0,1.875-1.228l7.361-22.205A1.8,1.8,0,0,1-485.219,168.281Z" transform="translate(643.891 45.659)" fill="#fff0fb"/>
    <path id="패스_12470" data-name="패스 12470" d="M-445.423,111.819l39.546,71.847,1.586-.873-39.061-70.975Z" transform="translate(691.379 5.817)" fill="#775c9b"/>
    <path id="패스_12471" data-name="패스 12471" d="M-469.276,111.82c6.818,17.435,17.561,44.689,34.454,87.386l1.683-.664c-9.428-23.826-23.954-60.614-34.178-86.722Z" transform="translate(674.505 5.817)" fill="#775c9b"/>
    <path id="패스_12472" data-name="패스 12472" d="M-494.875,111.82l31.989,96.514,1.707-.569-31.8-95.947Z" transform="translate(656.396 5.816)" fill="#775c9b"/>
    <path id="패스_12474" data-name="패스 12474" d="M-438.029,161.715l-15.1,3.534a2.457,2.457,0,0,0-1.665,3.437l10.362,22.092a2.46,2.46,0,0,0,2.235,1.414l15-.055a2.457,2.457,0,0,0,2.271-3.374l-10.26-25.571A2.46,2.46,0,0,0-438.029,161.715Z" transform="translate(684.586 41.069)" fill="#fff0fb"/>
    <path id="패스_12475" data-name="패스 12475" d="M-474.673,167.23h0a1.649,1.649,0,0,0-1.67,2.249l9.894,25.074a1.651,1.651,0,0,0,1.651,1.04l17.438-1.252a1.649,1.649,0,0,0,1.344-2.408l-.664-1.275a1.653,1.653,0,0,0-1.73-.866l-13.311,2.18A1.649,1.649,0,0,1-463.5,191l-9.794-22.774A1.649,1.649,0,0,0-474.673,167.23Z" transform="translate(669.423 45.012)" fill="#fff0fb"/>
    <path id="패스_12476" data-name="패스 12476" d="M-469.736,310.715l-19.528-1.287q-3.988-89.9-7.975-179.793l35.479-2.341Q-465.748,219-469.736,310.715Z" transform="translate(654.723 16.766)" fill="#fff"/>
    <ellipse id="타원_420" data-name="타원 420" cx="3.806" cy="3.806" rx="3.806" ry="3.806" transform="translate(171.7)" fill="#ffb32c"/>
    <g id="그룹_926" data-name="그룹 926" transform="translate(24.909 117.635)">
      <path id="패스_12478" data-name="패스 12478" d="M-557.436,203.45l-7.086-13.354a1.517,1.517,0,0,1,1.479-2.221l21.327,1.953a1.518,1.518,0,0,1,1.328,1.12l3.053,11.464a1.517,1.517,0,0,1-1.472,1.907l-17.3-.063A1.519,1.519,0,0,1-557.436,203.45Z" transform="translate(582.089 -58.018)" fill="#b896de"/>
      <path id="패스_12479" data-name="패스 12479" d="M-405.252,202.822l5.88-11.083a2.567,2.567,0,0,0-2.5-3.76l-18.664,1.711a2.566,2.566,0,0,0-2.247,1.9l-2.512,9.43a2.567,2.567,0,0,0,2.491,3.227l15.3-.056A2.566,2.566,0,0,0-405.252,202.822Z" transform="translate(680.647 -57.947)" fill="#b896de"/>
      <path id="패스_12480" data-name="패스 12480" d="M-518.938,111.82l-55.947,101.647,1.586.872,56.427-102.521Z" transform="translate(574.885 -111.818)" fill="#775c9b"/>
      <path id="패스_12481" data-name="패스 12481" d="M-502.074,111.82c-1.591,4.847-30.621,78.441-46.032,117.4l1.684.664c39.793-100.583,45.486-115.506,46.065-118.06Z" transform="translate(593.829 -111.817)" fill="#775c9b"/>
      <path id="패스_12482" data-name="패스 12482" d="M-479.116,111.819l-41.969,126.623,1.718.569,42.156-127.192Z" transform="translate(612.945 -111.817)" fill="#775c9b"/>
      <path id="패스_12484" data-name="패스 12484" d="M-546.76,179.576l16.788,3.93a1.626,1.626,0,0,1,1.1,2.276l-11.023,23.5a1.627,1.627,0,0,1-1.48.936l-16.748-.061a1.63,1.63,0,0,1-1.506-2.235l10.986-27.365A1.63,1.63,0,0,1-546.76,179.576Z" transform="translate(585.595 -63.914)" fill="#fff0fb"/>
      <path id="패스_12485" data-name="패스 12485" d="M-509.445,184.321h1.062a2.091,2.091,0,0,1,1.945,2.858l-9.621,24.382a2.1,2.1,0,0,1-2.1,1.318l-16.933-1.216a2.09,2.09,0,0,1-1.834-2.746l.442-1.332a2.094,2.094,0,0,1,2.257-1.414l11.148,1.47a2.093,2.093,0,0,0,2.175-1.2l9.553-20.9A2.09,2.09,0,0,1-509.445,184.321Z" transform="translate(601.665 -60.527)" fill="#fff0fb"/>
      <path id="패스_12486" data-name="패스 12486" d="M-433.306,111.819l56.429,102.521,1.586-.873-55.947-101.649Z" transform="translate(675.042 -111.817)" fill="#775c9b"/>
      <path id="패스_12487" data-name="패스 12487" d="M-453.207,111.82l.6.47-.644-.47h-.82c.582,2.561,6.271,17.477,46.068,118.06l1.68-.664c-15.41-38.957-44.441-112.551-46.032-117.4Z" transform="translate(660.353 -111.817)" fill="#775c9b"/>
      <path id="패스_12488" data-name="패스 12488" d="M-478.823,111.819l42.155,127.192,1.707-.569-41.967-126.623Z" transform="translate(642.842 -111.817)" fill="#775c9b"/>
      <path id="패스_12489" data-name="패스 12489" d="M-389.894,207.78l21.652-13.093a1,1,0,0,0,.34-1.369c-.015-.026-.032-.05-.049-.073l-17.662-24.215a3.309,3.309,0,0,0-4.385-.881l-13.294,8.039a3.306,3.306,0,0,0-1.255,4.291l13.236,26.889a1,1,0,0,0,1.337.458C-389.947,207.811-389.919,207.8-389.894,207.78Z" transform="translate(695.146 -72.306)" fill="#fff0fb"/>
      <path id="패스_12490" data-name="패스 12490" d="M-414,179.5l-17.984,4.209a1.041,1.041,0,0,0-.705,1.456l11.491,24.495a1.042,1.042,0,0,0,.946.6l17.988-.067a1.042,1.042,0,0,0,.963-1.429L-412.8,180.127A1.04,1.04,0,0,0-414,179.5Z" transform="translate(675.408 -63.955)" fill="#fff0fb"/>
      <path id="패스_12491" data-name="패스 12491" d="M-448.507,186.424l-5.464-.456,11.313,28.668,21.148-1.518-1.234-3.705-17.153-.171Z" transform="translate(660.423 -59.362)" fill="#fff0fb"/>
    </g>
    <g id="그룹_927" data-name="그룹 927" transform="translate(158.052 145.217)">
      <path id="패스_12492" data-name="패스 12492" d="M-494.476,196.657l.391,8.776q12.35-6.357,25.818-12.959c.13-2.983.273-5.976.4-8.959Q-481.738,190.215-494.476,196.657Z" transform="translate(498.625 -88.679)" fill="#a27fd1"/>
      <path id="패스_12493" data-name="패스 12493" d="M-493.262,223.491q.2,4.385.393,8.774,10.273-5.886,21.672-12.022.2-4.479.391-8.954Q-482.6,217.521-493.262,223.491Z" transform="translate(499.484 -69.03)" fill="#a27fd1"/>
      <path id="패스_12494" data-name="패스 12494" d="M-472.27,225.175q-10.757,5.993-20.383,11.733l.145,3.273q4.234.277,8.462.557,5.509-3.263,11.383-6.611Z" transform="translate(499.915 -59.207)" fill="#a27fd1"/>
      <path id="패스_12495" data-name="패스 12495" d="M-493.868,210.074q.2,4.39.393,8.776,11.307-6.121,23.744-12.493.2-4.48.391-8.954Q-482.175,203.87-493.868,210.074Z" transform="translate(499.055 -78.854)" fill="#a27fd1"/>
      <path id="패스_12496" data-name="패스 12496" d="M-495.084,183.242q.2,4.385.393,8.774,13.385-6.59,27.9-13.434.195-4.474.391-8.954Q-481.3,176.565-495.084,183.242Z" transform="translate(498.195 -98.503)" fill="#a27fd1"/>
      <path id="패스_12497" data-name="패스 12497" d="M-496.906,142.991l.391,8.776q16.5-7.294,34.13-14.841.195-4.48.391-8.954Q-480.017,135.609-496.906,142.991Z" transform="translate(496.906 -127.972)" fill="#a27fd1"/>
      <path id="패스_12498" data-name="패스 12498" d="M-496.3,156.408l.391,8.776q15.459-7.061,32.055-14.375.195-4.474.391-8.954Q-480.445,149.263-496.3,156.408Z" transform="translate(497.335 -118.15)" fill="#a27fd1"/>
      <path id="패스_12499" data-name="패스 12499" d="M-495.692,169.825q.195,4.385.393,8.775,14.422-6.831,29.977-13.9.2-4.479.393-8.954Q-480.877,162.91-495.692,169.825Z" transform="translate(497.765 -108.325)" fill="#a27fd1"/>
    </g>
    <g id="그룹_928" data-name="그룹 928" transform="translate(167.669 145.235)">
      <path id="패스_12500" data-name="패스 12500" d="M-476.841,234.129q.2-4.474.391-8.954-5.237,2.917-10.2,5.776-.046,4.456-.092,8.918C-483.529,237.976-480.237,236.063-476.841,234.129Z" transform="translate(494.479 -59.226)" fill="#775c9b"/>
      <path id="패스_12501" data-name="패스 12501" d="M-486.223,189.657q-.046,4.451-.092,8.9,6.016-3.02,12.275-6.09c.13-2.983.251-5.962.381-8.945C-477.938,185.587-482.111,187.63-486.223,189.657Z" transform="translate(494.782 -88.691)" fill="#775c9b"/>
      <path id="패스_12502" data-name="패스 12502" d="M-486.508,217.176l-.092,8.909q5.217-2.894,10.692-5.843.195-4.474.391-8.954Q-481.144,214.262-486.508,217.176Z" transform="translate(494.58 -69.05)" fill="#775c9b"/>
      <path id="패스_12503" data-name="패스 12503" d="M-486.37,203.412q-.046,4.454-.092,8.908,5.619-2.956,11.484-5.962.195-4.474.391-8.954Q-480.6,200.436-486.37,203.412Z" transform="translate(494.678 -78.872)" fill="#775c9b"/>
      <path id="패스_12504" data-name="패스 12504" d="M-486.614,149.013a81.79,81.79,0,0,1,.893,8.465q7.379-3.3,14.972-6.659.195-4.479.388-8.954Q-478.621,145.472-486.614,149.013Z" transform="translate(494.571 -118.162)" fill="#775c9b"/>
      <path id="패스_12505" data-name="패스 12505" d="M-491.274,138.812a42.149,42.149,0,0,1,4.147,7.084c6.78-2.959,13.659-5.937,20.708-8.959q.195-4.48.388-8.954C-474.662,131.644-483.03,135.243-491.274,138.812Z" transform="translate(491.274 -127.983)" fill="#775c9b"/>
      <path id="패스_12506" data-name="패스 12506" d="M-485.94,162.166q-.046,4.438-.092,8.9c4.543-2.1,9.142-4.219,13.84-6.358l.391-8.95C-476.6,157.91-481.3,160.046-485.94,162.166Z" transform="translate(494.982 -108.336)" fill="#775c9b"/>
      <path id="패스_12507" data-name="패스 12507" d="M-486.082,175.91q-.046,4.451-.092,8.9c4.277-2.049,8.616-4.127,13.055-6.218q.195-4.477.388-8.954C-477.266,171.747-481.7,173.837-486.082,175.91Z" transform="translate(494.882 -98.516)" fill="#775c9b"/>
    </g>
    <path id="패스_12508" data-name="패스 12508" d="M-426.039,56.56H-460.79l-87.458,96.349h209.672Z" transform="translate(618.638 -33.275)" fill="#a27fd1"/>
    <path id="패스_12509" data-name="패스 12509" d="M-485.448,55.674l15.348,97.817h87.685l-88.9-96.3Z" transform="translate(663.064 -33.902)" fill="#a27fd1"/>
    <path id="패스_12510" data-name="패스 12510" d="M-480.05,46.028l-16.963,113.244h36.1Z" transform="translate(654.883 -40.727)" fill="#ededed"/>
    <path id="패스_12511" data-name="패스 12511" d="M-538.664,159.659l88.08-113.631-52.051,113.244Z" transform="translate(625.418 -40.727)" fill="#ededed"/>
    <path id="패스_12512" data-name="패스 12512" d="M-397.975,159.659l-89.1-113.631L-434,159.272Z" transform="translate(661.91 -40.727)" fill="#dadada"/>
    <g id="그룹_929" data-name="그룹 929" transform="translate(59.573 101.502)">
      <path id="패스_12513" data-name="패스 12513" d="M-544.011,102.37a17.655,17.655,0,0,0-10.572,3.5,29.7,29.7,0,0,1,3.44,2.9,30.143,30.143,0,0,1,6.972,11.021h17.7v-.21A17.38,17.38,0,0,0-544.011,102.37Z" transform="translate(554.583 -102.37)" fill="#ffe059"/>
      <path id="패스_12514" data-name="패스 12514" d="M-520.574,102.37a17.384,17.384,0,0,0-17.544,17.219v.21h35.088v-.21A17.384,17.384,0,0,0-520.574,102.37Z" transform="translate(566.231 -102.37)" fill="#ffe059"/>
      <path id="패스_12515" data-name="패스 12515" d="M-500.024,102.37a17.384,17.384,0,0,0-17.544,17.219v.21h35.088v-.21A17.384,17.384,0,0,0-500.024,102.37Z" transform="translate(580.769 -102.37)" fill="#ffe059"/>
      <path id="패스_12516" data-name="패스 12516" d="M-417.905,102.37a17.384,17.384,0,0,0-17.544,17.219v.21h17.7a30.163,30.163,0,0,1,6.971-11.021,29.844,29.844,0,0,1,3.44-2.9A17.654,17.654,0,0,0-417.905,102.37Z" transform="translate(638.862 -102.37)" fill="#ffca52"/>
      <path id="패스_12517" data-name="패스 12517" d="M-438.453,102.37A17.384,17.384,0,0,0-456,119.59v.21h35.084v-.21A17.38,17.38,0,0,0-438.453,102.37Z" transform="translate(624.326 -102.37)" fill="#ffca52"/>
      <path id="패스_12518" data-name="패스 12518" d="M-479.542,102.371a17.382,17.382,0,0,0-17.477,17.216v.21h34.955v-.21A17.381,17.381,0,0,0-479.542,102.371Z" transform="translate(595.305 -102.369)" fill="#ffe059"/>
      <path id="패스_12519" data-name="패스 12519" d="M-459,102.37a17.384,17.384,0,0,0-17.544,17.219v.21h35.088v-.21A17.384,17.384,0,0,0-459,102.37Z" transform="translate(609.789 -102.37)" fill="#ffca52"/>
    </g>
    <g id="그룹_930" data-name="그룹 930" transform="translate(59.573 101.502)">
      <path id="패스_12520" data-name="패스 12520" d="M-496.731,119.8a17.445,17.445,0,0,1,17.19-14.2,17.445,17.445,0,0,1,17.19,14.2h.287v-.21a17.381,17.381,0,0,0-17.477-17.221,17.382,17.382,0,0,0-17.477,17.216v.21Z" transform="translate(595.306 -102.369)" fill="#ffff80"/>
      <path id="패스_12521" data-name="패스 12521" d="M-476.259,119.8A17.444,17.444,0,0,1-459,105.6a17.444,17.444,0,0,1,17.257,14.2h.285v-.21A17.382,17.382,0,0,0-459,102.37a17.384,17.384,0,0,0-17.544,17.219v.21Z" transform="translate(609.789 -102.37)" fill="#ffe074"/>
      <path id="패스_12522" data-name="패스 12522" d="M-435.162,119.8a17.452,17.452,0,0,1,17.257-14.2,17.57,17.57,0,0,1,8.331,2.088c.726-.635,1.468-1.246,2.242-1.815a17.655,17.655,0,0,0-10.572-3.5,17.384,17.384,0,0,0-17.544,17.219v.21Z" transform="translate(638.862 -102.368)" fill="#ffe074"/>
      <path id="패스_12523" data-name="패스 12523" d="M-455.71,119.8a17.444,17.444,0,0,1,17.257-14.2,17.444,17.444,0,0,1,17.259,14.2h.287v-.21a17.381,17.381,0,0,0-17.539-17.223h-.007A17.384,17.384,0,0,0-456,119.59v.21Z" transform="translate(624.326 -102.37)" fill="#ffe074"/>
      <path id="패스_12524" data-name="패스 12524" d="M-544.011,105.6a17.444,17.444,0,0,1,17.259,14.2h.285v-.21a17.381,17.381,0,0,0-17.539-17.223h-.005a17.655,17.655,0,0,0-10.572,3.5c.773.57,1.516,1.18,2.242,1.815A17.6,17.6,0,0,1-544.011,105.6Z" transform="translate(554.583 -102.37)" fill="#ffff80"/>
      <path id="패스_12525" data-name="패스 12525" d="M-537.831,119.8a17.449,17.449,0,0,1,17.257-14.2,17.444,17.444,0,0,1,17.257,14.2h.285v-.21a17.384,17.384,0,0,0-17.542-17.223,17.384,17.384,0,0,0-17.544,17.219v.21Z" transform="translate(566.231 -102.37)" fill="#ffff80"/>
      <path id="패스_12526" data-name="패스 12526" d="M-517.281,119.8a17.444,17.444,0,0,1,17.257-14.2,17.444,17.444,0,0,1,17.257,14.2h.287v-.21a17.382,17.382,0,0,0-17.542-17.223h0a17.384,17.384,0,0,0-17.544,17.219v.21Z" transform="translate(580.769 -102.37)" fill="#ffff80"/>
    </g>
    <path id="패스_12527" data-name="패스 12527" d="M-522.805,101.843a3.728,3.728,0,0,1-3.729,3.727,3.728,3.728,0,0,1-3.726-3.727,3.726,3.726,0,0,1,3.726-3.726h0A3.726,3.726,0,0,1-522.805,101.843Z" transform="translate(631.363 -3.877)" fill="#ffe059"/>
    <path id="패스_12528" data-name="패스 12528" d="M-502.02,101.843a3.728,3.728,0,0,1-3.729,3.727,3.729,3.729,0,0,1-3.729-3.727,3.727,3.727,0,0,1,3.729-3.726A3.725,3.725,0,0,1-502.02,101.843Z" transform="translate(646.065 -3.877)" fill="#ffe059"/>
    <path id="패스_12529" data-name="패스 12529" d="M-481.511,101.843a3.728,3.728,0,0,1-3.726,3.727,3.729,3.729,0,0,1-3.729-3.727,3.728,3.728,0,0,1,3.729-3.726,3.726,3.726,0,0,1,3.726,3.726Z" transform="translate(660.575 -3.877)" fill="#ffe059"/>
    <path id="패스_12530" data-name="패스 12530" d="M-461.1,101.843a3.728,3.728,0,0,1-3.729,3.727,3.728,3.728,0,0,1-3.726-3.727,3.726,3.726,0,0,1,3.726-3.726h0A3.725,3.725,0,0,1-461.1,101.843Z" transform="translate(675.016 -3.877)" fill="#ffca52"/>
    <path id="패스_12531" data-name="패스 12531" d="M-440.452,101.843a3.728,3.728,0,0,1-3.726,3.727,3.729,3.729,0,0,1-3.729-3.727,3.728,3.728,0,0,1,3.729-3.726h0a3.726,3.726,0,0,1,3.726,3.726Z" transform="translate(689.622 -3.877)" fill="#ffca52"/>
    <ellipse id="타원_421" data-name="타원 421" cx="3.727" cy="3.727" rx="3.727" ry="3.727" transform="translate(287.373 101.003)" fill="#ffca52"/>
    <path id="패스_12532" data-name="패스 12532" d="M-550.173,105.806a3.728,3.728,0,0,1-3.729,3.726,3.73,3.73,0,0,1-3.729-3.726,3.729,3.729,0,0,1,3.729-3.729A3.729,3.729,0,0,1-550.173,105.806Z" transform="translate(612 -1.076)" fill="#ffe059"/>
    <path id="패스_12533" data-name="패스 12533" d="M-345.122,128.351H-541.216a7.383,7.383,0,0,1-7.379-7.38v-8.39h210.861v8.39a7.381,7.381,0,0,1-7.383,7.38Z" transform="translate(618.392 6.355)" fill="#ffb32c"/>
    <path id="패스_12534" data-name="패스 12534" d="M-462.851,133.866h-27.831c-5.749,0-10.415-5.339-10.415-11.925v-.128h48.662v.123C-452.442,128.527-457.1,133.866-462.851,133.866Z" transform="translate(651.994 12.888)" fill="#a27fd1"/>
    <path id="패스_12535" data-name="패스 12535" d="M-490.69,232.726h27.831a10.415,10.415,0,0,1,10.415,10.415h0v.1h-48.651v-.1A10.415,10.415,0,0,1-490.69,232.726Z" transform="translate(651.995 91.35)" fill="#775c9b"/>
    <path id="패스_12536" data-name="패스 12536" d="M-433.843,241.76a9.689,9.689,0,0,0-6.961-2.949h-53.048a9.689,9.689,0,0,0-6.961,2.949l-13.624,14.076h94.228Z" transform="translate(642.557 95.655)" fill="#ffb32c"/>
    <path id="패스_12537" data-name="패스 12537" d="M-458.829,56.052A2.967,2.967,0,0,1-461.8,59.02h-34.131a2.967,2.967,0,0,1-2.968-2.968h0a2.971,2.971,0,0,1,2.968-2.969H-461.8A2.97,2.97,0,0,1-458.829,56.052Z" transform="translate(653.551 -35.733)" fill="#ffb32c"/>
    <path id="패스_12538" data-name="패스 12538" d="M-470.7,53.083h-15.6a2.97,2.97,0,0,1,2.969,2.969,2.969,2.969,0,0,1-2.969,2.968h15.6a2.967,2.967,0,0,0,2.968-2.968h0A2.97,2.97,0,0,0-470.7,53.083Z" transform="translate(662.457 -35.733)" fill="#ff9d2c"/>
    <path id="패스_12539" data-name="패스 12539" d="M-463.086,58.091A17.97,17.97,0,0,0-480.05,46.028a17.976,17.976,0,0,0-16.963,12.063Z" transform="translate(654.883 -40.727)" fill="#ffe059"/>
    <path id="패스_12540" data-name="패스 12540" d="M-469.3,58.091a17.97,17.97,0,0,0-16.963-12.063,17.253,17.253,0,0,0-1.969.159c.3.143.6.3.881.411a7.87,7.87,0,0,1,4.555,5.5,7.816,7.816,0,0,1-1.253,5.988Z" transform="translate(661.095 -40.727)" fill="#ffca52"/>
    <path id="패스_12541" data-name="패스 12541" d="M-407.314,117.872H-546.008a3.149,3.149,0,0,1-3.451-2.7v-.056a3.147,3.147,0,0,1,3.451-2.7h138.695a3.147,3.147,0,0,1,3.451,2.7v.056A3.149,3.149,0,0,1-407.314,117.872Z" transform="translate(617.781 6.221)" fill="#ffc241"/>
    <path id="패스_12542" data-name="패스 12542" d="M-473.824,112.58v8.39a7.382,7.382,0,0,1-7.38,7.38H-392.8a7.382,7.382,0,0,0,7.379-7.38v-8.39Z" transform="translate(666.067 6.355)" fill="#ff9d2c"/>
    <path id="패스_12543" data-name="패스 12543" d="M-452.439,121.941v-.128H-501.1v.123a13.441,13.441,0,0,0,.738,4.344h27.148a3.449,3.449,0,0,1,3.522,3.377,3.45,3.45,0,0,1-.669,2.115l-.038.046a11.015,11.015,0,0,1-3.225,2.049h10.777a10.535,10.535,0,0,0,9.671-7.584,13.206,13.206,0,0,0,.54-2.088A12.968,12.968,0,0,0-452.439,121.941Z" transform="translate(651.991 12.888)" fill="#775c9b"/>
    <path id="패스_12544" data-name="패스 12544" d="M-433.839,241.76a9.675,9.675,0,0,0-6.961-2.949h-1.438l.032.128a9.861,9.861,0,0,1-7.293,11.889,9.873,9.873,0,0,1-2.37.271h-57.786l-.041-.171-4.747,4.905h94.228Z" transform="translate(642.553 95.655)" fill="#ff9d2c"/>
    <path id="패스_12545" data-name="패스 12545" d="M-483.205,49.576c.541,1.783-1.17,3.881-3.818,4.683s-5.233,0-5.775-1.777,1.166-3.879,3.818-4.683S-483.753,47.79-483.205,49.576Z" transform="translate(657.794 -39.695)" fill="#ffffa4"/>
    <path id="패스_12489-2" data-name="패스 12489" d="M-412.2,189.6l21.652-13.093a.994.994,0,0,0,.34-1.368.713.713,0,0,0-.049-.075l-17.662-24.213a3.307,3.307,0,0,0-4.385-.881l-13.294,8.039a3.3,3.3,0,0,0-1.255,4.289l13.236,26.889a1,1,0,0,0,1.337.458A.739.739,0,0,0-412.2,189.6Z" transform="translate(704.278 32.467)" fill="#fff0fb"/>
    <path id="패스_12489-3" data-name="패스 12489" d="M-567.259,206.887a1,1,0,0,0,1.337-.458l13.238-26.889a3.309,3.309,0,0,0-1.257-4.291l-13.294-8.039a3.307,3.307,0,0,0-4.383.881l-17.663,24.215c-.017.024-.034.049-.049.075a1,1,0,0,0,.34,1.368l21.652,13.093C-567.313,206.858-567.286,206.874-567.259,206.887Z" transform="translate(589.474 44.665)" fill="#fff0fb"/>
    <path id="패스_12489-4" data-name="패스 12489" d="M-542.207,189.228a1,1,0,0,0,1.337-.458l13.236-26.889a3.307,3.307,0,0,0-1.255-4.291l-13.294-8.039a3.309,3.309,0,0,0-4.385.881l-17.662,24.215a.7.7,0,0,0-.049.075.994.994,0,0,0,.34,1.368l21.652,13.093A.737.737,0,0,0-542.207,189.228Z" transform="translate(607.195 32.174)" fill="#fff0fb"/>
  </g>
  <ellipse id="타원_470" data-name="타원 470" cx="6.798" cy="6.798" rx="6.798" ry="6.798" transform="translate(1842.141 369.767) rotate(-76.718)" fill="#fffef3"/>
  <path id="패스_19679" data-name="패스 19679" d="M1650.786,625.135c10.165,0,18.4-9.465,18.4-21.141s-8.24-21.141-18.4-21.141a17.526,17.526,0,0,0-14.092,7.546c-3.126-10.052-11.486-17.247-21.311-17.247a20.991,20.991,0,0,0-15.076,6.61c-3.826-14.366-15.459-24.815-29.219-24.815-16.223,0-29.49,14.525-30.489,32.87a16.081,16.081,0,0,0-9.845-3.426c-9.8,0-17.735,9.121-17.735,20.372s7.94,20.372,17.735,20.372Z" transform="translate(410.885 -269.439)" fill="#fff" opacity="0.873"/>
  <ellipse id="타원_543" data-name="타원 543" cx="9.067" cy="9.067" rx="9.067" ry="9.067" transform="translate(370.519 161.457) rotate(-76.718)" fill="#fffef3"/>
  <ellipse id="타원_544" data-name="타원 544" cx="7.067" cy="7.067" rx="7.067" ry="7.067" transform="translate(761.211 355.949) rotate(-76.718)" fill="#fffef3"/>
  <ellipse id="타원_545" data-name="타원 545" cx="9.067" cy="9.067" rx="9.067" ry="9.067" transform="translate(188.519 312.997) rotate(-76.718)" fill="#fffef3"/>
  <ellipse id="타원_546" data-name="타원 546" cx="8.067" cy="8.067" rx="8.067" ry="8.067" transform="translate(1289.094 189.673) rotate(-76.718)" fill="#fffef3"/>
  <ellipse id="타원_547" data-name="타원 547" cx="5.067" cy="5.067" rx="5.067" ry="5.067" transform="translate(683.211 209.962) rotate(-76.718)" fill="#fffef3"/>
  <ellipse id="타원_548" data-name="타원 548" cx="5.067" cy="5.067" rx="5.067" ry="5.067" transform="translate(1512.958 295.369) rotate(-76.718)" fill="#fffef3"/>
  <ellipse id="타원_549" data-name="타원 549" cx="5.067" cy="5.067" rx="5.067" ry="5.067" transform="translate(1829.95 191.052) rotate(-76.718)" fill="#fffef3"/>
  <ellipse id="타원_550" data-name="타원 550" cx="5.067" cy="5.067" rx="5.067" ry="5.067" transform="translate(1927.24 317.224) rotate(-76.718)" fill="#fffef3"/>
  <ellipse id="타원_551" data-name="타원 551" cx="5.067" cy="5.067" rx="5.067" ry="5.067" transform="translate(862.543 265.57) rotate(-76.718)" fill="#fffef3"/>
  <ellipse id="타원_552" data-name="타원 552" cx="5.067" cy="5.067" rx="5.067" ry="5.067" transform="translate(307.211 193.539) rotate(-76.718)" fill="#fffef3"/>
</svg>
