<svg id="구성_요소_125_1" data-name="구성 요소 125 – 1" xmlns="http://www.w3.org/2000/svg" xmlns:xlink="http://www.w3.org/1999/xlink" width="2211.762" height="1753.043" viewBox="0 0 2211.762 1753.043">
  <defs>
    <linearGradient id="linear-gradient" x1="0.5" x2="0.5" y2="1" gradientUnits="objectBoundingBox">
      <stop offset="0" stop-color="#fff"/>
      <stop offset="0.158" stop-color="#ffcce0"/>
      <stop offset="1" stop-color="#ffcbdb"/>
    </linearGradient>
  </defs>
  <g id="구성_요소_74_1" data-name="구성 요소 74 – 1" transform="translate(96.002)">
    <rect id="사각형_737" data-name="사각형 737" width="1935.213" height="1753.043" opacity="0.479" fill="url(#linear-gradient)"/>
  </g>
  <path id="패스_12282" data-name="패스 12282" d="M1678.946,628.54a22.167,22.167,0,1,0-16.972-36.422,27.254,27.254,0,0,0-43.824-11.153,36.8,36.8,0,0,0-71.913,8.446,21.361,21.361,0,1,0-11.857,39.129Z" transform="translate(-1505.176 -258.197)" fill="#fff"/>
  <g id="구성_요소_78_1" data-name="구성 요소 78 – 1" transform="translate(810.656 296.748)">
    <path id="패스_12284" data-name="패스 12284" d="M2357.034,1987.989H3292.2l-396.964-401.409c-37.611-38.029-110.556-38.029-148.165,0l-33.6,33.979-119.714-121.053c-45.766-46.28-134.534-46.28-180.3,0L1891.1,1987.989Z" transform="translate(-1891.098 -1464.797)" fill="#fad0e1" opacity="0.702"/>
  </g>
  <g id="구성_요소_77_1" data-name="구성 요소 77 – 1" transform="translate(0 256.404)">
    <path id="패스_12285" data-name="패스 12285" d="M1475.391,2242.254l-389.443-499.516c-36.9-47.324-108.459-47.324-145.355,0L551.149,2242.254Z" transform="translate(-551.149 -1707.245)" fill="#fad0e1" opacity="0.702"/>
  </g>
  <g id="그룹_895" data-name="그룹 895" transform="translate(603.885 173.3)" opacity="0.798">
    <g id="그룹_245" data-name="그룹 245" transform="translate(27.269 72.476)">
      <path id="패스_710" data-name="패스 710" d="M-311.282-51.408a.791.791,0,0,1-.79.79h0a.791.791,0,0,1-.79-.79V-80.179a.791.791,0,0,1,.79-.79h0a.791.791,0,0,1,.79.79Z" transform="translate(312.862 80.969)" fill="#00537f"/>
      <path id="패스_711" data-name="패스 711" d="M-303.771-51.408a.791.791,0,0,1-.79.79h0a.79.79,0,0,1-.79-.79V-80.179a.79.79,0,0,1,.79-.79h0a.791.791,0,0,1,.79.79Z" transform="translate(319.895 80.969)" fill="#00537f"/>
    </g>
    <g id="그룹_246" data-name="그룹 246" transform="translate(0 0)">
      <path id="패스_712" data-name="패스 712" d="M-281.972-33.277s.316-4.74,13.278-20.865,12.409-29.325,12.409-29.325A34.932,34.932,0,0,0-291.219-118.4h-.79a34.933,34.933,0,0,0-34.933,34.931s-.554,13.2,12.41,29.325,13.278,20.865,13.278,20.865Z" transform="translate(326.945 118.397)" fill="#f49f9f"/>
      <path id="패스_713" data-name="패스 713" d="M-296.321-33.277s.145-4.74,6.148-20.865a88.052,88.052,0,0,0,5.749-29.325c0-19.29-7.244-34.931-16.179-34.931h-.366c-8.935,0-16.179,15.64-16.179,34.931A88.073,88.073,0,0,0-311.4-54.141c6,16.124,6.15,20.865,6.15,20.865Z" transform="translate(336.118 118.397)" fill="#fff2cb"/>
    </g>
    <g id="그룹_247" data-name="그룹 247" transform="translate(23.166 93.658)">
      <path id="패스_714" data-name="패스 714" d="M-292.6-69.044v9.624a4.464,4.464,0,0,1-4.465,4.465h-12.775A4.465,4.465,0,0,1-314.3-59.42v-9.624Z" transform="translate(315.616 70.953)" fill="#ffb97c"/>
      <path id="패스_715" data-name="패스 715" d="M-290.65-68.824a1.209,1.209,0,0,1-1.208,1.208h-21.916a1.208,1.208,0,0,1-1.206-1.208h0a1.208,1.208,0,0,1,1.206-1.206h21.916a1.208,1.208,0,0,1,1.208,1.206Z" transform="translate(314.981 70.03)" fill="#d35c38"/>
    </g>
  </g>
  <ellipse id="타원_379" data-name="타원 379" cx="8" cy="8" rx="8" ry="8" transform="translate(749.995 293.073) rotate(-76.718)" fill="#fffef3"/>
  <g id="그룹_882" data-name="그룹 882" transform="translate(913.271 215.126)">
    <rect id="사각형_707" data-name="사각형 707" width="252.841" height="180.039" transform="translate(14.189 203.067)" fill="#fff"/>
    <g id="그룹_874" data-name="그룹 874" transform="translate(118.252 136.814)">
      <g id="그룹_870" data-name="그룹 870" transform="translate(42.702 3.565)">
        <path id="패스_12151" data-name="패스 12151" d="M452.709,246.662a9.408,9.408,0,1,1-9.408-9.408A9.409,9.409,0,0,1,452.709,246.662Z" transform="translate(-418.251 -225.717)" fill="#ffdfdd"/>
        <ellipse id="타원_367" data-name="타원 367" cx="9.408" cy="9.408" rx="9.408" ry="9.408" transform="translate(6.917)" fill="#ffdfdd"/>
        <path id="패스_12154" data-name="패스 12154" d="M449.739,246.662a9.408,9.408,0,1,1-9.408-9.408A9.409,9.409,0,0,1,449.739,246.662Z" transform="translate(-430.924 -225.717)" fill="#ffdfdd"/>
        <path id="패스_12157" data-name="패스 12157" d="M446.162,239.9H431.21L443.467,273a2.845,2.845,0,0,0,5.384,0l12.258-33.1Z" transform="translate(-429.586 -213.349)" fill="#ffd649"/>
        <path id="패스_12159" data-name="패스 12159" d="M440.787,235.222a8.911,8.911,0,0,0-8.5,7.04.889.889,0,0,0,.249.222,1.179,1.179,0,0,0,1.379-.307,4.287,4.287,0,0,0,.769-1.374,8.289,8.289,0,0,1,1.267-2.237,3.073,3.073,0,0,1,2.132-1.158,1.985,1.985,0,0,1,1.941,1.306,2.936,2.936,0,0,1-.186,1.953c-.244.619-.578,1.192-.774,1.828a2.4,2.4,0,0,0,.127,1.936,1.09,1.09,0,0,0,1.622.324c.424-.426.356-1.141.371-1.76s.324-1.385.9-1.351c.477.028.758.619.743,1.124s-.212.994-.239,1.5a2.156,2.156,0,0,0,2.291,2.26,2.253,2.253,0,0,0,1.58-2.873,2.058,2.058,0,0,1-.2-.715.777.777,0,0,1,.912-.721,1.121,1.121,0,0,1,.79.982c.064.494-.074,1.113.3,1.408a.685.685,0,0,0,.817-.057,1.877,1.877,0,0,0,.462-.585A9.055,9.055,0,0,0,440.787,235.222Z" transform="translate(-424.525 -235.221)" fill="#ff8980"/>
        <path id="패스_12160" data-name="패스 12160" d="M448.982,246.849a3.57,3.57,0,0,0,.312-1.527,9.4,9.4,0,0,0-18.3-1.4.989.989,0,0,0,.67.511,1.091,1.091,0,0,0,1.056-.778c.176-.443.2-.931.386-1.368a1.054,1.054,0,0,1,1.084-.732.932.932,0,0,1,.653.869,2.81,2.81,0,0,1-.238,1.136,9.449,9.449,0,0,0-.715,2.952,3.246,3.246,0,0,0,1.147,2.7,1.994,1.994,0,0,0,2.725-.272,3.78,3.78,0,0,0,.21-2.714,12.1,12.1,0,0,1-.063-2.68,3.457,3.457,0,0,1,.744-2.106,1.468,1.468,0,0,1,2.027-.187,1.93,1.93,0,0,1,.233,1.851,3.935,3.935,0,0,0-.273,1.913,1.666,1.666,0,0,0,1.692,1.226,1.811,1.811,0,0,0,1.59-1.408,5.963,5.963,0,0,0-.182-1.993,1.763,1.763,0,0,1,.6-1.806,1.406,1.406,0,0,1,1.845.715,3.293,3.293,0,0,1,.08,2.18,8.5,8.5,0,0,0-.392,2.186,1.879,1.879,0,0,0,1.124,1.76A1.778,1.778,0,0,0,448.982,246.849Z" transform="translate(-430.587 -225.717)" fill="#ff8980"/>
        <path id="패스_12161" data-name="패스 12161" d="M451.609,243.76a1.9,1.9,0,0,0,.4-.483,9.4,9.4,0,0,0-18.049,1.879,2.1,2.1,0,0,1-.011.38,2.435,2.435,0,0,0,.233,1.618,1.143,1.143,0,0,0,1.425.494,1.516,1.516,0,0,0,.641-1.277,3.559,3.559,0,0,1,.273-1.453c.244-.432.9-.676,1.243-.312a1.173,1.173,0,0,1,.2.914,5.217,5.217,0,0,0,.2,2.22,1.657,1.657,0,0,0,3.27-.369,4.712,4.712,0,0,0-.449-2.407,7.945,7.945,0,0,1-.721-2.362,2.189,2.189,0,0,1,.993-2.118,1.636,1.636,0,0,1,1.959.4c.715.874.335,2.158.261,3.287a5.45,5.45,0,0,0,.783,3.157,2.035,2.035,0,0,0,1.561,1.13,1.557,1.557,0,0,0,1.221-.664,3.106,3.106,0,0,0,.505-1.34,6.17,6.17,0,0,0-.273-3.06,3.985,3.985,0,0,1-.341-1.238.958.958,0,0,1,.659-1c.505-.1.948.392,1.107.886a6.426,6.426,0,0,0,.46,1.482A1.7,1.7,0,0,0,451.609,243.76Z" transform="translate(-418.184 -225.717)" fill="#ff8980"/>
        <path id="패스_12162" data-name="패스 12162" d="M459.249,239.9h-1.033c-.239.312-.577.732-.985,1.255l-.941-1.255h-1.082c.49.653.979,1.311,1.463,1.959-.636.812-1.409,1.783-2.284,2.89-.691-.931-1.4-1.879-2.11-2.833.669-.846,1.181-1.493,1.583-2.016h-1.1l-1.023,1.295-.549-.738-.419-.556h-1.088c.495.664.99,1.323,1.5,2-.685.863-1.452,1.828-2.29,2.884-.707-.954-1.414-1.9-2.111-2.827.636-.806,1.17-1.476,1.626-2.055h-1.11l-1.055,1.334c-.342-.46-.674-.891-1.006-1.334h-1.077c.5.67,1,1.334,1.523,2.038-.674.852-1.414,1.783-2.192,2.759-.723-.971-1.431-1.919-2.11-2.827l1.11-1.4.457-.568h-1.115l-.99,1.249L439.9,239.9h-1.088c.473.625.958,1.272,1.469,1.953-.691.874-1.425,1.794-2.192,2.765-.74-.988-1.436-1.925-2.078-2.776l-.141-.187,1.4-1.754h-1.115l-.821,1.033-.778-1.033h-1.088c.392.517.827,1.1,1.305,1.737-.713.891-1.447,1.817-2.192,2.759-.452-.6-.832-1.107-1.164-1.544l1.126,2.992c.669.891,1.43,1.868,2.236,2.941l-.8,1,.354.954.984-1.238c.669.9,1.376,1.845,2.111,2.827-.566.71-1.137,1.431-1.713,2.152l.353.959,1.566-1.97.337-.42c.685.914,1.387,1.862,2.11,2.828l-2.2,2.754-1.262-1.692,1.18,3.2.065-.074c.691.925,1.4,1.868,2.111,2.822l-.794.993.354.96.979-1.226q1.053,1.405,2.11,2.822l-1.708,2.146.354.954c.593-.738,1.219-1.527,1.893-2.373q1.061,1.422,2.1,2.822-1.134,1.431-2.192,2.759l-1.235-1.652.707,1.908a2.85,2.85,0,0,0,2.105,1.857l-1.039-1.391c.631-.789,1.371-1.72,2.2-2.754.663.891,1.311,1.766,1.953,2.617a2.6,2.6,0,0,0,.152-.329l.229-.619c-.566-.749-1.153-1.539-1.773-2.373.685-.863,1.42-1.788,2.192-2.759l.985,1.323.359-.971-.783-1.056,2.192-2.754.968-2.617-.946,1.187c-.675-.9-1.382-1.851-2.111-2.827l1.153-1.448,1.039-1.311c.56.755,1.115,1.493,1.664,2.231l.359-.977c-.473-.636-.957-1.283-1.463-1.959.74-.931,1.474-1.851,2.192-2.754l.68.9.359-.971-.479-.642,1.333-1.675.973-2.635-2.111-2.827.316-.4c.794-1,1.442-1.817,1.969-2.487l1.295,1.732.359-.971-1.093-1.471C458.585,240.829,459.026,240.244,459.249,239.9Zm-8.262,3.639.729-.914,2.111,2.827c-.707.9-1.474,1.857-2.285,2.878-.68-.908-1.365-1.828-2.056-2.748l-.055-.08Zm-.006,5.5q-1.061,1.329-2.192,2.759l-1.648-2.214-.462-.613q1.142-1.439,2.192-2.759C449.567,247.142,450.274,248.091,450.981,249.039Zm-4.966,7.648,2.111,2.827c-.729.92-1.463,1.84-2.192,2.759-.691-.931-1.4-1.874-2.111-2.827C444.546,258.532,445.28,257.612,446.015,256.686Zm-2.731,2.033-.843-1.124-1.267-1.7.7-.886c.5-.625,1-1.249,1.49-1.874.7.931,1.4,1.874,2.11,2.827Zm1.507-5.132-.865-1.152,2.192-2.759,2.11,2.827-2.192,2.759Zm1.425-10.929,2.111,2.827c-.691.874-1.425,1.8-2.187,2.759-.713-.954-1.42-1.9-2.11-2.827C444.8,244.446,445.536,243.52,446.216,242.657Zm-.636,6.3q-1.069,1.337-2.192,2.754c-.712-.954-1.419-1.9-2.11-2.822.751-.948,1.485-1.868,2.192-2.759Zm-4.765-6.376c.772,1.033,1.539,2.055,2.11,2.822-.7.886-1.436,1.811-2.192,2.759-.723-.971-1.431-1.919-2.111-2.822C439.384,244.372,440.118,243.452,440.815,242.578Zm-7.158,3.265-.544-.727q1.118-1.405,2.192-2.759c.68.9,1.42,1.9,2.219,2.964-.707.891-1.441,1.811-2.192,2.759C434.745,247.29,434.179,246.541,433.656,245.842Zm2.214,2.958c.745-.937,1.479-1.862,2.192-2.759l2.11,2.827-2.192,2.754C437.252,250.646,436.545,249.7,435.87,248.8Zm2.654,3.549,2.192-2.759c.685.92,1.392,1.862,2.11,2.827l-2.192,2.754C439.917,254.217,439.215,253.269,438.525,252.349Zm1.567,9.249c-.56-.75-1.115-1.493-1.67-2.243.718-.9,1.452-1.822,2.192-2.754l2.11,2.827c-.734.92-1.468,1.84-2.192,2.754Zm.979,1.306,2.192-2.754c.7.943,1.409,1.885,2.111,2.827-.74.926-1.474,1.845-2.192,2.754C442.485,264.805,441.778,263.857,441.07,262.9Zm4.754,6.376c-.674-.908-1.382-1.856-2.105-2.822.7-.886,1.436-1.806,2.192-2.759l2.111,2.827Q446.9,267.931,445.824,269.279Zm4.95-6.217c-.734.926-1.469,1.845-2.192,2.759l-2.11-2.827c.718-.9,1.453-1.822,2.192-2.759Zm-2.089-4.252c-.691-.926-1.393-1.874-2.111-2.828.735-.925,1.469-1.851,2.192-2.759l2.111,2.827Q449.792,257.413,448.685,258.81Zm2.752-3.463c-.685-.92-1.393-1.868-2.11-2.827.751-.942,1.485-1.868,2.192-2.759.707.948,1.414,1.891,2.11,2.827Q452.561,253.933,451.438,255.346ZM456.48,249q-1.093,1.371-2.29,2.879c-.685-.92-1.392-1.868-2.11-2.827.805-1.016,1.572-1.981,2.284-2.884Q455.433,247.6,456.48,249Z" transform="translate(-428.651 -213.349)" fill="#f89733"/>
        <path id="패스_12163" data-name="패스 12163" d="M431.189,240.158c.552-.04.929.579,1.071,1.136a2.741,2.741,0,0,0,.661,1.544c.655.522,1.6.045,2.234-.511s1.36-1.215,2.168-1.028c.77.182,1.169,1.084,1.256,1.9a12.1,12.1,0,0,0,.213,2.441c.246.778,1.065,1.47,1.791,1.141a1.811,1.811,0,0,0,.759-1.817,4.993,4.993,0,0,1,.055-2.1c.257-.653,1.2-1.045,1.611-.483-.24.664.7,1.2,1.327.925s.967-.965,1.387-1.516,1.131-1.045,1.742-.738q-.6,3.049-1.185,6.086a6.979,6.979,0,0,0-.18,2.509,2.254,2.254,0,0,0,1.463,1.851A2.225,2.225,0,0,0,450,249.8a7.42,7.42,0,0,0-.033-3.338,6.271,6.271,0,0,1,.093-3.321,2.1,2.1,0,0,1,2.594-1.374,3.211,3.211,0,0,0,1.513,2.419,2.018,2.018,0,0,0,2.589-.545,8.359,8.359,0,0,0,.628-1.851c.224-.613.8-1.209,1.409-1.028a1.437,1.437,0,0,1,.814,1.226,3.868,3.868,0,0,0,.388,1.51c.284.437.988.613,1.272.176,1.054-.471.94-2.226.055-2.986a4.973,4.973,0,0,0-3.282-.806l-11.53-.085Z" transform="translate(-429.685 -213.831)" fill="#ffbcb6"/>
        <path id="패스_12164" data-name="패스 12164" d="M434.082,235.291a.543.543,0,0,0,0,1.084A.543.543,0,0,0,434.082,235.291Z" transform="translate(-419.11 -234.899)" fill="#ffffa2"/>
        <path id="패스_12165" data-name="패스 12165" d="M436.331,237.515a.543.543,0,0,0,0,1.084A.543.543,0,0,0,436.331,237.515Z" transform="translate(-409.061 -224.496)" fill="#ffffa2"/>
        <path id="패스_12166" data-name="패스 12166" d="M434.757,238.459a.543.543,0,0,0,0,1.084A.543.543,0,0,0,434.757,238.459Z" transform="translate(-416.104 -220.08)" fill="#ffffa2"/>
        <path id="패스_12167" data-name="패스 12167" d="M437.313,238.082a.54.54,0,0,0,0,1.079A.54.54,0,0,0,437.313,238.082Z" transform="translate(-404.688 -221.844)" fill="#ffffa2"/>
        <path id="패스_12168" data-name="패스 12168" d="M432.823,237.536a.543.543,0,0,0,0,1.085A.543.543,0,0,0,432.823,237.536Z" transform="translate(-424.747 -224.397)" fill="#ffffa2"/>
        <path id="패스_12169" data-name="패스 12169" d="M431.732,238.1a.54.54,0,0,0,0,1.079A.54.54,0,0,0,431.732,238.1Z" transform="translate(-429.575 -221.745)" fill="#ffffa2"/>
        <path id="패스_12170" data-name="패스 12170" d="M433.3,238.438h-.119a.543.543,0,0,0,0,1.084h.119A.543.543,0,0,0,433.3,238.438Z" transform="translate(-423.153 -220.178)" fill="#ffffa2"/>
        <path id="패스_12171" data-name="패스 12171" d="M432.533,239.215a.54.54,0,0,0,0,1.079A.54.54,0,0,0,432.533,239.215Z" transform="translate(-426.062 -216.544)" fill="#ffffa2"/>
        <path id="패스_12172" data-name="패스 12172" d="M433.75,237.536a.543.543,0,0,0,0,1.085A.543.543,0,0,0,433.75,237.536Z" transform="translate(-420.613 -224.397)" fill="#ffffa2"/>
        <path id="패스_12173" data-name="패스 12173" d="M432.991,236.13a.543.543,0,0,0,0,1.085A.543.543,0,0,0,432.991,236.13Z" transform="translate(-423.995 -230.974)" fill="#ffffa2"/>
        <path id="패스_12174" data-name="패스 12174" d="M434.4,236.574v.119a.543.543,0,0,0,1.084,0v-.119A.542.542,0,0,0,434.4,236.574Z" transform="translate(-415.369 -231.35)" fill="#ffffa2"/>
        <path id="패스_12175" data-name="패스 12175" d="M435.068,236.865a.54.54,0,0,0,0,1.079A.54.54,0,0,0,435.068,236.865Z" transform="translate(-414.694 -227.536)" fill="#ffffa2"/>
        <path id="패스_12176" data-name="패스 12176" d="M434,236.027v.119a.54.54,0,0,0,1.079,0v-.119A.54.54,0,0,0,434,236.027Z" transform="translate(-417.151 -233.903)" fill="#ffbcb6"/>
        <path id="패스_12177" data-name="패스 12177" d="M435.512,235.879a.54.54,0,0,0,0,1.079A.54.54,0,0,0,435.512,235.879Z" transform="translate(-412.723 -232.148)" fill="#ffbcb6"/>
        <path id="패스_12178" data-name="패스 12178" d="M434.408,237.83h-.238a.54.54,0,0,0,0,1.079h.238A.54.54,0,0,0,434.408,237.83Z" transform="translate(-418.741 -223.022)" fill="#ffbcb6"/>
        <path id="패스_12179" data-name="패스 12179" d="M432.366,237.662a.54.54,0,0,0,0,1.079A.54.54,0,0,0,432.366,237.662Z" transform="translate(-426.631 -223.808)" fill="#ffbcb6"/>
        <path id="패스_12180" data-name="패스 12180" d="M432.941,238.626a.548.548,0,0,0-.96.465l.023.1a.522.522,0,0,0,.375.375l.1.023A.548.548,0,0,0,432.941,238.626Z" transform="translate(-426.054 -220.264)" fill="#ffbcb6"/>
        <path id="패스_12181" data-name="패스 12181" d="M436.928,238.34l-.12-.119a.538.538,0,0,0-.761.761l.119.119A.538.538,0,0,0,436.928,238.34Z" transform="translate(-408.702 -221.943)" fill="#ffbcb6"/>
        <path id="패스_12182" data-name="패스 12182" d="M435.3,237.788a.54.54,0,0,0,0,1.079A.54.54,0,0,0,435.3,237.788Z" transform="translate(-413.664 -223.219)" fill="#ffbcb6"/>
        <path id="패스_12183" data-name="패스 12183" d="M435.632,238.606h-.119a.543.543,0,0,0,0,1.084h.119A.543.543,0,0,0,435.632,238.606Z" transform="translate(-412.726 -219.393)" fill="#ffbcb6"/>
        <path id="패스_12184" data-name="패스 12184" d="M434.04,236.466a.54.54,0,0,0,0,1.079A.54.54,0,0,0,434.04,236.466Z" transform="translate(-419.298 -229.403)" fill="#a9ccff"/>
        <path id="패스_12185" data-name="패스 12185" d="M433.583,235.522a.54.54,0,0,0,0,1.079A.54.54,0,0,0,433.583,235.522Z" transform="translate(-421.365 -233.818)" fill="#a9ccff"/>
        <path id="패스_12186" data-name="패스 12186" d="M435.154,238.122v.119a.54.54,0,0,0,1.079,0v-.119A.54.54,0,0,0,435.154,238.122Z" transform="translate(-411.984 -224.086)" fill="#a9ccff"/>
        <path id="패스_12187" data-name="패스 12187" d="M436.593,238.73l-.1.023a.539.539,0,0,0-.38.375l-.023.1a.564.564,0,1,0,.5-.494Z" transform="translate(-408.04 -218.897)" fill="#a9ccff"/>
        <path id="패스_12188" data-name="패스 12188" d="M434.274,238.669a.54.54,0,0,0,0,1.079A.54.54,0,0,0,434.274,238.669Z" transform="translate(-418.267 -219.098)" fill="#a9ccff"/>
        <path id="패스_12189" data-name="패스 12189" d="M433.33,237.725a.54.54,0,0,0,0,1.079A.54.54,0,0,0,433.33,237.725Z" transform="translate(-422.494 -223.514)" fill="#a9ccff"/>
        <path id="패스_12190" data-name="패스 12190" d="M432.072,237.452a.543.543,0,0,0,0,1.084A.543.543,0,0,0,432.072,237.452Z" transform="translate(-428.006 -224.791)" fill="#a9ccff"/>
        <path id="패스_12191" data-name="패스 12191" d="M435.356,235.469a.871.871,0,0,0-.306.114.544.544,0,0,0-.108.846l.057.068a.481.481,0,0,0,.749-.023C436.281,236.264,435.992,235.361,435.356,235.469Z" transform="translate(-413.627 -234.106)" fill="#a9ccff"/>
        <path id="패스_12192" data-name="패스 12192" d="M432.275,238.774h-.119a.54.54,0,0,0,0,1.079h.119A.54.54,0,0,0,432.275,238.774Z" transform="translate(-427.613 -218.607)" fill="#a9ccff"/>
      </g>
      <g id="그룹_871" data-name="그룹 871" transform="translate(86.491 3.938)">
        <path id="패스_12193" data-name="패스 12193" d="M454.032,239.6H439.8l11.664,33.106a2.669,2.669,0,0,0,5.124,0L468.255,239.6Z" transform="translate(-436.642 -215.098)" fill="#ffd649"/>
        <path id="패스_12195" data-name="패스 12195" d="M453.675,270.416l1.851,2.623a3.541,3.541,0,0,0,.144-.329l.217-.619c-.536-.755-1.093-1.544-1.681-2.379.65-.863,1.346-1.789,2.078-2.754l.933,1.323.34-.977-.743-1.05,2.078-2.759.918-2.612-.9,1.187-2-2.827,1.093-1.453.985-1.306,1.578,2.226.34-.971-1.387-1.959,2.078-2.759.645.908.34-.976-.454-.636c.433-.573.851-1.13,1.264-1.675l.923-2.64-2-2.827.3-.392c.753-1,1.366-1.817,1.867-2.493.418.585.83,1.136,1.238,1.709l.33-.948-1.036-1.47c.774-1.045,1.191-1.624,1.4-1.976h-.98c-.227.312-.546.738-.933,1.255l-.892-1.255h-1.026q.7.988,1.387,1.964c-.6.806-1.336,1.783-2.166,2.884-.655-.931-1.325-1.874-2-2.827.634-.846,1.119-1.5,1.5-2.021h-1.042l-.97,1.294-.521-.732-.4-.562h-1.032l1.418,2c-.65.857-1.377,1.828-2.171,2.879-.67-.948-1.341-1.891-2-2.827.6-.8,1.109-1.47,1.542-2.055h-1.052l-1,1.334c-.325-.454-.639-.886-.954-1.334h-1.021c.474.67.944,1.34,1.444,2.038-.64.852-1.341,1.783-2.079,2.765l-2-2.827,1.052-1.4.433-.573H449.9l-.944,1.255c-.3-.431-.593-.846-.887-1.255h-1.031l1.392,1.959-2.078,2.759c-.7-.988-1.362-1.919-1.97-2.771l-.134-.193,1.325-1.754h-1.057l-.779,1.033L443,239.6h-1.031l1.238,1.737c-.676.9-1.372,1.822-2.078,2.759-.428-.6-.815-1.1-1.13-1.539l1.093,2.986c.634.891,1.356,1.868,2.12,2.941l-.758,1,.335.959.934-1.238,2,2.822q-.8,1.073-1.624,2.158l.335.954,1.485-1.964.32-.426,2,2.827c-.691.914-1.387,1.839-2.084,2.759l-1.2-1.692,1.119,3.2.062-.079,2,2.827-.753.993.335.954c.3-.4.608-.806.928-1.226.665.937,1.33,1.885,2,2.828l-1.619,2.14.335.96,1.795-2.379,2,2.827q-1.075,1.422-2.078,2.754l-1.17-1.652.67,1.914a2.733,2.733,0,0,0,2,1.851l-.985-1.385C452.189,272.38,452.891,271.455,453.675,270.416Zm4.708-7.642c-.7.92-1.392,1.845-2.078,2.754l-2-2.827c.681-.9,1.377-1.822,2.078-2.754Q457.4,261.377,458.383,262.774Zm-5.023-7.1-2.078,2.759-.8-1.13-1.2-1.7.665-.886,1.413-1.874Zm-1.47-3.531q1.06-1.4,2.078-2.759l2,2.827-2.078,2.759L452.71,253.3Zm1.98,4.258c.665.943,1.336,1.885,2,2.827l-2.078,2.754-2-2.827Zm2.532,2.118c-.655-.92-1.32-1.868-2-2.827l2.078-2.754q1.006,1.414,2,2.827Zm2.61-3.457c-.65-.926-1.32-1.874-2-2.833.712-.943,1.408-1.862,2.078-2.754.67.942,1.341,1.891,2,2.827Q460.077,253.644,459.012,255.058Zm4.781-6.348c-.691.914-1.413,1.879-2.171,2.884-.65-.92-1.32-1.868-2-2.833.763-1.011,1.491-1.976,2.166-2.878Zm-5.209-5.467.691-.914,2,2.827c-.671.9-1.4,1.862-2.166,2.884l-1.949-2.754-.052-.074Zm-.005,5.5c-.67.886-1.361,1.811-2.078,2.759l-1.563-2.209-.438-.619c.722-.954,1.413-1.879,2.078-2.759C457.238,246.854,457.909,247.8,458.579,248.745Zm-4.518-6.376,2,2.827c-.655.869-1.351,1.794-2.073,2.759-.675-.954-1.346-1.9-2-2.827C452.721,244.152,453.417,243.226,454.061,242.369Zm-.6,6.291q-1.014,1.345-2.078,2.759l-2-2.827c.712-.948,1.408-1.868,2.078-2.759Zm-4.518-6.376,2,2.827c-.665.88-1.361,1.805-2.078,2.759l-2-2.827C447.584,244.084,448.28,243.158,448.94,242.284Zm-6.787,3.27-.516-.732q1.06-1.4,2.078-2.754l2.1,2.958c-.671.891-1.367,1.817-2.078,2.759C443.185,247,442.649,246.247,442.154,245.554Zm2.1,2.952c.706-.937,1.4-1.857,2.078-2.759l2,2.827-2.078,2.759Zm2.517,3.548,2.078-2.759c.65.92,1.32,1.868,2,2.827q-1.029,1.362-2.078,2.759C448.089,253.923,447.419,252.98,446.77,252.055Zm1.485,9.254q-.8-1.124-1.583-2.243l2.078-2.759,2,2.827c-.7.925-1.392,1.845-2.078,2.759Zm.928,1.306,2.078-2.759,2,2.827-2.078,2.759C450.524,264.511,449.853,263.569,449.183,262.615Zm2.511,3.548c.665-.88,1.362-1.805,2.078-2.754l2,2.822q-1.06,1.405-2.083,2.759C453.05,268.082,452.38,267.134,451.694,266.163Z" transform="translate(-435.73 -215.098)" fill="#f89733"/>
        <path id="패스_12196" data-name="패스 12196" d="M467.181,260.941a3.89,3.89,0,0,1-3.359,3.077,2.969,2.969,0,0,1-2.865-3.242,3.443,3.443,0,0,1-3.381,2.986,3.5,3.5,0,0,1-3.07-3.355,2.5,2.5,0,1,1-4.705-.074,3.588,3.588,0,0,1-2.818,2.611,2.4,2.4,0,0,1-2.5-2.532,2.73,2.73,0,0,1-1.283,2.339,1.678,1.678,0,0,1-2.281-.761c-.363-.874.337-2.084,1.214-1.964a9.308,9.308,0,0,1-2.876-7.1,8.193,8.193,0,0,1,3.691-6.569,6.366,6.366,0,0,1,7.039.312,6.86,6.86,0,0,1-.194-6.881,8.721,8.721,0,0,1,5.336-4.145,9.266,9.266,0,0,1,9.326,2.515,8.872,8.872,0,0,1,1.209,9.992,3.846,3.846,0,0,1,4.942.181,6.5,6.5,0,0,1,1.977,5.133,11.537,11.537,0,0,1-1.751,5.377,2.565,2.565,0,0,1-.51,3.707A2.232,2.232,0,0,1,467.181,260.941Z" transform="translate(-439.246 -235.288)" fill="#fff"/>
      </g>
      <g id="그룹_873" data-name="그룹 873" transform="translate(0)">
        <path id="패스_12198" data-name="패스 12198" d="M436.186,240.078H422.27l11.408,33.105a2.594,2.594,0,0,0,5.011,0L450.1,240.078Z" transform="translate(-420.05 -208.942)" fill="#ffd649"/>
        <path id="패스_12199" data-name="패스 12199" d="M435.791,270.89c.619.891,1.218,1.766,1.812,2.623.05-.108.1-.216.141-.329l.211-.619c-.524-.755-1.067-1.544-1.641-2.379l2.029-2.754.911,1.323.332-.977-.725-1.05,2.029-2.759.891-2.612-.871,1.187-1.953-2.827,1.067-1.454.961-1.306,1.541,2.225.332-.971-1.354-1.959c.685-.931,1.364-1.856,2.029-2.759l.629.908.332-.977-.443-.636c.423-.573.831-1.13,1.233-1.675l.9-2.64-1.953-2.827.292-.392c.735-1,1.334-1.817,1.822-2.492l1.2,1.737.332-.977-1.012-1.47c.755-1.045,1.163-1.624,1.369-1.976h-.957c-.222.312-.534.738-.911,1.255l-.871-1.255h-1l1.354,1.965c-.589.806-1.3,1.783-2.114,2.884-.639-.931-1.294-1.874-1.953-2.827.619-.846,1.092-1.5,1.465-2.021h-1.017c-.287.392-.594.812-.952,1.295l-.5-.732-.387-.562H439.38c.458.664.916,1.329,1.384,2-.634.857-1.344,1.828-2.119,2.878l-1.953-2.827c.589-.8,1.082-1.471,1.505-2.055H437.17l-.977,1.334c-.317-.454-.624-.886-.931-1.334h-1l1.41,2.038c-.624.852-1.309,1.783-2.029,2.765l-1.953-2.827c.357-.488.7-.959,1.027-1.4l.418-.574h-1.027l-.921,1.255-.866-1.255h-1.007c.438.63.886,1.277,1.359,1.959l-2.029,2.759c-.684-.988-1.329-1.919-1.923-2.771l-.131-.193c.443-.6.871-1.181,1.289-1.754h-1.027l-.76,1.033-.72-1.033h-1.007l1.208,1.737-2.029,2.759c-.418-.6-.77-1.1-1.077-1.544l1.042,2.992c.619.891,1.324,1.868,2.069,2.941l-.74,1,.327.959.911-1.238c.619.9,1.274,1.84,1.953,2.822-.524.715-1.052,1.436-1.586,2.157l.327.954q.725-.979,1.45-1.964l.307-.426,1.958,2.827c-.675.914-1.354,1.839-2.034,2.759-.4-.579-.78-1.13-1.168-1.692l1.092,3.2.06-.08c.639.931,1.294,1.874,1.948,2.828l-.73.993.327.954.906-1.226c.649.937,1.3,1.885,1.948,2.828-.534.732-1.057,1.436-1.576,2.14l.327.959,1.752-2.379c.654.948,1.3,1.9,1.948,2.828l-2.029,2.754c-.368-.534-.76-1.1-1.143-1.652l.655,1.913a2.685,2.685,0,0,0,1.948,1.851l-.961-1.385C434.346,272.854,435.03,271.929,435.791,270.89Zm4.6-7.642L438.363,266l-1.953-2.827c.665-.9,1.344-1.822,2.029-2.754Q439.428,261.851,440.392,263.248Zm-4.9-7.1c-.669.914-1.349,1.834-2.029,2.759l-.78-1.13-1.173-1.7.649-.886,1.379-1.874Zm-1.435-3.531q1.034-1.4,2.029-2.759c.644.937,1.3,1.879,1.953,2.827q-1,1.354-2.029,2.759c-.382-.556-.77-1.113-1.153-1.669Zm1.933,4.258c.649.942,1.3,1.885,1.953,2.828l-2.029,2.754-1.953-2.828Zm2.472,2.118-1.953-2.827,2.029-2.754q.981,1.414,1.953,2.827Q439.483,257.6,438.459,258.99Zm2.547-3.458-1.953-2.833c.695-.943,1.374-1.862,2.029-2.754.655.942,1.3,1.891,1.953,2.827Zm4.667-6.347c-.675.914-1.38,1.879-2.12,2.884l-1.953-2.833c.745-1.011,1.455-1.976,2.114-2.878C444.374,247.305,445.028,248.254,445.673,249.185Zm-5.085-5.467.675-.914c.649.942,1.3,1.885,1.953,2.827l-2.114,2.884-1.9-2.754-.05-.074Zm-.005,5.5c-.655.886-1.329,1.811-2.029,2.759q-.763-1.1-1.525-2.208l-.428-.619c.7-.954,1.379-1.879,2.029-2.759Zm-4.41-6.376,1.953,2.827c-.639.869-1.319,1.794-2.023,2.759q-.99-1.431-1.958-2.827C434.864,244.626,435.544,243.7,436.173,242.843Zm-.589,6.291q-.989,1.345-2.029,2.759l-1.953-2.827q1.042-1.422,2.024-2.759Q434.584,247.694,435.584,249.134Zm-4.41-6.376,1.953,2.827c-.649.88-1.329,1.805-2.029,2.759q-1.012-1.465-1.953-2.827Zm-6.625,3.27-.5-.732q1.035-1.4,2.029-2.754c.629.9,1.314,1.9,2.054,2.958l-2.029,2.759C425.556,247.476,425.032,246.721,424.549,246.028Zm2.049,2.952c.69-.937,1.369-1.856,2.029-2.759l1.953,2.827c-.659.9-1.339,1.822-2.029,2.759Zm2.457,3.548c.679-.925,1.359-1.851,2.028-2.759.635.92,1.289,1.868,1.954,2.827q-1,1.362-2.029,2.759C430.344,254.4,429.689,253.454,429.055,252.529Zm1.45,9.254-1.545-2.243c.664-.9,1.344-1.828,2.029-2.759.64.931,1.294,1.874,1.953,2.827l-2.034,2.759Zm.906,1.306q.99-1.345,2.029-2.759l1.953,2.827c-.685.931-1.364,1.851-2.029,2.759C432.72,264.985,432.065,264.043,431.411,263.089Zm2.452,3.548,2.029-2.754,1.953,2.822-2.034,2.759C435.186,268.556,434.532,267.608,433.862,266.637Z" transform="translate(-419.114 -208.942)" fill="#f89733"/>
        <path id="패스_12200" data-name="패스 12200" d="M423.243,264.679c-1.585-1.334-1.637-4-.926-6.058a7.6,7.6,0,0,1,3.675-4.48,4.481,4.481,0,0,1,5.219.971,5.147,5.147,0,0,1-1.781-4.673,4.791,4.791,0,0,1,3-3.844c2.471-.857,5.631.659,7.515-1.311,1.451-1.516,1.091-4.247-.026-6.075a4.314,4.314,0,0,0-2.368-2.055,2.116,2.116,0,0,0-2.543,1.317,2.749,2.749,0,0,1,.865-3,4.518,4.518,0,0,1,2.918-.88,9.652,9.652,0,0,1,8.447,5.053,9.854,9.854,0,0,1-.705,10.35,3.865,3.865,0,0,1,5.348,2.123,4.573,4.573,0,0,1-2.378,5.695,3.652,3.652,0,0,1,3.984,2.192,4.421,4.421,0,0,1-.932,4.8c-1.328,1.232-3.237,1.26-4.972,1.226q-10.291-.2-20.588-.4A5.843,5.843,0,0,1,423.243,264.679Z" transform="translate(-421.879 -234.594)" fill="#986539"/>
        <path id="패스_12201" data-name="패스 12201" d="M422.27,240.078l.839,2.433h26.151l.839-2.433H422.27Z" transform="translate(-420.052 -208.942)" fill="#f89733"/>
      </g>
    </g>
    <g id="그룹_875" data-name="그룹 875" transform="translate(20.739 58.051)">
      <rect id="사각형_709" data-name="사각형 709" width="7.502" height="132.513" transform="translate(230.046)" fill="#c6c6c6"/>
      <rect id="사각형_710" data-name="사각형 710" width="7.502" height="132.513" fill="#c6c6c6"/>
      <rect id="사각형_711" data-name="사각형 711" width="1.808" height="132.513" transform="translate(1.811)" fill="#ededed"/>
      <rect id="사각형_712" data-name="사각형 712" width="1.809" height="132.513" transform="translate(231.988)" fill="#ededed"/>
    </g>
    <g id="그룹_876" data-name="그룹 876" transform="translate(13.092 203.067)">
      <rect id="사각형_713" data-name="사각형 713" width="17.513" height="180.039" transform="translate(235.328)" fill="#ef4c4e"/>
      <rect id="사각형_714" data-name="사각형 714" width="17.513" height="180.039" transform="translate(201.71)" fill="#ef4c4e"/>
      <rect id="사각형_715" data-name="사각형 715" width="17.513" height="180.039" transform="translate(168.092)" fill="#ef4c4e"/>
      <rect id="사각형_716" data-name="사각형 716" width="17.513" height="180.039" transform="translate(134.473)" fill="#ef4c4e"/>
      <rect id="사각형_717" data-name="사각형 717" width="17.513" height="180.039" transform="translate(100.855)" fill="#ef4c4e"/>
      <rect id="사각형_718" data-name="사각형 718" width="17.513" height="180.039" transform="translate(67.237)" fill="#ef4c4e"/>
      <rect id="사각형_719" data-name="사각형 719" width="17.513" height="180.039" transform="translate(33.618)" fill="#ef4c4e"/>
      <rect id="사각형_720" data-name="사각형 720" width="17.513" height="180.039" fill="#ef4c4e"/>
    </g>
    <path id="패스_12206" data-name="패스 12206" d="M441.768,210.506h201.71L682.041,258.8H403.2Z" transform="translate(-403.11 -210.452)" fill="#fff"/>
    <path id="패스_12207" data-name="패스 12207" d="M454.979,258.842,452.93,210.5H426.918l-1.957,48.4Z" transform="translate(-301.323 -210.496)" fill="#ff5d70"/>
    <path id="패스_12208" data-name="패스 12208" d="M444.234,258.916l10.294-48.292H433.709l-19.65,48.292Z" transform="translate(-352.314 -209.898)" fill="#ff5d70"/>
    <path id="패스_12209" data-name="패스 12209" d="M434.917,258.8l28.961-48.292H441.768L403.2,258.8Z" transform="translate(-403.11 -210.452)" fill="#ff5d70"/>
    <path id="패스_12210" data-name="패스 12210" d="M444.526,258.916l-10.295-48.292h20.819l19.65,48.292Z" transform="translate(-257.958 -209.898)" fill="#ff5d70"/>
    <path id="패스_12211" data-name="패스 12211" d="M470.494,258.8l-28.962-48.292h22.111L502.206,258.8Z" transform="translate(-223.812 -210.452)" fill="#ff5d70"/>
    <rect id="사각형_721" data-name="사각형 721" width="37.847" height="4.688" transform="translate(265.934 203.067)" fill="#97a4ca"/>
    <path id="패스_12212" data-name="패스 12212" d="M454.543,250.358a5.047,5.047,0,0,0,5.047,5.047h34.445a5.047,5.047,0,1,0,0-10.095H459.59A5.047,5.047,0,0,0,454.543,250.358Z" transform="translate(-162.951 -47.652)" fill="#97a4ca"/>
    <path id="패스_12272" data-name="패스 12272" d="M0,6.8Z" transform="translate(37.022 -4.64)" fill="#97a4ca"/>
    <path id="패스_12256" data-name="패스 12256" d="M532.1,293.092c-48.537,0-92.8-9.22-126.421-24.373v52.545H658.526V268.719C624.909,283.872,580.641,293.092,532.1,293.092Z" transform="translate(-391.495 61.839)" fill="#dadada"/>
    <g id="그룹_878" data-name="그룹 878" transform="translate(14.188 330.559)">
      <path id="패스_12257" data-name="패스 12257" d="M411.411,270.783V311.61h17.515V275.24Q419.916,273.23,411.411,270.783Z" transform="translate(-378.89 -259.065)" fill="#d43136"/>
      <path id="패스_12258" data-name="패스 12258" d="M405.683,268.719v52.545H422.1v-46C416.413,273.21,410.884,271.064,405.683,268.719Z" transform="translate(-405.683 -268.719)" fill="#d43136"/>
      <path id="패스_12259" data-name="패스 12259" d="M423.254,272.828v29.216h17.51V273.657Q431.9,273.436,423.254,272.828Z" transform="translate(-323.494 -249.499)" fill="#d43136"/>
      <path id="패스_12260" data-name="패스 12260" d="M417.333,272.122v33.225h17.51V274.626Q425.917,273.578,417.333,272.122Z" transform="translate(-351.19 -252.801)" fill="#d43136"/>
      <path id="패스_12261" data-name="패스 12261" d="M429.175,273.582v28.336H446.69V272.855Q438.046,273.417,429.175,273.582Z" transform="translate(-295.799 -249.373)" fill="#d43136"/>
      <path id="패스_12262" data-name="패스 12262" d="M446.939,275.635V320.89h17.515V268.8C458.913,271.257,453.02,273.511,446.939,275.635Z" transform="translate(-212.708 -268.345)" fill="#d43136"/>
      <path id="패스_12263" data-name="패스 12263" d="M441.018,275.218V311.1h17.51V270.892Q450.02,273.268,441.018,275.218Z" transform="translate(-240.403 -258.555)" fill="#d43136"/>
      <path id="패스_12264" data-name="패스 12264" d="M435.1,274.578v30.46h17.515v-32.85Q444.018,273.585,435.1,274.578Z" transform="translate(-268.103 -252.493)" fill="#d43136"/>
    </g>
    <rect id="사각형_735" data-name="사각형 735" width="270.059" height="14.189" transform="translate(4.484 190.564)" fill="#97a4ca"/>
    <g id="그룹_881" data-name="그룹 881" transform="translate(0 48.347)">
      <path id="패스_12269" data-name="패스 12269" d="M403.275,219.012H433.82v0h30.948v0h30.954v0H526.67v0h30.948v0h30.954v0H619.52v.108c-.011.3-.079.573-.079.874s.068.573.079.874c-.409,9.271-7.148,16.663-15.471,16.663s-15.068-7.392-15.477-16.663c-.415,9.271-7.154,16.663-15.477,16.663s-15.062-7.392-15.477-16.663c-.409,9.271-7.148,16.663-15.471,16.663s-15.063-7.392-15.477-16.663c-.409,9.271-7.148,16.663-15.476,16.663s-15.063-7.392-15.471-16.663c-.415,9.271-7.154,16.663-15.477,16.663s-15.062-7.392-15.477-16.663c-.409,9.271-7.148,16.663-15.471,16.663s-15.062-7.392-15.477-16.663c-.409,9.271-7.148,16.663-15.477,16.663C401.072,237.532,403.275,219.012,403.275,219.012Z" transform="translate(-403.184 -219.012)" fill="#ef4c4e"/>
      <path id="패스_12270" data-name="패스 12270" d="M441.288,219.12v-.108H472.23c.017.329.085.642.085.982,0,9.686-6.96,17.538-15.551,17.538-8.323,0-15.062-7.392-15.477-16.663.011-.3.079-.579.079-.874S441.3,219.415,441.288,219.12Z" transform="translate(-224.952 -219.012)" fill="#ef4c4e"/>
      <path id="패스_12271" data-name="패스 12271" d="M446.753,219.12l.012-.108H477.7c.017.329.085.642.085.982,0,9.686-6.96,17.538-15.55,17.538-8.323,0-15.063-7.392-15.477-16.663.017-.3.08-.579.08-.874S446.77,219.415,446.753,219.12Z" transform="translate(-199.389 -219.012)" fill="#ef4c4e"/>
    </g>
  </g>
  <g id="그룹_894" data-name="그룹 894" transform="translate(1211.318 296.664) rotate(13)">
    <g id="그룹_885" data-name="그룹 885" transform="translate(32.743 0)">
      <g id="그룹_884" data-name="그룹 884" transform="translate(0 0)">
        <g id="그룹_883" data-name="그룹 883" transform="translate(17.182 54.705)">
          <path id="패스_12273" data-name="패스 12273" d="M1.02,63.735a1.119,1.119,0,0,1-.975-1.188c-.023-.684-.2-.9.34-.93,0,0,.572-.135,1.209-1.222.909-1.555,2.2-5.815.612-16.9C-.561,24.184,4.364,1.842,4.574.9,4.722.24,5.261-.138,5.781.047a1.313,1.313,0,0,1,.672,1.532C6.4,1.8,1.444,24.319,4.127,43.053,5.467,52.4,5.744,58.47,3.686,61.742,2.514,63.6,1.207,63.726,1.062,63.734Z" transform="translate(0 0)" fill="#ed943b"/>
        </g>
        <path id="패스_12274" data-name="패스 12274" d="M12.263,2.709C1.319,9.045-3.126,24.474,2.335,37.171c3.172,7.376,8.994,12.183,15.458,13.7l-2.735,6.149,7.74-.465,7.741-.465-3.08-5.456a20.3,20.3,0,0,0,4.579-1.94c10.943-6.336,15.388-21.765,9.927-34.462S23.206-3.627,12.263,2.709Z" transform="translate(0 0)" fill="#ffb845"/>
      </g>
      <path id="패스_12275" data-name="패스 12275" d="M11.521.537A25.581,25.581,0,0,0,1.855.39C-.929,12.157-4.72,41.237,24.9,43.337a25.485,25.485,0,0,0,6.511-12.394A25.693,25.693,0,0,0,11.521.537Z" transform="translate(16.607 0)" fill="#fff" opacity="0.2" style="mix-blend-mode: screen;isolation: isolate"/>
    </g>
    <g id="그룹_890" data-name="그룹 890" transform="translate(53.222 12.66)">
      <g id="그룹_889" data-name="그룹 889" transform="translate(0 0.385)">
        <g id="그룹_886" data-name="그룹 886" transform="translate(0 43.309)">
          <path id="패스_12276" data-name="패스 12276" d="M1.119,61.615a1.548,1.548,0,0,1-.3-.025,1.236,1.236,0,0,1-.811-1.417C.1,59.5.588,59.046,1.123,59.139h.014a2,2,0,0,0,1.4-.855c1.127-1.3,3.039-5.156,3.186-16.419C5.973,22.236,14.206,1.546,14.556.675A.884.884,0,0,1,15.866.137a1.418,1.418,0,0,1,.422,1.669c-.083.209-8.376,21.058-8.622,40.1-.123,9.5-1.46,15.684-3.974,18.382A3.565,3.565,0,0,1,1.119,61.615Z" transform="translate(0 0)" fill="#aa2b5f"/>
        </g>
        <g id="그룹_888" data-name="그룹 888" transform="translate(1.253 0)">
          <g id="그룹_887" data-name="그룹 887" transform="translate(0 0)">
            <path id="패스_12277" data-name="패스 12277" d="M41.833,33.825C46.626,21.565,41.55,7.318,30.5,2S6.6,2.317,1.8,14.576c-4.277,10.94-.68,23.444,8,29.79L5.4,47.95,12.4,51.318l7.006,3.369L18.7,48.125C28.207,49.652,37.83,44.065,41.833,33.825Z" fill="#ff5d70"/>
          </g>
        </g>
      </g>
      <path id="패스_12278" data-name="패스 12278" d="M15.17,2.094A25.581,25.581,0,0,0,5.732,0C.631,10.964-8.947,38.682,19.644,46.715a25.482,25.482,0,0,0,8.878-10.826A25.694,25.694,0,0,0,15.17,2.094Z" transform="translate(16.709 0)" fill="#fff" opacity="0.2" style="mix-blend-mode: screen;isolation: isolate"/>
    </g>
    <g id="그룹_893" data-name="그룹 893" transform="translate(0 18.834)">
      <g id="그룹_892" data-name="그룹 892" transform="translate(0 0.665)">
        <g id="그룹_891" data-name="그룹 891" transform="translate(33.271 47.63)">
          <path id="패스_12279" data-name="패스 12279" d="M15.7,51.465a.764.764,0,0,1-.538-.24,1.553,1.553,0,0,1-.2-1.734c.31-.578,5.948-13-3.708-25.632C.77,10.135.032,1.716,0,1.365A1.2,1.2,0,0,1,.82,0c.519-.057.946.425,1,1.1.012.128.821,8.035,10.707,20.966A29.036,29.036,0,0,1,16.44,50.959.861.861,0,0,1,15.7,51.465Z" transform="translate(0 0)" fill="#0442bf"/>
        </g>
        <path id="패스_12280" data-name="패스 12280" d="M40.144,12.229C34.132.452,20.932-3.5,10.664,3.39S-3.056,25.42,2.956,37.2C8.321,47.7,19.4,51.962,29.026,47.863l.008,6.181,6.508-4.369,6.508-4.369-5.128-3.313C43.565,34.23,45.166,22.066,40.144,12.229Z" transform="translate(0 0)" fill="#5badf2"/>
      </g>
      <path id="패스_12281" data-name="패스 12281" d="M8.21,1.324A24.89,24.89,0,0,0,0,6.024c3.456,11.42,14.6,38.1,40.572,25.107a25.471,25.471,0,0,0-.628-13.816A24.994,24.994,0,0,0,8.21,1.324Z" transform="translate(2.041 0)" fill="#fff" opacity="0.2" style="mix-blend-mode: screen;isolation: isolate"/>
    </g>
  </g>
  <ellipse id="타원_416" data-name="타원 416" cx="8.717" cy="8.717" rx="8.717" ry="8.717" transform="translate(251.842 225.26) rotate(-76.718)" fill="#fffef3"/>
  <path id="패스_12286" data-name="패스 12286" d="M1671.711,625.331a21.2,21.2,0,1,0-16.232-34.834,26.066,26.066,0,0,0-41.913-10.667,35.2,35.2,0,0,0-68.777,8.078,20.43,20.43,0,1,0-11.34,37.423Z" transform="translate(372.293 -381.845)" fill="#fff"/>
  <g id="그룹_896" data-name="그룹 896" transform="translate(1709.241 239.331)" opacity="0.491">
    <g id="그룹_245-2" data-name="그룹 245" transform="translate(22.225 59.069)">
      <path id="패스_710-2" data-name="패스 710" d="M-311.574-56.876a.645.645,0,0,1-.644.644h0a.645.645,0,0,1-.644-.644V-80.325a.645.645,0,0,1,.644-.644h0a.645.645,0,0,1,.644.644Z" transform="translate(312.862 80.969)" fill="#00537f"/>
      <path id="패스_711-2" data-name="패스 711" d="M-304.063-56.876a.644.644,0,0,1-.644.644h0a.644.644,0,0,1-.644-.644V-80.325a.644.644,0,0,1,.644-.644h0a.644.644,0,0,1,.644.644Z" transform="translate(317.205 80.969)" fill="#00537f"/>
    </g>
    <g id="그룹_246-2" data-name="그룹 246" transform="translate(0 0)">
      <path id="패스_712-2" data-name="패스 712" d="M-290.292-49.023s.257-3.863,10.822-17.005,10.113-23.9,10.113-23.9A28.47,28.47,0,0,0-297.827-118.4h-.644a28.471,28.471,0,0,0-28.471,28.469s-.452,10.76,10.115,23.9,10.822,17.005,10.822,17.005Z" transform="translate(326.945 118.397)" fill="#f49f9f"/>
      <path id="패스_713-2" data-name="패스 713" d="M-300.174-49.023s.118-3.863,5.011-17.005a71.764,71.764,0,0,0,4.686-23.9c0-15.722-5.9-28.469-13.186-28.469h-.3c-7.282,0-13.186,12.747-13.186,28.469a71.78,71.78,0,0,0,4.684,23.9c4.892,13.142,5.012,17.005,5.012,17.005Z" transform="translate(332.609 118.397)" fill="#fff2cb"/>
    </g>
    <g id="그룹_247-2" data-name="그룹 247" transform="translate(18.881 76.332)">
      <path id="패스_714-2" data-name="패스 714" d="M-296.613-69.044V-61.2a3.638,3.638,0,0,1-3.639,3.639h-10.411A3.64,3.64,0,0,1-314.3-61.2v-7.844Z" transform="translate(315.373 70.6)" fill="#ffb97c"/>
      <path id="패스_715-2" data-name="패스 715" d="M-295.151-69.047a.985.985,0,0,1-.985.985H-314a.985.985,0,0,1-.983-.985h0A.984.984,0,0,1-314-70.03h17.862a.985.985,0,0,1,.985.983Z" transform="translate(314.981 70.03)" fill="#d35c38"/>
    </g>
  </g>
  <ellipse id="타원_536" data-name="타원 536" cx="6.665" cy="6.665" rx="6.665" ry="6.665" transform="translate(151.883 441.042) rotate(-76.718)" fill="#fffef3"/>
  <ellipse id="타원_537" data-name="타원 537" cx="5.5" cy="5.5" rx="5.5" ry="5.5" transform="translate(698.927 392.411) rotate(-76.718)" fill="#fffef3"/>
  <ellipse id="타원_538" data-name="타원 538" cx="5.5" cy="5.5" rx="5.5" ry="5.5" transform="translate(1283.309 205.766) rotate(-76.718)" fill="#fffef3"/>
  <ellipse id="타원_539" data-name="타원 539" cx="7.224" cy="7.224" rx="7.224" ry="7.224" transform="translate(1885.313 372.892) rotate(-76.718)" fill="#fffef3"/>
  <ellipse id="타원_540" data-name="타원 540" cx="8.224" cy="8.224" rx="8.224" ry="8.224" transform="translate(1611.379 298.079) rotate(-76.718)" fill="#fffef3"/>
  <ellipse id="타원_541" data-name="타원 541" cx="7.224" cy="7.224" rx="7.224" ry="7.224" transform="translate(1799.379 173.282) rotate(-76.718)" fill="#fffef3"/>
  <ellipse id="타원_542" data-name="타원 542" cx="5.5" cy="5.5" rx="5.5" ry="5.5" transform="translate(1456.4 225.601) rotate(-76.718)" fill="#fffef3"/>
</svg>
