<svg id="구성_요소_124_1" data-name="구성 요소 124 – 1" xmlns="http://www.w3.org/2000/svg" xmlns:xlink="http://www.w3.org/1999/xlink" width="2137.756" height="2113.262" viewBox="0 0 2137.756 2113.262">
  <defs>
    <linearGradient id="linear-gradient" x1="0.5" x2="0.5" y2="1" gradientUnits="objectBoundingBox">
      <stop offset="0" stop-color="#fff"/>
      <stop offset="0.158" stop-color="#ffd688"/>
      <stop offset="1" stop-color="#ffac10"/>
    </linearGradient>
    <linearGradient id="linear-gradient-2" x1="0.5" y1="1" x2="0.5" gradientUnits="objectBoundingBox">
      <stop offset="0" stop-color="#fff"/>
      <stop offset="0.276" stop-color="#fafbfc"/>
      <stop offset="0.492" stop-color="#fffef3"/>
      <stop offset="1" stop-color="#fff"/>
    </linearGradient>
    <linearGradient id="linear-gradient-4" x1="0.5" y1="0.457" x2="0.545" y2="1" gradientUnits="objectBoundingBox">
      <stop offset="0" stop-color="#ff4a5e"/>
      <stop offset="1" stop-color="#ffa2a5"/>
    </linearGradient>
    <linearGradient id="linear-gradient-5" x1="0.5" x2="0.584" y2="1" gradientUnits="objectBoundingBox">
      <stop offset="0" stop-color="#8748ff"/>
      <stop offset="1" stop-color="#bfa7ed"/>
    </linearGradient>
    <linearGradient id="linear-gradient-6" x1="0.473" y1="0.242" x2="0.602" y2="1" gradientUnits="objectBoundingBox">
      <stop offset="0" stop-color="#fc8d0d"/>
      <stop offset="1" stop-color="#ffd8ac"/>
    </linearGradient>
    <linearGradient id="linear-gradient-7" x1="0.5" x2="0.633" y2="0.841" gradientUnits="objectBoundingBox">
      <stop offset="0" stop-color="#3cbe73"/>
      <stop offset="1" stop-color="#9df0c1"/>
    </linearGradient>
    <linearGradient id="linear-gradient-8" x1="0.5" y1="0.155" x2="0.5" y2="0.842" gradientUnits="objectBoundingBox">
      <stop offset="0" stop-color="#ad7740"/>
      <stop offset="1" stop-color="#d0a56c"/>
    </linearGradient>
  </defs>
  <g id="구성_요소_67_1" data-name="구성 요소 67 – 1">
    <rect id="사각형_932" data-name="사각형 932" width="2079.717" height="2113.262" opacity="0.479" fill="url(#linear-gradient)"/>
  </g>
  <g id="구성_요소_68_1" data-name="구성 요소 68 – 1" transform="translate(27.82 196.087)">
    <path id="패스_19661" data-name="패스 19661" d="M1515.627,2265.544l-406.4-521.262c-38.5-49.384-113.181-49.384-151.683,0l-406.4,521.262Z" transform="translate(-551.149 -1707.244)" fill="#ffe1a8" opacity="0.702"/>
  </g>
  <g id="그룹_7157" data-name="그룹 7157" transform="translate(339.696 84.341)" opacity="0.491">
    <g id="그룹_245" data-name="그룹 245" transform="translate(25.282 67.192)">
      <path id="패스_710" data-name="패스 710" d="M-311.4-53.563a.733.733,0,0,1-.732.732h0a.733.733,0,0,1-.732-.732V-80.237a.733.733,0,0,1,.732-.732h0a.733.733,0,0,1,.732.732Z" transform="translate(312.862 80.969)" fill="#00537f"/>
      <path id="패스_711" data-name="패스 711" d="M-303.886-53.563a.733.733,0,0,1-.732.732h0a.732.732,0,0,1-.733-.732V-80.237a.732.732,0,0,1,.733-.732h0a.733.733,0,0,1,.732.732Z" transform="translate(318.835 80.969)" fill="#00537f"/>
    </g>
    <g id="그룹_246" data-name="그룹 246" transform="translate(0 0)">
      <path id="패스_712" data-name="패스 712" d="M-285.251-39.482s.292-4.395,12.31-19.344,11.5-27.187,11.5-27.187A32.385,32.385,0,0,0-293.823-118.4h-.732a32.386,32.386,0,0,0-32.386,32.384s-.514,12.24,11.506,27.187,12.31,19.344,12.31,19.344Z" transform="translate(326.945 118.397)" fill="#f49f9f"/>
      <path id="패스_713" data-name="패스 713" d="M-297.84-39.482s.135-4.395,5.7-19.344a81.632,81.632,0,0,0,5.33-27.187c0-17.884-6.716-32.384-15-32.384h-.339c-8.283,0-15,14.5-15,32.384a81.65,81.65,0,0,0,5.328,27.187c5.565,14.949,5.7,19.344,5.7,19.344Z" transform="translate(334.735 118.397)" fill="#fff2cb"/>
    </g>
    <g id="그룹_247" data-name="그룹 247" transform="translate(21.478 86.83)">
      <path id="패스_714" data-name="패스 714" d="M-294.18-69.044v8.922a4.139,4.139,0,0,1-4.14,4.14h-11.843a4.14,4.14,0,0,1-4.14-4.14v-8.922Z" transform="translate(315.52 70.814)" fill="#ffb97c"/>
      <path id="패스_715" data-name="패스 715" d="M-292.424-68.912a1.121,1.121,0,0,1-1.12,1.12h-20.319a1.12,1.12,0,0,1-1.118-1.12h0a1.12,1.12,0,0,1,1.118-1.118h20.319a1.12,1.12,0,0,1,1.12,1.118Z" transform="translate(314.981 70.03)" fill="#d35c38"/>
    </g>
  </g>
  <ellipse id="타원_495" data-name="타원 495" cx="8.687" cy="8.687" rx="8.687" ry="8.687" transform="translate(1653.196 188.411) rotate(-76.718)" fill="#fffef3"/>
  <ellipse id="타원_496" data-name="타원 496" cx="11.463" cy="11.463" rx="11.463" ry="11.463" transform="translate(229.004 45.458) rotate(-76.718)" fill="#fffef3"/>
  <ellipse id="타원_497" data-name="타원 497" cx="6.76" cy="6.76" rx="6.76" ry="6.76" transform="translate(294.497 97.5) rotate(-76.718)" fill="#fffef3"/>
  <ellipse id="타원_498" data-name="타원 498" cx="9.76" cy="9.76" rx="9.76" ry="9.76" transform="translate(1803.784 111.845) rotate(-76.718)" fill="#fffef3"/>
  <g id="그룹_7158" data-name="그룹 7158" transform="translate(1518.31 169.579)" opacity="0.729">
    <g id="그룹_245-2" data-name="그룹 245" transform="translate(26.418 70.214)">
      <path id="패스_710-2" data-name="패스 710" d="M-311.331-52.33a.766.766,0,0,1-.765.765h0a.766.766,0,0,1-.765-.765V-80.2a.766.766,0,0,1,.765-.765h0a.766.766,0,0,1,.765.765Z" transform="translate(312.862 80.969)" fill="#00537f"/>
      <path id="패스_711-2" data-name="패스 711" d="M-303.82-52.33a.766.766,0,0,1-.765.765h0a.765.765,0,0,1-.765-.765V-80.2a.765.765,0,0,1,.765-.765h0a.766.766,0,0,1,.765.765Z" transform="translate(319.441 80.969)" fill="#00537f"/>
    </g>
    <g id="그룹_246-2" data-name="그룹 246" transform="translate(0 0)">
      <path id="패스_712-2" data-name="패스 712" d="M-283.376-35.933s.306-4.592,12.863-20.214,12.021-28.41,12.021-28.41A33.842,33.842,0,0,0-292.334-118.4h-.765a33.843,33.843,0,0,0-33.842,33.841s-.537,12.79,12.023,28.41,12.864,20.214,12.864,20.214Z" transform="translate(326.945 118.397)" fill="#f49f9f"/>
      <path id="패스_713-2" data-name="패스 713" d="M-296.971-35.933s.141-4.592,5.956-20.214a85.3,85.3,0,0,0,5.57-28.41c0-18.688-7.018-33.841-15.674-33.841h-.355c-8.656,0-15.674,15.152-15.674,33.841a85.324,85.324,0,0,0,5.568,28.41c5.816,15.621,5.958,20.214,5.958,20.214Z" transform="translate(335.526 118.397)" fill="#fff2cb"/>
    </g>
    <g id="그룹_247-2" data-name="그룹 247" transform="translate(22.443 90.735)">
      <path id="패스_714-2" data-name="패스 714" d="M-293.275-69.044v9.324a4.325,4.325,0,0,1-4.326,4.326h-12.376A4.326,4.326,0,0,1-314.3-59.72v-9.324Z" transform="translate(315.575 70.894)" fill="#ffb97c"/>
      <path id="패스_715-2" data-name="패스 715" d="M-291.409-68.861a1.171,1.171,0,0,1-1.171,1.171h-21.232a1.171,1.171,0,0,1-1.169-1.171h0a1.17,1.17,0,0,1,1.169-1.169h21.232a1.171,1.171,0,0,1,1.171,1.169Z" transform="translate(314.981 70.03)" fill="#d35c38"/>
    </g>
  </g>
  <path id="패스_19662" data-name="패스 19662" d="M1690.7,633.754a23.738,23.738,0,1,0-18.174-39,29.185,29.185,0,0,0-46.929-11.943,39.408,39.408,0,0,0-77.008,9.045,22.874,22.874,0,1,0-12.7,41.9Z" transform="translate(368.075 -230.847)" fill="url(#linear-gradient-2)"/>
  <path id="패스_19663" data-name="패스 19663" d="M1670.608,624.842a21.053,21.053,0,1,0-16.119-34.592,25.884,25.884,0,0,0-41.622-10.593,34.952,34.952,0,0,0-68.3,8.022,20.287,20.287,0,1,0-11.261,37.162Z" transform="translate(-744.963 -422.874)" fill="url(#linear-gradient-2)"/>
  <g id="구성_요소_69_1" data-name="구성 요소 69 – 1" transform="translate(749.708 249.067)">
    <path id="패스_19664" data-name="패스 19664" d="M2352.692,1972.18h926.454L2885.881,1582.9c-37.26-36.879-109.526-36.879-146.784,0l-33.289,32.952-118.6-117.395c-45.338-44.881-133.28-44.881-178.62,0L1891.1,1972.18Z" transform="translate(-1891.098 -1464.798)" fill="#ffe1a8"/>
  </g>
  <g id="그룹_7168" data-name="그룹 7168" transform="translate(957.763 269.067)">
    <g id="그룹_7159" data-name="그룹 7159" transform="translate(52.292 28.836)">
      <path id="패스_19665" data-name="패스 19665" d="M169.862,5.183C114.515,15.221,58.391,24.436,2,32.768c-.8-1.91-1.2-2.887-2-4.831C56.666,20.166,112.358,10.066,167.644,0,168.541,2.094,168.989,3.151,169.862,5.183Z" transform="translate(0 23.64) rotate(-8)" fill="#9f6225"/>
    </g>
    <g id="그룹_7160" data-name="그룹 7160" transform="translate(46.601 57.7)">
      <path id="패스_19666" data-name="패스 19666" d="M391.561,105.086c2.965-.662,4.445-1.014,7.392-1.746,1.456,6.226,2.186,9.514,3.642,16.068-2.947.806-4.427,1.2-7.389,1.943C393.747,114.685,393.017,111.336,391.561,105.086Z" transform="translate(-391.561 -103.34)" fill="#ffc512"/>
    </g>
    <g id="그룹_7161" data-name="그룹 7161" transform="translate(109.809 37.184)">
      <path id="패스_19667" data-name="패스 19667" d="M413.134,98.978c2.871-1.052,4.31-1.579,7.184-2.64,1.453,6.27,2.221,9.651,3.747,16.381-2.889.973-4.33,1.462-7.222,2.432C415.337,108.538,414.581,105.222,413.134,98.978Z" transform="translate(-413.134 -96.338)" fill="#ffc512"/>
    </g>
    <g id="그룹_7162" data-name="그룹 7162" transform="translate(171.892 15.242)">
      <path id="패스_19668" data-name="패스 19668" d="M434.323,91.46c2.895-1.023,4.342-1.553,7.24-2.611,1.456,6.285,2.271,9.982,3.894,17.3-2.895,1.058-4.345,1.582-7.24,2.608C436.6,101.439,435.779,97.744,434.323,91.46Z" transform="translate(-434.323 -88.849)" fill="#ffc512"/>
    </g>
    <g id="그룹_7163" data-name="그룹 7163" transform="translate(222.624)">
      <path id="패스_19669" data-name="패스 19669" d="M451.638,85.015c3-.636,4.509-.914,7.545-1.368,1.456,6.291,2.277,10.018,3.9,17.383-3.035.454-4.544.73-7.548,1.359C453.912,95.03,453.094,91.306,451.638,85.015Z" transform="translate(-451.638 -83.647)" fill="#ffc512"/>
    </g>
    <g id="그룹_7164" data-name="그룹 7164" transform="translate(0 71.512)">
      <path id="패스_19670" data-name="패스 19670" d="M390.654,115.939c-.363.026-.545.044-.911.076-3.636.4-16.956,2.763-13.528,19.317.806,3.885,1.21,5.772,2.01,9.238,21.579-1.4,39.552-4.96,60.328-10.9-2.3-9.859-3.46-15.274-5.763-25.617C416.244,112.508,407.867,114.453,390.654,115.939Z" transform="translate(-375.656 -108.054)" fill="url(#linear-gradient-4)"/>
    </g>
    <g id="그룹_7165" data-name="그룹 7165" transform="translate(191.47 14.749)">
      <path id="패스_19671" data-name="패스 19671" d="M482.482,88.874c.363-.059.545-.085.908-.138,3.639-.419,17.662,1.151,21.377,17.77.867,3.9,1.3,5.8,2.095,9.259-21.72,1.8-38.948,5.992-59.6,12.909-2.306-9.95-3.709-16.5-6.261-28C457.3,94.749,465.458,91.494,482.482,88.874Z" transform="translate(-441.005 -88.681)" fill="url(#linear-gradient-5)"/>
    </g>
    <g id="그룹_7166" data-name="그룹 7166" transform="translate(65.695 51.248)">
      <path id="패스_19672" data-name="패스 19672" d="M458.567,127.332c-18.371,5.2-36.639,10.791-54.723,16.923-2.3-9.845-3.457-15.092-5.766-25.256,18.342-5.435,36.446-11.611,54.518-17.861C455,111.75,456.267,117.408,458.567,127.332Z" transform="translate(-398.078 -101.138)" fill="url(#linear-gradient-6)"/>
    </g>
    <g id="그룹_7167" data-name="그룹 7167" transform="translate(128.06 30.026)">
      <path id="패스_19673" data-name="패스 19673" d="M480.031,121.873c-17.949,6.519-36.258,11.966-54.623,17.161-2.309-9.974-3.6-15.8-6.044-26.613,18.11-6.258,36.338-12.162,54.409-18.526C476.324,105.386,477.725,111.926,480.031,121.873Z" transform="translate(-419.363 -93.895)" fill="url(#linear-gradient-7)"/>
    </g>
  </g>
  <g id="그룹_7243" data-name="그룹 7243" transform="translate(871.73 309.849)">
    <g id="그룹_7169" data-name="그룹 7169" transform="translate(0.003 0.553)">
      <path id="패스_19674" data-name="패스 19674" d="M536.9,214.788c-18.535,0-37.88-3.8-59.483-11.071-61.543-20.7-128.946-32.369-129.62-32.484a6.224,6.224,0,0,1,2.1-12.269c.682.117,69.036,11.951,131.482,32.955,63.358,21.314,104.28,11.2,168.4-41.576C719.456,92.986,758.4,94.837,760.034,94.934a6.223,6.223,0,0,1-.812,12.42c-.289.005-36.354-1.052-101.532,52.6C611.929,197.623,576.249,214.788,536.9,214.788Z" transform="translate(-342.623 -94.908)" fill="#d0a56c"/>
    </g>
    <path id="합치기_2" data-name="합치기 2" d="M419.47,169.152v-9.867H401.7v9.867h-3.657V12.565c-10.033-.122-23.343-.123-38.03.3V169.152h-3.759v-9.867H338.478v9.867h-3.657V14.009c-13.474.851-27.193,2.144-39.933,4.074v151.07H291.13v-9.867H273.356v9.867H269.7V23.218c-2.849.777-5.57,1.61-8.137,2.5-7.515,2.6-15.572,5.491-24.035,8.524l-6.3,2.258V169.152h-3.76v-9.867H209.692v9.867h-3.657V45.389c-12.344,4.265-25.1,8.5-37.988,12.392V169.152h-3.76v-9.867H146.515v9.867h-3.657V64.857c-13.278,3.416-26.522,6.276-39.448,8.258v96.037H99.651v-9.867H81.877v9.867H78.219V75.8q-2.469.135-4.907.211c-13.271.413-23.971.69-32.593.871v92.268H36.958v-9.867H19.187v9.867H15.529V77.185c-7.837-.023-9.789-.226-10.135-.272A6.223,6.223,0,1,1,7.06,64.578c.2.015,8.791.77,65.867-1.005,50.221-1.555,111.312-23.452,160.4-41.048,8.507-3.049,16.6-5.948,24.155-8.569C308.857-3.859,412.87.384,417.275.573a6.222,6.222,0,0,1,5.949,6.483,6.157,6.157,0,0,1-.073.719h.08V169.152ZM401.7,155.82H419.47v-9.962H401.7Zm-63.22,0h17.774v-9.962H338.478Zm-65.122,0H291.13v-9.964H273.356Zm-63.664,0h17.772v-9.964H209.692Zm-63.177,0h17.772v-9.964H146.515Zm-64.638,0H99.651v-9.964H81.877Zm-62.69,0H36.958v-9.964H19.187ZM401.7,142.467H419.47v-12.2H401.7Zm-63.22,0h17.774v-11.6H338.478Zm-65.122,0H291.13V132.5H273.356Zm-63.664,0h17.772V132.5H209.692Zm-63.177,0h17.772V132.5H146.515Zm-64.638,0H99.651V132.5H81.877Zm-62.69,0H36.958V132.5H19.187Zm254.17-13.353H291.13V119.15H273.356Zm-63.664,0h17.772V119.15H209.692Zm-63.177,0h17.772V119.15H146.515Zm-64.638,0H99.651V119.15H81.877Zm-62.69,0H36.958V119.15H19.187Zm319.291-1.634h17.774V116.921H338.478Zm63.22-.606H419.47V116.095H401.7ZM273.356,115.759H291.13v-9.811H273.356Zm-63.664,0h17.772v-9.811H209.692Zm-63.177,0h17.772v-9.811H146.515Zm-64.638,0H99.651v-9.811H81.877Zm-62.69,0H36.958v-9.811H19.187Zm319.291-2.229h17.774v-10.4H338.478Zm63.22-.827H419.47v-10.62H401.7ZM273.356,102.4H291.13V92.44H273.356Zm-63.664,0h17.772V92.44H209.692Zm-63.177,0h17.772V92.44H146.515Zm-64.638,0H99.651V92.44H81.877Zm-62.69,0H36.958V92.44H19.187Zm319.291-2.821h17.774V89.021H338.478Zm63.22-1.045H419.47V87.753H401.7ZM273.356,89.048H291.13V79.24H273.356Zm-63.664,0h17.772V79.24H209.692Zm-63.177,0h17.772V79.24H146.515Zm-64.638,0H99.651V79.082H81.877Zm-62.69,0H36.958V79.087H19.187ZM338.478,85.63h17.774v-10.4H338.478Zm63.22-1.268H419.47V73.746H401.7ZM273.356,75.849H291.13V65.882H273.356Zm-63.664,0h17.772V65.882H209.692Zm-63.177,0h17.772V65.882H146.515Zm-64.638-.157H99.651V73.667c-6.009.844-11.946,1.491-17.774,1.905Zm256.6-3.851h17.774V61.279H338.478Zm63.22-1.487H419.47V59.571H401.7ZM273.356,62.489H291.13V52.68H273.356Zm-63.664,0h17.772V52.68H209.692Zm-45.405,0V58.907q-6.252,1.852-12.532,3.582Zm174.191-4.6h17.774v-10.4H338.478ZM401.7,56.18H419.47V45.565H401.7ZM273.356,49.289H291.13V39.323H273.356Zm-63.664,0h17.772V39.481h-4.6q-6.49,2.306-13.176,4.64ZM338.478,44.1h17.774V32.685H338.478Zm63.22-1.927H419.47V30.224H401.7ZM273.356,35.932H291.13V26.121H273.356Zm65.122-6.638h17.774V19.485H338.478Zm63.22-2.46H419.47V17.025H401.7Zm-128.342-4.1H291.13V18.676c-6.245,1.026-12.224,2.215-17.773,3.591Zm65.122-6.636h17.774v-3.11c-5.779.194-11.739.456-17.774.8Zm63.22-2.461H419.47V12.483a6.308,6.308,0,0,1-2.729.524c-.242-.011-5.887-.242-15.042-.39Z" transform="translate(0 0)" stroke="rgba(0,0,0,0)" stroke-width="1" fill="url(#linear-gradient-8)"/>
  </g>
  <path id="패스_19676" data-name="패스 19676" d="M1690.7,633.754a23.738,23.738,0,1,0-18.174-39,29.185,29.185,0,0,0-46.929-11.943,39.408,39.408,0,0,0-77.008,9.045,22.874,22.874,0,1,0-12.7,41.9Z" transform="translate(-1484.157 -318.538)" fill="url(#linear-gradient-2)"/>
  <ellipse id="타원_501" data-name="타원 501" cx="5.422" cy="5.422" rx="5.422" ry="5.422" transform="translate(1827.267 181.141) rotate(-76.718)" fill="#fffef3"/>
  <ellipse id="타원_502" data-name="타원 502" cx="10.366" cy="10.366" rx="10.366" ry="10.366" transform="translate(1165.781 181.749) rotate(-76.718)" fill="#fffef3"/>
  <ellipse id="타원_503" data-name="타원 503" cx="6.26" cy="6.26" rx="6.26" ry="6.26" transform="translate(445.804 95.551) rotate(-76.718)" fill="#fffef3"/>
  <ellipse id="타원_504" data-name="타원 504" cx="10.373" cy="10.373" rx="10.373" ry="10.373" transform="translate(1358.382 115.908) rotate(-76.718)" fill="#fffef3"/>
  <ellipse id="타원_506" data-name="타원 506" cx="6.26" cy="6.26" rx="6.26" ry="6.26" transform="translate(752.994 314.47) rotate(-76.718)" fill="#fffef3"/>
  <ellipse id="타원_502-2" data-name="타원 502" cx="9.26" cy="9.26" rx="9.26" ry="9.26" transform="translate(1761.521 286.306) rotate(-76.718)" fill="#fffef3"/>
  <ellipse id="타원_531" data-name="타원 531" cx="10.26" cy="10.26" rx="10.26" ry="10.26" transform="translate(510.06 109.553) rotate(-76.718)" fill="#fffef3"/>
  <ellipse id="타원_532" data-name="타원 532" cx="10.26" cy="10.26" rx="10.26" ry="10.26" transform="translate(298.419 282.573) rotate(-76.718)" fill="#fffef3"/>
  <ellipse id="타원_533" data-name="타원 533" cx="6.26" cy="6.26" rx="6.26" ry="6.26" transform="translate(1407.286 174.233) rotate(-76.718)" fill="#fffef3"/>
  <ellipse id="타원_534" data-name="타원 534" cx="6.26" cy="6.26" rx="6.26" ry="6.26" transform="translate(937.524 280.467) rotate(-76.718)" fill="#fffef3"/>
  <ellipse id="타원_535" data-name="타원 535" cx="9.264" cy="9.264" rx="9.264" ry="9.264" transform="translate(212.419 181.289) rotate(-76.718)" fill="#fffef3"/>
</svg>
