<svg id="구성_요소_121_1" data-name="구성 요소 121 – 1" xmlns="http://www.w3.org/2000/svg" xmlns:xlink="http://www.w3.org/1999/xlink" width="2088.74" height="1277.167" viewBox="0 0 2088.74 1277.167">
  <defs>
    <linearGradient id="linear-gradient" x1="0.5" x2="0.5" y2="1" gradientUnits="objectBoundingBox">
      <stop offset="0" stop-color="#fff"/>
      <stop offset="0.158" stop-color="#bdf0dd"/>
      <stop offset="1" stop-color="#76efd7"/>
    </linearGradient>
    <linearGradient id="linear-gradient-2" x1="0.5" y1="1" x2="0.5" gradientUnits="objectBoundingBox">
      <stop offset="0" stop-color="#fff"/>
      <stop offset="0.276" stop-color="#fafbfc"/>
      <stop offset="0.492" stop-color="#fffef3"/>
      <stop offset="1" stop-color="#fff"/>
    </linearGradient>
    <linearGradient id="linear-gradient-5" x1="0.5" x2="0.5" y2="1" gradientUnits="objectBoundingBox">
      <stop offset="0" stop-color="#95a2c7"/>
      <stop offset="1" stop-color="#656f8d"/>
    </linearGradient>
    <linearGradient id="linear-gradient-7" x1="0.5" x2="0.5" y2="1" gradientUnits="objectBoundingBox">
      <stop offset="0" stop-color="#ffd034"/>
      <stop offset="1" stop-color="#ff720b"/>
    </linearGradient>
  </defs>
  <rect id="사각형_699" data-name="사각형 699" width="1991.56" height="1277.167" transform="translate(49.003)" opacity="0.355" fill="url(#linear-gradient)"/>
  <g id="구성_요소_52_1" data-name="구성 요소 52 – 1" transform="translate(21.493 152.721)">
    <path id="패스_12119" data-name="패스 12119" d="M1733.284,652.641a29.427,29.427,0,1,0-22.53-48.35,36.18,36.18,0,0,0-58.176-14.806,48.853,48.853,0,0,0-95.463,11.213,28.356,28.356,0,1,0-15.74,51.943Z" transform="translate(-1513.019 -554.946)" fill="url(#linear-gradient-2)"/>
  </g>
  <path id="패스_12120" data-name="패스 12120" d="M1651.04,616.163a18.439,18.439,0,1,0-14.118-30.3,22.67,22.67,0,0,0-36.454-9.277,30.612,30.612,0,0,0-59.818,7.026,17.769,17.769,0,1,0-9.863,32.548Z" transform="translate(-744.059 -272.299)" fill="url(#linear-gradient-2)"/>
  <ellipse id="타원_346" data-name="타원 346" cx="4.346" cy="4.346" rx="4.346" ry="4.346" transform="translate(1765.496 159.325) rotate(-76.718)" fill="#fffef3"/>
  <g id="구성_요소_49_1" data-name="구성 요소 49 – 1" transform="translate(789.7 211.756)">
    <path id="패스_12121" data-name="패스 12121" d="M2323.092,1972.18h867.045L2822.091,1582.9c-34.871-36.879-102.5-36.879-137.371,0l-31.154,32.952-110.994-117.395c-42.431-44.881-124.734-44.881-167.166,0L1891.1,1972.18Z" transform="translate(-1891.098 -1464.798)" fill="#c1eae5" opacity="0.649"/>
  </g>
  <g id="구성_요소_48_1" data-name="구성 요소 48 – 1" transform="translate(0 196.921)">
    <path id="패스_12122" data-name="패스 12122" d="M1465.212,2236.363l-385.154-494.016c-36.49-46.8-107.265-46.8-143.754,0L551.149,2236.363Z" transform="translate(-551.149 -1707.244)" fill="#c1eae5" opacity="0.649"/>
  </g>
  <g id="그룹_857" data-name="그룹 857" transform="translate(233.226 128.289)" opacity="0.491">
    <g id="그룹_245" data-name="그룹 245" transform="translate(19.665 50.963)">
      <path id="패스_710" data-name="패스 710" d="M-311.556-56.54a.654.654,0,0,1-.653.653h0a.654.654,0,0,1-.653-.653V-80.316a.654.654,0,0,1,.653-.653h0a.654.654,0,0,1,.653.653Z" transform="translate(312.862 80.969)" fill="#00537f"/>
      <path id="패스_711" data-name="패스 711" d="M-304.045-56.54a.653.653,0,0,1-.653.653h0a.653.653,0,0,1-.653-.653V-80.316a.653.653,0,0,1,.653-.653h0a.653.653,0,0,1,.653.653Z" transform="translate(317.37 80.969)" fill="#00537f"/>
    </g>
    <g id="그룹_246" data-name="그룹 246">
      <path id="패스_712" data-name="패스 712" d="M-293.434-56.985s.235-3.42,9.894-15.053,9.246-21.157,9.246-21.157c0-13.918-11.653-25.2-26.03-25.2h-.589c-14.376,0-26.03,11.284-26.03,25.2,0,0-.413,9.525,9.247,21.157s9.894,15.053,9.894,15.053Z" transform="translate(326.945 118.397)" fill="#f49f9f"/>
      <path id="패스_713" data-name="패스 713" d="M-299.937-56.985s.12-3.42,5.081-15.053A56.328,56.328,0,0,0-290.105-93.2c0-13.918-5.986-25.2-13.37-25.2h-.3c-7.383,0-13.37,11.284-13.37,25.2a56.341,56.341,0,0,0,4.75,21.157c4.961,11.633,5.082,15.053,5.082,15.053Z" transform="translate(329.954 118.397)" fill="#fff2cb"/>
    </g>
    <g id="그룹_247" data-name="그룹 247" transform="translate(16.274 68.468)">
      <path id="패스_714" data-name="패스 714" d="M-296.366-69.044v7.953a3.689,3.689,0,0,1-3.69,3.69h-10.557a3.69,3.69,0,0,1-3.69-3.69v-7.953Z" transform="translate(315.388 70.622)" fill="#ffb97c"/>
      <path id="패스_715" data-name="패스 715" d="M-294.874-69.033a1,1,0,0,1-1,1h-18.111a1,1,0,0,1-1-1h0a1,1,0,0,1,1-1h18.111a1,1,0,0,1,1,1Z" transform="translate(314.981 70.03)" fill="#d35c38"/>
    </g>
  </g>
  <path id="패스_12123" data-name="패스 12123" d="M1677.541,627.917a21.98,21.98,0,1,0-16.828-36.114,27.023,27.023,0,0,0-43.453-11.059,36.489,36.489,0,0,0-71.3,8.375,21.18,21.18,0,1,0-11.757,38.8Z" transform="translate(389.219 -244.313)" fill="url(#linear-gradient-2)"/>
  <g id="그룹_858" data-name="그룹 858" transform="translate(1369.918 293.306)">
    <g id="그룹_245-2" data-name="그룹 245" transform="translate(22.455 59.681)">
      <path id="패스_710-2" data-name="패스 710" d="M-311.561-56.626a.651.651,0,0,1-.65.651h0a.651.651,0,0,1-.651-.651V-80.318a.651.651,0,0,1,.651-.651h0a.651.651,0,0,1,.65.651Z" transform="translate(312.862 80.969)" fill="#00537f"/>
      <path id="패스_711-2" data-name="패스 711" d="M-304.05-56.626a.651.651,0,0,1-.65.651h0a.65.65,0,0,1-.651-.651V-80.318a.65.65,0,0,1,.651-.651h0a.651.651,0,0,1,.65.651Z" transform="translate(317.328 80.969)" fill="#00537f"/>
    </g>
    <g id="그룹_246-2" data-name="그룹 246" transform="translate(-0.001 0)">
      <path id="패스_712-2" data-name="패스 712" d="M-289.911-48.3s.26-3.9,10.934-17.181,10.218-24.148,10.218-24.148A28.765,28.765,0,0,0-297.526-118.4h-.651a28.766,28.766,0,0,0-28.766,28.764s-.456,10.872,10.219,24.148S-305.788-48.3-305.788-48.3Z" transform="translate(326.945 118.397)" fill="#f49f9f"/>
      <path id="패스_713-2" data-name="패스 713" d="M-300-48.3s.12-3.9,5.063-17.181A72.508,72.508,0,0,0-290.2-89.633c0-15.885-5.965-28.764-13.323-28.764h-.3c-7.357,0-13.322,12.879-13.322,28.764a72.523,72.523,0,0,0,4.733,24.148c4.943,13.278,5.064,17.181,5.064,17.181Z" transform="translate(332.769 118.397)" fill="#fff2cb"/>
    </g>
    <g id="그룹_247-2" data-name="그룹 247" transform="translate(19.076 77.124)">
      <path id="패스_714-2" data-name="패스 714" d="M-296.429-69.044v7.925a3.676,3.676,0,0,1-3.677,3.677h-10.519a3.677,3.677,0,0,1-3.677-3.677v-7.925Z" transform="translate(315.384 70.616)" fill="#ffb97c"/>
      <path id="패스_715-2" data-name="패스 715" d="M-294.945-69.037a1,1,0,0,1-1,1h-18.047a1,1,0,0,1-.993-1h0a1,1,0,0,1,.993-.993h18.047a1,1,0,0,1,1,.993Z" transform="translate(314.981 70.03)" fill="#d35c38"/>
    </g>
  </g>
  <ellipse id="타원_351" data-name="타원 351" cx="4.147" cy="4.147" rx="4.147" ry="4.147" transform="translate(689.524 301.377) rotate(-76.718)" fill="#fffef3"/>
  <g id="그룹_867" data-name="그룹 867" transform="matrix(1, -0.017, 0.017, 1, 854.066, 122.064)">
    <g id="그룹_859" data-name="그룹 859" transform="translate(156.828 18.043)">
      <path id="패스_12125" data-name="패스 12125" d="M-101.155,37.255a3.831,3.831,0,0,0-4.229,3.311l-16.706,283.247a3.74,3.74,0,0,0,3.5,4,3.828,3.828,0,0,0,4.231-3.306l16.7-283.253A3.738,3.738,0,0,0-101.155,37.255Z" transform="translate(122.106 -37.239)" fill="url(#linear-gradient-5)"/>
      <path id="패스_12126" data-name="패스 12126" d="M-102.591,40.762a3.817,3.817,0,0,0-4.112-3.439,3.757,3.757,0,0,0-3.64,3.891l9.882,283.675a3.814,3.814,0,0,0,4.112,3.439,3.756,3.756,0,0,0,3.637-3.891Z" transform="translate(138.837 -37.129)" fill="url(#linear-gradient-5)"/>
    </g>
    <path id="패스_12129" data-name="패스 12129" d="M-47.726,167.144a4.578,4.578,0,0,1-4.648,4.5l-72.593-1.166a4.571,4.571,0,0,1-4.5-4.648h0a4.57,4.57,0,0,1,4.653-4.5l72.585,1.163a4.574,4.574,0,0,1,4.5,4.645Z" transform="translate(268.457 132.205)" fill="#ffbd46"/>
    <path id="패스_12130" data-name="패스 12130" d="M-27.351,171.02a4.578,4.578,0,0,1-4.65,4.5l-98.335-1.58a4.579,4.579,0,0,1-4.5-4.65h0a4.57,4.57,0,0,1,4.643-4.5l98.344,1.578a4.573,4.573,0,0,1,4.5,4.653Z" transform="translate(260.816 137.121)" fill="#ff912b"/>
    <g id="그룹_866" data-name="그룹 866" transform="translate(0 19.273)">
      <g id="그룹_863" data-name="그룹 863" transform="translate(0 88.078)">
        <g id="그룹_860" data-name="그룹 860" transform="translate(11.125 0)">
          <path id="합치기_1" data-name="합치기 1" d="M102.853,125.126,21.03,97.86C-9.016,66.119,1.954,31.443,1.954,31.443L6.035,0,17.743,1.229,18.781,18.74,97.046,44.813l8.765,32.1,11.8,3.932,11.79,3.932,26.265-20.435,78.273,26.073,11.328-13.388,10.1,6.038L239.768,110.67S227.757,145,184.681,152.386Z" transform="translate(0)" stroke="rgba(0,0,0,0)" stroke-width="1" fill="url(#linear-gradient-7)"/>
        </g>
        <g id="그룹_861" data-name="그룹 861" transform="translate(0 32.104)">
          <path id="패스_12133" data-name="패스 12133" d="M-177.54,87.7a7.059,7.059,0,0,0-8.922,4.466A7.066,7.066,0,0,0-182,101.1l122.027,40.645,4.292-6,.165-7.386Z" transform="translate(186.825 -87.342)" fill="#ffe25c"/>
          <path id="패스_12134" data-name="패스 12134" d="M-8,144.917l-122.017-40.652-4.456,13.391,122.01,40.65a7.055,7.055,0,0,0,8.92-4.461A7.046,7.046,0,0,0-8,144.917Z" transform="translate(261.326 -63.256)" fill="#ffc04d"/>
        </g>
        <g id="그룹_862" data-name="그룹 862" transform="translate(39.958 66.919)">
          <path id="패스_12135" data-name="패스 12135" d="M-159.229,109.211a5.705,5.705,0,0,1-7.209,3.6,5.709,5.709,0,0,1-3.6-7.212,5.7,5.7,0,0,1,7.209-3.6A5.693,5.693,0,0,1-159.229,109.211Z" transform="translate(170.335 -101.709)" fill="#fff29b"/>
          <path id="패스_12136" data-name="패스 12136" d="M-137.977,116.289a5.692,5.692,0,0,1-7.209,3.606,5.7,5.7,0,0,1-3.6-7.207,5.694,5.694,0,0,1,7.2-3.608A5.7,5.7,0,0,1-137.977,116.289Z" transform="translate(200.579 -91.637)" fill="#fff29b"/>
          <path id="패스_12137" data-name="패스 12137" d="M-116.729,123.365a5.709,5.709,0,0,1-7.212,3.613,5.7,5.7,0,0,1-3.6-7.212,5.7,5.7,0,0,1,7.207-3.608A5.7,5.7,0,0,1-116.729,123.365Z" transform="translate(230.823 -81.56)" fill="#fff29b"/>
          <path id="패스_12138" data-name="패스 12138" d="M-95.482,130.445a5.685,5.685,0,0,1-7.2,3.606,5.707,5.707,0,0,1-3.611-7.2,5.709,5.709,0,0,1,7.212-3.608A5.7,5.7,0,0,1-95.482,130.445Z" transform="translate(261.064 -71.486)" fill="#fff29b"/>
        </g>
        <path id="패스_12139" data-name="패스 12139" d="M54.97,169.8a.816.816,0,0,1-1.027.519L-181.893,91.751a.821.821,0,0,1-.516-1.035h0a.813.813,0,0,1,1.027-.509L54.457,168.771a.808.808,0,0,1,.514,1.032Z" transform="translate(193.049 -51.221)" fill="#fff"/>
      </g>
      <g id="그룹_864" data-name="그룹 864" transform="translate(51.093)">
        <path id="패스_12140" data-name="패스 12140" d="M-164.579,154.165a1.709,1.709,0,0,1-.729-.487,1.686,1.686,0,0,1,.141-2.392L-37.876,38.167a1.7,1.7,0,0,1,2.392.148,1.69,1.69,0,0,1-.138,2.392L-162.917,153.826A1.691,1.691,0,0,1-164.579,154.165Z" transform="translate(165.74 -37.746)" fill="#c9c9c9"/>
        <path id="패스_12141" data-name="패스 12141" d="M-74.789,208.985a1.7,1.7,0,0,0,.875.053,1.7,1.7,0,0,0,1.323-2L-106.616,40.18a1.7,1.7,0,0,0-2-1.323,1.7,1.7,0,0,0-1.323,2l34.029,166.856A1.69,1.69,0,0,0-74.789,208.985Z" transform="translate(245.106 -36.214)" fill="#c9c9c9"/>
      </g>
      <g id="그룹_865" data-name="그룹 865" transform="translate(46.927 108.518)">
        <path id="패스_12142" data-name="패스 12142" d="M-154.788,91.091a6.5,6.5,0,0,1-8.224,4.11,6.507,6.507,0,0,1-4.115-8.222,6.513,6.513,0,0,1,8.227-4.117A6.5,6.5,0,0,1-154.788,91.091Z" transform="translate(167.459 -82.529)" fill="#ffe38d"/>
        <path id="패스_12143" data-name="패스 12143" d="M-85.508,114.165a6.505,6.505,0,0,1-8.222,4.12,6.5,6.5,0,0,1-4.115-8.227,6.5,6.5,0,0,1,8.217-4.115A6.51,6.51,0,0,1-85.508,114.165Z" transform="translate(266.059 -49.682)" fill="#ffe38d"/>
      </g>
    </g>
    <path id="패스_12127" data-name="패스 12127" d="M-80.305,49.545a19.442,19.442,0,0,1-19.747,19.127,19.443,19.443,0,0,1-19.131-19.747A19.447,19.447,0,0,1-99.432,29.8,19.444,19.444,0,0,1-80.305,49.545Z" transform="translate(283.09 -29.793)" fill="#ffc84d"/>
    <path id="패스_12128" data-name="패스 12128" d="M-90.286,45.749a13.158,13.158,0,0,1-13.362,12.942,13.157,13.157,0,0,1-12.94-13.364A13.152,13.152,0,0,1-103.231,32.39,13.155,13.155,0,0,1-90.286,45.749Z" transform="translate(286.785 -26.099)" fill="#fff"/>
    <path id="패스_12144" data-name="패스 12144" d="M-101.177,41.605A6.293,6.293,0,0,1-107.57,47.8a6.291,6.291,0,0,1-6.189-6.395,6.291,6.291,0,0,1,6.395-6.179A6.288,6.288,0,0,1-101.177,41.605Z" transform="translate(290.813 -22.067)" fill="#ff912b"/>
  </g>
  <ellipse id="타원_412" data-name="타원 412" cx="5.338" cy="5.338" rx="5.338" ry="5.338" transform="translate(1545.827 138.68) rotate(-76.718)" fill="#fffef3"/>
  <ellipse id="타원_457" data-name="타원 457" cx="7.147" cy="7.147" rx="7.147" ry="7.147" transform="translate(137.741 320.182) rotate(-76.718)" fill="#fffef3"/>
  <ellipse id="타원_458" data-name="타원 458" cx="5.768" cy="5.768" rx="5.768" ry="5.768" transform="translate(1666.37 239.125) rotate(-76.718)" fill="#fffef3"/>
  <ellipse id="타원_459" data-name="타원 459" cx="9.346" cy="9.346" rx="9.346" ry="9.346" transform="translate(1416.861 110.563) rotate(-76.718)" fill="#fffef3"/>
  <ellipse id="타원_460" data-name="타원 460" cx="11.846" cy="11.846" rx="11.846" ry="11.846" transform="translate(1843.87 293.67) rotate(-76.718)" fill="#fffef3"/>
  <g id="구성_요소_53_1" data-name="구성 요소 53 – 1" transform="translate(605.488 165.07)">
    <ellipse id="타원_461" data-name="타원 461" cx="5.338" cy="5.338" rx="5.338" ry="5.338" transform="translate(0 10.391) rotate(-76.718)" fill="#fffef3"/>
  </g>
  <ellipse id="타원_519" data-name="타원 519" cx="6.346" cy="6.346" rx="6.346" ry="6.346" transform="translate(803.384 165.074) rotate(-76.718)" fill="#fffef3"/>
</svg>
