<svg id="구성_요소_100_1" data-name="구성 요소 100 – 1" xmlns="http://www.w3.org/2000/svg" width="48.58" height="48.58" viewBox="0 0 48.58 48.58">
  <ellipse id="타원_30" data-name="타원 30" cx="24.29" cy="24.29" rx="24.29" ry="24.29" fill="#262626"/>
  <g id="그룹_69" data-name="그룹 69" transform="translate(15.564 11.574)">
    <path id="패스_676" data-name="패스 676" d="M293.793,211.68a4.594,4.594,0,0,1,2.315-4.177,5.068,5.068,0,0,0-3.923-2.176,5.608,5.608,0,0,0-2.358.44,11.568,11.568,0,0,1-1.737.571,5.213,5.213,0,0,1-1.566-.483,5.3,5.3,0,0,0-1.972-.484,4.884,4.884,0,0,0-2.552.758,5.428,5.428,0,0,0-1.886,2.011,7.52,7.52,0,0,0-.9,3.781,12.366,12.366,0,0,0,.664,3.957,13.336,13.336,0,0,0,1.587,3.318,10.693,10.693,0,0,0,1.5,1.891,2.515,2.515,0,0,0,1.888.879,4.763,4.763,0,0,0,1.629-.462,4.646,4.646,0,0,1,1.887-.416,4.5,4.5,0,0,1,1.823.416,4.685,4.685,0,0,0,1.715.44,2.839,2.839,0,0,0,1.844-.856,5.222,5.222,0,0,0,.653-.726q.354-.462.783-1.1.3-.461.59-.989a9.913,9.913,0,0,0,.525-1.121q.106-.242.193-.494c.057-.168.114-.34.171-.516a4.877,4.877,0,0,1-2.872-4.461Z" transform="translate(-279.213 -200.031)" fill="#fff"/>
    <path id="패스_677" data-name="패스 677" d="M423.444,123a4.85,4.85,0,0,0,1.137-3.078V119.7a1.156,1.156,0,0,0-.021-.22,4.189,4.189,0,0,0-1.683.505,4.667,4.667,0,0,0-1.469,1.165,4.551,4.551,0,0,0-1.158,2.968v.208a1.117,1.117,0,0,0,.021.21A3.548,3.548,0,0,0,423.444,123Z" transform="translate(-411.566 -119.479)" fill="#fff"/>
  </g>
</svg>
